<svg viewBox="0 0 24 24" fill="none" xmlns="http://www.w3.org/2000/svg">
<path d="M6 8.49649V13.9108C6 14.7437 6.67934 15.4151 7.50991 15.477C8.01608 15.5147 8.56248 15.5783 9 15.6852C9.83655 15.8896 10.8826 16.4009 11.4926 16.7223C11.8094 16.8892 12.1906 16.8892 12.5074 16.7223C13.1174 16.4009 14.1634 15.8896 15 15.6852C15.4375 15.5783 15.9839 15.5147 16.4901 15.477C17.3207 15.4151 18 14.7437 18 13.9108V8.45154C18 7.64543 17.3619 6.98216 16.5568 7.0217C15.9405 7.05197 15.2404 7.12099 14.7 7.27079C13.9685 7.47356 13.0752 7.95027 12.5219 8.27042C12.1976 8.4581 11.7964 8.46735 11.4646 8.29318C10.851 7.9711 9.8239 7.4721 9 7.27079C8.55592 7.16228 7.99967 7.09844 7.48717 7.06091C6.66539 7.00074 6 7.67251 6 8.49649Z" fill="#896FCA"/>
<path d="M16.5568 7.0217L16.52 6.2726V6.2726L16.5568 7.0217ZM14.7 7.27079L14.4997 6.54804V6.54804L14.7 7.27079ZM12.5219 8.27042L12.1463 7.62125V7.62125L12.5219 8.27042ZM7.48717 7.06091L7.4324 7.80891L7.48717 7.06091ZM9 7.27079L8.82199 7.99936V7.99936L9 7.27079ZM11.4646 8.29318L11.116 8.95725V8.95725L11.4646 8.29318ZM12.5074 16.7223L12.857 17.3858V17.3858L12.5074 16.7223ZM15 15.6852L14.822 14.9566V14.9566L15 15.6852ZM16.4901 15.477L16.5459 16.2249H16.5459L16.4901 15.477ZM11.4926 16.7223L11.143 17.3858V17.3858L11.4926 16.7223ZM9 15.6852L9.17801 14.9566V14.9566L9 15.6852ZM7.50991 15.477L7.45414 16.2249H7.45414L7.50991 15.477ZM6 13.9108H6.75V8.49649H6H5.25V13.9108H6ZM18 13.9108H18.75V8.45154H18H17.25V13.9108H18ZM16.5568 7.0217L16.52 6.2726C15.8904 6.30352 15.1227 6.37534 14.4997 6.54804L14.7 7.27079L14.9003 7.99353C15.3582 7.86663 15.9907 7.80041 16.5935 7.7708L16.5568 7.0217ZM14.7 7.27079L14.4997 6.54804C13.6675 6.77873 12.7018 7.29984 12.1463 7.62125L12.5219 8.27042L12.8975 8.91959C13.4487 8.6007 14.2696 8.16839 14.9003 7.99353L14.7 7.27079ZM7.48717 7.06091L7.4324 7.80891C7.9319 7.84548 8.43898 7.90577 8.82199 7.99936L9 7.27079L9.17801 6.54222C8.67286 6.41879 8.06744 6.35139 7.54194 6.31291L7.48717 7.06091ZM9 7.27079L8.82199 7.99936C9.54804 8.17676 10.5035 8.63573 11.116 8.95725L11.4646 8.29318L11.8132 7.6291C11.1985 7.30646 10.0998 6.76744 9.17801 6.54222L9 7.27079ZM12.5074 16.7223L12.857 17.3858C13.4666 17.0647 14.4402 16.594 15.178 16.4138L15 15.6852L14.822 14.9566C13.8867 15.1851 12.7683 15.7371 12.1578 16.0588L12.5074 16.7223ZM15 15.6852L15.178 16.4138C15.5551 16.3216 16.0529 16.2617 16.5459 16.2249L16.4901 15.477L16.4343 14.7291C15.9149 14.7678 15.3199 14.835 14.822 14.9566L15 15.6852ZM11.4926 16.7223L11.8422 16.0588C11.2317 15.7371 10.1133 15.1851 9.17801 14.9566L9 15.6852L8.82199 16.4138C9.55979 16.594 10.5334 17.0647 11.143 17.3858L11.4926 16.7223ZM9 15.6852L9.17801 14.9566C8.68009 14.835 8.08508 14.7678 7.56568 14.7291L7.50991 15.477L7.45414 16.2249C7.94707 16.2617 8.44487 16.3216 8.82199 16.4138L9 15.6852ZM18 13.9108H17.25C17.25 14.3157 16.9097 14.6936 16.4343 14.7291L16.4901 15.477L16.5459 16.2249C17.7316 16.1365 18.75 15.1716 18.75 13.9108H18ZM18 8.45154H18.75C18.75 7.25695 17.7923 6.21011 16.52 6.2726L16.5568 7.0217L16.5935 7.7708C16.9314 7.7542 17.25 8.03391 17.25 8.45154H18ZM6 13.9108H5.25C5.25 15.1716 6.26836 16.1365 7.45414 16.2249L7.50991 15.477L7.56568 14.7291C7.09031 14.6936 6.75 14.3157 6.75 13.9108H6ZM12.5074 16.7223L12.1578 16.0588C12.0598 16.1104 11.9402 16.1104 11.8422 16.0588L11.4926 16.7223L11.143 17.3858C11.6786 17.6681 12.3214 17.6681 12.857 17.3858L12.5074 16.7223ZM12.5219 8.27042L12.1463 7.62125C12.0434 7.68078 11.9157 7.6829 11.8132 7.6291L11.4646 8.29318L11.116 8.95725C11.6772 9.2518 12.3517 9.23541 12.8975 8.91959L12.5219 8.27042ZM6 8.49649H6.75C6.75 8.06974 7.08277 7.78331 7.4324 7.80891L7.48717 7.06091L7.54194 6.31291C6.248 6.21817 5.25 7.27527 5.25 8.49649H6Z" fill="#896FCA"/>
<path d="M12 8.58545V16.9998" stroke="#896FCA" stroke-width="1.5"/>
<path d="M22 12C22 16.714 22 19.0711 20.5355 20.5355C19.0711 22 16.714 22 12 22C7.28595 22 4.92893 22 3.46447 20.5355C2 19.0711 2 16.714 2 12C2 7.28595 2 4.92893 3.46447 3.46447C4.92893 2 7.28595 2 12 2C16.714 2 19.0711 2 20.5355 3.46447C21.5093 4.43821 21.8356 5.80655 21.9449 8" stroke="#896FCA" stroke-width="1.5" stroke-linecap="round"/>
</svg>