<svg viewBox="0 0 24 24" fill="none" xmlns="http://www.w3.org/2000/svg">
<path opacity="0.5" d="M12 22C17.5228 22 22 17.5228 22 12C22 6.47715 17.5228 2 12 2C6.47715 2 2 6.47715 2 12C2 17.5228 6.47715 22 12 22Z" fill="#896FCA" stroke="#896FCA" stroke-width="1.5"/>
<path d="M16 14.0455V11.5488C16 9.40445 16 8.3323 15.4142 7.66615C14.8284 7 13.8856 7 12 7C10.1144 7 9.17157 7 8.58579 7.66615C8 8.3323 8 9.40445 8 11.5488V14.0455C8 15.5937 8 16.3679 8.32627 16.7062C8.48187 16.8675 8.67829 16.9688 8.88752 16.9958C9.32623 17.0522 9.83855 16.5425 10.8632 15.5229C11.3161 15.0722 11.5426 14.8469 11.8046 14.7875C11.9336 14.7583 12.0664 14.7583 12.1954 14.7875C12.4574 14.8469 12.6839 15.0722 13.1368 15.5229L13.1368 15.5229C14.1615 16.5425 14.6738 17.0522 15.1125 16.9958C15.3217 16.9688 15.5181 16.8675 15.6737 16.7062C16 16.3679 16 15.5937 16 14.0455Z" fill="#896FCA"/>
<path d="M13.1368 15.5229L13.6671 14.9926L13.6658 14.9913L13.1368 15.5229ZM12.1954 14.7875L12.0297 15.519H12.0297L12.1954 14.7875ZM10.8632 15.5229L11.3922 16.0546L11.3922 16.0546L10.8632 15.5229ZM11.8046 14.7875L11.9703 15.519H11.9703L11.8046 14.7875ZM8.32627 16.7062L7.78645 17.2268L7.78645 17.2268L8.32627 16.7062ZM8.88752 16.9958L8.98328 16.2519H8.98327L8.88752 16.9958ZM15.6737 16.7062L16.2136 17.2268V17.2268L15.6737 16.7062ZM13.1368 15.5229L12.6065 16.0533L12.6078 16.0546L13.1368 15.5229ZM15.1125 16.9958L15.0167 16.2519H15.0167L15.1125 16.9958ZM15.4142 7.66615L14.851 8.16142V8.16142L15.4142 7.66615ZM8.58579 7.66615L8.02257 7.17088L8.02257 7.17088L8.58579 7.66615ZM16 11.5488H15.25V14.0455H16H16.75V11.5488H16ZM8 14.0455H8.75V11.5488H8H7.25V14.0455H8ZM13.1368 15.5229L13.6658 14.9913C13.4497 14.7762 13.2508 14.5772 13.071 14.4293C12.8837 14.2752 12.6551 14.1227 12.3612 14.0561L12.1954 14.7875L12.0297 15.519C11.9978 15.5118 12.0135 15.5016 12.1181 15.5877C12.2302 15.6799 12.371 15.8189 12.6078 16.0546L13.1368 15.5229ZM10.8632 15.5229L11.3922 16.0546C11.629 15.8189 11.7698 15.6799 11.8819 15.5877C11.9865 15.5016 12.0022 15.5118 11.9703 15.519L11.8046 14.7875L11.6388 14.0561C11.3449 14.1227 11.1163 14.2752 10.929 14.4293C10.7492 14.5772 10.5503 14.7762 10.3342 14.9913L10.8632 15.5229ZM12.1954 14.7875L12.3612 14.0561C12.123 14.0021 11.877 14.0021 11.6388 14.0561L11.8046 14.7875L11.9703 15.519C11.9902 15.5145 12.0098 15.5145 12.0297 15.519L12.1954 14.7875ZM8 14.0455H7.25C7.25 14.8036 7.24918 15.4271 7.29414 15.9005C7.33649 16.3463 7.43101 16.8583 7.78645 17.2268L8.32627 16.7062L8.86609 16.1855C8.89526 16.2157 8.82664 16.1715 8.78742 15.7586C8.75082 15.3733 8.75 14.8356 8.75 14.0455H8ZM10.8632 15.5229L10.3342 14.9913C9.8084 15.5144 9.45894 15.8606 9.18822 16.0763C8.89201 16.3124 8.87234 16.2376 8.98328 16.2519L8.88752 16.9958L8.79176 17.7396C9.34141 17.8104 9.79726 17.509 10.123 17.2494C10.4743 16.9695 10.8933 16.5509 11.3922 16.0546L10.8632 15.5229ZM8.32627 16.7062L7.78645 17.2268C8.05246 17.5026 8.40243 17.6895 8.79176 17.7396L8.88752 16.9958L8.98327 16.2519C8.95415 16.2482 8.91129 16.2323 8.86609 16.1855L8.32627 16.7062ZM16 14.0455H15.25C15.25 14.8356 15.2492 15.3733 15.2126 15.7586C15.1734 16.1715 15.1047 16.2157 15.1339 16.1855L15.6737 16.7062L16.2136 17.2268C16.569 16.8583 16.6635 16.3463 16.7059 15.9005C16.7508 15.4271 16.75 14.8036 16.75 14.0455H16ZM13.1368 15.5229L12.6065 16.0532L12.6065 16.0533L13.1368 15.5229L13.6672 14.9926L13.6671 14.9926L13.1368 15.5229ZM13.1368 15.5229L12.6078 16.0546C13.1067 16.551 13.5257 16.9695 13.877 17.2494C14.2027 17.509 14.6586 17.8104 15.2082 17.7396L15.1125 16.9958L15.0167 16.2519C15.1277 16.2376 15.108 16.3124 14.8118 16.0763C14.5411 15.8606 14.1916 15.5144 13.6658 14.9913L13.1368 15.5229ZM15.6737 16.7062L15.1339 16.1855C15.0887 16.2323 15.0459 16.2482 15.0167 16.2519L15.1125 16.9958L15.2082 17.7396C15.5976 17.6895 15.9475 17.5026 16.2136 17.2268L15.6737 16.7062ZM12 7V7.75C12.9668 7.75 13.6063 7.75205 14.0812 7.82465C14.5236 7.89229 14.7149 8.00665 14.851 8.16142L15.4142 7.66615L15.9774 7.17088C15.5277 6.65951 14.9548 6.44078 14.3079 6.34188C13.6935 6.24795 12.9188 6.25 12 6.25V7ZM16 11.5488H16.75C16.75 10.4953 16.7512 9.63877 16.6716 8.96509C16.5904 8.27867 16.4149 7.6684 15.9774 7.17088L15.4142 7.66615L14.851 8.16142C14.9993 8.33006 15.1167 8.58893 15.182 9.1412C15.2488 9.70621 15.25 10.4579 15.25 11.5488H16ZM12 7V6.25C11.0812 6.25 10.3065 6.24795 9.69211 6.34188C9.04523 6.44078 8.47226 6.65951 8.02257 7.17088L8.58579 7.66615L9.149 8.16142C9.2851 8.00665 9.47642 7.89229 9.91881 7.82465C10.3937 7.75205 11.0332 7.75 12 7.75V7ZM8 11.5488H8.75C8.75 10.4579 8.75124 9.70621 8.81804 9.1412C8.88333 8.58893 9.00071 8.33006 9.149 8.16142L8.58579 7.66615L8.02257 7.17088C7.58508 7.6684 7.40956 8.27867 7.32841 8.96509C7.24876 9.63877 7.25 10.4953 7.25 11.5488H8Z" fill="#896FCA"/>
</svg>