<svg viewBox="0 0 24 24" fill="none" xmlns="http://www.w3.org/2000/svg">
<g opacity="0.5">
<path d="M3.46447 20.5356C4.92893 22.0001 7.28595 22.0001 12 22.0001C16.714 22.0001 19.0711 22.0001 20.5355 20.5356C22 19.0711 22 16.714 22 12C22 7.28595 22 4.92893 20.5355 3.46447C19.0711 2 16.714 2 12 2C7.28595 2 4.92893 2 3.46447 3.46447C2 4.92893 2 7.28602 2 12.0001C2 16.7141 2 19.0711 3.46447 20.5356Z" fill="#896FCA"/>
<path d="M7.75 8.80766C7.75 9.30439 7.7503 9.64431 7.7649 9.89765C7.78003 10.1601 7.80769 10.2409 7.81457 10.2564C7.96171 10.5876 8.32471 10.7663 8.67695 10.6807C8.69342 10.6767 8.77428 10.6494 8.99148 10.5012C9.20112 10.3583 9.47062 10.1511 9.86419 9.84806M9.86419 9.84806C9.88683 9.83063 9.90916 9.81342 9.9312 9.79643M9.86419 9.84806L9.9312 9.79643M9.9312 9.79643C10.3014 9.51101 10.5899 9.28857 10.9042 9.15203C11.6032 8.84835 12.3968 8.84835 13.0958 9.15203C13.4101 9.28858 13.6986 9.511 14.0688 9.79643M14.0688 9.79643C14.0908 9.81342 14.1132 9.83063 14.1358 9.84806M14.0688 9.79643L14.1358 9.84806M14.1358 9.84806C14.5294 10.1511 14.7989 10.3583 15.0085 10.5012C15.2257 10.6494 15.3066 10.6767 15.323 10.6807C15.6753 10.7663 16.0383 10.5876 16.1854 10.2564C16.1923 10.2409 16.22 10.1601 16.2351 9.89765C16.2497 9.64431 16.25 9.30439 16.25 8.80766M12 22.0001C7.28595 22.0001 4.92893 22.0001 3.46447 20.5356C2 19.0711 2 16.7141 2 12.0001C2 7.28602 2 4.92893 3.46447 3.46447C4.92893 2 7.28595 2 12 2C16.714 2 19.0711 2 20.5355 3.46447C22 4.92893 22 7.28595 22 12C22 16.714 22 19.0711 20.5355 20.5356C19.0711 22.0001 16.714 22.0001 12 22.0001Z" stroke="#896FCA" stroke-width="1.5"/>
</g>
<path d="M7 17.25C6.58579 17.25 6.25 17.5858 6.25 18C6.25 18.4142 6.58579 18.75 7 18.75H17C17.4142 18.75 17.75 18.4142 17.75 18C17.75 17.5858 17.4142 17.25 17 17.25H7Z" fill="#896FCA" stroke="#896FCA" stroke-width="1.5"/>
<path d="M7.7649 11.8976C7.7503 11.6442 7.75 11.3043 7.75 10.8076V2.06874C8.9058 2 10.2996 2 12 2C13.7004 2 15.0942 2 16.25 2.06874V10.8076C16.25 11.3043 16.2497 11.6442 16.2351 11.8976C16.22 12.1601 16.1923 12.2408 16.1854 12.2563C16.0383 12.5876 15.6753 12.7662 15.323 12.6807C15.3066 12.6767 15.2257 12.6493 15.0085 12.5012C14.7989 12.3582 14.5294 12.151 14.1358 11.848L14.0688 11.7964C13.6986 11.5109 13.4101 11.2885 13.0958 11.152C12.3968 10.8483 11.6032 10.8483 10.9042 11.152C10.5899 11.2885 10.3014 11.5109 9.9312 11.7964L9.86419 11.848C9.47062 12.151 9.20112 12.3582 8.99148 12.5012C8.77428 12.6493 8.69342 12.6767 8.67695 12.6807C8.32471 12.7662 7.96171 12.5876 7.81457 12.2563C7.80769 12.2408 7.78003 12.1601 7.7649 11.8976Z" fill="#896FCA" stroke="#896FCA" stroke-width="1.5"/>
</svg>