<svg viewBox="0 0 24 24" fill="none" xmlns="http://www.w3.org/2000/svg">
<path opacity="0.5" d="M12 2.5C14.137 2.5 15.6843 2.50147 16.8643 2.67773C18.0237 2.85099 18.757 3.1838 19.3105 3.79883C19.8708 4.4214 20.1797 5.25847 20.3389 6.57324C20.4991 7.89776 20.5 9.63022 20.5 12C20.5 14.3698 20.4991 16.1022 20.3389 17.4268C20.1797 18.7415 19.8708 19.5786 19.3105 20.2012C18.757 20.8162 18.0237 21.149 16.8643 21.3223C15.6843 21.4985 14.137 21.5 12 21.5C9.86302 21.5 8.31568 21.4985 7.13574 21.3223C5.9763 21.149 5.24298 20.8162 4.68945 20.2012C4.12916 19.5786 3.82027 18.7415 3.66113 17.4268C3.50086 16.1022 3.5 14.3698 3.5 12C3.5 9.63022 3.50086 7.89776 3.66113 6.57324C3.82027 5.25847 4.12916 4.4214 4.68945 3.79883C5.24298 3.1838 5.9763 2.85099 7.13574 2.67773C8.31568 2.50147 9.86302 2.5 12 2.5Z" fill="#896FCA" stroke="#896FCA"/>
<mask id="path-2-inside-1_1_21421" fill="white">
<path d="M15 6H9C8.53501 6 8.30252 6 8.11177 6.05111C7.59413 6.18981 7.18981 6.59413 7.05111 7.11177C7 7.30252 7 7.53501 7 8C7 8.46499 7 8.69748 7.05111 8.88823C7.18981 9.40587 7.59413 9.81019 8.11177 9.94889C8.30252 10 8.53501 10 9 10H15C15.465 10 15.6975 10 15.8882 9.94889C16.4059 9.81019 16.8102 9.40587 16.9489 8.88823C17 8.69748 17 8.46499 17 8C17 7.53501 17 7.30252 16.9489 7.11177C16.8102 6.59413 16.4059 6.18981 15.8882 6.05111C15.6975 6 15.465 6 15 6Z"/>
<path d="M8 14C8.55228 14 9 13.5523 9 13C9 12.4477 8.55228 12 8 12C7.44772 12 7 12.4477 7 13C7 13.5523 7.44772 14 8 14Z"/>
<path d="M8 18C8.55228 18 9 17.5523 9 17C9 16.4477 8.55228 16 8 16C7.44772 16 7 16.4477 7 17C7 17.5523 7.44772 18 8 18Z"/>
<path d="M12 14C12.5523 14 13 13.5523 13 13C13 12.4477 12.5523 12 12 12C11.4477 12 11 12.4477 11 13C11 13.5523 11.4477 14 12 14Z"/>
<path d="M12 18C12.5523 18 13 17.5523 13 17C13 16.4477 12.5523 16 12 16C11.4477 16 11 16.4477 11 17C11 17.5523 11.4477 18 12 18Z"/>
<path d="M16 14C16.5523 14 17 13.5523 17 13C17 12.4477 16.5523 12 16 12C15.4477 12 15 12.4477 15 13C15 13.5523 15.4477 14 16 14Z"/>
<path d="M16 18C16.5523 18 17 17.5523 17 17C17 16.4477 16.5523 16 16 16C15.4477 16 15 16.4477 15 17C15 17.5523 15.4477 18 16 18Z"/>
</mask>
<path d="M15 6H9C8.53501 6 8.30252 6 8.11177 6.05111C7.59413 6.18981 7.18981 6.59413 7.05111 7.11177C7 7.30252 7 7.53501 7 8C7 8.46499 7 8.69748 7.05111 8.88823C7.18981 9.40587 7.59413 9.81019 8.11177 9.94889C8.30252 10 8.53501 10 9 10H15C15.465 10 15.6975 10 15.8882 9.94889C16.4059 9.81019 16.8102 9.40587 16.9489 8.88823C17 8.69748 17 8.46499 17 8C17 7.53501 17 7.30252 16.9489 7.11177C16.8102 6.59413 16.4059 6.18981 15.8882 6.05111C15.6975 6 15.465 6 15 6Z" fill="#896FCA"/>
<path d="M8 14C8.55228 14 9 13.5523 9 13C9 12.4477 8.55228 12 8 12C7.44772 12 7 12.4477 7 13C7 13.5523 7.44772 14 8 14Z" fill="#896FCA"/>
<path d="M8 18C8.55228 18 9 17.5523 9 17C9 16.4477 8.55228 16 8 16C7.44772 16 7 16.4477 7 17C7 17.5523 7.44772 18 8 18Z" fill="#896FCA"/>
<path d="M12 14C12.5523 14 13 13.5523 13 13C13 12.4477 12.5523 12 12 12C11.4477 12 11 12.4477 11 13C11 13.5523 11.4477 14 12 14Z" fill="#896FCA"/>
<path d="M12 18C12.5523 18 13 17.5523 13 17C13 16.4477 12.5523 16 12 16C11.4477 16 11 16.4477 11 17C11 17.5523 11.4477 18 12 18Z" fill="#896FCA"/>
<path d="M16 14C16.5523 14 17 13.5523 17 13C17 12.4477 16.5523 12 16 12C15.4477 12 15 12.4477 15 13C15 13.5523 15.4477 14 16 14Z" fill="#896FCA"/>
<path d="M16 18C16.5523 18 17 17.5523 17 17C17 16.4477 16.5523 16 16 16C15.4477 16 15 16.4477 15 17C15 17.5523 15.4477 18 16 18Z" fill="#896FCA"/>
<path d="M8.11177 9.94889L7.85295 10.9148H7.85295L8.11177 9.94889ZM7.05111 8.88823L6.08519 9.14705L6.08519 9.14705L7.05111 8.88823ZM16.9489 8.88823L15.983 8.62941V8.62941L16.9489 8.88823ZM15.8882 9.94889L16.147 10.9148V10.9148L15.8882 9.94889ZM15.8882 6.05111L16.147 5.08519V5.08519L15.8882 6.05111ZM16.9489 7.11177L15.983 7.37059V7.37059L16.9489 7.11177ZM8.11177 6.05111L7.85295 5.08519L7.85295 5.08519L8.11177 6.05111ZM7.05111 7.11177L6.08519 6.85295L6.08519 6.85295L7.05111 7.11177ZM9 6V7H15V6V5H9V6ZM15 10V9H9V10V11H15V10ZM9 10V9C8.75844 9 8.61063 8.99976 8.49861 8.99465C8.39195 8.98979 8.36685 8.98196 8.37059 8.98296L8.11177 9.94889L7.85295 10.9148C8.20292 11.0086 8.5994 11 9 11V10ZM7 8H6C6 8.4006 5.99141 8.79708 6.08519 9.14705L7.05111 8.88823L8.01704 8.62941C8.01804 8.63315 8.01021 8.60805 8.00535 8.50139C8.00024 8.38937 8 8.24156 8 8H7ZM8.11177 9.94889L8.37059 8.98296C8.19804 8.93673 8.06327 8.80196 8.01704 8.62941L7.05111 8.88823L6.08519 9.14705C6.31635 10.0098 6.99022 10.6836 7.85295 10.9148L8.11177 9.94889ZM17 8H16C16 8.24156 15.9998 8.38937 15.9946 8.50139C15.9898 8.60805 15.982 8.63315 15.983 8.62941L16.9489 8.88823L17.9148 9.14705C18.0086 8.79708 18 8.4006 18 8H17ZM15 10V11C15.4006 11 15.7971 11.0086 16.147 10.9148L15.8882 9.94889L15.6294 8.98296C15.6331 8.98196 15.608 8.98979 15.5014 8.99465C15.3894 8.99976 15.2416 9 15 9V10ZM16.9489 8.88823L15.983 8.62941C15.9367 8.80196 15.802 8.93673 15.6294 8.98296L15.8882 9.94889L16.147 10.9148C17.0098 10.6836 17.6836 10.0098 17.9148 9.14705L16.9489 8.88823ZM15 6V7C15.2416 7 15.3894 7.00024 15.5014 7.00535C15.608 7.01021 15.6331 7.01804 15.6294 7.01704L15.8882 6.05111L16.147 5.08519C15.7971 4.99141 15.4006 5 15 5V6ZM17 8H18C18 7.5994 18.0086 7.20292 17.9148 6.85295L16.9489 7.11177L15.983 7.37059C15.982 7.36685 15.9898 7.39195 15.9946 7.49861C15.9998 7.61063 16 7.75844 16 8H17ZM15.8882 6.05111L15.6294 7.01704C15.802 7.06327 15.9367 7.19804 15.983 7.37059L16.9489 7.11177L17.9148 6.85295C17.6836 5.99022 17.0098 5.31635 16.147 5.08519L15.8882 6.05111ZM9 6V5C8.5994 5 8.20292 4.99141 7.85295 5.08519L8.11177 6.05111L8.37059 7.01704C8.36685 7.01804 8.39195 7.01021 8.49861 7.00535C8.61063 7.00024 8.75844 7 9 7V6ZM7 8H8C8 7.75844 8.00024 7.61063 8.00535 7.49861C8.01021 7.39195 8.01804 7.36685 8.01704 7.37059L7.05111 7.11177L6.08519 6.85295C5.99141 7.20292 6 7.5994 6 8H7ZM8.11177 6.05111L7.85295 5.08519C6.99022 5.31635 6.31635 5.99022 6.08519 6.85295L7.05111 7.11177L8.01704 7.37059C8.06327 7.19804 8.19804 7.06327 8.37059 7.01704L8.11177 6.05111ZM9 13H8V14V15C9.10457 15 10 14.1046 10 13H9ZM8 14V13H7H6C6 14.1046 6.89543 15 8 15V14ZM7 13H8V12V11C6.89543 11 6 11.8954 6 13H7ZM8 12V13H9H10C10 11.8954 9.10457 11 8 11V12ZM9 17H8V18V19C9.10457 19 10 18.1046 10 17H9ZM8 18V17H7H6C6 18.1046 6.89543 19 8 19V18ZM7 17H8V16V15C6.89543 15 6 15.8954 6 17H7ZM8 16V17H9H10C10 15.8954 9.10457 15 8 15V16ZM13 13H12V14V15C13.1046 15 14 14.1046 14 13H13ZM12 14V13H11H10C10 14.1046 10.8954 15 12 15V14ZM11 13H12V12V11C10.8954 11 10 11.8954 10 13H11ZM12 12V13H13H14C14 11.8954 13.1046 11 12 11V12ZM13 17H12V18V19C13.1046 19 14 18.1046 14 17H13ZM12 18V17H11H10C10 18.1046 10.8954 19 12 19V18ZM11 17H12V16V15C10.8954 15 10 15.8954 10 17H11ZM12 16V17H13H14C14 15.8954 13.1046 15 12 15V16ZM17 13H16V14V15C17.1046 15 18 14.1046 18 13H17ZM16 14V13H15H14C14 14.1046 14.8954 15 16 15V14ZM15 13H16V12V11C14.8954 11 14 11.8954 14 13H15ZM16 12V13H17H18C18 11.8954 17.1046 11 16 11V12ZM17 17H16V18V19C17.1046 19 18 18.1046 18 17H17ZM16 18V17H15H14C14 18.1046 14.8954 19 16 19V18ZM15 17H16V16V15C14.8954 15 14 15.8954 14 17H15ZM16 16V17H17H18C18 15.8954 17.1046 15 16 15V16Z" fill="#896FCA" mask="url(#path-2-inside-1_1_21421)"/>
</svg>