<svg viewBox="0 0 24 24" fill="none" xmlns="http://www.w3.org/2000/svg">
<path fill-rule="evenodd" clip-rule="evenodd" d="M10.5812 2.25L10.5608 2.25C10.4473 2.24998 10.359 2.24997 10.2754 2.25503C9.21495 2.31926 8.28636 2.98855 7.89009 3.97426C7.85868 4.05239 7.80699 4.20756 7.77012 4.31825L7.76624 4.32989C7.66314 4.60981 7.47697 4.85224 7.26145 5.02534C7.03397 5.0327 6.81671 5.0422 6.60903 5.05445C4.96507 5.15144 3.92181 5.42122 3.17145 6.17158C2.92679 6.41624 2.73322 6.69204 2.58008 7.00965C2.63765 7.0293 2.69375 7.05632 2.74709 7.09099C4.84738 8.45617 6.16697 9.31008 7.26344 9.85786C7.32989 9.51166 7.63439 9.25009 7.99997 9.25009C8.41418 9.25009 8.74997 9.58588 8.74997 10.0001V10.458C10.8694 11.0976 13.1305 11.0976 15.25 10.458V10.0001C15.25 9.58588 15.5858 9.25009 16 9.25009C16.3656 9.25009 16.6701 9.5117 16.7365 9.85794C17.833 9.31015 19.1526 8.45623 21.253 7.09099C21.3063 7.05638 21.3623 7.02939 21.4197 7.00975C21.2666 6.6921 21.073 6.41626 20.8283 6.17158C20.078 5.42122 19.0347 5.15144 17.3907 5.05445C17.1936 5.04282 16.9878 5.03367 16.7728 5.02648C16.7593 5.01545 16.7457 5.00406 16.7321 4.99231C16.4914 4.78435 16.3032 4.51011 16.2083 4.25288L16.2052 4.24344C16.1693 4.13576 16.1414 4.05195 16.1101 3.97426C15.7139 2.98855 14.7853 2.31926 13.7248 2.25503C13.6412 2.24997 13.5529 2.24998 13.4394 2.25L10.5812 2.25ZM14.8175 4.81569L14.813 4.80495L14.8081 4.79286L14.8035 4.78091L14.7999 4.77097L14.7981 4.76596L14.7939 4.75373L14.7901 4.74244L14.788 4.73617L14.7852 4.72783L14.783 4.72079L14.7812 4.7151C14.7418 4.59708 14.7297 4.56204 14.7184 4.53375C14.5383 4.08571 14.1162 3.78148 13.6342 3.75229C13.6019 3.75034 13.5623 3.75 13.419 3.75H10.5812C10.4379 3.75 10.3983 3.75034 10.3661 3.75229C9.88412 3.78148 9.46209 4.08561 9.28192 4.53354L9.27928 4.54052L9.27132 4.56245C9.26468 4.58104 9.2566 4.60429 9.24728 4.63156C9.23076 4.67994 9.2122 4.73546 9.19339 4.79186L9.19157 4.79777L9.18933 4.80481L9.1866 4.81314L9.1845 4.81941L9.18067 4.83071L9.17643 4.84295L9.17465 4.84796L9.17102 4.85791L9.16644 4.86987L9.16156 4.88199L9.15739 4.8919L9.15674 4.89336C9.14281 4.92921 9.12806 4.96498 9.11251 5.00064C9.39614 5 9.69171 5 9.99988 5H13.9999C14.3114 5 14.61 5 14.8964 5.00066C14.8679 4.93956 14.8416 4.87784 14.8175 4.81569Z" fill="#896FCA"/>
<path d="M10.5812 2.25C10.5744 2.25 10.5675 2.25 10.5608 2.25M10.5812 2.25L13.4394 2.25C13.5529 2.24998 13.6412 2.24997 13.7248 2.25503C14.7853 2.31926 15.7139 2.98855 16.1101 3.97426C16.1414 4.05195 16.1693 4.13576 16.2052 4.24344L16.2083 4.25288C16.3032 4.51011 16.4914 4.78435 16.7321 4.99231C16.7457 5.00406 16.7593 5.01545 16.7728 5.02648C16.9878 5.03367 17.1936 5.04282 17.3907 5.05445C19.0347 5.15144 20.078 5.42122 20.8283 6.17158C21.073 6.41626 21.2666 6.6921 21.4197 7.00975C21.3623 7.02939 21.3063 7.05638 21.253 7.09099C19.1526 8.45623 17.833 9.31015 16.7365 9.85794C16.6701 9.5117 16.3656 9.25009 16 9.25009C15.5858 9.25009 15.25 9.58588 15.25 10.0001V10.458C13.1305 11.0976 10.8694 11.0976 8.74997 10.458V10.0001C8.74997 9.58588 8.41418 9.25009 7.99997 9.25009C7.63439 9.25009 7.32989 9.51166 7.26344 9.85786C6.16697 9.31008 4.84738 8.45617 2.74709 7.09099C2.69375 7.05632 2.63765 7.0293 2.58008 7.00965C2.73322 6.69204 2.92679 6.41624 3.17145 6.17158C3.92181 5.42122 4.96507 5.15144 6.60903 5.05445C6.81671 5.0422 7.03397 5.0327 7.26145 5.02534C7.47697 4.85224 7.66314 4.60981 7.76624 4.32989M10.5812 2.25L10.5608 2.25M10.5608 2.25C10.4473 2.24998 10.359 2.24997 10.2754 2.25503C9.21495 2.31926 8.28636 2.98855 7.89009 3.97426C7.85868 4.05239 7.80699 4.20756 7.77012 4.31825M9.28192 4.53354C9.46209 4.08561 9.88412 3.78148 10.3661 3.75229C10.3983 3.75034 10.4379 3.75 10.5812 3.75H13.419C13.5623 3.75 13.6019 3.75034 13.6342 3.75229C14.1162 3.78148 14.5383 4.08571 14.7184 4.53375C14.7297 4.56204 14.7418 4.59708 14.7812 4.7151L14.783 4.72079L14.7852 4.72783L14.788 4.73617L14.7901 4.74244L14.7939 4.75373L14.7981 4.76596L14.7999 4.77097L14.8035 4.78091L14.8081 4.79286L14.813 4.80495L14.8175 4.81569C14.8416 4.87784 14.8679 4.93956 14.8964 5.00066C14.61 5 14.3114 5 13.9999 5H9.99988C9.69171 5 9.39614 5 9.11251 5.00064C9.12806 4.96498 9.14281 4.92921 9.15674 4.89336L9.15739 4.8919L9.16156 4.88199L9.16644 4.86987L9.17102 4.85791L9.17465 4.84796L9.17643 4.84295L9.18067 4.83071L9.1845 4.81941L9.1866 4.81314L9.18933 4.80481L9.19157 4.79777L9.19339 4.79186C9.2122 4.73546 9.23076 4.67994 9.24728 4.63156C9.2566 4.60429 9.26468 4.58104 9.27132 4.56245L9.27928 4.54052M9.28192 4.53354C9.28192 4.53354 9.28111 4.53561 9.27928 4.54052M9.28192 4.53354L9.27928 4.54052M7.76624 4.32989C7.76751 4.32607 7.76881 4.32219 7.77012 4.31825M7.76624 4.32989L7.77012 4.31825" stroke="#896FCA" stroke-width="1.5"/>
<path opacity="0.5" d="M2.16208 8.49951C2 9.60329 2 11.0494 2 12.9998C2 16.7711 2 18.6567 3.17157 19.8283C4.34315 20.9998 6.22876 20.9998 10 20.9998H14C17.7712 20.9998 19.6569 20.9998 20.8284 19.8283C22 18.6567 22 16.7711 22 12.9998C22 11.0495 22 9.60346 21.8379 8.49971C19.5613 9.97954 18.1021 10.9233 16.7501 11.5045V11.9999C16.7501 12.4141 16.4143 12.7499 16.0001 12.7499C15.5914 12.7499 15.259 12.423 15.2503 12.0163C13.12 12.5779 10.8802 12.5779 8.74991 12.0163C8.74121 12.4229 8.40883 12.7499 8.00009 12.7499C7.58587 12.7499 7.25009 12.4141 7.25009 11.9999V11.5044C5.89804 10.9232 4.43881 9.9794 2.16208 8.49951Z" fill="#896FCA" stroke="#896FCA" stroke-width="1.5"/>
</svg>