<svg viewBox="0 0 24 24" fill="none" xmlns="http://www.w3.org/2000/svg">
<g clip-path="url(#clip0_1_21450)">
<g opacity="0.5">
<mask id="path-1-outside-1_1_21450" maskUnits="userSpaceOnUse" x="0" y="0" width="24" height="20" fill="black">
<rect fill="white" width="24" height="20"/>
<path d="M2 8V12C2 14.8284 2 16.2426 2.87868 17.1213C3.35503 17.5977 3.98877 17.8158 4.9199 17.9156C4.9939 17.8157 5.06395 17.737 5.11392 17.6821C5.23008 17.5543 5.37739 17.4091 5.5202 17.2683L7.01311 15.7962L7.56446 15.2377C7.9268 13.1151 9.77461 11.5 12.0001 11.5C14.2255 11.5 16.0733 13.1151 16.4357 15.2377L16.987 15.7962L18.48 17.2684C18.6228 17.4092 18.7701 17.5544 18.8862 17.6821C18.9362 17.737 19.0062 17.8157 19.0802 17.9156C20.0113 17.8158 20.645 17.5977 21.1213 17.1213C22 16.2426 22 14.8284 22 12V8C22 5.17157 22 3.75736 21.1213 2.87868C20.2426 2 18.8284 2 16 2H8C5.17157 2 3.75736 2 2.87868 2.87868C2 3.75736 2 5.17157 2 8Z"/>
</mask>
<path d="M2 8V12C2 14.8284 2 16.2426 2.87868 17.1213C3.35503 17.5977 3.98877 17.8158 4.9199 17.9156C4.9939 17.8157 5.06395 17.737 5.11392 17.6821C5.23008 17.5543 5.37739 17.4091 5.5202 17.2683L7.01311 15.7962L7.56446 15.2377C7.9268 13.1151 9.77461 11.5 12.0001 11.5C14.2255 11.5 16.0733 13.1151 16.4357 15.2377L16.987 15.7962L18.48 17.2684C18.6228 17.4092 18.7701 17.5544 18.8862 17.6821C18.9362 17.737 19.0062 17.8157 19.0802 17.9156C20.0113 17.8158 20.645 17.5977 21.1213 17.1213C22 16.2426 22 14.8284 22 12V8C22 5.17157 22 3.75736 21.1213 2.87868C20.2426 2 18.8284 2 16 2H8C5.17157 2 3.75736 2 2.87868 2.87868C2 3.75736 2 5.17157 2 8Z" fill="#896FCA"/>
<path d="M2.87868 2.87868L1.81802 1.81802L1.81802 1.81802L2.87868 2.87868ZM21.1213 2.87868L22.182 1.81802L22.182 1.81802L21.1213 2.87868ZM21.1213 17.1213L22.182 18.182H22.182L21.1213 17.1213ZM19.0802 17.9156L17.8748 18.8084L18.3861 19.4987L19.2402 19.4071L19.0802 17.9156ZM18.8862 17.6821L17.7764 18.6912V18.6912L18.8862 17.6821ZM18.48 17.2684L17.4268 18.3365L17.4269 18.3366L18.48 17.2684ZM16.987 15.7962L15.9195 16.85L15.9266 16.8571L15.9338 16.8642L16.987 15.7962ZM16.4357 15.2377L14.9571 15.4901L15.0365 15.9555L15.3682 16.2915L16.4357 15.2377ZM7.56446 15.2377L8.63194 16.2915L8.96362 15.9555L9.04307 15.4901L7.56446 15.2377ZM7.01311 15.7962L8.06632 16.8642L8.07351 16.8571L8.08059 16.85L7.01311 15.7962ZM5.5202 17.2683L6.57328 18.3365L6.57341 18.3364L5.5202 17.2683ZM5.11392 17.6821L4.00413 16.6729L4.00412 16.673L5.11392 17.6821ZM4.9199 17.9156L4.75993 19.4071L5.61403 19.4987L6.12529 18.8084L4.9199 17.9156ZM2.87868 17.1213L1.81802 18.182H1.81802L2.87868 17.1213ZM2 8H0.5V12H2H3.5V8H2ZM2.87868 2.87868L1.81802 1.81802C1.05353 2.58251 0.755409 3.52504 0.623211 4.50831C0.496814 5.44844 0.5 6.62819 0.5 8H2H3.5C3.5 6.54338 3.50319 5.60182 3.59646 4.90806C3.68393 4.25745 3.82515 4.05353 3.93934 3.93934L2.87868 2.87868ZM8 2V0.5C6.62819 0.5 5.44844 0.496814 4.50831 0.623211C3.52504 0.755409 2.58251 1.05353 1.81802 1.81802L2.87868 2.87868L3.93934 3.93934C4.05353 3.82515 4.25745 3.68393 4.90806 3.59646C5.60181 3.50319 6.54338 3.5 8 3.5V2ZM16 2V0.5H8V2V3.5H16V2ZM21.1213 2.87868L22.182 1.81802C21.4175 1.05353 20.475 0.755408 19.4917 0.623211C18.5516 0.496814 17.3718 0.5 16 0.5V2V3.5C17.4566 3.5 18.3982 3.50319 19.0919 3.59646C19.7426 3.68393 19.9465 3.82515 20.0607 3.93934L21.1213 2.87868ZM22 8H23.5C23.5 6.62819 23.5032 5.44844 23.3768 4.50831C23.2446 3.52504 22.9465 2.58251 22.182 1.81802L21.1213 2.87868L20.0607 3.93934C20.1748 4.05353 20.3161 4.25745 20.4035 4.90806C20.4968 5.60181 20.5 6.54338 20.5 8H22ZM22 12H23.5V8H22H20.5V12H22ZM21.1213 17.1213L22.182 18.182C22.9465 17.4175 23.2446 16.475 23.3768 15.4917C23.5032 14.5516 23.5 13.3718 23.5 12H22H20.5C20.5 13.4566 20.4968 14.3982 20.4035 15.0919C20.3161 15.7426 20.1748 15.9465 20.0607 16.0607L21.1213 17.1213ZM19.0802 17.9156L19.2402 19.4071C20.3131 19.292 21.3523 19.0117 22.182 18.182L21.1213 17.1213L20.0607 16.0607C19.9377 16.1836 19.7094 16.3395 18.9202 16.4242L19.0802 17.9156ZM18.8862 17.6821L17.7764 18.6912C17.8146 18.7332 17.8453 18.7686 17.8748 18.8084L19.0802 17.9156L20.2856 17.0229C20.1671 16.8629 20.0578 16.7409 19.996 16.673L18.8862 17.6821ZM18.48 17.2684L17.4269 18.3366C17.5782 18.4857 17.6935 18.6 17.7764 18.6912L18.8862 17.6821L19.996 16.673C19.8467 16.5087 19.6674 16.3326 19.5331 16.2002L18.48 17.2684ZM16.987 15.7962L15.9338 16.8642L17.4268 18.3365L18.48 17.2684L19.5332 16.2004L18.0402 14.7281L16.987 15.7962ZM16.4357 15.2377L15.3682 16.2915L15.9195 16.85L16.987 15.7962L18.0545 14.7424L17.5031 14.1839L16.4357 15.2377ZM12.0001 11.5V13C13.4821 13 14.7156 14.0759 14.9571 15.4901L16.4357 15.2377L17.9143 14.9852C17.431 12.1544 14.9689 10 12.0001 10V11.5ZM7.56446 15.2377L9.04307 15.4901C9.28448 14.0759 10.518 13 12.0001 13V11.5V10C9.03123 10 6.56912 12.1544 6.08585 14.9852L7.56446 15.2377ZM7.01311 15.7962L8.08059 16.85L8.63194 16.2915L7.56446 15.2377L6.49697 14.1839L5.94563 14.7424L7.01311 15.7962ZM5.11392 17.6821L6.2237 18.6912C6.30668 18.6 6.42196 18.4857 6.57328 18.3365L5.5202 17.2683L4.46711 16.2001C4.33281 16.3325 4.15349 16.5087 4.00413 16.6729L5.11392 17.6821ZM4.9199 17.9156L6.12529 18.8084C6.15478 18.7686 6.18555 18.7332 6.22371 18.6912L5.11392 17.6821L4.00412 16.673C3.94235 16.7409 3.83301 16.8629 3.71451 17.0229L4.9199 17.9156ZM2.87868 17.1213L1.81802 18.182C2.64778 19.0117 3.68696 19.292 4.75993 19.4071L4.9199 17.9156L5.07986 16.4242C4.29058 16.3395 4.06228 16.1836 3.93934 16.0607L2.87868 17.1213ZM2 12H0.5C0.5 13.3718 0.496814 14.5516 0.623211 15.4917C0.755409 16.475 1.05353 17.4175 1.81802 18.182L2.87868 17.1213L3.93934 16.0607C3.82515 15.9465 3.68393 15.7426 3.59646 15.0919C3.50319 14.3982 3.5 13.4566 3.5 12H2ZM5.5202 17.2683L6.57341 18.3364L8.06632 16.8642L7.01311 15.7962L5.9599 14.7281L4.46698 16.2003L5.5202 17.2683Z" fill="#896FCA" mask="url(#path-1-outside-1_1_21450)"/>
</g>
<mask id="path-3-outside-2_1_21450" maskUnits="userSpaceOnUse" x="4.25" y="3.25" width="15" height="9" fill="black">
<rect fill="white" x="4.25" y="3.25" width="15" height="9"/>
<path d="M7 8.75C6.58579 8.75 6.25 9.08579 6.25 9.5C6.25 9.91421 6.58579 10.25 7 10.25H17C17.4142 10.25 17.75 9.91421 17.75 9.5C17.75 9.08579 17.4142 8.75 17 8.75H7Z"/>
<path d="M8.25 6C8.25 5.58579 8.58579 5.25 9 5.25H15C15.4142 5.25 15.75 5.58579 15.75 6C15.75 6.41421 15.4142 6.75 15 6.75H9C8.58579 6.75 8.25 6.41421 8.25 6Z"/>
</mask>
<path d="M7 8.75C6.58579 8.75 6.25 9.08579 6.25 9.5C6.25 9.91421 6.58579 10.25 7 10.25H17C17.4142 10.25 17.75 9.91421 17.75 9.5C17.75 9.08579 17.4142 8.75 17 8.75H7Z" fill="#896FCA"/>
<path d="M8.25 6C8.25 5.58579 8.58579 5.25 9 5.25H15C15.4142 5.25 15.75 5.58579 15.75 6C15.75 6.41421 15.4142 6.75 15 6.75H9C8.58579 6.75 8.25 6.41421 8.25 6Z" fill="#896FCA"/>
<path d="M8.25 6H9.75C9.75 6.41421 9.41421 6.75 9 6.75V5.25V3.75C7.75736 3.75 6.75 4.75736 6.75 6H8.25ZM9 6.75V5.25C9.41421 5.25 9.75 5.58579 9.75 6H8.25H6.75C6.75 7.24264 7.75736 8.25 9 8.25V6.75ZM15 6.75V5.25H9V6.75V8.25H15V6.75ZM15.75 6H14.25C14.25 5.58579 14.5858 5.25 15 5.25V6.75V8.25C16.2426 8.25 17.25 7.24264 17.25 6H15.75ZM15 5.25V6.75C14.5858 6.75 14.25 6.41421 14.25 6H15.75H17.25C17.25 4.75736 16.2426 3.75 15 3.75V5.25ZM9 5.25V6.75H15V5.25V3.75H9V5.25ZM7 8.75V7.25C5.75736 7.25 4.75 8.25736 4.75 9.5H6.25H7.75C7.75 9.91421 7.41421 10.25 7 10.25V8.75ZM17 8.75V7.25H7V8.75V10.25H17V8.75ZM17.75 9.5H19.25C19.25 8.25736 18.2426 7.25 17 7.25V8.75V10.25C16.5858 10.25 16.25 9.91421 16.25 9.5H17.75ZM17 10.25V11.75C18.2426 11.75 19.25 10.7426 19.25 9.5H17.75H16.25C16.25 9.08579 16.5858 8.75 17 8.75V10.25ZM7 10.25V11.75H17V10.25V8.75H7V10.25ZM6.25 9.5H4.75C4.75 10.7426 5.75736 11.75 7 11.75V10.25V8.75C7.41421 8.75 7.75 9.08579 7.75 9.5H6.25Z" fill="#896FCA" mask="url(#path-3-outside-2_1_21450)"/>
<path d="M12 12.25C14.0367 12.25 15.6943 13.8737 15.749 15.8975C15.7499 15.9315 15.75 15.9657 15.75 16C15.75 16.3727 15.695 16.7325 15.5938 17.0723C15.5968 17.0621 15.6006 17.0522 15.6035 17.042L15.9531 15.8301L16.8506 16.7148L17.9316 17.7812C18.0872 17.9346 18.2261 18.0711 18.3311 18.1865C18.405 18.2678 18.4963 18.3748 18.5713 18.5049L18.6396 18.6426L18.6836 18.7627C18.8744 19.3702 18.6458 20.0507 18.0645 20.3896C17.8766 20.4991 17.6742 20.539 17.5332 20.5615C17.3813 20.5857 17.1904 20.6047 16.9795 20.626C16.8488 20.6391 16.7753 20.6473 16.7207 20.6553C16.6712 20.6625 16.6696 20.6656 16.6846 20.6602C16.6545 20.6712 16.6374 20.6904 16.6289 20.7129C16.6353 20.6958 16.6322 20.6954 16.625 20.7432C16.617 20.7961 16.6091 20.868 16.5957 20.9971C16.5742 21.2046 16.555 21.3941 16.5303 21.5449C16.5073 21.6852 16.4665 21.8887 16.3535 22.0771C15.9843 22.6928 15.2326 22.8963 14.6055 22.6436C14.4122 22.5656 14.2578 22.4394 14.1475 22.3418C14.0304 22.2383 13.8921 22.1009 13.7363 21.9473L13.7354 21.9463L12.6543 20.876L12 20.2266L11.3457 20.876L10.2646 21.9463L10.2637 21.9473C10.1079 22.1009 9.96962 22.2383 9.85254 22.3418C9.74216 22.4394 9.58777 22.5656 9.39453 22.6436C8.76737 22.8963 8.01565 22.6928 7.64648 22.0771C7.53349 21.8887 7.49274 21.6852 7.46973 21.5449C7.445 21.3941 7.4258 21.2046 7.4043 20.9971C7.39093 20.868 7.38296 20.7961 7.375 20.7432C7.36781 20.6954 7.36467 20.6958 7.37109 20.7129C7.36264 20.6904 7.34552 20.6712 7.31543 20.6602C7.33043 20.6656 7.32881 20.6625 7.2793 20.6553C7.22475 20.6473 7.15118 20.6391 7.02051 20.626C6.80962 20.6047 6.61867 20.5857 6.4668 20.5615C6.32576 20.539 6.12344 20.4991 5.93555 20.3896C5.31549 20.0281 5.09705 19.2782 5.36035 18.6426L5.42871 18.5049C5.5037 18.3748 5.59501 18.2678 5.66895 18.1865C5.77391 18.0711 5.9128 17.9346 6.06836 17.7812L7.14941 16.7148L8.04688 15.8301L8.39648 17.042C8.39942 17.0522 8.40323 17.0621 8.40625 17.0723C8.30502 16.7325 8.25 16.3727 8.25 16C8.25 15.9657 8.25006 15.9315 8.25098 15.8975C8.25352 15.8034 8.26015 15.7096 8.26953 15.6172C8.4618 13.7256 10.058 12.25 12 12.25ZM13.0459 19.6006C12.7138 19.6969 12.3631 19.75 12 19.75C11.6365 19.75 11.2855 19.6971 10.9531 19.6006C10.9734 19.6065 10.9933 19.6136 11.0137 19.6191L12 19.8867L12.9863 19.6191C13.0064 19.6137 13.0259 19.6064 13.0459 19.6006ZM10.5547 19.4619C10.5778 19.4716 10.6017 19.4791 10.625 19.4883C10.5967 19.4771 10.568 19.4669 10.54 19.4551L10.5547 19.4619ZM9.36816 18.6719C9.38605 18.6895 9.40559 18.7054 9.42383 18.7227C9.39874 18.6989 9.37306 18.6758 9.34863 18.6514L9.36816 18.6719ZM14.5752 18.7227C14.6005 18.6987 14.6268 18.676 14.6514 18.6514C14.6268 18.676 14.6005 18.6987 14.5752 18.7227Z" fill="#896FCA" stroke="#896FCA" stroke-width="1.5"/>
</g>
<defs>
<clipPath id="clip0_1_21450">
<rect width="24" height="24" fill="white"/>
</clipPath>
</defs>
</svg>