<svg viewBox="0 0 24 24" fill="none" xmlns="http://www.w3.org/2000/svg">
<g opacity="0.5">
<path fill-rule="evenodd" clip-rule="evenodd" d="M2 16.1438V4.99803C2 3.89986 2.8863 3.00775 3.9824 3.07511C4.95877 3.13512 6.11349 3.25374 7 3.48767C8.04921 3.76454 9.29611 4.35424 10.2823 4.87568C10.8166 5.15825 11.41 5.29016 12 5.27463V20.4744C11.4394 20.4744 10.8788 20.3394 10.3724 20.0695C9.37293 19.5367 8.08145 18.919 7 18.6336C6.12329 18.4022 4.98428 18.2837 4.01486 18.223C2.90605 18.1537 2 17.2548 2 16.1438Z" fill="#896FCA"/>
<path d="M3.9824 3.07511L3.93639 3.8237L3.9824 3.07511ZM7 3.48767L7.19136 2.76249V2.76249L7 3.48767ZM10.2823 4.87568L9.93167 5.5387V5.5387L10.2823 4.87568ZM10.3724 20.0695L10.0196 20.7313H10.0196L10.3724 20.0695ZM7 18.6336L7.19136 17.9084H7.19136L7 18.6336ZM4.01486 18.223L3.96804 18.9716H3.96804L4.01486 18.223ZM12 5.27463H12.75V4.50463L11.9803 4.52489L12 5.27463ZM12 20.4744V21.2244H12.75V20.4744H12ZM2 16.1438H2.75V4.99803H2H1.25V16.1438H2ZM3.9824 3.07511L3.93639 3.8237C4.90238 3.88307 5.99643 3.99852 6.80864 4.21285L7 3.48767L7.19136 2.76249C6.23055 2.50895 5.01517 2.38717 4.02841 2.32653L3.9824 3.07511ZM7 3.48767L6.80864 4.21285C7.77076 4.46673 8.95486 5.02219 9.93167 5.5387L10.2823 4.87568L10.6328 4.21267C9.63736 3.68628 8.32766 3.06234 7.19136 2.76249L7 3.48767ZM10.3724 20.0695L10.7252 19.4076C9.71727 18.8703 8.3617 18.2172 7.19136 17.9084L7 18.6336L6.80864 19.3588C7.8012 19.6207 9.0286 20.203 10.0196 20.7313L10.3724 20.0695ZM7 18.6336L7.19136 17.9084C6.24092 17.6576 5.04176 17.5358 4.06168 17.4745L4.01486 18.223L3.96804 18.9716C4.9268 19.0315 6.00566 19.1469 6.80864 19.3588L7 18.6336ZM2 16.1438H1.25C1.25 17.68 2.49378 18.8794 3.96804 18.9716L4.01486 18.223L4.06168 17.4745C3.31831 17.428 2.75 16.8296 2.75 16.1438H2ZM2 4.99803H2.75C2.75 4.30084 3.30243 3.78474 3.93639 3.8237L3.9824 3.07511L4.02841 2.32653C2.47017 2.23076 1.25 3.49887 1.25 4.99803H2ZM12 5.27463L11.9803 4.52489C11.5146 4.53715 11.0494 4.43295 10.6328 4.21267L10.2823 4.87568L9.93167 5.5387C10.5838 5.88355 11.3053 6.04318 12.0197 6.02437L12 5.27463ZM12 20.4744V19.7244C11.5594 19.7244 11.1203 19.6182 10.7252 19.4076L10.3724 20.0695L10.0196 20.7313C10.6373 21.0606 11.3194 21.2244 12 21.2244V20.4744ZM12 5.27463H11.25V20.4744H12H12.75V5.27463H12Z" fill="#896FCA"/>
</g>
<path d="M22 16.1436V4.93319C22 3.86075 21.1538 2.98041 20.082 3.01775C18.9534 3.05706 17.5469 3.17403 16.5 3.48744C15.5924 3.75916 14.5353 4.30418 13.6738 4.80275C13.1587 5.10088 12.581 5.25912 12 5.27441V20.4741C12.5606 20.4741 13.1212 20.3392 13.6276 20.0692C14.6271 19.5365 15.9185 18.9187 17 18.6334C17.8767 18.402 19.0157 18.2835 19.9851 18.2228C21.094 18.1535 22 17.2546 22 16.1436Z" fill="#896FCA"/>
<path d="M20.082 3.01775L20.1081 3.76729V3.76729L20.082 3.01775ZM16.5 3.48744L16.2849 2.76895V2.76895L16.5 3.48744ZM13.6738 4.80275L13.2982 4.15363L13.2982 4.15363L13.6738 4.80275ZM13.6276 20.0692L13.9804 20.7311H13.9804L13.6276 20.0692ZM17 18.6334L16.8086 17.9082H16.8086L17 18.6334ZM19.9851 18.2228L20.032 18.9714V18.9714L19.9851 18.2228ZM12 5.27441L11.9803 4.52467L11.25 4.54389V5.27441H12ZM12 20.4741H11.25V21.2241H12V20.4741ZM22 16.1436H22.75V4.93319H22H21.25V16.1436H22ZM20.082 3.01775L20.0559 2.2682C18.9175 2.30785 17.4296 2.42627 16.2849 2.76895L16.5 3.48744L16.7151 4.20594C17.6643 3.92179 18.9892 3.80627 20.1081 3.76729L20.082 3.01775ZM16.5 3.48744L16.2849 2.76895C15.2899 3.06684 14.1706 3.64868 13.2982 4.15363L13.6738 4.80275L14.0495 5.45188C14.9 4.95969 15.8949 4.45149 16.7151 4.20594L16.5 3.48744ZM13.6276 20.0692L13.9804 20.7311C14.9714 20.2028 16.1988 19.6205 17.1914 19.3585L17 18.6334L16.8086 17.9082C15.6383 18.217 14.2827 18.8701 13.2748 19.4074L13.6276 20.0692ZM17 18.6334L17.1914 19.3585C17.9943 19.1466 19.0732 19.0313 20.032 18.9714L19.9851 18.2228L19.9383 17.4743C18.9582 17.5356 17.7591 17.6574 16.8086 17.9082L17 18.6334ZM22 16.1436H21.25C21.25 16.8293 20.6817 17.4278 19.9383 17.4743L19.9851 18.2228L20.032 18.9714C21.5062 18.8791 22.75 17.6798 22.75 16.1436H22ZM22 4.93319H22.75C22.75 3.46989 21.5847 2.21495 20.0559 2.2682L20.082 3.01775L20.1081 3.76729C20.7229 3.74588 21.25 4.25161 21.25 4.93319H22ZM13.6738 4.80275L13.2982 4.15363C12.8938 4.38764 12.4388 4.5126 11.9803 4.52467L12 5.27441L12.0197 6.02415C12.7231 6.00563 13.4236 5.81412 14.0495 5.45188L13.6738 4.80275ZM13.6276 20.0692L13.2748 19.4074C12.8797 19.618 12.4406 19.7241 12 19.7241V20.4741V21.2241C12.6806 21.2241 13.3627 21.0603 13.9804 20.7311L13.6276 20.0692ZM12 5.27441H11.25V20.4741H12H12.75V5.27441H12Z" fill="#896FCA"/>
</svg>