<svg viewBox="0 0 24 24" fill="none" xmlns="http://www.w3.org/2000/svg">
<g opacity="0.5">
<path fill-rule="evenodd" clip-rule="evenodd" d="M2 12C2 16.714 2 19.0711 3.46447 20.5355L20.5355 3.46447C19.0711 2 16.714 2 12 2C7.28595 2 4.92893 2 3.46447 3.46447C2 4.92893 2 7.28595 2 12Z" fill="#896FCA"/>
<path d="M3.46447 20.5355L2.93414 21.0659L3.46447 21.5962L3.9948 21.0659L3.46447 20.5355ZM20.5355 3.46447L21.0659 3.9948L21.5962 3.46447L21.0659 2.93414L20.5355 3.46447ZM2 12H1.25C1.25 14.3358 1.24841 16.1631 1.43975 17.5863C1.63399 19.031 2.03933 20.1711 2.93414 21.0659L3.46447 20.5355L3.9948 20.0052C3.42514 19.4355 3.09825 18.6648 2.92637 17.3864C2.75159 16.0864 2.75 14.3782 2.75 12H2ZM12 2V2.75C14.3782 2.75 16.0864 2.75159 17.3864 2.92637C18.6648 3.09825 19.4355 3.42514 20.0052 3.9948L20.5355 3.46447L21.0659 2.93414C20.1711 2.03933 19.031 1.63399 17.5863 1.43975C16.1631 1.24841 14.3358 1.25 12 1.25V2ZM12 2V1.25C9.66418 1.25 7.83687 1.24841 6.41371 1.43975C4.96897 1.63399 3.82895 2.03933 2.93414 2.93414L3.46447 3.46447L3.9948 3.9948C4.56445 3.42514 5.33517 3.09825 6.61358 2.92637C7.91356 2.75159 9.62178 2.75 12 2.75V2ZM2 12H2.75C2.75 9.62178 2.75159 7.91356 2.92637 6.61358C3.09825 5.33517 3.42514 4.56445 3.9948 3.9948L3.46447 3.46447L2.93414 2.93414C2.03933 3.82895 1.63399 4.96897 1.43975 6.41371C1.24841 7.83687 1.25 9.66418 1.25 12H2ZM3.46447 20.5355L3.9948 21.0659L21.0659 3.9948L20.5355 3.46447L20.0052 2.93414L2.93414 20.0052L3.46447 20.5355Z" fill="#896FCA"/>
</g>
<path d="M8 4.75C8.41421 4.75 8.75 5.08579 8.75 5.5L8.75 7.25002H10.5C10.9142 7.25002 11.25 7.58581 11.25 8.00002C11.25 8.41423 10.9142 8.75002 10.5 8.75002H8.75L8.75 10.5C8.75 10.9142 8.41421 11.25 8 11.25C7.58579 11.25 7.25 10.9142 7.25 10.5L7.25 8.75002H5.5C5.08579 8.75002 4.75 8.41423 4.75 8.00002C4.75 7.58581 5.08579 7.25002 5.5 7.25002H7.25V5.5C7.25 5.08579 7.58579 4.75 8 4.75Z" fill="#896FCA" stroke="#896FCA" stroke-width="1.5" stroke-linecap="round"/>
<path fill-rule="evenodd" clip-rule="evenodd" d="M11.9999 21.9999C7.28584 21.9999 4.92882 21.9999 3.46436 20.5354L20.5354 3.46436C21.9999 4.92882 21.9999 7.28584 21.9999 11.9999C21.9999 16.7139 21.9999 19.071 20.5354 20.5354C19.071 21.9999 16.7139 21.9999 11.9999 21.9999ZM18 17.75C18.4142 17.75 18.75 17.4142 18.75 17C18.75 16.5858 18.4142 16.25 18 16.25H13C12.5858 16.25 12.25 16.5858 12.25 17C12.25 17.4142 12.5858 17.75 13 17.75H18Z" fill="#896FCA" stroke="#896FCA" stroke-width="1.5" stroke-linecap="round"/>
</svg>