<svg viewBox="0 0 24 24" fill="none" xmlns="http://www.w3.org/2000/svg">
<path fill-rule="evenodd" clip-rule="evenodd" d="M9.81092 10.8046C9.82689 10.8147 9.8429 10.8248 9.85898 10.835L10.1349 11.009C10.2966 11.1111 10.38 11.163 10.4437 11.1962C10.4535 11.2013 10.4613 11.2051 10.4673 11.2079C10.4756 11.2067 10.4869 11.2048 10.5018 11.2018C10.5771 11.1867 10.6778 11.1586 10.8666 11.1049L11.1903 11.013C11.2082 11.0079 11.2261 11.0028 11.2439 10.9977C11.8234 10.833 12.3367 10.6871 12.7461 10.6328C13.1687 10.5767 13.7154 10.5838 14.1371 11.0055C14.5589 11.4272 14.566 11.974 14.5099 12.3966C14.4556 12.806 14.3097 13.3193 14.145 13.8988C14.1399 13.9166 14.1348 13.9345 14.1297 13.9524L14.0377 14.2761C13.9841 14.4649 13.956 14.5656 13.9409 14.6408C13.9379 14.6558 13.936 14.6671 13.9348 14.6753C13.9376 14.6814 13.9414 14.6892 13.9465 14.699C13.9797 14.7626 14.0316 14.8461 14.1337 15.0078L14.3077 15.2837C14.3179 15.2998 14.328 15.3158 14.3381 15.3318C14.6484 15.8235 14.9268 16.2646 15.0896 16.6392C15.2637 17.0398 15.3893 17.5513 15.1174 18.0686C14.8495 18.5782 14.3629 18.7734 13.9369 18.8702C13.5327 18.9621 13.0042 19.0033 12.4083 19.0498L12.0208 19.0801C11.8266 19.0952 11.7238 19.1038 11.6486 19.1157C11.626 19.1193 11.6117 19.1223 11.6035 19.1244C11.5965 19.1304 11.5846 19.1415 11.5665 19.1602C11.5117 19.2174 11.4434 19.2995 11.3176 19.4522L11.067 19.7567C10.679 20.228 10.3374 20.643 10.0294 20.9247C9.71135 21.2156 9.2682 21.5168 8.69132 21.4378C8.09921 21.3567 7.76442 20.9321 7.55554 20.5554C7.35797 20.1992 7.17646 19.7077 6.97398 19.1595C6.96738 19.1416 6.96075 19.1237 6.95411 19.1057L6.84045 18.798C6.77386 18.6178 6.73892 18.5249 6.70846 18.4596C6.70534 18.4529 6.70259 18.4472 6.70021 18.4425C6.69544 18.4401 6.68977 18.4373 6.68309 18.4342C6.61777 18.4038 6.52489 18.3688 6.34465 18.3022L6.03701 18.1886C6.01902 18.1819 6.00109 18.1753 5.98322 18.1687C5.43497 17.9662 4.94353 17.7847 4.58726 17.5871C4.21062 17.3783 3.786 17.0435 3.70493 16.4514C3.62594 15.8745 3.92707 15.4313 4.21798 15.1133C4.49973 14.8053 4.9147 14.4637 5.38604 14.0757C5.39996 14.0642 5.41393 14.0527 5.42795 14.0412L5.69044 13.8251C5.84317 13.6993 5.92533 13.631 5.98246 13.5762C6.00123 13.5581 6.01228 13.5462 6.01829 13.5392C6.02035 13.531 6.02342 13.5167 6.02699 13.4941C6.03891 13.4188 6.04747 13.3161 6.06263 13.1219L6.08861 12.7892C6.09004 12.7709 6.09146 12.7526 6.09288 12.7344C6.13935 12.1384 6.18056 11.61 6.27247 11.2057C6.36931 10.7798 6.56445 10.2932 7.07413 10.0253C7.59139 9.75341 8.10285 9.87895 8.50351 10.0531C8.87807 10.2159 9.31916 10.4943 9.81092 10.8046ZM6.01558 13.5487L6.01621 13.5469L6.01558 13.5487ZM11.5958 19.1265L11.594 19.1271L11.5958 19.1265Z" fill="#896FCA"/>
<path opacity="0.5" fill-rule="evenodd" clip-rule="evenodd" d="M18.0206 20.0155C17.4879 19.8839 16.9027 19.6961 16.2733 19.4498C15.8875 19.2989 15.4525 19.4893 15.3016 19.875C15.1506 20.2607 15.341 20.6958 15.7267 20.8467C16.6712 21.2162 17.5736 21.4839 18.3981 21.628C18.7253 21.6852 19.0403 21.7229 19.3407 21.7398C19.4946 21.7485 19.6446 21.7517 19.7905 21.7492C19.8254 21.7486 19.8603 21.7477 19.8951 21.7464C20.1197 21.7384 20.3358 21.7164 20.5417 21.6796C20.7838 21.6362 21.0179 21.5705 21.2374 21.4799C21.7817 21.2568 22.2358 20.8811 22.5081 20.3009C22.8797 19.509 22.7858 18.5759 22.4796 17.6738C22.4407 17.5591 22.3977 17.4431 22.3509 17.3259C22.2716 17.1272 22.1811 16.9252 22.0802 16.7204C21.7645 16.0795 21.3469 15.4113 20.8493 14.7341C19.3455 12.6877 17.031 10.4514 14.2652 8.48671C11.5025 6.52415 8.75846 5.16577 6.53596 4.57861C5.42979 4.28637 4.39881 4.17058 3.53861 4.30684C3.21858 4.35754 2.91123 4.4459 2.63096 4.57833C2.14467 4.8081 1.7399 5.17053 1.49189 5.69908C1.197 6.32752 1.19114 7.04907 1.36722 7.79535C1.42093 8.02354 1.49125 8.25225 1.5743 8.4789C1.66843 8.73578 1.7821 8.99904 1.9138 9.26738C1.94529 9.33156 1.9776 9.39559 2.01067 9.45943C2.09783 9.62771 2.19204 9.79825 2.29303 9.97074C2.3449 10.0593 2.39856 10.1484 2.45397 10.238C2.56037 10.4101 2.67321 10.5838 2.79223 10.7591C2.90394 10.9235 3.02109 11.0892 3.14345 11.256C3.74802 12.0799 4.47983 12.9289 5.31162 13.7733C5.6023 14.0684 6.07716 14.0719 6.37225 13.7813C6.66733 13.4906 6.6709 13.0157 6.38022 12.7206C5.69871 12.0288 5.1008 11.3466 4.59693 10.693C4.59599 10.6918 4.59505 10.6906 4.5941 10.6893C4.1253 10.0809 3.74229 9.50278 3.44902 8.9689C3.41218 8.90184 3.37671 8.83539 3.34262 8.76957C3.33274 8.7505 3.323 8.73153 3.31341 8.71266C3.2966 8.67962 3.28022 8.6469 3.26426 8.61449C3.15258 8.38759 3.05862 8.16995 2.98272 7.96281C2.91427 7.77601 2.8628 7.60433 2.82591 7.44703C2.70832 6.94366 2.73735 6.57595 2.84982 6.33628C2.91508 6.1972 3.02463 6.06752 3.20977 5.96532C3.33981 5.89364 3.50713 5.83554 3.72263 5.79696C4.261 5.70058 5.0185 5.74797 5.97207 5.98279C5.97557 5.98365 5.97908 5.98449 5.98258 5.9853C6.03867 5.99917 6.09541 6.01369 6.15282 6.02885C8.15043 6.5566 10.7308 7.81592 13.3966 9.70958C15.9115 11.4961 18.005 13.4939 19.4016 15.305C19.403 15.3069 19.4045 15.3088 19.4059 15.3107C19.8116 15.8373 20.1531 16.3411 20.4277 16.8132C20.4591 16.8672 20.4896 16.9207 20.5192 16.9737C20.5229 16.9803 20.5266 16.987 20.5303 16.9936C20.7363 17.3647 20.8989 17.7141 21.0173 18.0372C21.0319 18.0772 21.0459 18.1167 21.0592 18.1558C21.1464 18.4129 21.2002 18.6392 21.2276 18.837C21.2785 19.2057 21.2379 19.4768 21.1502 19.6637C21.0738 19.8265 20.929 19.9837 20.6655 20.0943C20.5575 20.1389 20.4294 20.1758 20.2774 20.203C19.739 20.2994 18.9815 20.2521 18.028 20.0173C18.0255 20.0167 18.023 20.0161 18.0206 20.0155Z" fill="#896FCA"/>
<path fill-rule="evenodd" clip-rule="evenodd" d="M19.6653 2.40887C19.9918 2.66377 20.0498 3.13509 19.7949 3.46158L19.6836 3.60419C19.8074 4.26218 20.1092 4.871 20.5544 5.35951C20.8334 5.66567 20.8113 6.14003 20.5052 6.41902C20.199 6.69802 19.7246 6.676 19.4457 6.36983C18.9952 5.87554 18.6498 5.29762 18.4247 4.67251C18.3203 4.73491 18.2146 4.79175 18.105 4.84354C17.9852 4.90014 17.8639 4.94919 17.7385 4.99298C18.0635 5.58426 18.2703 6.23955 18.343 6.9205C18.3869 7.33238 18.0886 7.70188 17.6767 7.7458C17.2648 7.78973 16.8953 7.49144 16.8514 7.07956C16.7805 6.41466 16.5297 5.78795 16.1329 5.26875L15.9748 5.26343C15.5608 5.2495 15.2365 4.90261 15.2504 4.48863C15.2644 4.07465 15.6113 3.75035 16.0252 3.76428L16.4325 3.77798C16.9586 3.67412 17.2301 3.59791 17.4642 3.48731C17.6993 3.37622 17.9338 3.21283 18.3552 2.86811L18.6126 2.53849C18.8675 2.212 19.3388 2.15396 19.6653 2.40887Z" fill="#896FCA"/>
</svg>