<svg viewBox="0 0 24 24" fill="none" xmlns="http://www.w3.org/2000/svg">
<path d="M6.92169 20.9919C6.00861 20.8838 5.09945 20.729 4.2877 20.5079C3.32836 20.2462 2.67938 19.4054 2.52434 18.4232C2.38023 17.5102 2.27823 16.5806 2.20752 15.6739C2.81501 15.1909 3.58401 14.9023 4.42041 14.9023C6.38571 14.9023 7.9789 16.4955 7.9789 18.4608C7.9789 19.451 7.57443 20.3468 6.92169 20.9919Z" stroke="#896FCA" stroke-width="1.5" stroke-linecap="round" stroke-linejoin="round"/>
<path d="M2.13965 9.16197C2.23253 8.64821 2.57824 8.21324 3.06409 7.99444L14.3746 2.90092C14.7843 2.71642 15.2517 2.70641 15.6601 2.89368C17.3945 3.68881 22.0317 6.07585 22.0317 8.86702C22.0317 8.90661 22.0317 8.94624 22.0319 8.98589C18.5712 9.61344 14.0506 9.66969 12.2964 9.69154C10.4736 9.71421 5.66304 9.77398 2.13965 9.16197Z" stroke="#896FCA" stroke-width="1.5" stroke-linecap="round" stroke-linejoin="round"/>
<path d="M2.20758 15.674C2.81505 15.191 3.58402 14.9024 4.42039 14.9024C6.38569 14.9024 7.97888 16.4956 7.97888 18.461C7.97888 19.4511 7.57441 20.3469 6.92165 20.9921C9.04409 21.2436 11.1877 21.2436 12.1784 21.2436C13.5952 21.2436 17.3703 21.2436 20.069 20.508C21.0283 20.2465 21.6794 19.4055 21.799 18.4184C22.0675 16.2 22.0529 13.4518 22.0383 10.7188C22.035 10.1389 22.032 9.55963 22.0317 8.98633C18.571 9.61387 14.0504 9.67014 12.2963 9.69196C10.4734 9.71465 5.66284 9.77442 2.13947 9.16239C1.76855 11.214 2.04711 13.6162 2.20758 15.674Z" stroke="#896FCA" stroke-width="1.5" stroke-linecap="round" stroke-linejoin="round"/>
<path d="M14.8908 17.6107C16.3606 17.6107 17.1873 16.7839 17.1873 15.3141C17.1873 13.8443 16.3606 13.0176 14.8908 13.0176C13.421 13.0176 12.5942 13.8443 12.5942 15.3141C12.5942 16.7839 13.421 17.6107 14.8908 17.6107Z" stroke="#896FCA" stroke-width="1.5" stroke-linecap="round" stroke-linejoin="round"/>
</svg>