<svg viewBox="0 0 24 24" fill="none" xmlns="http://www.w3.org/2000/svg">
<path d="M19.2693 3.94741C21.5747 5.86255 24.7573 15.9799 19.9113 16.7821H19.4631C19.5108 17.5854 19.5286 18.3447 19.5285 19.1195C19.5283 23.8574 12.0001 22.8822 12.0001 18.3864C12.0001 22.8822 4.4719 23.8574 4.47174 19.1195C4.47167 18.3447 4.4895 17.5854 4.53728 16.7821L4.08897 16.7821C-0.756975 15.9799 2.42552 5.86253 4.73112 3.9474C6.54318 2.44221 9.86761 1.75391 12.0001 1.75391C14.1327 1.75391 17.457 2.44223 19.2693 3.94741Z" stroke="#896FCA" stroke-width="1.5" stroke-linecap="round" stroke-linejoin="round"/>
<path d="M18.4615 9.5625C19.3266 14.081 19.5286 16.5125 19.5285 19.1196C19.5283 23.8573 12.0001 22.8821 12.0001 18.3863C12.0001 22.8821 4.47184 23.8573 4.47168 19.1196C4.4715 16.5125 4.6736 14.081 5.53869 9.5625" stroke="#896FCA" stroke-width="1.5" stroke-linecap="round" stroke-linejoin="round"/>
<path d="M9.1875 11.2637V12.0672" stroke="#896FCA" stroke-width="1.5" stroke-linecap="round" stroke-linejoin="round"/>
<path d="M14.8125 11.2637V12.0672" stroke="#896FCA" stroke-width="1.5" stroke-linecap="round" stroke-linejoin="round"/>
<path d="M12 17.3926V18.2915" stroke="#896FCA" stroke-width="1.5" stroke-linecap="round" stroke-linejoin="round"/>
<path d="M13.3157 16.0145C13.0638 16.5955 12.4833 17.1185 12.1247 17.3573C12.0543 17.4042 11.946 17.4042 11.8755 17.3573C11.517 17.1185 10.9364 16.5955 10.6845 16.0145C10.658 15.9534 10.6971 15.8883 10.7811 15.8623C11.022 15.7878 11.4613 15.6934 12.0001 15.6934C12.539 15.6934 12.9782 15.7878 13.2192 15.8623C13.3031 15.8883 13.3423 15.9534 13.3157 16.0145Z" stroke="#896FCA" stroke-width="1.5" stroke-linecap="round" stroke-linejoin="round"/>
</svg>