<svg viewBox="0 0 24 24" fill="none" xmlns="http://www.w3.org/2000/svg">
<path d="M12.3138 13.4314C14.5719 13.4314 15.842 12.1612 15.842 9.90318C15.842 7.64514 14.5719 6.375 12.3138 6.375C10.0558 6.375 8.78564 7.64514 8.78564 9.90318C8.78564 12.1612 10.0558 13.4314 12.3138 13.4314Z" stroke="#896FCA" stroke-width="1.5" stroke-linecap="round" stroke-linejoin="round"/>
<path d="M14.4109 2.35742C4.12514 2.35742 1.55371 9.85743 1.55371 13.6074C1.55371 17.3574 3.96443 21.6431 9.58943 21.6431C12.8037 21.6431 14.8803 20.9767 15.9929 19.3078C17.1056 17.6388 16.7839 15.9302 18.4036 14.3105C20.0233 12.6909 22.4466 12.8039 22.4466 8.78599C22.4466 5.57171 20.0359 2.35742 14.4109 2.35742Z" stroke="#896FCA" stroke-width="1.5"/>
</svg>