<svg viewBox="0 0 24 24" fill="none" xmlns="http://www.w3.org/2000/svg">
<g clip-path="url(#clip0_12_7048)">
<path d="M5.97335 6.65795H7.38533C8.96817 6.65795 9.85851 5.7444 9.85851 4.12034C9.85851 1.60592 7.57561 1.46012 5.71046 1.58274C2.07767 1.82156 1.55371 5.50214 1.55371 8.44355C1.55371 11.3856 2.08153 15.0658 5.71046 15.3043C7.57561 15.427 9.85851 15.2812 9.85851 12.7668C9.85851 11.1427 8.96817 10.2292 7.38533 10.2292H5.97335" stroke="#896FCA" stroke-width="1.5" stroke-linecap="round" stroke-linejoin="round"/>
<path d="M9.85859 22.4445C10.2827 19.0618 10.2824 15.7987 9.85791 12.416" stroke="#896FCA" stroke-width="1.5" stroke-linecap="round" stroke-linejoin="round"/>
<path d="M18.0268 6.65795H16.6148C15.0319 6.65795 14.1416 5.7444 14.1416 4.12034C14.1416 1.60592 16.4245 1.46012 18.2897 1.58274C21.9225 1.82156 22.4464 5.50214 22.4464 8.44355C22.4464 11.3856 21.9186 15.0658 18.2897 15.3043C16.4245 15.427 14.1416 15.2812 14.1416 12.7668C14.1416 11.1427 15.0319 10.2292 16.6148 10.2292H18.0268" stroke="#896FCA" stroke-width="1.5" stroke-linecap="round" stroke-linejoin="round"/>
<path d="M14.1416 22.4445C13.7175 19.0618 13.7178 15.7987 14.1423 12.416" stroke="#896FCA" stroke-width="1.5" stroke-linecap="round" stroke-linejoin="round"/>
</g>
<defs>
<clipPath id="clip0_12_7048">
<rect width="24" height="24" fill="white"/>
</clipPath>
</defs>
</svg>