<svg viewBox="0 0 24 24" fill="none" xmlns="http://www.w3.org/2000/svg">
<path d="M8.79978 5.23084C5.5309 5.14288 2.71594 7.5504 2.1239 12.0543C1.64429 15.7029 1.95682 22.0451 6.19923 22.0451C9.13226 22.0451 10.0262 19.2387 10.525 16.2236C10.6452 15.497 11.2638 14.9533 12.0002 14.9533C12.7366 14.9533 13.3551 15.497 13.4753 16.2236C13.9742 19.2387 14.8681 22.0451 17.8012 22.0451C22.0436 22.0451 22.3562 15.7029 21.8764 12.0543C21.2845 7.5504 18.4694 5.14288 15.2006 5.23084" stroke="#896FCA" stroke-width="1.5" stroke-linecap="round" stroke-linejoin="round"/>
<path d="M12 1.95508V8.95269" stroke="#896FCA" stroke-width="1.5" stroke-linecap="round" stroke-linejoin="round"/>
<path d="M8.41895 11.8375C11.4257 11.3382 12.0002 8.95312 12.0002 8.95312C12.0002 8.95312 12.5748 11.3382 15.5815 11.8375" stroke="#896FCA" stroke-width="1.5" stroke-linecap="round" stroke-linejoin="round"/>
</svg>