<svg viewBox="0 0 24 24" fill="none" xmlns="http://www.w3.org/2000/svg">
<path d="M8.04293 2.82212C11.1919 4.38141 12.7052 9.94507 12.3151 10.7416C11.9249 11.5382 6.40154 11.9769 3.73652 10.0576C1.49765 8.4452 1.04673 6.69674 2.08863 4.87108C3.13709 3.03391 5.53456 1.58002 8.04293 2.82212Z" stroke="#896FCA" stroke-width="1.5" stroke-linecap="round" stroke-linejoin="round"/>
<path d="M18.1598 6.04873C15.179 6.43006 12.3865 10.497 12.4762 11.2482C12.5659 11.9994 16.8978 13.8908 19.5898 13.0844C21.8514 12.4069 22.7091 11.1219 22.3843 9.35912C22.0576 7.58522 20.5341 5.74498 18.1598 6.04873Z" stroke="#896FCA" stroke-width="1.5" stroke-linecap="round" stroke-linejoin="round"/>
<path d="M12.3709 10.5293C12.7751 13.8166 12.3441 19.1569 11.9399 22.4443" stroke="#896FCA" stroke-width="1.5" stroke-linecap="round" stroke-linejoin="round"/>
</svg>