<svg viewBox="0 0 24 24" fill="none" xmlns="http://www.w3.org/2000/svg">
<path d="M15.4782 7.88485C16.502 7.88485 17.332 6.82719 17.332 5.5225C17.332 4.21782 16.502 3.16016 15.4782 3.16016C14.4544 3.16016 13.6245 4.21782 13.6245 5.5225C13.6245 6.82719 14.4544 7.88485 15.4782 7.88485Z" stroke="#896FCA" stroke-width="1.5" stroke-linecap="round" stroke-linejoin="round"/>
<path d="M8.5241 7.88485C9.54789 7.88485 10.3778 6.82719 10.3778 5.5225C10.3778 4.21782 9.54789 3.16016 8.5241 3.16016C7.50034 3.16016 6.67041 4.21782 6.67041 5.5225C6.67041 6.82719 7.50034 7.88485 8.5241 7.88485Z" stroke="#896FCA" stroke-width="1.5" stroke-linecap="round" stroke-linejoin="round"/>
<path d="M20.4991 13.8829C21.5749 13.8829 22.447 12.8252 22.447 11.5206C22.447 10.2159 21.5749 9.1582 20.4991 9.1582C19.4233 9.1582 18.5513 10.2159 18.5513 11.5206C18.5513 12.8252 19.4233 13.8829 20.4991 13.8829Z" stroke="#896FCA" stroke-width="1.5" stroke-linecap="round" stroke-linejoin="round"/>
<path d="M3.5016 13.8829C4.57737 13.8829 5.44947 12.8252 5.44947 11.5206C5.44947 10.2159 4.57737 9.1582 3.5016 9.1582C2.42581 9.1582 1.55371 10.2159 1.55371 11.5206C1.55371 12.8252 2.42581 13.8829 3.5016 13.8829Z" stroke="#896FCA" stroke-width="1.5" stroke-linecap="round" stroke-linejoin="round"/>
<path d="M16.8697 17.6898C16.8697 19.8632 14.2404 20.8397 12.0007 20.8397C9.76106 20.8397 7.13184 19.8632 7.13184 17.6898C7.13184 15.5165 8.75481 12.1777 12.0007 12.1777C15.2467 12.1777 16.8697 15.5165 16.8697 17.6898Z" stroke="#896FCA" stroke-width="1.5" stroke-linecap="round" stroke-linejoin="round"/>
</svg>