<svg viewBox="0 0 24 24" fill="none" xmlns="http://www.w3.org/2000/svg">
<path d="M22.0742 18.2032C22.2678 19.9245 21.0613 21.4278 19.4325 21.6153C14.4572 22.1881 9.6428 22.1881 4.66749 21.6153C3.03862 21.4278 1.83214 19.9245 2.0258 18.2032C2.21036 16.5626 2.64832 13.7299 3.15645 12.1703C3.35683 11.5553 3.88383 11.1343 4.49712 11.0871C9.5579 10.6975 14.5421 10.6975 19.6029 11.0871C20.2161 11.1343 20.7431 11.5553 20.9435 12.1703C21.4517 13.7299 21.8897 16.5626 22.0742 18.2032Z" stroke="#896FCA" stroke-width="1.5"/>
<path d="M13.4875 15.9991C12.4953 15.4691 11.6046 15.4691 10.6123 15.9991" stroke="#896FCA" stroke-width="1.5" stroke-linecap="round" stroke-linejoin="round"/>
<path d="M3.76514 7.86353C4.09388 6.63244 4.95192 5.85663 6.25846 5.61686C6.2446 5.46831 6.23761 5.31418 6.23761 5.15464C6.23761 3.10692 7.38945 1.95508 9.43716 1.95508C10.6279 1.95508 11.5156 2.34453 12.0502 3.07312C12.5848 2.34453 13.4726 1.95508 14.6633 1.95508C16.711 1.95508 17.8628 3.10692 17.8628 5.15464C17.8628 5.31418 17.8559 5.46831 17.8419 5.61686C19.1485 5.85663 20.0066 6.63244 20.3352 7.86353" stroke="#896FCA" stroke-width="1.5" stroke-linecap="round" stroke-linejoin="round"/>
</svg>