<svg viewBox="0 0 24 24" fill="none" xmlns="http://www.w3.org/2000/svg">
<g clip-path="url(#clip0_12_7205)">
<path d="M6.44415 20.0001C6.44415 21.3506 5.3494 22.4454 3.99893 22.4454C2.64848 22.4454 1.55371 21.3506 1.55371 20.0001C1.55371 17.555 2.52161 15.0078 3.99893 15.0078C5.47625 15.0078 6.44415 17.555 6.44415 20.0001Z" stroke="#896FCA" stroke-width="1.5" stroke-linecap="round" stroke-linejoin="round"/>
<path d="M21.3805 21.1732C20.7325 22.358 19.2467 22.793 18.0619 22.145C16.8771 21.497 16.4419 20.0112 17.0899 18.8263C18.2634 16.681 20.3349 14.9108 21.6309 15.6198C22.927 16.3287 22.5539 19.0278 21.3805 21.1732Z" stroke="#896FCA" stroke-width="1.5" stroke-linecap="round" stroke-linejoin="round"/>
<path d="M21.4682 7.25435C20.8486 8.4543 19.3736 8.92486 18.1735 8.30534C16.9736 7.68582 16.5031 6.21081 17.1226 5.01086C18.2444 2.83811 20.2729 1.01886 21.5856 1.69658C22.8982 2.37431 22.5898 5.0816 21.4682 7.25435Z" stroke="#896FCA" stroke-width="1.5" stroke-linecap="round" stroke-linejoin="round"/>
<path d="M14.6559 13.2332C15.3331 14.4015 14.9349 15.8977 13.7665 16.5749C12.5981 17.252 11.102 16.8539 10.4248 15.6855C9.19863 13.5699 8.75879 10.8808 10.0369 10.14C11.3151 9.39922 13.4298 11.1176 14.6559 13.2332Z" stroke="#896FCA" stroke-width="1.5" stroke-linecap="round" stroke-linejoin="round"/>
<path d="M5.92753 7.27522C5.09727 8.34029 3.56079 8.53064 2.49571 7.70038C1.43063 6.87009 1.24028 5.33362 2.07055 4.26855C3.57389 2.34005 5.90322 0.92627 7.06836 1.83454C8.23349 2.74281 7.43087 5.34672 5.92753 7.27522Z" stroke="#896FCA" stroke-width="1.5" stroke-linecap="round" stroke-linejoin="round"/>
</g>
<defs>
<clipPath id="clip0_12_7205">
<rect width="24" height="24" fill="white"/>
</clipPath>
</defs>
</svg>