<svg viewBox="0 0 24 24" fill="none" xmlns="http://www.w3.org/2000/svg">
<g clip-path="url(#clip0_12_7063)">
<path d="M12.0009 12.0007C11.8425 9.3095 12.5707 3.4522 16.75 1.55273" stroke="#896FCA" stroke-width="1.5" stroke-linecap="round" stroke-linejoin="round"/>
<path d="M8.51528 13.6777C7.30796 11.2948 5.53435 11.0434 1.552 11.8368V20.0956C1.552 20.8679 2.10123 21.53 2.8628 21.6583C9.09802 22.7079 14.902 22.7079 21.1373 21.6583C21.8987 21.53 22.448 20.8679 22.448 20.0956V11.8368C18.364 11.0231 16.6659 11.1781 15.4643 13.6685C14.7976 15.0503 13.5342 16.111 12 16.111C10.4657 16.111 9.2087 15.0463 8.51528 13.6777Z" stroke="#896FCA" stroke-width="1.5" stroke-linecap="round" stroke-linejoin="round"/>
<path d="M9.15601 18.9531V19.5465" stroke="#896FCA" stroke-width="1.5" stroke-linecap="round" stroke-linejoin="round"/>
<path d="M4.88721 16.0195V16.6128" stroke="#896FCA" stroke-width="1.5" stroke-linecap="round" stroke-linejoin="round"/>
<path d="M14.844 18.9531V19.5465" stroke="#896FCA" stroke-width="1.5" stroke-linecap="round" stroke-linejoin="round"/>
<path d="M19.1128 16.0195V16.6128" stroke="#896FCA" stroke-width="1.5" stroke-linecap="round" stroke-linejoin="round"/>
</g>
<defs>
<clipPath id="clip0_12_7063">
<rect width="24" height="24" fill="white"/>
</clipPath>
</defs>
</svg>