<svg viewBox="0 0 24 24" fill="none" xmlns="http://www.w3.org/2000/svg">
<path d="M1.95557 22.0449C3.69144 20.7131 7.71266 19.2324 12.0002 19.2324C16.2878 19.2324 20.309 20.7131 22.0449 22.0449" stroke="#896FCA" stroke-width="1.5" stroke-linecap="round" stroke-linejoin="round"/>
<path d="M4.13624 9.53084C2.04505 7.81339 1.31448 4.11519 2.57753 2.35209C4.47166 1.29561 8.06406 2.43799 9.53509 4.70929C10.7709 6.6174 10.0332 8.12228 8.75232 9.2662C7.46337 10.4173 5.89305 10.9737 4.13624 9.53084Z" stroke="#896FCA" stroke-width="1.5" stroke-linecap="round" stroke-linejoin="round"/>
<path d="M12.2892 19.2324C12.5403 14.637 11.3184 11.0853 6.86426 6.98047" stroke="#896FCA" stroke-width="1.5" stroke-linecap="round" stroke-linejoin="round"/>
<path d="M12.2764 19.22C12.9544 16.0811 14.3073 12.2812 16.3004 10.1816" stroke="#896FCA" stroke-width="1.5" stroke-linecap="round" stroke-linejoin="round"/>
<path d="M15.9157 6.44711C17.2105 4.68357 20.1641 3.93165 21.6428 4.87405C22.5788 6.35688 21.814 9.30716 20.0448 10.5943C18.5585 11.6757 17.3112 11.1461 16.3317 10.1621C15.3459 9.172 14.8279 7.92863 15.9157 6.44711Z" stroke="#896FCA" stroke-width="1.5" stroke-linecap="round" stroke-linejoin="round"/>
</svg>