<svg viewBox="0 0 24 24" fill="none" xmlns="http://www.w3.org/2000/svg">
<path d="M12.5966 13.9059C15.1645 13.9159 17.7329 13.9902 20.3077 14.1284C20.4848 13.6241 20.5759 13.044 20.5759 12.393C20.5759 9.77646 19.1041 8.30469 16.4877 8.30469C13.8712 8.30469 12.3994 9.77646 12.3994 12.393C12.3994 12.9503 12.4662 13.4556 12.5966 13.9059Z" stroke="#896FCA" stroke-width="1.5" stroke-linecap="round" stroke-linejoin="round"/>
<path d="M15.5365 13.9451C14.3573 13.9181 13.1787 13.9045 12.0001 13.9045C9.1833 13.9045 6.36646 13.9816 3.54183 14.1357C3.51449 14.1372 3.48733 14.1394 3.46039 14.1422C2.81035 12.2991 3.07865 10.7586 4.2113 9.68118C3.92355 9.29172 3.6645 8.83473 3.43731 8.31165C2.25409 5.58727 2.97126 3.45426 5.42946 2.38663C7.88767 1.31901 9.93597 2.25094 11.1192 4.97532C11.3464 5.4984 11.5035 5.99968 11.5917 6.47581C12.9942 6.39288 14.1936 7.07558 15.0777 8.47301C13.3485 8.92823 12.3991 10.2912 12.3991 12.3927C12.3991 12.95 12.4659 13.4553 12.5963 13.9056C13.5762 13.9094 14.5561 13.9226 15.5365 13.9451Z" stroke="#896FCA" stroke-width="1.5" stroke-linecap="round" stroke-linejoin="round"/>
<path d="M7.72217 8.5C9.28531 10.3307 9.84167 12.1745 10.0673 13.9106" stroke="#896FCA" stroke-width="1.5" stroke-linecap="round" stroke-linejoin="round"/>
<path d="M12.0002 22.0501C3.84023 22.0501 2.38239 19.9787 1.96323 15.8227C1.87486 14.9465 2.5621 14.1894 3.4508 14.1414C6.30586 13.9872 9.15303 13.9102 12.0002 13.9102C14.8474 13.9102 17.6946 13.9876 20.5496 14.1419C21.4383 14.1899 22.1255 14.9471 22.0371 15.8233C21.618 19.9792 20.1602 22.0501 12.0002 22.0501Z" stroke="#896FCA" stroke-width="1.5" stroke-linecap="round" stroke-linejoin="round"/>
</svg>