<svg viewBox="0 0 24 24" fill="none" xmlns="http://www.w3.org/2000/svg">
<g clip-path="url(#clip0_12_7089)">
<path d="M12 8.00814V5.76758" stroke="#896FCA" stroke-width="1.5" stroke-linecap="round" stroke-linejoin="round"/>
<path d="M8.80372 11.1953H6.55859" stroke="#896FCA" stroke-width="1.5" stroke-linecap="round" stroke-linejoin="round"/>
<path d="M11.2476 5.76758H12.7527" stroke="#896FCA" stroke-width="1.5" stroke-linecap="round" stroke-linejoin="round"/>
<path d="M6.55859 11.9485V10.4434" stroke="#896FCA" stroke-width="1.5" stroke-linecap="round" stroke-linejoin="round"/>
<path d="M11.9913 14.3831C14.0314 14.3831 15.179 13.2355 15.179 11.1954C15.179 9.15536 14.0314 8.00781 11.9913 8.00781C9.95126 8.00781 8.80371 9.15536 8.80371 11.1954C8.80371 13.2355 9.95126 14.3831 11.9913 14.3831Z" stroke="#896FCA" stroke-width="1.5" stroke-linecap="round" stroke-linejoin="round"/>
<path d="M8.04346 7.22656L9.64816 8.83126" stroke="#896FCA" stroke-width="1.5" stroke-linecap="round" stroke-linejoin="round"/>
<path d="M7.51123 7.75964L8.57556 6.69531" stroke="#896FCA" stroke-width="1.5" stroke-linecap="round" stroke-linejoin="round"/>
<path d="M15.1787 11.1953H17.4409" stroke="#896FCA" stroke-width="1.5" stroke-linecap="round" stroke-linejoin="round"/>
<path d="M17.4414 11.9485V10.4434" stroke="#896FCA" stroke-width="1.5" stroke-linecap="round" stroke-linejoin="round"/>
<path d="M15.9568 7.22656L14.3521 8.83126" stroke="#896FCA" stroke-width="1.5" stroke-linecap="round" stroke-linejoin="round"/>
<path d="M16.4886 7.75964L15.4243 6.69531" stroke="#896FCA" stroke-width="1.5" stroke-linecap="round" stroke-linejoin="round"/>
<path d="M12 14.3828V16.6233" stroke="#896FCA" stroke-width="1.5" stroke-linecap="round" stroke-linejoin="round"/>
<path d="M11.2476 16.623H12.7527" stroke="#896FCA" stroke-width="1.5" stroke-linecap="round" stroke-linejoin="round"/>
<path d="M8.04346 15.1642L9.64318 13.5645" stroke="#896FCA" stroke-width="1.5" stroke-linecap="round" stroke-linejoin="round"/>
<path d="M7.51123 14.6328L8.57556 15.6971" stroke="#896FCA" stroke-width="1.5" stroke-linecap="round" stroke-linejoin="round"/>
<path d="M15.9568 15.1643L14.3491 13.5566" stroke="#896FCA" stroke-width="1.5" stroke-linecap="round" stroke-linejoin="round"/>
<path d="M16.4886 14.6328L15.4243 15.6971" stroke="#896FCA" stroke-width="1.5" stroke-linecap="round" stroke-linejoin="round"/>
<path d="M1.55371 11.5665C1.55371 5.19409 4.16532 2.46307 5.03586 1.55273H18.9644C19.835 2.46307 22.4466 5.19409 22.4466 11.5665C22.4466 18.8491 15.5873 21.5353 12.1052 22.4456C8.62305 21.5353 1.55371 18.8491 1.55371 11.5665Z" stroke="#896FCA" stroke-width="1.5" stroke-linecap="round" stroke-linejoin="round"/>
</g>
<defs>
<clipPath id="clip0_12_7089">
<rect width="24" height="24" fill="white"/>
</clipPath>
</defs>
</svg>