<svg viewBox="0 0 24 24" fill="none" xmlns="http://www.w3.org/2000/svg">
<g clip-path="url(#clip0_12_7481)">
<path fill-rule="evenodd" clip-rule="evenodd" d="M13.7137 1.71623C13.7137 0.769465 12.9462 0.00195312 11.9994 0.00195312C11.0526 0.00195312 10.2851 0.769465 10.2851 1.71623V10.2854H1.71624C0.769465 10.2854 0.00195318 11.0529 0.00195313 11.9997C0.00195309 12.9464 0.769463 13.7139 1.71624 13.7139H10.2851V22.2831C10.2851 23.2298 11.0526 23.9974 11.9994 23.9974C12.9462 23.9974 13.7137 23.2298 13.7137 22.2831V13.7139H22.283C23.2298 13.7139 23.9973 12.9464 23.9973 11.9997C23.9973 11.0529 23.2298 10.2854 22.283 10.2854H13.7137V1.71623Z" fill="#896FCA"/>
</g>
<defs>
<clipPath id="clip0_12_7481">
<rect width="24" height="24" fill="white"/>
</clipPath>
</defs>
</svg>