<svg viewBox="0 0 24 24" fill="none" xmlns="http://www.w3.org/2000/svg">
<g clip-path="url(#clip0_12_7313)">
<path fill-rule="evenodd" clip-rule="evenodd" d="M10.3842 1.6167C10.5679 0.930789 10.1607 0.225833 9.47484 0.0421349C8.78894 -0.141564 8.08399 0.265557 7.90029 0.951465L7.54173 2.29029C7.01428 2.24951 6.50604 2.27948 6.02471 2.38592L5.38732 1.28192C5.03227 0.666974 4.24595 0.456278 3.631 0.811318C3.01605 1.16636 2.80536 1.95268 3.16039 2.56763L3.79775 3.67155C3.46485 4.0352 3.18475 4.46037 2.95631 4.93758L1.61734 4.5788C0.93145 4.39501 0.226447 4.80205 0.042664 5.48793C-0.141119 6.17382 0.265917 6.87882 0.951801 7.06261L2.29077 7.42139C2.25 7.94888 2.27999 8.45714 2.38646 8.93852L1.28255 9.57585C0.667601 9.9309 0.456903 10.7172 0.811944 11.3322C1.16698 11.9471 1.95331 12.1578 2.56826 11.8028L3.67223 11.1654C4.03588 11.4983 4.46104 11.7783 4.93821 12.0067L4.57932 13.3454C4.39547 14.0313 4.8024 14.7364 5.48827 14.9202C6.17414 15.1041 6.87919 14.6971 7.06305 14.0113L7.42204 12.6722C7.94944 12.713 8.45764 12.683 8.93896 12.5765L9.57638 13.6806C9.93143 14.2955 10.7178 14.5062 11.3327 14.1512C11.9476 13.7962 12.1584 13.0098 11.8033 12.3949L11.1658 11.2908C11.4987 10.9272 11.7788 10.502 12.0072 10.0249L13.3461 10.3836C14.032 10.5674 14.737 10.1604 14.9208 9.47451C15.1045 8.78862 14.6975 8.08362 14.0116 7.89983L12.6727 7.54107C12.7135 7.01365 12.6835 6.50545 12.577 6.02413L13.6812 5.38667C14.2961 5.03163 14.5068 4.2453 14.1518 3.63035C13.7967 3.0154 13.0104 2.8047 12.3954 3.15975L11.2914 3.79719C10.9278 3.46436 10.5026 3.18429 10.0255 2.95588L10.3842 1.6167ZM21.6475 15.6535L21.8003 15.3886C22.1553 14.7736 21.9444 13.9873 21.3294 13.6324C20.7143 13.2775 19.9281 13.4884 19.5731 14.1034L19.4205 14.3679C19.1784 14.297 18.9359 14.2476 18.694 14.2213L18.629 13.9789C18.4452 13.2931 17.7402 12.886 17.0543 13.0698C16.3684 13.2536 15.9614 13.9586 16.1452 14.6445L16.2101 14.8867C16.0137 15.0304 15.8284 15.1945 15.6542 15.3769L15.3896 15.2242C14.7747 14.8691 13.9884 15.0798 13.6333 15.6947C13.2783 16.3097 13.489 17.096 14.1039 17.4511L14.3682 17.6036C14.2972 17.8459 14.2477 18.0884 14.2214 18.3305L13.9797 18.3951C13.2938 18.5791 12.8868 19.284 13.0706 19.9699C13.2543 20.6558 13.9593 21.0627 14.6452 20.879L14.8864 20.8143C15.0302 21.011 15.1945 21.1966 15.3772 21.3711L15.2251 21.6344C14.8699 22.2494 15.0804 23.0357 15.6953 23.3909C16.3102 23.7461 17.0965 23.5356 17.4516 22.9207L17.604 22.6568C17.8464 22.728 18.0894 22.7774 18.3316 22.8038L18.3962 23.0444C18.58 23.7303 19.2849 24.1375 19.9708 23.9537C20.6567 23.7698 21.0638 23.0648 20.88 22.379L20.8154 22.1379C21.0119 21.9941 21.1974 21.8299 21.3717 21.6471L21.6355 21.7994C22.2504 22.1544 23.0368 21.9437 23.3918 21.3288C23.7468 20.7139 23.5362 19.9275 22.9212 19.5725L22.6572 19.4201C22.728 19.1779 22.7776 18.9351 22.8038 18.6931L23.0454 18.6284C23.7312 18.4447 24.1382 17.7396 23.9544 17.0538C23.7707 16.3679 23.0658 15.9608 22.3799 16.1446L22.1378 16.2095C21.994 16.0131 21.8299 15.8277 21.6475 15.6535ZM10.1333 19.4789C10.6354 19.981 10.6354 20.795 10.1333 21.2971L8.92111 22.5092C8.419 23.0114 7.60494 23.0114 7.10284 22.5092C6.60072 22.0071 6.60072 21.1932 7.10284 20.6911L8.31501 19.4789C8.81712 18.9768 9.63119 18.9768 10.1333 19.4789ZM17.4717 0.102041C16.8177 -0.174526 16.0633 0.13145 15.7868 0.785457C15.5102 1.43946 15.8162 2.19385 16.4702 2.47041L18.0491 3.13809C18.7031 3.41466 19.4575 3.10869 19.734 2.45468C20.0106 1.80068 19.7047 1.0463 19.0506 0.769733L17.4717 0.102041ZM19.317 5.22592C19.9027 4.88768 20.5782 4.86961 21.2292 5.04409C21.8805 5.21857 22.4563 5.57192 22.7946 6.15777C23.1328 6.74363 23.151 7.41903 22.9764 8.0702C22.8019 8.72137 22.4486 9.29725 21.8628 9.63549C21.2769 9.97372 20.6015 9.99179 19.9504 9.81731C19.2991 9.64283 18.7233 9.28948 18.3851 8.70364C18.0468 8.11779 18.0287 7.44239 18.2032 6.79122C18.3777 6.14005 18.731 5.56417 19.317 5.22592ZM3.50889 16.6691C2.85772 16.4946 2.18232 16.5127 1.59648 16.8509C1.01062 17.1891 0.657279 17.765 0.482799 18.4162C0.308318 19.0673 0.326383 19.7427 0.664625 20.3287C1.00287 20.9144 1.57875 21.2678 2.22991 21.4423C2.88108 21.6168 3.55649 21.5988 4.14233 21.2606C4.72819 20.9222 5.08154 20.3463 5.25602 19.6952C5.4305 19.044 5.41243 18.3686 5.07419 17.7828C4.73594 17.1968 4.16008 16.8436 3.50889 16.6691Z" fill="#896FCA"/>
</g>
<defs>
<clipPath id="clip0_12_7313">
<rect width="24" height="24" fill="white"/>
</clipPath>
</defs>
</svg>