<svg viewBox="0 0 24 24" fill="none" xmlns="http://www.w3.org/2000/svg">
<g clip-path="url(#clip0_12_7469)">
<path fill-rule="evenodd" clip-rule="evenodd" d="M23.1473 9.48051C24.2874 10.9806 24.2839 13.0597 23.1387 14.5559C20.664 17.7891 18.0807 20.7241 14.9064 22.4725C13.6179 23.1821 12.2589 22.9496 11.2799 22.1843C10.3208 21.4346 9.72387 20.1819 9.80549 18.8099C9.85123 18.0408 9.91563 17.264 10.017 16.5026C7.80504 16.5991 5.60414 16.537 3.37899 16.3163C1.74614 16.1544 0.225392 14.9734 0.0558499 13.1738C-0.0176936 12.3912 -0.0176935 11.59 0.0558501 10.8074C0.225393 9.00782 1.74614 7.82677 3.37899 7.66486C5.60996 7.44363 7.81653 7.38175 10.0343 7.47936C9.93667 6.71792 9.87552 5.94152 9.8328 5.17301C9.75646 3.80004 10.3588 2.54929 11.3215 1.80375C12.3043 1.04261 13.6649 0.816836 14.9503 1.53341C18.1136 3.29689 20.6854 6.24118 23.1473 9.48051Z" fill="#896FCA"/>
</g>
<defs>
<clipPath id="clip0_12_7469">
<rect width="24" height="24" fill="white"/>
</clipPath>
</defs>
</svg>