<svg viewBox="0 0 24 24" fill="none" xmlns="http://www.w3.org/2000/svg">
<g clip-path="url(#clip0_12_7317)">
<path fill-rule="evenodd" clip-rule="evenodd" d="M7.16198 0.738081C7.09617 0.26929 6.66279 -0.0573843 6.19401 0.0084311C5.72522 0.0742465 5.39853 0.507629 5.46435 0.976419L5.60721 1.99394C5.56351 2.00851 5.51957 2.02349 5.47541 2.03889C4.77639 2.28245 4.18354 2.68582 3.68971 3.2015L2.98186 2.6242C2.61502 2.32498 2.07509 2.37982 1.7759 2.74666C1.47669 3.1135 1.53153 3.65345 1.89837 3.95265L2.7023 4.60834C2.40667 5.1816 2.18079 5.81074 2.02005 6.4651C1.96843 6.67521 1.92293 6.88975 1.88359 7.10815L0.978845 6.9785C0.510247 6.91135 0.0759322 7.23679 0.00877805 7.70539C-0.0583762 8.17399 0.26706 8.60829 0.735658 8.67545L1.70326 8.81412C1.65762 10.0552 1.7843 11.3641 2.08346 12.6548L1.19303 12.9019C0.736891 13.0285 0.469742 13.5009 0.596342 13.9571C0.722942 14.4132 1.19535 14.6804 1.65149 14.5538L2.56459 14.3004C2.93565 15.343 3.42998 16.3611 4.0513 17.3019L3.31317 17.7791C2.91564 18.0361 2.80174 18.5667 3.05878 18.9642C3.31582 19.3618 3.84646 19.4758 4.24397 19.2186L5.09609 18.6676C5.72319 19.3762 6.44011 20.012 7.24898 20.5444L6.8011 21.3824C6.57794 21.7998 6.73548 22.3192 7.15298 22.5424C7.57046 22.7655 8.08982 22.6079 8.31297 22.1905L8.75518 21.3632C9.60478 21.7355 10.5345 22.004 11.546 22.1437L11.5118 23.1128C11.4951 23.5858 11.8651 23.9828 12.3382 23.9996C12.8113 24.0162 13.2083 23.6463 13.225 23.1731L13.2574 22.2536C13.3933 22.2527 13.5304 22.2498 13.6688 22.2447C14.9106 22.1984 16.0216 21.9639 17.0007 21.5842L17.4753 22.4485C17.7031 22.8635 18.2241 23.0152 18.6391 22.7874C19.0539 22.5596 19.2058 22.0386 18.978 21.6236L18.5314 20.8103C19.7505 20.0319 20.6837 18.992 21.3279 17.8266L21.9975 18.2581C22.3954 18.5144 22.9258 18.3997 23.1823 18.0016C23.4386 17.6038 23.3239 17.0733 22.9258 16.8169L22.0101 16.2269C22.1961 15.6292 22.3157 15.0165 22.3685 14.4037C22.4115 13.9039 22.4103 13.4017 22.3642 12.9056L23.2635 12.7781C23.7322 12.7116 24.0583 12.2777 23.9918 11.809C23.9253 11.3403 23.4915 11.0143 23.0229 11.0808L22.0226 11.2227C21.7747 10.452 21.4034 9.72509 20.9049 9.08023C20.747 8.87596 20.5773 8.68104 20.3957 8.49648L21.001 7.84781C21.324 7.50173 21.3053 6.95933 20.9592 6.63636C20.6131 6.31337 20.0707 6.33211 19.7477 6.67821L19.0346 7.44245C18.1517 6.93166 17.106 6.60362 15.909 6.51475L16.2061 5.90248C16.4128 5.4766 16.2242 4.98856 15.7848 4.8124C15.3454 4.63624 14.8216 4.83869 14.6149 5.26457L14.2381 6.04106C14.0552 5.91989 13.8791 5.77708 13.7045 5.61525C13.4231 5.35447 13.1541 5.05174 12.8684 4.71331C12.7873 4.61729 12.7032 4.5163 12.6169 4.41268C12.4113 4.1657 12.1931 3.90374 11.9738 3.65841C11.8636 3.53517 11.749 3.41119 11.6291 3.28848L12.2043 2.39637C12.4609 1.99852 12.3463 1.46804 11.9485 1.2115C11.5506 0.954962 11.0201 1.06952 10.7636 1.46737L10.2834 2.21201C10.0341 2.06777 9.76599 1.94165 9.47609 1.84092C8.82137 1.61342 8.09858 1.52939 7.2851 1.61493L7.16198 0.738081ZM6.14937 6.99093C5.64801 7.49229 5.31362 8.11245 5.31362 8.81515C5.31362 9.51785 5.64801 10.138 6.14937 10.6394C6.65074 11.1408 7.2709 11.4751 7.97361 11.4751C8.67629 11.4751 9.29645 11.1408 9.79783 10.6394C10.2992 10.138 10.6336 9.51785 10.6336 8.81515C10.6336 8.11245 10.2992 7.49229 9.79783 6.99093C9.29645 6.48957 8.67629 6.15516 7.97361 6.15516C7.2709 6.15516 6.65074 6.48957 6.14937 6.99093ZM7.94126 13.9512C7.43914 14.4533 7.43914 15.2673 7.94126 15.7694C8.44335 16.2715 9.25742 16.2715 9.75953 15.7694L10.3656 15.1633C10.8677 14.6612 10.8677 13.8472 10.3656 13.3451C9.86352 12.843 9.04944 12.843 8.54734 13.3451L7.94126 13.9512ZM11.998 14.8603C11.998 14.0735 12.372 13.3693 12.9525 12.7887C13.533 12.2082 14.2373 11.8342 15.0241 11.8342C15.8109 11.8342 16.5151 12.2082 17.0957 12.7887C17.6762 13.3693 18.0501 14.0735 18.0501 14.8603C18.0501 15.6471 17.6762 16.3514 17.0957 16.9319C16.5151 17.5124 15.8109 17.8863 15.0241 17.8863C14.2373 17.8863 13.533 17.5124 12.9525 16.9319C12.372 16.3514 11.998 15.6471 11.998 14.8603Z" fill="#896FCA"/>
</g>
<defs>
<clipPath id="clip0_12_7317">
<rect width="24" height="24" fill="white"/>
</clipPath>
</defs>
</svg>