<svg viewBox="0 0 24 24" fill="none" xmlns="http://www.w3.org/2000/svg">
<g clip-path="url(#clip0_12_7421)">
<path fill-rule="evenodd" clip-rule="evenodd" d="M5.86329 1.71345C5.86329 1.00337 5.28765 0.427734 4.57757 0.427734C3.86748 0.427734 3.29186 1.00337 3.29186 1.71345V2.89202C3.29186 3.60209 3.86748 4.17773 4.57757 4.17773C5.28765 4.17773 5.86329 3.60209 5.86329 2.89202V1.71345ZM13.3051 1.71345C13.3051 1.00337 12.7295 0.427734 12.0194 0.427734C11.3093 0.427734 10.7337 1.00337 10.7337 1.71345V2.7059C10.7337 3.41599 11.3093 3.99161 12.0194 3.99161C12.7295 3.99161 13.3051 3.41599 13.3051 2.7059V1.71345ZM19.3393 0.427734C20.0496 0.427734 20.6251 1.00337 20.6251 1.71345V2.89202C20.6251 3.60209 20.0496 4.17773 19.3393 4.17773C18.6293 4.17773 18.0536 3.60209 18.0536 2.89202V1.71345C18.0536 1.00337 18.6293 0.427734 19.3393 0.427734ZM4.29662 6.13529C5.00671 6.13529 5.58233 6.71092 5.58233 7.42101V10.0216C7.40846 9.83973 9.36502 9.79075 10.7346 9.77757V7.42101C10.7346 6.71092 11.3102 6.13529 12.0203 6.13529C12.7304 6.13529 13.306 6.71092 13.306 7.42101V9.77798C14.6519 9.79151 16.5484 9.83993 18.3319 10.0131V7.42101C18.3319 6.71092 18.9073 6.13529 19.6176 6.13529C20.3276 6.13529 20.9033 6.71092 20.9033 7.42101V10.4973C22.0532 10.9957 22.9203 11.9957 23.2795 13.2005C23.4445 13.7545 23.5282 14.2041 23.5707 14.7025C23.5765 14.7703 23.5448 14.8348 23.4941 14.8801C22.6033 15.6742 21.4313 16.1554 20.1444 16.1554C18.8537 16.1554 17.6785 15.6714 16.7868 14.8732C16.38 14.5091 15.7645 14.5091 15.3577 14.8732C14.4659 15.6714 13.2908 16.1554 12.0002 16.1554C10.7095 16.1554 9.53443 15.6714 8.64262 14.8732C8.23583 14.5091 7.62033 14.5091 7.21353 14.8732C6.32172 15.6714 5.14667 16.1554 3.856 16.1554C2.5686 16.1554 1.39626 15.6739 0.505303 14.8793C0.454953 14.8344 0.423662 14.7703 0.429383 14.7031C0.471818 14.2044 0.555563 13.7547 0.720744 13.2005C1.07084 12.0259 1.90372 11.046 3.01091 10.5358V7.42101C3.01091 6.71092 3.58654 6.13529 4.29662 6.13529ZM1.72956 17.9779C1.10411 17.7842 0.377114 18.2152 0.451843 18.8657C0.499279 19.2787 0.580773 19.6732 0.720744 20.1429C1.17869 21.6792 2.46266 22.8826 4.10614 23.1374C6.90221 23.5708 10.5921 23.5706 11.974 23.5706H12.0262C13.4081 23.5706 17.0979 23.5708 19.8941 23.1374C21.5376 22.8826 22.8214 21.6792 23.2795 20.1429C23.4193 19.6732 23.5009 19.2787 23.5483 18.8657C23.623 18.2153 22.896 17.7842 22.2706 17.9779C21.5986 18.1862 20.8843 18.2983 20.1444 18.2983C18.8444 18.2983 17.6242 17.9522 16.5721 17.3477C16.2635 17.1705 15.881 17.1705 15.5724 17.3477C14.5202 17.9522 13.3 18.2983 12.0002 18.2983C10.7003 18.2983 9.48007 17.9522 8.42793 17.3477C8.11936 17.1705 7.73678 17.1705 7.42821 17.3477C6.37607 17.9522 5.1558 18.2983 3.856 18.2983C3.11594 18.2983 2.40168 18.1862 1.72956 17.9779Z" fill="#896FCA"/>
</g>
<defs>
<clipPath id="clip0_12_7421">
<rect width="24" height="24" fill="white"/>
</clipPath>
</defs>
</svg>