<svg viewBox="0 0 24 24" fill="none" xmlns="http://www.w3.org/2000/svg">
<path fill-rule="evenodd" clip-rule="evenodd" d="M15.946 4.21716C16.0897 3.34383 15.9853 2.37026 15.0583 2.06107C13.8125 1.64557 12.7038 3.41847 11.8914 5.30502C11.8082 5.49829 11.9139 5.71896 12.1118 5.79072C13.5976 6.32966 14.831 7.29912 15.7152 8.1834C16.6157 9.08385 17.6045 10.3463 18.1371 11.8685C18.207 12.0687 18.429 12.1769 18.624 12.0937C20.5217 11.2836 22.3547 10.1837 21.941 8.94349C21.6318 8.0165 20.6582 7.91209 19.785 8.05582C19.6468 8.07856 19.4127 7.66197 19.5077 7.559C20.4187 6.57164 21.1242 5.17708 19.9745 4.02746C18.825 2.87783 17.4302 3.58347 16.4427 4.49442C16.3398 4.58941 15.9232 4.35541 15.946 4.21716ZM2.06426 20.1606C1.78121 17.4941 2.31464 12.6593 6.08488 8.88908C9.27251 5.70145 12.5393 7.53445 14.4517 9.44688C16.3641 11.3593 18.1971 14.6261 15.0095 17.8137C11.2393 21.584 6.40442 22.1173 3.73798 21.8343C2.84314 21.7393 2.15925 21.0555 2.06426 20.1606ZM7.48781 9.91957C7.83671 9.57067 8.40238 9.57067 8.75128 9.91957L10.3542 11.5225C10.7031 11.8714 10.7031 12.437 10.3542 12.7859C10.0053 13.1348 9.4396 13.1348 9.0907 12.7859L7.48781 11.183C7.13891 10.8342 7.13891 10.2685 7.48781 9.91957ZM8.83801 16.0709C8.48911 15.722 7.92344 15.722 7.57453 16.0709C7.22563 16.4197 7.22563 16.9855 7.57453 17.3343L9.03026 18.7901C9.37916 19.139 9.94483 19.139 10.2937 18.7901C10.6426 18.4411 10.6426 17.8755 10.2937 17.5266L8.83801 16.0709Z" fill="#896FCA"/>
</svg>