<svg viewBox="0 0 24 24" fill="none" xmlns="http://www.w3.org/2000/svg">
<g clip-path="url(#clip0_12_7413)">
<path fill-rule="evenodd" clip-rule="evenodd" d="M9.2382 1.8972C9.57578 1.2725 9.34301 0.492417 8.71831 0.154836C8.09361 -0.182743 7.31352 0.0500168 6.97594 0.67472C6.11837 2.26167 6.11837 3.90701 6.97594 5.49398C7.31352 6.11868 8.09361 6.35143 8.71831 6.01385C9.34301 5.67627 9.57578 4.89619 9.2382 4.27149C8.79286 3.44739 8.79286 2.72131 9.2382 1.8972ZM4.59866 4.05521C4.93624 3.43051 4.70347 2.65042 4.07877 2.31285C3.45406 1.97527 2.67398 2.20803 2.3364 2.83274C1.60913 4.17859 1.60913 5.58679 2.3364 6.93264C2.67398 7.55734 3.45406 7.79009 4.07877 7.45251C4.70347 7.11494 4.93624 6.33485 4.59866 5.71015C4.28361 5.12715 4.28361 4.63821 4.59866 4.05521ZM13.2604 2.31285C13.8851 2.65042 14.1179 3.43051 13.7803 4.05521C13.4653 4.63821 13.4653 5.12715 13.7803 5.71015C14.1179 6.33485 13.8851 7.11494 13.2604 7.45251C12.6357 7.79009 11.8556 7.55734 11.518 6.93264C10.7908 5.58679 10.7908 4.17859 11.518 2.83274C11.8556 2.20803 12.6357 1.97527 13.2604 2.31285ZM19.7675 5.05433C20.242 4.58002 20.884 4.38993 21.551 4.38993C22.2179 4.38993 22.8599 4.58002 23.3344 5.05433C23.8091 5.52871 23.9996 6.17069 23.9996 6.83755C23.9996 7.50441 23.8091 8.14637 23.3344 8.62075C22.8599 9.09507 22.2179 9.28515 21.551 9.28515C21.3664 9.28515 21.1837 9.2706 21.0059 9.23947L19.3172 11.2935C19.9646 12.2925 20.1081 13.5424 19.8524 14.7455C20.9588 15.3456 21.7593 16.0558 22.2885 16.9202C22.8966 17.9134 23.0884 19.0164 23.0884 20.1837C23.0884 21.8904 21.8269 23.3642 20.0994 23.5536C15.197 24.091 10.3797 24.1431 5.49298 23.7096C2.86145 23.4761 0.291671 21.7186 0.0450113 18.815C-0.0936122 17.1831 0.054553 15.1921 1.02075 13.2635C3.12797 9.05727 7.96968 7.83991 11.5804 9.04174C11.527 9.09751 11.4741 9.15413 11.4217 9.21158C9.06168 11.8021 8.3999 15.5527 10.2637 18.0389C10.4519 18.2901 10.6647 18.5251 10.9021 18.7411C11.3397 19.1393 12.0176 19.1076 12.4161 18.6701C12.8146 18.2328 12.7828 17.5553 12.3452 17.1571C12.2089 17.033 12.087 16.8984 11.9791 16.7544C10.9265 15.3503 11.0944 12.7528 13.0066 10.6538C13.1943 10.4478 13.39 10.2571 13.5918 10.0817L13.6051 10.0902C14.926 9.45754 16.4351 9.32306 17.693 9.89467L19.307 7.93138C19.1648 7.59276 19.1024 7.21923 19.1024 6.83755C19.1024 6.17069 19.2928 5.52871 19.7675 5.05433Z" fill="#896FCA"/>
</g>
<defs>
<clipPath id="clip0_12_7413">
<rect width="24" height="24" fill="white"/>
</clipPath>
</defs>
</svg>