<svg viewBox="0 0 24 24" fill="none" xmlns="http://www.w3.org/2000/svg">
<g clip-path="url(#clip0_12_7345)">
<path fill-rule="evenodd" clip-rule="evenodd" d="M13.2859 1.28571C13.2859 0.575633 12.7102 0 12.0001 0C11.2901 0 10.7144 0.575633 10.7144 1.28571V2.17857C10.7144 2.88866 11.2901 3.46428 12.0001 3.46428C12.7102 3.46428 13.2859 2.88866 13.2859 2.17857V1.28571ZM5.33311 3.5147C4.83099 3.01258 4.01693 3.01258 3.51483 3.5147C3.01272 4.01679 3.01272 4.83086 3.51483 5.33297L4.14617 5.96431C4.64829 6.46641 5.46235 6.46641 5.96445 5.96431C6.46656 5.46221 6.46656 4.64813 5.96445 4.14603L5.33311 3.5147ZM24.0002 12C24.0002 12.7101 23.4245 13.2857 22.7145 13.2857H21.8215C21.1114 13.2857 20.5358 12.7101 20.5358 12C20.5358 11.2899 21.1114 10.7143 21.8215 10.7143H22.7145C23.4245 10.7143 24.0002 11.2899 24.0002 12ZM2.17857 13.2857C2.88866 13.2857 3.46428 12.7101 3.46428 12C3.46428 11.2899 2.88866 10.7143 2.17857 10.7143H1.28571C0.575633 10.7143 0 11.2899 0 12C0 12.7101 0.575633 13.2857 1.28571 13.2857H2.17857ZM20.4854 3.5147C20.9875 4.01679 20.9875 4.83086 20.4854 5.33297L19.8542 5.96431C19.3521 6.46641 18.5379 6.46641 18.0358 5.96431C17.5337 5.46221 17.5337 4.64813 18.0358 4.14603L18.6672 3.5147C19.1693 3.01258 19.9834 3.01258 20.4854 3.5147ZM15.8165 20.9409C15.8347 20.9421 15.8527 20.9429 15.8707 20.9433C15.8542 21.2373 15.8307 21.5235 15.8057 21.7992L15.8053 21.8033C15.758 22.2982 15.5691 22.7789 15.246 23.1615C14.9211 23.5464 14.4712 23.8166 13.9572 23.8867L13.9521 23.8874C13.4772 23.9493 12.5683 24 12.0867 24C11.605 24 10.6962 23.9493 10.2213 23.8874L10.2162 23.8867C9.70221 23.8166 9.25227 23.5464 8.92738 23.1615C8.60434 22.7789 8.41539 22.2982 8.36811 21.8033L8.36774 21.7992C8.34274 21.5235 8.31919 21.2373 8.30273 20.9433C8.32042 20.9429 8.3382 20.9421 8.35606 20.9409C8.44095 20.935 8.52285 20.9196 8.60074 20.8954C10.8493 20.4396 13.3224 20.4619 15.595 20.9021C15.6659 20.9223 15.74 20.9355 15.8165 20.9409ZM13.1577 18.45C14.144 18.5028 15.1207 18.6245 16.0645 18.8103C16.2891 18.1665 16.7194 17.5546 17.2682 16.7984L17.2735 16.7909C17.5017 16.4764 17.748 16.1368 17.9825 15.7772C18.6317 14.7819 19.0133 13.4083 19.0653 12.2692C19.0658 12.2562 19.0661 12.2432 19.0661 12.2302C19.0661 10.2497 18.5057 8.57067 17.2646 7.39471C16.031 6.22587 14.2567 5.67941 12.0866 5.67941C9.91661 5.67941 8.14231 6.22587 6.90879 7.39471C5.66772 8.57069 5.10729 10.2497 5.10729 12.2302C5.10729 12.2432 5.10758 12.2562 5.10818 12.2692C5.16009 13.4083 5.54175 14.7819 6.19078 15.7772C6.42533 16.1368 6.67167 16.4764 6.89986 16.7909L6.9053 16.7984C7.45359 17.5541 7.88359 18.1654 8.10838 18.809C9.05479 18.6132 10.0313 18.4934 11.0149 18.4447V16.8921C10.8631 16.7894 10.7222 16.6627 10.5971 16.5119C10.1283 15.9467 9.59669 15.1619 9.22005 14.2709C8.98965 13.7259 9.24471 13.0972 9.78974 12.8668C10.3348 12.6364 10.9634 12.8915 11.1938 13.4366C11.4317 13.9993 11.765 14.526 12.0867 14.9439C12.4084 14.526 12.7418 13.9993 12.9796 13.4366C13.21 12.8915 13.8387 12.6364 14.3837 12.8668C14.9287 13.0972 15.1838 13.7259 14.9534 14.2709C14.5767 15.1619 14.0452 15.9467 13.5763 16.5119C13.451 16.663 13.3098 16.7899 13.1577 16.8927V18.45Z" fill="#896FCA"/>
</g>
<defs>
<clipPath id="clip0_12_7345">
<rect width="24" height="24" fill="white"/>
</clipPath>
</defs>
</svg>