<svg viewBox="0 0 24 24" fill="none" xmlns="http://www.w3.org/2000/svg">
<g clip-path="url(#clip0_1_21342)">
<path d="M16 1.25C17.3929 1.25 18.5131 1.24812 19.3916 1.36621C20.2917 1.48723 21.0495 1.74672 21.6514 2.34863C22.2533 2.95055 22.5128 3.70829 22.6338 4.6084C22.7519 5.4869 22.75 6.60709 22.75 8V12C22.75 13.3929 22.7519 14.5131 22.6338 15.3916C22.5128 16.2917 22.2533 17.0495 21.6514 17.6514C20.7729 18.5298 19.5459 18.6886 17.9844 18.7334L17.2168 18.7559L17.2129 17.9873C17.2126 17.9361 17.2095 17.8851 17.2061 17.834C17.2479 18.4562 17.055 19.0911 16.625 19.5957C16.494 19.7495 16.4145 19.9412 16.3984 20.1426C16.3021 21.3465 15.3465 22.3021 14.1426 22.3984C13.9412 22.4145 13.7495 22.494 13.5957 22.625C12.6762 23.4086 11.3239 23.4086 10.4043 22.625C10.2505 22.4939 10.0589 22.4145 9.85742 22.3984C8.65329 22.3023 7.6969 21.3467 7.60059 20.1426C7.58451 19.9411 7.5051 19.7495 7.37402 19.5957C6.98635 19.1407 6.79017 18.5796 6.78613 18.0176L6.7832 18.7559L6.01562 18.7334C4.45431 18.6886 3.22705 18.5298 2.34863 17.6514C1.74672 17.0495 1.48723 16.2917 1.36621 15.3916C1.24812 14.5131 1.25 13.3929 1.25 12V8C1.25 6.60709 1.24812 5.4869 1.36621 4.6084C1.48723 3.70829 1.74672 2.95055 2.34863 2.34863C2.95055 1.74672 3.70829 1.48723 4.6084 1.36621C5.4869 1.24812 6.60709 1.25 8 1.25H16Z" fill="#896FCA" stroke="#896FCA" stroke-width="1.5"/>
</g>
<defs>
<clipPath id="clip0_1_21342">
<rect width="24" height="24" fill="white"/>
</clipPath>
</defs>
</svg>