<svg viewBox="0 0 24 24" fill="none" xmlns="http://www.w3.org/2000/svg">
<g clip-path="url(#clip0_12_7449)">
<path fill-rule="evenodd" clip-rule="evenodd" d="M16.3904 0.868605C15.8097 0.458095 15.0447 0.635042 14.6466 1.17131C12.6903 3.80621 11.4475 6.19732 10.5867 9.12215C8.65867 8.90393 7.07332 9.0977 5.08247 9.73286C4.10397 8.62344 3.22535 7.64352 2.09374 6.77844C1.26466 6.14462 0.171655 6.74412 0.104511 7.71636C-0.197336 12.0871 0.0802096 18.3185 2.02534 22.597C2.24184 23.0732 2.7168 23.3556 3.21914 23.3556H5.40497C6.1577 23.3556 6.72134 22.7492 6.81485 22.0668C6.96213 20.9922 7.33101 20.1891 7.85961 19.6462C8.38354 19.1079 9.09677 18.7914 10.004 18.7434C10.7644 18.7032 11.2282 18.8638 11.545 19.0986C11.8717 19.341 12.0966 19.7015 12.3052 20.1685C12.3949 20.3694 12.4769 20.5786 12.564 20.8008L12.6068 20.9098C12.7085 21.1681 12.8181 21.4407 12.9472 21.7064C13.2063 22.2397 13.5564 22.773 14.1278 23.1687C14.3394 23.3151 14.5769 23.3556 14.7735 23.3556H17.196C18.002 23.3556 18.612 22.656 18.5501 21.8694C18.4299 20.3463 18.3576 18.2823 18.476 16.2782C18.5881 14.3828 18.8688 12.5931 19.4086 11.3613C20.6127 11.326 21.5398 11.0574 22.2396 10.6298C22.9954 10.168 23.4584 9.53738 23.7176 8.88004C23.9748 8.2284 24.03 7.55621 23.9863 6.99413C23.9437 6.44702 23.8023 5.94701 23.6098 5.65615C23.419 5.36813 23.0799 5.10921 22.7077 4.88611C22.3231 4.65545 21.8532 4.43411 21.3485 4.23729C20.4197 3.87497 19.3364 3.58164 18.3919 3.47167C17.8944 2.5547 17.2896 1.50418 16.3904 0.868605Z" fill="#896FCA"/>
</g>
<defs>
<clipPath id="clip0_12_7449">
<rect width="24" height="24" fill="white"/>
</clipPath>
</defs>
</svg>