<svg viewBox="0 0 24 24" fill="none" xmlns="http://www.w3.org/2000/svg">
<g clip-path="url(#clip0_12_7445)">
<path fill-rule="evenodd" clip-rule="evenodd" d="M21.9327 17.351C22.8119 16.8373 23.377 15.9973 23.6862 15.0209C24.1134 13.6718 24.0767 12.0243 23.8129 10.4342C23.5463 8.8275 23.0329 7.19083 22.425 5.81725C21.8319 4.47673 21.0964 3.26706 20.3267 2.62495C19.2303 1.71016 17.7212 1.08345 16.2459 0.683648C14.7595 0.28082 13.2235 0.0859375 12.0105 0.0859375C10.7975 0.0859375 9.26151 0.28082 7.77504 0.683648C6.29974 1.08345 4.79071 1.71016 3.69418 2.62497C2.92455 3.26706 2.18918 4.47673 1.59595 5.81725C0.988074 7.19083 0.474712 8.8275 0.208147 10.4342C-0.0556818 12.0243 -0.0924085 13.6718 0.334813 15.0209C0.643957 15.9972 1.20888 16.8371 2.08803 17.3508C2.16327 15.2281 2.42539 12.6718 3.25874 9.4487C3.40687 8.87582 3.99137 8.53148 4.56427 8.67961C5.13716 8.82772 5.4815 9.41222 5.33338 9.98512C4.16158 14.5171 4.18786 17.5927 4.20999 20.1854C4.21291 20.5272 4.21577 20.8606 4.21579 21.1879C4.21582 22.0946 4.59164 22.6834 5.14418 23.0702C5.28917 23.1717 5.45007 23.2613 5.62404 23.3381C6.16939 23.5498 6.75674 23.6517 7.3441 23.6597C7.40314 23.6589 7.46252 23.6568 7.52222 23.6537C8.44838 23.6059 9.33466 23.2997 9.96413 22.8063C10.5706 22.331 10.9389 21.6902 10.9389 20.8598C10.9389 20.8428 10.9393 20.8258 10.9401 20.809C10.9394 20.7926 10.939 20.7759 10.939 20.7593V17.8577C10.5333 17.5046 10.0758 16.9977 9.8213 16.4108C9.69075 16.1098 9.72627 15.7794 9.88803 15.5204C10.0384 15.2796 10.2626 15.1488 10.4573 15.0886C10.788 14.9863 11.3419 14.87 12.011 14.87C12.6801 14.87 13.2341 14.9863 13.5647 15.0886C13.7594 15.1488 13.9836 15.2796 14.134 15.5204C14.2958 15.7794 14.3313 16.1098 14.2007 16.4108C13.9459 16.9983 13.4878 17.5056 13.0818 17.8587V20.7593C13.0818 20.7763 13.0814 20.7933 13.0806 20.8101C13.0814 20.8265 13.0818 20.8431 13.0818 20.8598C13.0818 21.6902 13.4501 22.331 14.0566 22.8063C14.686 23.2997 15.5723 23.6059 16.4985 23.6537C16.5433 23.6561 16.588 23.6577 16.6325 23.6589C17.431 23.6409 18.2271 23.4487 18.9157 23.0422C19.4468 22.6551 19.8049 22.073 19.8049 21.1879C19.8049 20.8608 19.8078 20.5275 19.8107 20.1859C19.8328 17.5932 19.8591 14.5171 18.6874 9.98512C18.5392 9.41222 18.8835 8.82772 19.4564 8.67961C20.0293 8.53148 20.6139 8.87582 20.762 9.4487C21.5953 12.6719 21.8574 15.2282 21.9327 17.351ZM14.9539 10.0718C15.5456 10.0718 16.0253 10.5515 16.0253 11.1432V12.0003C16.0253 12.5921 15.5456 13.0718 14.9539 13.0718C14.3622 13.0718 13.8825 12.5921 13.8825 12.0003V11.1432C13.8825 10.5515 14.3622 10.0718 14.9539 10.0718ZM10.0253 11.1432C10.0253 10.5515 9.54562 10.0718 8.95389 10.0718C8.36217 10.0718 7.88246 10.5515 7.88246 11.1432V12.0003C7.88246 12.5921 8.36217 13.0718 8.95389 13.0718C9.54562 13.0718 10.0253 12.5921 10.0253 12.0003V11.1432Z" fill="#896FCA"/>
</g>
<defs>
<clipPath id="clip0_12_7445">
<rect width="24" height="24" fill="white"/>
</clipPath>
</defs>
</svg>