<svg viewBox="0 0 24 24" fill="none" xmlns="http://www.w3.org/2000/svg">
<g clip-path="url(#clip0_12_7385)">
<path fill-rule="evenodd" clip-rule="evenodd" d="M2.93813 5.66994C5.17159 2.95566 8.85151 0.857422 14.5714 0.857422C17.7355 0.857422 20.1033 1.76423 21.6885 3.22759C23.2733 4.69041 24 6.64098 24 8.57171C24 9.72763 23.8258 10.6466 23.4979 11.3998C23.166 12.1619 22.6977 12.7053 22.1846 13.1347C21.7586 13.4912 21.2849 13.7799 20.8699 14.0329L20.868 14.0341C20.8046 14.0727 20.7425 14.1105 20.6823 14.1476C20.2039 14.442 19.7925 14.7147 19.4364 15.0707C18.7176 15.7896 18.4231 16.5211 18.1601 17.365C18.1222 17.4868 18.0843 17.6137 18.0454 17.7447C17.8197 18.5026 17.5521 19.4003 16.9721 20.2703C15.5334 22.4284 12.9209 23.1431 9.42857 23.1431C6.1878 23.1431 3.80181 21.8979 2.23906 20.0545C0.695312 18.2338 0 15.8851 0 13.7146C0 11.552 0.733526 8.34914 2.93813 5.66994ZM9.24686 6.67571C9.98865 5.93392 11.0517 5.57171 12.3348 5.57171C13.618 5.57171 14.681 5.93392 15.4228 6.67571C16.1646 7.4175 16.5268 8.48051 16.5268 9.76367C16.5268 11.0468 16.1646 12.1098 15.4228 12.8516C14.681 13.5934 13.618 13.9556 12.3348 13.9556C11.0517 13.9556 9.98865 13.5934 9.24686 12.8516C8.50507 12.1098 8.14286 11.0468 8.14286 9.76367C8.14286 8.48051 8.50507 7.4175 9.24686 6.67571Z" fill="#896FCA"/>
</g>
<defs>
<clipPath id="clip0_12_7385">
<rect width="24" height="24" fill="white"/>
</clipPath>
</defs>
</svg>