<svg viewBox="0 0 24 24" fill="none" xmlns="http://www.w3.org/2000/svg">
<path fill-rule="evenodd" clip-rule="evenodd" d="M11.0434 4.19201C14.3385 1.87915 19.0892 3.0787 21.0784 6.52431C23.0678 9.96992 21.7313 14.6839 18.0807 16.3811C16.1423 17.2824 14.1254 17.7687 11.5988 17.6654C10.8572 17.6351 10.168 17.4131 9.56325 17.0571C9.32315 17.6912 9.03054 18.3207 8.68093 18.8266C8.41579 19.2102 8.07925 19.5804 7.65387 19.8044C7.19631 20.0452 6.66973 20.0968 6.13455 19.8781C5.23765 19.5116 4.78059 18.8442 4.47731 18.2063C4.3595 17.9583 4.25581 17.6946 4.16261 17.4573C4.14107 17.4025 4.11989 17.3486 4.09943 17.2973C3.98445 17.0083 3.87702 16.757 3.74691 16.5316C3.62581 16.3219 3.46356 16.1078 3.26476 15.8586L3.16269 15.7313C2.99714 15.5254 2.81135 15.2943 2.64753 15.0583C2.24207 14.4741 1.86117 13.7092 2.04959 12.7488C2.16443 12.1634 2.45634 11.7031 2.90949 11.4021C3.33758 11.1177 3.84029 11.0215 4.30881 11.0034C4.89908 10.9805 5.56353 11.0803 6.19909 11.2085C6.19658 10.514 6.34927 9.81396 6.6902 9.16341C7.86397 6.92367 9.29368 5.42015 11.0434 4.19201ZM13.4948 6.21394C13.0967 6.14114 12.715 6.4048 12.6422 6.80286C12.3417 8.44615 12.7177 12.1253 16.613 13.7233C16.9874 13.8769 17.4153 13.6979 17.5688 13.3235C17.7224 12.9492 17.5435 12.5212 17.1691 12.3676C14.1501 11.129 13.8553 8.31516 14.0837 7.0665C14.1565 6.66844 13.8928 6.28675 13.4948 6.21394ZM16.1533 8.99897C15.9005 8.56092 16.0505 8.00077 16.4885 7.74786C16.9267 7.49495 17.4868 7.64505 17.7397 8.0831L17.9006 8.36185C18.1535 8.79989 18.0035 9.36002 17.5655 9.61294C17.1273 9.86585 16.5672 9.71576 16.3143 9.27771L16.1533 8.99897Z" fill="#896FCA"/>
</svg>