<svg viewBox="0 0 24 24" fill="none" xmlns="http://www.w3.org/2000/svg">
<g clip-path="url(#clip0_12_7409)">
<path fill-rule="evenodd" clip-rule="evenodd" d="M8.15947 1.44338C4.94297 -0.149371 1.94407 1.76321 0.683417 3.97221C0.0380619 5.10304 -0.188306 6.29956 0.174033 7.4968C0.52817 8.66695 1.40462 9.703 2.6847 10.6249C4.31877 11.8017 6.71572 12.2038 8.65586 12.2375C9.62054 12.2543 10.5272 12.1812 11.2467 12.0421C11.4028 15.2669 11.0292 19.6371 10.6604 22.553C10.5713 23.2575 11.0702 23.9009 11.7747 23.9899C12.4791 24.079 13.1224 23.5802 13.2115 22.8758C13.536 20.3107 13.8891 16.4599 13.8511 13.183C14.2043 13.337 14.589 13.4833 14.992 13.6145C16.5751 14.1301 18.6525 14.4823 20.3402 13.9767C21.6482 13.5848 22.6764 12.9813 23.3145 12.106C23.9692 11.2079 24.1269 10.1434 23.921 9.02584C23.5206 6.85246 21.598 4.40244 18.4643 4.80334C16.5648 5.04634 14.8489 6.42166 13.6779 7.70184C13.4296 7.97325 13.199 8.24789 12.9892 8.51755C12.8225 7.87092 12.5785 7.14257 12.2609 6.40236C11.4656 4.54884 10.1181 2.41329 8.15947 1.44338Z" fill="#896FCA"/>
</g>
<defs>
<clipPath id="clip0_12_7409">
<rect width="24" height="24" fill="white"/>
</clipPath>
</defs>
</svg>