<svg viewBox="0 0 24 24" fill="none" xmlns="http://www.w3.org/2000/svg">
<path fill-rule="evenodd" clip-rule="evenodd" d="M8.91993 3C8.1842 3 7.57096 3.37941 7.16594 3.89231C6.76138 4.40464 6.53267 5.0808 6.53267 5.79807C6.53267 6.51532 6.76138 7.1915 7.16594 7.70381C7.57096 8.21672 8.1842 8.59613 8.91993 8.59613C9.65566 8.59613 10.2689 8.21672 10.6739 7.70381C11.0785 7.1915 11.3072 6.51532 11.3072 5.79807C11.3072 5.0808 11.0785 4.40464 10.6739 3.89231C10.2689 3.37941 9.65566 3 8.91993 3ZM15.0809 3C14.3451 3 13.7319 3.37941 13.3269 3.89231C12.9223 4.40464 12.6936 5.0808 12.6936 5.79807C12.6936 6.51532 12.9223 7.1915 13.3269 7.70381C13.7319 8.21672 14.3451 8.59613 15.0809 8.59613C15.8166 8.59613 16.4298 8.21672 16.8348 7.70381C17.2393 7.1915 17.4681 6.51532 17.4681 5.79807C17.4681 5.0808 17.2393 4.40464 16.8348 3.89231C16.4298 3.37941 15.8166 3 15.0809 3ZM19.5292 8.28006C18.0183 8.28006 17.0586 9.69055 17.0586 11.0781C17.0586 12.4657 18.0183 13.8762 19.5292 13.8762C21.0403 13.8762 22 12.4657 22 11.0781C22 9.69055 21.0403 8.28006 19.5292 8.28006ZM4.47071 8.28006C2.95973 8.28006 2 9.69055 2 11.0781C2 12.4657 2.95973 13.8762 4.47071 13.8762C5.98167 13.8762 6.9414 12.4657 6.9414 11.0781C6.9414 9.69055 5.98167 8.28006 4.47071 8.28006ZM12.0001 10.9378C10.263 10.9378 8.9791 11.836 8.15797 12.9484C7.34854 14.045 6.94155 15.404 6.94155 16.5088C6.94155 17.8017 7.74779 18.6996 8.73172 19.2376C9.70063 19.7674 10.9135 20 12.0001 20C13.0867 20 14.2995 19.7674 15.2684 19.2376C16.2523 18.6996 17.0586 17.8017 17.0586 16.5088C17.0586 15.404 16.6515 14.045 15.8422 12.9484C15.021 11.836 13.7372 10.9378 12.0001 10.9378Z" fill="#896FCA"/>
</svg>