<svg viewBox="0 0 24 24" fill="none" xmlns="http://www.w3.org/2000/svg">
<path fill-rule="evenodd" clip-rule="evenodd" d="M22 12C22 16.714 22 19.0711 20.5355 20.5355C19.0711 22 16.714 22 12 22C7.866 22 5.54466 22 4.04833 21.0123L21.0123 4.04833C22 5.54466 22 7.866 22 12ZM18.75 17C18.75 17.4142 18.4142 17.75 18 17.75H13C12.5858 17.75 12.25 17.4142 12.25 17C12.25 16.5858 12.5858 16.25 13 16.25H18C18.4142 16.25 18.75 16.5858 18.75 17Z" fill="#896FCA"/>
<path fill-rule="evenodd" clip-rule="evenodd" d="M12 2C7.28595 2 4.92893 2 3.46447 3.46447C2 4.92893 2 7.28595 2 12C2 16.134 2 18.4553 2.98767 19.9517L19.9517 2.98767C18.4553 2 16.134 2 12 2ZM8 4.74996C8.41421 4.74996 8.75 5.08575 8.75 5.49996L8.75 7.24998H10.5C10.9142 7.24998 11.25 7.58577 11.25 7.99998C11.25 8.41419 10.9142 8.74998 10.5 8.74998H8.75L8.75 10.5C8.75 10.9142 8.41421 11.25 8 11.25C7.58579 11.25 7.25 10.9142 7.25 10.5L7.25 8.74998H5.5C5.08579 8.74998 4.75 8.41419 4.75 7.99998C4.75 7.58577 5.08579 7.24998 5.5 7.24998H7.25V5.49996C7.25 5.08575 7.58579 4.74996 8 4.74996Z" fill="#896FCA"/>
<path d="M8.75 5.49996L9.5 5.49996V5.49996H8.75ZM8 4.74996V5.49996V4.74996ZM8.75 7.24998H8V7.99998H8.75V7.24998ZM8.75 8.74998V7.99998H8V8.74998H8.75ZM8.75 10.5H8V10.5H8.75ZM7.25 10.5H6.5V10.5H7.25ZM7.25 8.74998H8V7.99998H7.25V8.74998ZM4.75 7.99998H4H4.75ZM5.5 7.24998V6.49998H5.5L5.5 7.24998ZM7.25 7.24998V7.99998H8V7.24998H7.25ZM2.98767 19.9517L2.36172 20.3648L2.86806 21.1319L3.518 20.482L2.98767 19.9517ZM4.04833 21.0123L3.518 20.482L2.86806 21.1319L3.63517 21.6383L4.04833 21.0123ZM21.0123 4.04833L21.6383 3.63517L21.1319 2.86806L20.482 3.518L21.0123 4.04833ZM19.9517 2.98767L20.482 3.518L21.1319 2.86806L20.3648 2.36172L19.9517 2.98767ZM22 12H21.25C21.25 14.3782 21.2484 16.0864 21.0736 17.3864C20.9018 18.6648 20.5749 19.4355 20.0052 20.0052L20.5355 20.5355L21.0659 21.0659C21.9607 20.1711 22.366 19.031 22.5603 17.5863C22.7516 16.1631 22.75 14.3358 22.75 12H22ZM12 22V22.75C14.3358 22.75 16.1631 22.7516 17.5863 22.5603C19.031 22.366 20.1711 21.9607 21.0659 21.0659L20.5355 20.5355L20.0052 20.0052C19.4355 20.5749 18.6648 20.9018 17.3864 21.0736C16.0864 21.2484 14.3782 21.25 12 21.25V22ZM12 2V1.25C9.66418 1.25 7.83687 1.24841 6.41371 1.43975C4.96897 1.63399 3.82895 2.03933 2.93414 2.93414L3.46447 3.46447L3.9948 3.9948C4.56445 3.42514 5.33517 3.09825 6.61358 2.92637C7.91356 2.75159 9.62178 2.75 12 2.75V2ZM2 12H2.75C2.75 9.62178 2.75159 7.91356 2.92637 6.61358C3.09825 5.33517 3.42514 4.56445 3.9948 3.9948L3.46447 3.46447L2.93414 2.93414C2.03933 3.82895 1.63399 4.96897 1.43975 6.41371C1.24841 7.83687 1.25 9.66418 1.25 12H2ZM18 17.75V18.5C18.8284 18.5 19.5 17.8284 19.5 17H18.75H18V17.75ZM13 17.75V18.5H18V17.75V17H13V17.75ZM12.25 17H11.5C11.5 17.8284 12.1716 18.5 13 18.5V17.75V17H12.25ZM13 16.25V15.5C12.1716 15.5 11.5 16.1716 11.5 17H12.25H13V16.25ZM18 16.25V15.5H13V16.25V17H18V16.25ZM18.75 17H19.5C19.5 16.1716 18.8284 15.5 18 15.5V16.25V17H18.75ZM8.75 5.49996H9.5C9.5 4.67153 8.82843 3.99996 8 3.99996V4.74996V5.49996V5.49996H8.75ZM8.75 7.24998H9.5L9.5 5.49996L8.75 5.49996L8 5.49996L8 7.24998H8.75ZM10.5 7.24998V6.49998H8.75V7.24998V7.99998H10.5V7.24998ZM11.25 7.99998H12C12 7.17155 11.3284 6.49998 10.5 6.49998V7.24998V7.99998H11.25ZM10.5 8.74998V9.49998C11.3284 9.49998 12 8.82841 12 7.99998H11.25H10.5V8.74998ZM8.75 8.74998V9.49998H10.5V8.74998V7.99998H8.75V8.74998ZM8.75 10.5H9.5L9.5 8.74998H8.75H8L8 10.5H8.75ZM8 11.25V12C8.82843 12 9.5 11.3284 9.5 10.5H8.75H8V11.25ZM7.25 10.5H6.5C6.5 11.3284 7.17157 12 8 12V11.25V10.5H7.25ZM7.25 8.74998H6.5L6.5 10.5H7.25H8L8 8.74998H7.25ZM5.5 8.74998V9.49998H7.25V8.74998V7.99998H5.5V8.74998ZM4.75 7.99998H4C4 8.82841 4.67157 9.49998 5.5 9.49998V8.74998V7.99998V7.99998H4.75ZM5.5 7.24998L5.5 6.49998C4.67157 6.49998 4 7.17155 4 7.99998H4.75H5.5H5.5L5.5 7.24998ZM7.25 7.24998V6.49998H5.5V7.24998V7.99998H7.25V7.24998ZM7.25 5.49996H6.5V7.24998H7.25H8V5.49996H7.25ZM8 4.74996V3.99996C7.17157 3.99996 6.5 4.67153 6.5 5.49996H7.25H8V5.49996V4.74996ZM2 12H1.25C1.25 14.0529 1.2492 15.7085 1.3769 17.0367C1.50486 18.3677 1.76843 19.466 2.36172 20.3648L2.98767 19.9517L3.61361 19.5385C3.21924 18.941 2.98897 18.1305 2.87002 16.8932C2.7508 15.6531 2.75 14.0811 2.75 12H2ZM12 22V21.25C9.9189 21.25 8.34686 21.2492 7.10681 21.13C5.86951 21.011 5.05896 20.7808 4.46148 20.3864L4.04833 21.0123L3.63517 21.6383C4.53403 22.2316 5.63232 22.4951 6.96326 22.6231C8.29147 22.7508 9.9471 22.75 12 22.75V22ZM4.04833 21.0123L4.57866 21.5427L21.5427 4.57866L21.0123 4.04833L20.482 3.518L3.518 20.482L4.04833 21.0123ZM22 12H22.75C22.75 9.9471 22.7508 8.29147 22.6231 6.96326C22.4951 5.63232 22.2316 4.53403 21.6383 3.63517L21.0123 4.04833L20.3864 4.46148C20.7808 5.05896 21.011 5.86951 21.13 7.10681C21.2492 8.34686 21.25 9.9189 21.25 12H22ZM19.9517 2.98767L19.4213 2.45734L2.45734 19.4213L2.98767 19.9517L3.518 20.482L20.482 3.518L19.9517 2.98767ZM12 2V2.75C14.0811 2.75 15.6531 2.7508 16.8932 2.87002C18.1305 2.98897 18.941 3.21924 19.5385 3.61361L19.9517 2.98767L20.3648 2.36172C19.466 1.76843 18.3677 1.50486 17.0367 1.3769C15.7085 1.2492 14.0529 1.25 12 1.25V2Z" fill="#896FCA"/>
</svg>