<svg viewBox="0 0 24 24" fill="none" xmlns="http://www.w3.org/2000/svg">
<g clip-path="url(#clip0_12_7349)">
<path fill-rule="evenodd" clip-rule="evenodd" d="M15.1024 4.29684C15.1024 4.88858 15.5821 5.36827 16.1738 5.36827C16.7655 5.36827 17.2452 4.88858 17.2452 4.29684V3.75694H17.7859C18.3777 3.75694 18.8573 3.27723 18.8573 2.68551C18.8573 2.09378 18.3777 1.61408 17.7859 1.61408H17.2452V1.07143C17.2452 0.479695 16.7655 0 16.1738 0C15.5821 0 15.1024 0.479695 15.1024 1.07143V1.61408H14.5605C13.9688 1.61408 13.4891 2.09378 13.4891 2.68551C13.4891 3.27723 13.9688 3.75694 14.5605 3.75694H15.1024V4.29684ZM20.2452 9.79899C20.2452 10.3907 20.7249 10.8704 21.3166 10.8704C21.9084 10.8704 22.3881 10.3907 22.3881 9.79899V9.25826H22.9287C23.5205 9.25826 24.0002 8.77857 24.0002 8.18683C24.0002 7.59509 23.5205 7.1154 22.9287 7.1154H22.3881V6.57358C22.3881 5.98186 21.9084 5.50215 21.3166 5.50215C20.7249 5.50215 20.2452 5.98186 20.2452 6.57358V7.1154H19.7035C19.1117 7.1154 18.6321 7.59509 18.6321 8.18683C18.6321 8.77857 19.1117 9.25826 19.7035 9.25826H20.2452V9.79899ZM2.47963 7.62249C4.14079 5.96131 6.52795 5.14286 9.42857 5.14286C9.87804 5.14286 10.3148 5.16243 10.7381 5.20166C11.1072 5.23587 11.4125 5.50347 11.4948 5.8649C11.5771 6.22634 11.4177 6.59971 11.0997 6.7903C9.70611 7.62579 8.86899 9.17955 8.86899 11.5714C8.86899 13.4708 9.40054 14.8336 10.2894 15.7225C11.1782 16.6113 12.5411 17.1429 14.4404 17.1429C15.5987 17.1429 16.5586 16.9441 17.3289 16.5905C17.6277 16.4533 17.9787 16.4992 18.2323 16.7086C18.4858 16.918 18.5973 17.2539 18.5191 17.5733C18.0195 19.6126 16.9654 21.2436 15.384 22.3546C13.8124 23.4585 11.7905 24 9.42857 24C6.52795 24 4.14079 23.1816 2.47963 21.5205C0.818455 19.8591 0 17.472 0 14.5714C0 11.6708 0.818455 9.28365 2.47963 7.62249Z" fill="#896FCA"/>
</g>
<defs>
<clipPath id="clip0_12_7349">
<rect width="24" height="24" fill="white"/>
</clipPath>
</defs>
</svg>