<svg viewBox="0 0 24 24" fill="none" xmlns="http://www.w3.org/2000/svg">
<g clip-path="url(#clip0_12_7405)">
<path fill-rule="evenodd" clip-rule="evenodd" d="M22.8131 0.208431C21.8455 -0.291062 20.7249 0.173 19.7997 0.904566C18.8447 1.65988 17.9363 2.81668 17.2926 4.06341C16.4978 5.60277 17.1014 7.49495 18.6408 8.28971C20.1801 9.08445 22.0723 8.48082 22.8671 6.94144C23.5108 5.69471 23.9279 4.28423 23.9904 3.06817C24.0511 1.89032 23.7804 0.707922 22.8131 0.208431ZM3.13831 14.904C2.0495 14.904 1.26656 15.8305 0.780165 16.9049C0.277977 18.0142 0.00148406 19.4588 0.00148406 20.8618C0.00148406 22.5943 1.40589 23.9988 3.13831 23.9988C4.87073 23.9988 6.27513 22.5943 6.27513 20.8618C6.27513 19.4588 5.99863 18.0142 5.49645 16.9049C5.01006 15.8305 4.22712 14.904 3.13831 14.904ZM19.8439 16.2582C20.7863 15.5489 21.9177 15.1118 22.8731 15.6343C23.8283 16.1568 24.0705 17.3453 23.9817 18.5213C23.89 19.7355 23.4393 21.1358 22.7661 22.3666C21.9347 23.8867 20.0286 24.4448 18.5087 23.6134C16.9888 22.7822 16.4306 20.876 17.2619 19.3562C17.9352 18.1251 18.8711 16.9904 19.8439 16.2582ZM12.6545 10.1195C13.6452 10.8274 14.6089 11.9386 15.3124 13.1525C16.1812 14.6514 15.6704 16.5707 14.1715 17.4394C12.6726 18.3082 10.7533 17.7974 9.88459 16.2985C9.181 15.0845 8.69582 13.696 8.57404 12.4844C8.45608 11.311 8.66887 10.1168 9.61089 9.5708C10.5529 9.02481 11.6949 9.43377 12.6545 10.1195ZM6.8014 0.404032C5.94268 -0.265377 4.75559 -0.0160384 3.71141 0.532302C2.63333 1.09844 1.52711 2.0678 0.664485 3.17439C-0.400617 4.54071 -0.15643 6.51176 1.20989 7.57686C2.57621 8.64196 4.54727 8.39778 5.61237 7.03146C6.475 5.92487 7.14509 4.61553 7.43104 3.43191C7.708 2.28548 7.66012 1.07344 6.8014 0.404032Z" fill="#896FCA"/>
</g>
<defs>
<clipPath id="clip0_12_7405">
<rect width="24" height="24" fill="white"/>
</clipPath>
</defs>
</svg>