<svg viewBox="0 0 24 24" fill="none" xmlns="http://www.w3.org/2000/svg">
<g clip-path="url(#clip0_12_7353)">
<path fill-rule="evenodd" clip-rule="evenodd" d="M18.0833 0.7557C17.8752 0.295617 17.417 0 16.9119 0H12.8189C12.1088 0 11.5332 0.575634 11.5332 1.28571C11.5332 1.9958 12.1088 2.57143 12.8189 2.57143H14.2052C13.1853 3.92283 12.2664 5.33945 11.4367 6.84742C11.2175 7.24573 11.225 7.73017 11.4563 8.12153C11.6877 8.5129 12.1085 8.75299 12.5631 8.75299H17.1677C17.8778 8.75299 18.4534 8.17735 18.4534 7.46727C18.4534 6.75718 17.8778 6.18156 17.1677 6.18156H14.8223C15.7333 4.76009 16.7463 3.4219 17.8778 2.13445C18.211 1.75513 18.2914 1.21578 18.0833 0.7557ZM8.99714 6.95449C8.78895 6.49441 8.33072 6.1988 7.82575 6.1988H3.27795C2.56788 6.1988 1.99224 6.77443 1.99224 7.48452C1.99224 8.19459 2.56788 8.77023 3.27795 8.77023H5.10641C3.90739 10.3353 2.83287 11.9783 1.86728 13.7331C1.64811 14.1314 1.65558 14.6158 1.88693 15.0072C2.11827 15.3985 2.5391 15.6386 2.99372 15.6386H8.10998C8.82007 15.6386 9.39569 15.063 9.39569 14.3529C9.39569 13.6428 8.82007 13.0672 8.10998 13.0672H5.24376C6.29592 11.3994 7.47152 9.83525 8.79151 8.33324C9.12487 7.95392 9.2053 7.41459 8.99714 6.95449ZM21.8054 13.1876C21.5971 12.7275 21.1389 12.4319 20.634 12.4319H14.6763C13.9663 12.4319 13.3906 13.0076 13.3906 13.7176C13.3906 14.4277 13.9663 15.0033 14.6763 15.0033H17.887C16.1256 17.2298 14.5651 19.5739 13.1776 22.0954C12.9584 22.4936 12.9658 22.9781 13.1972 23.3695C13.4285 23.7608 13.8494 24.001 14.304 24.001H21.0063C21.7164 24.001 22.2921 23.4254 22.2921 22.7153C22.2921 22.0051 21.7164 21.4296 21.0063 21.4296H16.5352C18.0202 18.996 19.6966 16.7318 21.5997 14.5664C21.9331 14.187 22.0135 13.6477 21.8054 13.1876Z" fill="#896FCA"/>
</g>
<defs>
<clipPath id="clip0_12_7353">
<rect width="24" height="24" fill="white"/>
</clipPath>
</defs>
</svg>