<svg viewBox="0 0 24 24" fill="none" xmlns="http://www.w3.org/2000/svg">
<path fill-rule="evenodd" clip-rule="evenodd" d="M13.4086 19.9149C12.8698 19.291 12.5649 18.9743 11.9997 18.9743C11.4346 18.9743 11.1297 19.291 10.5909 19.9149L10.5621 19.9482C10.0774 20.5101 9.34509 21.3588 8.02375 21.2349C7.63102 21.1981 7.25908 21.0298 6.93143 20.8203C6.59749 20.607 6.26541 20.3225 5.94468 19.9948C5.30313 19.3393 4.65688 18.4598 4.08157 17.4758C2.94044 15.524 1.99953 13.0236 1.99953 10.85L1.99952 10.7897C1.99907 8.90267 1.99817 5.09088 5.78451 3.27291C7.15146 2.61659 8.34643 2.70456 9.38708 2.92984C9.6868 2.99472 10.0116 3.08091 10.3101 3.16014C10.4861 3.20685 10.6531 3.25118 10.8004 3.28726C11.2382 3.39451 11.625 3.46448 11.9997 3.46448C12.3727 3.46448 12.7573 3.39353 13.1944 3.28432C13.3395 3.24807 13.5034 3.20378 13.6764 3.15705C13.977 3.07579 14.3053 2.98708 14.61 2.92028C15.6582 2.69049 16.8627 2.60409 18.2556 3.27292C22.0016 5.07151 22.0005 8.9032 21.9999 10.7859V10.85C21.9999 13.0132 21.1234 15.5041 20.0071 17.461C19.4452 18.446 18.8038 19.3294 18.1464 19.99C17.5156 20.6242 16.7638 21.1609 15.9758 21.2349C14.6544 21.3588 13.9221 20.5101 13.4374 19.9482L13.4086 19.9149ZM14.5478 8.50873C15.0269 8.32924 15.2698 7.79536 15.0903 7.31625C14.9108 6.83715 14.377 6.59427 13.8979 6.77376C13.0736 7.08257 12.5157 7.20842 11.9973 7.21011C11.4814 7.2118 10.9258 7.09062 10.1086 6.77654C9.63107 6.59301 9.09514 6.83134 8.91158 7.3089C8.72804 7.78646 8.96638 8.32239 9.44394 8.50594C10.3677 8.86099 11.1659 9.06556 12.0033 9.06285C12.8382 9.06012 13.6331 8.85143 14.5478 8.50873Z" fill="#896FCA"/>
</svg>