<svg viewBox="0 0 24 24" fill="none" xmlns="http://www.w3.org/2000/svg">
<path fill-rule="evenodd" clip-rule="evenodd" d="M10.5589 6.56797C10.4792 6.26413 10.3694 5.96023 10.2285 5.66131C9.22408 3.53053 7.01589 2.46027 5.29638 3.27084C3.57688 4.0814 2.99722 6.46585 4.00167 8.59664C4.14257 8.89554 4.30716 9.17358 4.49077 9.4285C3.71745 10.1033 3.24524 11.1828 3.30072 12.381C3.3535 12.3783 3.40627 12.3769 3.45893 12.3769H9.08097C8.75283 11.2957 8.20559 10.2 7.27024 9.10449C6.94798 8.72708 6.99271 8.15986 7.37012 7.83761C7.74755 7.51535 8.31477 7.56007 8.63702 7.9375C9.77716 9.27283 10.4345 10.6193 10.821 11.9229C11.1578 10.0981 12.3287 8.56559 13.9237 7.73562C12.9839 6.71605 11.5778 6.39986 10.5589 6.56797ZM16.7261 8.90151C19.0932 8.90151 20.4916 10.1471 20.6623 12.3793C20.6219 12.3777 20.5815 12.3769 20.5411 12.3769H12.7901C12.9616 10.1462 14.3598 8.90151 16.7261 8.90151ZM2.14303 15.1858C1.29599 19.3003 4.16422 21.5584 12.0004 21.5584C19.8366 21.5584 22.704 19.3003 21.8569 15.1858C21.7313 14.5752 21.1643 14.1742 20.5411 14.1742H3.45891C2.83557 14.1742 2.26872 14.5752 2.14303 15.1858Z" fill="#896FCA"/>
</svg>