<svg viewBox="0 0 24 24" fill="none" xmlns="http://www.w3.org/2000/svg">
<g clip-path="url(#clip0_12_7341)">
<path fill-rule="evenodd" clip-rule="evenodd" d="M4.57143 0C4.33745 0 4.11365 0.095646 3.95194 0.264746C3.46593 0.772983 2.46372 1.82172 1.59278 3.64323C0.722604 5.46315 0 8.01775 0 11.5384C0 15.749 2.06163 18.6386 4.56886 20.5689C7.05058 22.4793 9.99209 23.4746 11.8953 23.9721C12.0374 24.0093 12.1867 24.0093 12.3289 23.9721C14.236 23.4735 17.124 22.4767 19.5511 20.5627C22.0046 18.6276 24 15.7385 24 11.5384C24 8.01775 23.2774 5.46315 22.4073 3.64323C21.5362 1.82172 20.5341 0.772983 20.0481 0.264746C19.8864 0.095646 19.6625 0 19.4285 0H4.57143ZM11.9998 4.49566L12.0059 4.4957H12.8028C13.2761 4.4957 13.6599 4.87944 13.6599 5.35284C13.6599 5.80803 13.3051 6.18034 12.8569 6.20829V6.9473C13.4343 7.03323 13.9649 7.21049 14.4291 7.48833L15.0094 6.90811C14.7122 6.57146 14.7246 6.05729 15.0465 5.73542C15.3812 5.40067 15.9239 5.40067 16.2586 5.73542L16.8169 6.29367L16.8265 6.30314L16.836 6.31275L17.394 6.8707C17.7286 7.20543 17.7286 7.74814 17.394 8.08287C17.0722 8.40465 16.5582 8.41711 16.2216 8.12028L15.6423 8.6995C15.9233 9.16737 16.102 9.70282 16.1877 10.2857H16.9486C16.9767 9.83769 17.3489 9.48298 17.8041 9.48298C18.2775 9.48298 18.6612 9.86673 18.6612 10.3401V11.9457C18.6612 12.419 18.2775 12.8028 17.8041 12.8028C17.3489 12.8028 16.9767 12.4481 16.9486 12H16.1877C16.102 12.5829 15.9233 13.1184 15.6423 13.5862L16.2216 14.1655C16.5582 13.8686 17.0722 13.8811 17.394 14.2029C17.7286 14.5376 17.7286 15.0803 17.394 15.415L16.8359 15.973C16.8328 15.9762 16.8297 15.9794 16.8265 15.9826C16.8233 15.9858 16.8202 15.9889 16.817 15.992L16.2586 16.5503C15.9239 16.8851 15.3812 16.8851 15.0465 16.5503C14.7246 16.2285 14.7122 15.7143 15.0094 15.3776L14.4292 14.7974C13.9649 15.0752 13.4344 15.2525 12.8571 15.3384V16.0775C13.3052 16.1055 13.6599 16.4778 13.6599 16.9329C13.6599 17.4063 13.2761 17.79 12.8028 17.79H12.0063H12H11.9937H11.1972C10.7239 17.79 10.3401 17.4063 10.3401 16.9329C10.3401 16.4778 10.6948 16.1055 11.1429 16.0775V15.3411C10.5633 15.2569 10.0304 15.0811 9.56398 14.8043L8.99064 15.3776C9.28778 15.7143 9.27542 16.2285 8.95354 16.5503C8.61881 16.8851 8.0761 16.8851 7.74135 16.5503L7.18303 15.992L7.17348 15.9826L7.16409 15.9731L6.60607 15.415C6.27134 15.0803 6.27134 14.5376 6.60607 14.2029C6.92784 13.8811 7.44178 13.8686 7.77843 14.1655L8.34619 13.5977C8.06121 13.1271 7.88035 12.5877 7.7939 12H7.05135C7.02331 12.4481 6.65103 12.8028 6.19591 12.8028C5.72253 12.8028 5.33877 12.419 5.33877 11.9457V10.3401C5.33877 9.86673 5.72253 9.48298 6.19591 9.48298C6.65102 9.48298 7.02329 9.83769 7.05135 10.2857H7.7939C7.88035 9.69806 8.06121 9.15862 8.34621 8.68803L7.77843 8.12028C7.44178 8.41711 6.92784 8.40465 6.60607 8.08287C6.27134 7.74814 6.27134 7.20543 6.60607 6.8707L7.16405 6.31272L7.17348 6.30314L7.18306 6.29371L7.74135 5.73542C8.0761 5.40067 8.61881 5.40067 8.95354 5.73542C9.27542 6.05729 9.28778 6.57146 8.99064 6.90811L9.564 7.48147C10.0303 7.20471 10.5631 7.02888 11.1427 6.94464V6.20827C10.6947 6.18012 10.3401 5.80788 10.3401 5.35284C10.3401 4.87944 10.7239 4.4957 11.1972 4.4957H11.9937L11.9998 4.49566Z" fill="#896FCA"/>
</g>
<defs>
<clipPath id="clip0_12_7341">
<rect width="24" height="24" fill="white"/>
</clipPath>
</defs>
</svg>