<svg viewBox="0 0 24 24" fill="none" xmlns="http://www.w3.org/2000/svg">
<path fill-rule="evenodd" clip-rule="evenodd" d="M3.17161 18.8284C2.32807 17.9849 2.09189 16.7712 2.02576 14.75L1.99988 14H21.9743V14.75C21.9082 16.7712 21.672 17.9849 20.8285 18.8284C20.524 19.1328 20.1714 19.3582 19.75 19.5249V22C19.75 22.4142 19.4143 22.75 19 22.75C18.5858 22.75 18.25 22.4142 18.25 22V19.8713C17.1802 20 15.8064 20 14 20H10C8.19368 20 6.81993 20 5.75004 19.8713V22C5.75004 22.4142 5.41425 22.75 5.00004 22.75C4.58583 22.75 4.25004 22.4142 4.25004 22V19.5249C3.82865 19.3582 3.47603 19.1328 3.17161 18.8284ZM13 17C13 17.5523 12.5523 18 12 18C11.4478 18 11 17.5523 11 17C11 16.4477 11.4478 16 12 16C12.5523 16 13 16.4477 13 17Z" fill="#896FCA"/>
<path d="M3.17161 3.17157C2.32807 4.01511 2.09189 5.22882 2.02576 7.25L1.99988 8H21.9999L21.9743 7.25C21.9082 5.22882 21.672 4.01511 20.8285 3.17157C19.6569 2 17.7713 2 14 2H10C6.2288 2 4.34319 2 3.17161 3.17157Z" fill="#896FCA"/>
<path opacity="0.5" fill-rule="evenodd" clip-rule="evenodd" d="M2 10C2 9.55807 2.00189 8.39203 2.00377 8H22C22.0019 8.39203 22 9.55807 22 10V12C22 12.4419 22 13.608 21.9981 14H2.00189C2 13.608 2 12.4419 2 12V10Z" fill="#896FCA"/>
</svg>