<svg viewBox="0 0 24 24" fill="none" xmlns="http://www.w3.org/2000/svg">
<path opacity="0.5" d="M13.439 1.5C13.5462 1.49998 13.6592 1.50013 13.77 1.50684C15.1196 1.58857 16.3018 2.43985 16.8062 3.69434C16.8455 3.79213 16.8783 3.8941 16.9106 3.99121C16.9357 4.05857 17.0279 4.20431 17.2046 4.33887C17.2229 4.35281 17.2414 4.36589 17.2593 4.37793L19.2954 5.75H14.4282L14.2231 5.32715C14.1905 5.25968 14.1607 5.19039 14.1323 5.12012V5.12109L14.1313 5.11719L14.1255 5.10547L14.1216 5.0957L14.1167 5.08496L14.1118 5.07227L14.1079 5.06055L14.103 5.04883L14.0991 5.03809L14.0952 5.02832L14.0933 5.02148L14.0894 5.01172L14.0854 4.99902L14.0835 4.99414L14.0796 4.9834L14.0786 4.98047L14.7905 4.74219L14.0786 4.97949L14.0767 4.97363L14.0757 4.96973L14.0708 4.95508L14.0679 4.94824L14.0669 4.94238L14.0649 4.93652H14.064C14.0474 4.8868 14.0378 4.85624 14.0308 4.83594C14.0272 4.82557 14.0251 4.81967 14.0239 4.81641C14.0234 4.8149 14.0231 4.81374 14.0229 4.81348C13.9509 4.63426 13.7812 4.51265 13.5884 4.50098C13.588 4.50096 13.587 4.50102 13.5854 4.50098C13.5813 4.50086 13.5732 4.50014 13.5601 4.5H10.4399C10.4268 4.50014 10.4187 4.50086 10.4146 4.50098H10.4116C10.2189 4.51265 10.0501 4.63433 9.97803 4.81348C9.97797 4.81361 9.97713 4.81453 9.97607 4.81738C9.97478 4.82089 9.97288 4.82744 9.96924 4.83789C9.96197 4.85877 9.95051 4.89029 9.93311 4.94238L9.93213 4.94824L9.9292 4.95508L9.92432 4.96973L9.92334 4.97363L9.92139 4.97949L9.92041 4.9834L9.9165 4.99512L9.91455 4.99902L9.91064 5.01172L9.90674 5.02148L9.90479 5.02832L9.90088 5.03809L9.89697 5.04883L9.89209 5.06055L9.88818 5.07324L9.19189 4.79297L9.88721 5.07324L9.88232 5.08496L9.87842 5.0957L9.87451 5.10547L9.86865 5.11816L9.8667 5.12207C9.83857 5.19165 9.80924 5.26033 9.77686 5.32715L9.57178 5.75H4.70459L6.74072 4.37793C6.75859 4.36589 6.77708 4.35282 6.79541 4.33887C6.97213 4.20428 7.06337 4.05849 7.08838 3.99121H7.08936C7.12275 3.89105 7.15497 3.79105 7.19385 3.69434C7.69818 2.43984 8.88038 1.58861 10.23 1.50684C10.3408 1.50012 10.4537 1.49998 10.561 1.5H13.439Z" fill="#896FCA" stroke="#896FCA" stroke-width="1.5"/>
<path fill-rule="evenodd" clip-rule="evenodd" d="M17.1923 5H6.80765C5.12027 5 4.27658 5 3.63268 5.32971C3.07242 5.61659 2.61659 6.07242 2.32971 6.63268C2 7.27658 2 8.12027 2 9.80765C2 10.2366 2 10.4511 2.07336 10.6319C2.13743 10.7898 2.24079 10.9288 2.37363 11.0355C2.52574 11.1577 2.73118 11.2194 3.14206 11.3426L8.5 12.95V14.1627C8.5 14.9283 8.95939 15.6341 9.68682 15.9296L10.2469 16.1572C11.3719 16.6143 12.6281 16.6143 13.7531 16.1572L14.3132 15.9296C15.0406 15.6341 15.5 14.9283 15.5 14.1627V12.95L20.8579 11.3426C21.2688 11.2194 21.4743 11.1577 21.6264 11.0355C21.7592 10.9288 21.8626 10.7898 21.9266 10.6319C22 10.4511 22 10.2366 22 9.80765C22 8.12027 22 7.27658 21.6703 6.63268C21.3834 6.07242 20.9276 5.61659 20.3673 5.32971C19.7234 5 18.8797 5 17.1923 5ZM13.6 12H10.4C10.1791 12 10 12.1819 10 12.4063V14.1627C10 14.3288 10.0996 14.4782 10.2514 14.54L10.8116 14.7675C11.5745 15.0775 12.4255 15.0775 13.1885 14.7675L13.7486 14.54C13.9004 14.4782 14 14.3288 14 14.1627V12.4063C14 12.1819 13.8209 12 13.6 12Z" fill="#896FCA" stroke="#896FCA" stroke-width="1.5"/>
<g opacity="0.5">
<path d="M3 11.2998C3.04446 11.3133 3.09172 11.3275 3.14206 11.3426L8.5 12.9499V14.1627C8.5 14.9283 8.95939 15.634 9.68682 15.9296L10.2469 16.1571C11.3719 16.6142 12.6281 16.6142 13.7531 16.1571L14.3132 15.9296C15.0406 15.634 15.5 14.9283 15.5 14.1627V12.9499L20.8579 11.3426C20.9083 11.3275 20.9555 11.3133 21 11.2998V12.2999C20.9991 15.9752 20.9651 19.6879 19.682 20.8284C18.3639 22 16.2426 22 12 22C7.75733 22 5.63601 22 4.318 20.8284C3.03489 19.6879 3.0009 15.9752 3 12.2999V11.2998Z" fill="#896FCA"/>
<path d="M21 12.2999V11.2998C20.9555 11.3133 20.9083 11.3275 20.8579 11.3426L15.5 12.9499V14.1627C15.5 14.9283 15.0406 15.634 14.3132 15.9296L13.7531 16.1571C12.6281 16.6142 11.3719 16.6142 10.2469 16.1571L9.68682 15.9296C8.95939 15.634 8.5 14.9283 8.5 14.1627V12.9499L3.14206 11.3426C3.09172 11.3275 3.04446 11.3133 3 11.2998V12.2999C3.0009 15.9752 3.03489 19.6879 4.318 20.8284C5.63601 22 7.75733 22 12 22C16.2426 22 18.3639 22 19.682 20.8284C20.9651 19.6879 20.9991 15.9752 21 12.2999ZM21 12.2999L20.9242 12.3227" stroke="#896FCA" stroke-width="1.5"/>
</g>
</svg>