<svg viewBox="0 0 24 24" fill="none" xmlns="http://www.w3.org/2000/svg">
<path d="M10.4038 12.9292C11.3233 12.1456 12.6757 12.1457 13.5952 12.9292C13.749 13.0603 13.9406 13.1397 14.1421 13.1558C15.3464 13.2519 16.3028 14.2083 16.3989 15.4126C16.4151 15.6139 16.4945 15.8048 16.6255 15.9585C17.409 16.8779 17.4088 18.2303 16.6255 19.1499C16.4944 19.3037 16.415 19.4953 16.3989 19.6968C16.3028 20.9011 15.3464 21.8575 14.1421 21.9536C13.9407 21.9697 13.749 22.0491 13.5952 22.1802C12.6757 22.9635 11.3233 22.9637 10.4038 22.1802C10.2501 22.0492 10.0592 21.9698 9.85791 21.9536C8.65356 21.8575 7.69719 20.9011 7.60107 19.6968C7.585 19.4953 7.50559 19.3037 7.37451 19.1499C6.591 18.2303 6.59091 16.878 7.37451 15.9585C7.50541 15.8048 7.58494 15.6138 7.60107 15.4126C7.69718 14.2082 8.65356 13.2519 9.85791 13.1558C10.0591 13.1396 10.2501 13.0601 10.4038 12.9292ZM11.8687 18.0767L11.3569 18.5552L13.5005 16.5552L11.8687 18.0767Z" fill="#896FCA" stroke="#896FCA" stroke-width="1.5"/>
<path opacity="0.5" d="M2 12V8C2 5.17157 2 3.75736 2.87868 2.87868C3.75736 2 5.17157 2 8 2H16C18.8284 2 20.2426 2 21.1213 2.87868C22 3.75736 22 5.17157 22 8V12C22 14.8284 22 16.2426 21.1213 17.1213C20.2855 17.9571 18.9652 17.9979 16.4042 17.9999C16.5467 17.4702 16.4302 16.8862 16.0544 16.4453C15.821 16.1714 15.6799 15.8308 15.6513 15.472C15.5845 14.6348 14.9197 13.97 14.0824 13.9031C13.7237 13.8745 13.3831 13.7334 13.1092 13.5C12.4699 12.9552 11.5297 12.9552 10.8905 13.5C10.6165 13.7334 10.276 13.8745 9.91719 13.9031C9.07997 13.97 8.41515 14.6348 8.34834 15.472C8.31971 15.8308 8.17863 16.1714 7.94519 16.4453C7.56948 16.8862 7.4529 17.4702 7.59543 17.9999C5.03465 17.9979 3.71443 17.9571 2.87868 17.1213C2 16.2426 2 14.8284 2 12Z" fill="#896FCA" stroke="#896FCA" stroke-width="1.5"/>
<path d="M17 8C17.8284 8 18.5 8.67157 18.5 9.5C18.5 10.3284 17.8284 11 17 11H7C6.17157 11 5.5 10.3284 5.5 9.5C5.5 8.67157 6.17157 8 7 8H17ZM15 4.5C15.8284 4.5 16.5 5.17157 16.5 6C16.5 6.82843 15.8284 7.5 15 7.5H9C8.17157 7.5 7.5 6.82843 7.5 6C7.5 5.17157 8.17157 4.5 9 4.5H15Z" fill="#896FCA" stroke="#896FCA" stroke-width="1.5"/>
</svg>