<svg viewBox="0 0 24 24" fill="none" xmlns="http://www.w3.org/2000/svg">
<path d="M12.0303 8.96987C11.7374 8.67698 11.2625 8.67698 10.9696 8.96987C10.6767 9.26277 10.6767 9.73764 10.9696 10.0305L11.9393 11.0002L10.9696 11.9699C10.6767 12.2628 10.6767 12.7376 10.9696 13.0305C11.2625 13.3234 11.7374 13.3234 12.0303 13.0305L13 12.0609L13.9696 13.0305C14.2625 13.3234 14.7374 13.3234 15.0303 13.0305C15.3232 12.7376 15.3232 12.2628 15.0303 11.9699L14.0606 11.0002L15.0303 10.0305C15.3232 9.73764 15.3232 9.26277 15.0303 8.96987C14.7374 8.67698 14.2625 8.67698 13.9696 8.96987L13 9.93954L12.0303 8.96987Z" fill="#896FCA"/>
<path fill-rule="evenodd" clip-rule="evenodd" d="M1.29242 2.75145C1.4298 2.36068 1.85795 2.15527 2.24872 2.29266L2.55012 2.39862C3.16665 2.61536 3.69028 2.79943 4.10237 3.00163C4.543 3.21784 4.92085 3.48417 5.20503 3.90003C5.48701 4.31268 5.60342 4.76539 5.65715 5.26177C5.661 5.29731 5.66456 5.33345 5.66784 5.3702L17.12 5.3702C17.9386 5.37019 18.7733 5.37018 19.4603 5.44698C19.8101 5.48608 20.1566 5.54838 20.4631 5.65607C20.7636 5.76166 21.094 5.93456 21.3289 6.23998C21.7108 6.73637 21.7775 7.31438 21.7413 7.90058C21.7069 8.4587 21.5683 9.15259 21.4037 9.97747L21.3932 10.0298L21.3923 10.0344L20.8834 12.5036C20.7337 13.23 20.6077 13.8413 20.4452 14.3234C20.2729 14.8349 20.0339 15.2844 19.6074 15.632C19.1809 15.9796 18.6923 16.1229 18.1565 16.1884C17.6516 16.2502 17.0276 16.2502 16.2859 16.2502L10.8801 16.2502C9.5344 16.2502 8.44455 16.2502 7.58632 16.1285C6.69008 16.0015 5.93727 15.7288 5.34341 15.1024C4.79718 14.5263 4.50505 13.9146 4.35872 13.0603C4.22167 12.2601 4.20804 11.2127 4.20804 9.7602V7.03856C4.20804 6.29862 4.20702 5.8034 4.16587 5.42319C4.12653 5.05984 4.05683 4.87842 3.96657 4.74634C3.87851 4.61747 3.74484 4.49704 3.44162 4.34826C3.11877 4.18985 2.68002 4.0343 2.01241 3.79958L1.7512 3.70775C1.36044 3.57036 1.15503 3.14221 1.29242 2.75145ZM5.70803 6.8702L5.70804 9.7602C5.70804 11.2492 5.72603 12.1581 5.83719 12.8071C5.93909 13.402 6.11178 13.7327 6.43194 14.0704C6.70448 14.3578 7.08211 14.542 7.79692 14.6434C8.53759 14.7484 9.52065 14.7502 10.9374 14.7502H16.2403C17.0396 14.7502 17.5712 14.7489 17.9743 14.6996C18.357 14.6527 18.5346 14.5712 18.6598 14.4692C18.785 14.3672 18.9006 14.2097 19.0238 13.8444C19.1535 13.4595 19.2621 12.9391 19.4234 12.1563L19.9222 9.73615L19.9227 9.73393C20.1003 8.844 20.2168 8.25174 20.2442 7.80818C20.2702 7.38672 20.204 7.23952 20.1427 7.15811C20.1365 7.15284 20.0929 7.11589 19.9659 7.07125C19.8104 7.01664 19.5892 6.97074 19.2937 6.9377C18.6989 6.87121 17.9452 6.8702 17.0888 6.8702H5.70803Z" fill="#896FCA"/>
<path fill-rule="evenodd" clip-rule="evenodd" d="M5.24996 19.5002C5.24996 20.7428 6.25732 21.7502 7.49996 21.7502C8.7426 21.7502 9.74996 20.7428 9.74996 19.5002C9.74996 18.2576 8.7426 17.2502 7.49996 17.2502C6.25732 17.2502 5.24996 18.2576 5.24996 19.5002ZM7.49996 20.2502C7.08575 20.2502 6.74996 19.9144 6.74996 19.5002C6.74996 19.086 7.08575 18.7502 7.49996 18.7502C7.91417 18.7502 8.24996 19.086 8.24996 19.5002C8.24996 19.9144 7.91417 20.2502 7.49996 20.2502Z" fill="#896FCA"/>
<path fill-rule="evenodd" clip-rule="evenodd" d="M14.25 19.5003C14.25 20.7429 15.2573 21.7503 16.5 21.7503C17.7426 21.7503 18.75 20.7429 18.75 19.5003C18.75 18.2576 17.7426 17.2503 16.5 17.2503C15.2573 17.2503 14.25 18.2576 14.25 19.5003ZM16.5 20.2503C16.0857 20.2503 15.75 19.9145 15.75 19.5003C15.75 19.0861 16.0857 18.7503 16.5 18.7503C16.9142 18.7503 17.25 19.0861 17.25 19.5003C17.25 19.9145 16.9142 20.2503 16.5 20.2503Z" fill="#896FCA"/>
</svg>