<svg viewBox="0 0 24 24" fill="none" xmlns="http://www.w3.org/2000/svg">
<path d="M21.0078 7.36816C21.0621 7.43295 21.1127 7.50023 21.1611 7.56934C21.1124 7.49977 21.0617 7.43253 21.0078 7.36816ZM21.0078 7.36816C20.9512 7.30053 20.8914 7.23515 20.8281 7.17188C20.891 7.23472 20.9508 7.30006 21.0078 7.36816ZM9.94336 22C9.90672 22 9.87026 21.999 9.83398 21.999C9.88891 21.999 9.94425 22 10 22H9.94336ZM6.65918 21.9463C7.05772 21.9688 7.49115 21.9802 7.96387 21.9873C7.49109 21.9802 7.05767 21.9688 6.65918 21.9463ZM17.3398 21.9463C16.9414 21.9688 16.5079 21.9802 16.0352 21.9873C16.5079 21.9802 16.9413 21.9688 17.3398 21.9463ZM2.00293 15.3643C2.00728 16.1056 2.02 16.7597 2.05273 17.3398C2.02001 16.7598 2.00728 16.1057 2.00293 15.3643ZM21.9971 15.3643C21.9927 16.1058 21.979 16.7598 21.9463 17.3398C21.979 16.7597 21.9927 16.1057 21.9971 15.3643ZM16 13L15.9795 12.0488L15.0586 12.291C15.1951 12.255 15.3313 12.2167 15.4668 12.1758L16 12.0146V13ZM12.4189 12.6797C12.1394 12.6895 11.8596 12.6895 11.5801 12.6797C11.8596 12.6895 12.1394 12.6895 12.4189 12.6797ZM11.4834 12.6748C11.3733 12.6701 11.2633 12.664 11.1533 12.6562C11.2633 12.664 11.3733 12.6701 11.4834 12.6748ZM12.8457 12.6562C12.7338 12.6642 12.6218 12.67 12.5098 12.6748C12.6218 12.67 12.7338 12.6642 12.8457 12.6562ZM2.00293 12.6553C2.00386 12.4912 2.00699 12.3315 2.00879 12.1758C2.00699 12.3314 2.00387 12.4912 2.00293 12.6553ZM21.9912 12.1758C21.993 12.3315 21.9961 12.4912 21.9971 12.6553C21.9961 12.4912 21.993 12.3314 21.9912 12.1758ZM11.0518 12.6484C10.9465 12.6401 10.8414 12.6303 10.7363 12.6191C10.8414 12.6303 10.9465 12.6401 11.0518 12.6484ZM13.2627 12.6191C13.1576 12.6303 13.0525 12.6401 12.9473 12.6484C13.0525 12.6401 13.1576 12.6303 13.2627 12.6191ZM10.625 12.6064C10.5191 12.5942 10.4132 12.5815 10.3076 12.5664C10.4132 12.5815 10.5191 12.5942 10.625 12.6064ZM13.6914 12.5664C13.5858 12.5814 13.4799 12.5942 13.374 12.6064C13.4799 12.5942 13.5858 12.5814 13.6914 12.5664ZM10.208 12.5518C10.0925 12.5343 9.97735 12.515 9.8623 12.4941C9.97735 12.515 10.0925 12.5343 10.208 12.5518ZM14.1377 12.4941C14.0223 12.515 13.9068 12.5343 13.791 12.5518C13.9068 12.5343 14.0223 12.515 14.1377 12.4941ZM9.7959 12.4824C9.68495 12.4617 9.57434 12.4389 9.46387 12.415C9.57434 12.4389 9.68495 12.4617 9.7959 12.4824ZM14.5352 12.415C14.4247 12.4389 14.3141 12.4617 14.2031 12.4824C14.3141 12.4617 14.4247 12.4389 14.5352 12.415ZM9.3584 12.3916C9.26472 12.3705 9.1714 12.3476 9.07812 12.3242C9.1714 12.3476 9.26472 12.3705 9.3584 12.3916ZM14.9209 12.3242C14.8276 12.3476 14.7343 12.3705 14.6406 12.3916C14.7343 12.3705 14.8276 12.3476 14.9209 12.3242ZM8 10.999V12.0107L7.82031 11.9326L8 10.999ZM16 10.999L16.1787 11.9326L16 12.0107V10.999ZM2.01758 11.5703C2.01994 11.4705 2.02232 11.3725 2.02539 11.2764C2.02233 11.3725 2.01993 11.4705 2.01758 11.5703ZM21.9736 11.2764C21.9767 11.3725 21.9801 11.4705 21.9824 11.5703C21.9801 11.4704 21.9767 11.3725 21.9736 11.2764ZM6.73047 11.4258C6.69595 11.4079 6.66088 11.3905 6.62598 11.3721C6.66089 11.3905 6.69599 11.4079 6.73047 11.4258ZM17.373 11.3721C17.3384 11.3903 17.3038 11.408 17.2695 11.4258C17.3038 11.408 17.3384 11.3904 17.373 11.3721ZM6.23926 11.1611C6.2088 11.1441 6.17827 11.1268 6.14746 11.1094C6.17827 11.1268 6.20883 11.1441 6.23926 11.1611ZM2.03223 11.0811C2.03586 10.9868 2.04042 10.8944 2.04492 10.8037C2.04043 10.8944 2.03585 10.9868 2.03223 11.0811ZM21.9551 10.8037C21.9596 10.8944 21.9641 10.9868 21.9678 11.0811C21.9642 10.9868 21.9596 10.8944 21.9551 10.8037ZM5.77246 10.8936C5.73988 10.8744 5.70684 10.8555 5.67383 10.8359C5.70684 10.8555 5.7399 10.8744 5.77246 10.8936ZM18.3213 10.8379C18.3107 10.8442 18.3006 10.8512 18.29 10.8574C18.3006 10.8512 18.3107 10.8442 18.3213 10.8379ZM4.20117 9.92188C4.62631 10.1931 5.0149 10.4372 5.37598 10.6562C5.01383 10.4368 4.62541 10.1926 4.20117 9.92188ZM2.05664 10.5889C2.06109 10.5147 2.0661 10.4418 2.07129 10.3701C2.0661 10.4418 2.06109 10.5147 2.05664 10.5889ZM21.9287 10.3701C21.9339 10.4418 21.9389 10.5147 21.9434 10.5889C21.9389 10.5147 21.9339 10.4418 21.9287 10.3701ZM19.7881 9.92773C19.416 10.1651 19.0725 10.3835 18.749 10.5811C19.0717 10.3838 19.4154 10.1654 19.7881 9.92773ZM2.09082 10.127C2.09618 10.0665 2.1014 10.0069 2.10742 9.94824C2.1014 10.0069 2.09619 10.0665 2.09082 10.127ZM21.8916 9.94727C21.8977 10.0063 21.9038 10.0661 21.9092 10.127C21.9038 10.0661 21.8977 10.0063 21.8916 9.94727ZM21.1143 9.07422L20.7314 9.32324C20.6105 9.40164 20.4908 9.47606 20.375 9.55078C20.6102 9.39912 20.8568 9.2413 21.1143 9.07422ZM2.5918 7.99023C2.61467 7.94359 2.63743 7.8974 2.66211 7.85254C2.63751 7.89725 2.61476 7.94344 2.5918 7.99023ZM21.3379 7.85254C21.3625 7.89728 21.3844 7.94372 21.4072 7.99023C21.3843 7.94357 21.3624 7.89712 21.3379 7.85254ZM2.68457 7.81152C2.7237 7.7428 2.76486 7.67604 2.80859 7.61133C2.76512 7.67567 2.72393 7.74242 2.68457 7.81152ZM21.1904 7.61133C21.2342 7.67605 21.2753 7.74279 21.3145 7.81152C21.2751 7.7424 21.2339 7.67568 21.1904 7.61133ZM2.99121 7.36816C2.93748 7.43239 2.88752 7.49995 2.83887 7.56934C2.88722 7.5004 2.93712 7.4328 2.99121 7.36816ZM7.96387 6.01172C7.49116 6.01887 7.05771 6.03023 6.65918 6.05273C7.05765 6.03023 7.49111 6.01887 7.96387 6.01172ZM16.0352 6.01172C16.5079 6.01886 16.9414 6.03025 17.3398 6.05273C16.9413 6.03024 16.5079 6.01886 16.0352 6.01172ZM14 22C14.0554 22 14.1104 21.999 14.165 21.999C14.1291 21.999 14.0929 22 14.0566 22H14ZM8 12.0146L8.5332 12.1758C8.66869 12.2167 8.8049 12.255 8.94141 12.291L8.02051 12.0488L8 13V12.0146ZM3.62402 9.55078C3.50846 9.4762 3.3893 9.40148 3.26855 9.32324L2.82715 9.03711C3.10555 9.21784 3.37137 9.38786 3.62402 9.55078Z" fill="#896FCA" stroke="#896FCA" stroke-width="1.5"/>
</svg>