<svg viewBox="0 0 24 24" fill="none" xmlns="http://www.w3.org/2000/svg">
<path d="M16.0001 10.5004C16.0001 11.3288 15.5523 12.0004 15.0001 12.0004C14.4478 12.0004 14.0001 11.3288 14.0001 10.5004C14.0001 9.67196 14.4478 9.00039 15.0001 9.00039C15.5523 9.00039 16.0001 9.67196 16.0001 10.5004Z" fill="#896FCA"/>
<path d="M10.0001 10.5004C10.0001 11.3288 9.55235 12.0004 9.00006 12.0004C8.44778 12.0004 8.00006 11.3288 8.00006 10.5004C8.00006 9.67196 8.44778 9.00039 9.00006 9.00039C9.55235 9.00039 10.0001 9.67196 10.0001 10.5004Z" fill="#896FCA"/>
<path fill-rule="evenodd" clip-rule="evenodd" d="M13.265 2.05116C13.3474 1.64522 13.7433 1.38294 14.1492 1.46533C18.3628 2.32056 21.6799 5.63763 22.5352 9.85114C22.6176 10.2571 22.3553 10.6529 21.9494 10.7353C21.5434 10.8177 21.1476 10.5555 21.0652 10.1495C20.3297 6.52642 17.474 3.67075 13.8509 2.93535C13.4449 2.85296 13.1827 2.45709 13.265 2.05116ZM10.7352 2.05121C10.8176 2.45714 10.5553 2.85301 10.1494 2.93541C6.52627 3.6708 3.67056 6.52647 2.93511 10.1496C2.85271 10.5555 2.45683 10.8178 2.0509 10.7354C1.64496 10.653 1.38269 10.2571 1.46509 9.85119C2.32038 5.63769 5.6375 2.32061 9.85103 1.46538C10.257 1.38299 10.6528 1.64527 10.7352 2.05121ZM2.05106 13.2654C2.45699 13.183 2.85287 13.4453 2.93527 13.8512C3.67072 17.4743 6.52642 20.33 10.1496 21.0654C10.5555 21.1478 10.8178 21.5436 10.7354 21.9496C10.653 22.3555 10.2571 22.6178 9.85119 22.5354C5.63766 21.6802 2.32054 18.3631 1.46525 14.1496C1.38285 13.7437 1.64512 13.3478 2.05106 13.2654ZM21.9494 13.2654C22.3553 13.3478 22.6176 13.7437 22.5352 14.1496C21.6799 18.3631 18.3628 21.6802 14.1492 22.5354C13.7433 22.6178 13.3474 22.3555 13.265 21.9496C13.1827 21.5436 13.4449 21.1478 13.8509 21.0654C17.474 20.33 20.3297 17.4743 21.0652 13.8512C21.1476 13.4453 21.5434 13.183 21.9494 13.2654ZM8.39754 15.5538C8.64419 15.221 9.11391 15.1512 9.44667 15.3979C10.175 15.9377 11.0542 16.2504 12.0001 16.2504C12.946 16.2504 13.8251 15.9377 14.5534 15.3979C14.8862 15.1512 15.3559 15.221 15.6026 15.5538C15.8492 15.8865 15.7794 16.3563 15.4467 16.6029C14.4743 17.3237 13.285 17.7504 12.0001 17.7504C10.7151 17.7504 9.52586 17.3237 8.55345 16.6029C8.22068 16.3563 8.15088 15.8865 8.39754 15.5538Z" fill="#896FCA"/>
</svg>