<svg viewBox="0 0 24 24" fill="none" xmlns="http://www.w3.org/2000/svg">
<path d="M14.8589 1.58789C15.5682 1.2669 16.3263 1.08381 17.0571 1.45996C17.7941 1.83936 18.074 2.56537 18.2065 3.32617C18.336 4.06959 18.3606 5.06718 18.3901 6.28125L18.4077 7.00195C18.4269 7.79022 18.4461 7.95714 18.5093 8.08984C18.5711 8.21932 18.6819 8.33285 19.2769 8.83008L19.8218 9.28516C20.7347 10.0481 21.4882 10.6772 21.9819 11.2383C22.4935 11.8196 22.869 12.4872 22.7153 13.2998C22.5636 14.101 21.9792 14.6028 21.2954 14.9902C20.6282 15.3683 19.6905 15.7337 18.5444 16.1807L18.4868 16.2031L17.8687 16.4443C17.1312 16.7319 16.9662 16.8114 16.8462 16.9287C16.726 17.0464 16.6421 17.2104 16.3364 17.9424L16.0562 18.6143C15.5806 19.753 15.1922 20.6844 14.7983 21.3438C14.3955 22.0181 13.8804 22.5931 13.0757 22.7246C12.2581 22.8581 11.601 22.4602 11.0366 21.9316C10.4913 21.421 9.88494 20.6478 9.1499 19.7109L8.71143 19.1523C8.23234 18.5418 8.12285 18.4274 7.99658 18.3623C7.86785 18.296 7.70411 18.2719 6.91846 18.2314L6.20166 18.1943C4.99448 18.1323 4.00139 18.0816 3.26416 17.9316C2.50804 17.7778 1.79245 17.4763 1.43506 16.7275C1.08184 15.9873 1.28235 15.2344 1.62061 14.5312C1.95308 13.8402 2.5174 12.9991 3.20752 11.9707L3.61475 11.3643C4.05912 10.702 4.14882 10.5427 4.1792 10.3828C4.20866 10.2272 4.18518 10.0577 4.00928 9.29785L3.84814 8.60156C3.57613 7.42677 3.3521 6.46091 3.29248 5.70605C3.2309 4.92622 3.32554 4.16814 3.91064 3.5957C4.49705 3.02232 5.25721 2.94649 6.03369 3.0293C6.78417 3.10938 7.74031 3.35976 8.90186 3.66406L9.59229 3.84473C10.3443 4.04172 10.5094 4.06992 10.6626 4.04492C10.8208 4.0191 10.9804 3.93423 11.6528 3.50488L12.2681 3.1123C13.3097 2.44724 14.1619 1.90333 14.8589 1.58789ZM18.4692 18.4697C18.762 18.177 19.2369 18.1772 19.5298 18.4697L21.5298 20.4697C21.8227 20.7626 21.8227 21.2374 21.5298 21.5303C21.2369 21.8231 20.7621 21.8232 20.4692 21.5303L18.4692 19.5303C18.1768 19.2374 18.1765 18.7625 18.4692 18.4697ZM16.3706 2.79395C16.2662 2.7402 16.063 2.68895 15.4771 2.9541C14.8904 3.21958 14.1294 3.70313 13.022 4.41016L12.4604 4.76953C12.4269 4.79098 12.3927 4.81195 12.3599 4.83301C11.8422 5.16444 11.4075 5.44321 10.9048 5.52539C10.3972 5.60825 9.90189 5.47776 9.32275 5.3252C9.28612 5.31554 9.24877 5.30568 9.21143 5.2959L8.5835 5.13184C7.3445 4.80728 6.49883 4.5881 5.87451 4.52148C5.26334 4.45632 5.06822 4.56164 4.95947 4.66797C4.84979 4.77535 4.7389 4.97102 4.7876 5.58789C4.8373 6.21729 5.03383 7.07299 5.32373 8.3252L5.47021 8.95996C5.47894 8.99766 5.48797 9.0353 5.49658 9.07227C5.63307 9.65824 5.74931 10.1561 5.65381 10.6611C5.55896 11.1622 5.27058 11.5908 4.92627 12.1025C4.90457 12.1348 4.88198 12.1672 4.85986 12.2002L4.48779 12.7549C3.75455 13.8476 3.25328 14.5994 2.97314 15.1816C2.69365 15.7626 2.73627 15.9712 2.78857 16.0811C2.83685 16.1822 2.95575 16.3383 3.56299 16.4619C4.17626 16.5867 5.05527 16.634 6.34326 16.7002L6.99561 16.7334C7.03575 16.7355 7.0763 16.7373 7.11572 16.7393C7.71358 16.7691 8.22981 16.795 8.68311 17.0283C9.13862 17.2628 9.455 17.6686 9.81885 18.1338C9.84279 18.1644 9.86769 18.1955 9.89209 18.2266L10.2896 18.7334C11.0753 19.7349 11.6112 20.4147 12.062 20.8369C12.5036 21.2505 12.7051 21.2651 12.8335 21.2441C12.9745 21.2211 13.1808 21.1258 13.5103 20.5742C13.8422 20.0186 14.1905 19.1884 14.6958 17.9785L14.9526 17.3643C14.9676 17.3285 14.982 17.2929 14.9966 17.2578C15.2336 16.6883 15.431 16.2137 15.7974 15.8555C16.1641 15.4969 16.6431 15.3116 17.2163 15.0889C17.2515 15.0752 17.2868 15.0609 17.3228 15.0469L17.9419 14.8057C19.1597 14.3307 19.9947 14.0036 20.5562 13.6855C21.1119 13.3707 21.2143 13.1658 21.2417 13.0215C21.2668 12.8887 21.2552 12.6832 20.856 12.2295C20.4478 11.7657 19.785 11.2101 18.8091 10.3945L18.3149 9.98145C18.2848 9.95624 18.2548 9.93099 18.2251 9.90625C17.7713 9.52819 17.3767 9.19919 17.1558 8.73633C16.9364 8.27656 16.9244 7.75972 16.9106 7.1582C16.9097 7.11873 16.9087 7.0783 16.9077 7.03809L16.8921 6.38184C16.8606 5.08735 16.837 4.20285 16.729 3.58301C16.6219 2.96832 16.4688 2.84456 16.3706 2.79395Z" fill="#896FCA"/>
</svg>