<svg viewBox="0 0 24 24" fill="none" xmlns="http://www.w3.org/2000/svg">
<path fill-rule="evenodd" clip-rule="evenodd" d="M12.6289 2.92377L1.63565 9.03126C1.27357 9.23242 1.14311 9.68902 1.34428 10.0511C1.54544 10.4132 2.00205 10.5436 2.36413 10.3425L11.0496 5.5171C10.5129 7.32327 10.8478 9.33324 12.0542 10.8851L4.46957 18.4697C4.17667 18.7626 4.17667 19.2374 4.46956 19.5303C4.76245 19.8232 5.23733 19.8232 5.53022 19.5303L13.1149 11.9457C14.6668 13.152 16.6767 13.4868 18.4828 12.9502L13.6575 21.6358C13.4563 21.9979 13.5868 22.4545 13.9489 22.6556C14.311 22.8568 14.7676 22.7263 14.9687 22.3642L21.0761 11.3709C23.3329 9.03243 23.3075 5.30714 21.0001 2.99975C18.6927 0.692357 14.9674 0.667032 12.6289 2.92377ZM20.273 10.0152C21.6786 8.25856 21.5674 5.6883 19.9395 4.06041C18.3116 2.43252 15.7413 2.32135 13.9847 3.72687C14.0693 3.89872 14.1856 4.11732 14.3406 4.37566C14.7718 5.09432 15.5038 6.12295 16.6904 7.30957C17.8771 8.49619 18.9057 9.22816 19.6243 9.65927C19.8826 9.81424 20.1012 9.93051 20.273 10.0152ZM19.0644 11.0697C18.9963 11.0307 18.9257 10.9894 18.8526 10.9456C18.1498 10.524 17.2228 9.87143 16.1695 8.89115L14.1869 10.8738C15.6343 11.9031 17.5567 11.9684 19.0644 11.0697ZM13.1262 9.81314C12.0967 8.36572 12.0314 6.44317 12.9302 4.93544C12.9691 5.00355 13.0105 5.07423 13.0544 5.14735C13.476 5.85016 14.1286 6.77721 15.1088 7.8305L13.1262 9.81314Z" fill="#896FCA"/>
</svg>