<svg viewBox="0 0 24 24" fill="none" xmlns="http://www.w3.org/2000/svg">
<path fill-rule="evenodd" clip-rule="evenodd" d="M10.945 1.25H13.0548C14.4224 1.24998 15.5247 1.24996 16.3917 1.36652C17.2918 1.48754 18.0497 1.74643 18.6516 2.34835C19.2535 2.95027 19.5124 3.70814 19.6334 4.60825C19.75 5.47522 19.7499 6.57754 19.7499 7.94513V16.0549C19.7499 17.4225 19.75 18.5248 19.6334 19.3918C19.5124 20.2919 19.2535 21.0497 18.6516 21.6517C18.0497 22.2536 17.2918 22.5125 16.3917 22.6335C15.5247 22.75 14.4224 22.75 13.0548 22.75H10.9451C9.57746 22.75 8.47514 22.75 7.60817 22.6335C6.70806 22.5125 5.95019 22.2536 5.34827 21.6517C4.74635 21.0497 4.48746 20.2919 4.36644 19.3918C4.24988 18.5248 4.2499 17.4225 4.24992 16.0549V7.94512C4.2499 6.57754 4.24988 5.47522 4.36644 4.60825C4.48746 3.70814 4.74635 2.95027 5.34827 2.34835C5.95019 1.74643 6.70806 1.48754 7.60817 1.36652C8.47514 1.24996 9.57746 1.24998 10.945 1.25ZM7.80804 2.85315C7.07427 2.9518 6.68569 3.13225 6.40893 3.40901C6.13217 3.68577 5.95172 4.07435 5.85307 4.80812C5.75151 5.56347 5.74992 6.56459 5.74992 8V16C5.74992 17.4354 5.75151 18.4365 5.85307 19.1919C5.95172 19.9257 6.13217 20.3142 6.40893 20.591C6.68569 20.8678 7.07427 21.0482 7.80804 21.1469C8.56339 21.2484 9.5645 21.25 10.9999 21.25H12.9999C14.4353 21.25 15.4365 21.2484 16.1918 21.1469C16.9256 21.0482 17.3141 20.8678 17.5909 20.591C17.8677 20.3142 18.0481 19.9257 18.1468 19.1919C18.2483 18.4365 18.2499 17.4354 18.2499 16V8C18.2499 6.56458 18.2483 5.56347 18.1468 4.80812C18.0481 4.07435 17.8677 3.68577 17.5909 3.40901C17.3141 3.13225 16.9256 2.9518 16.1918 2.85315C15.4365 2.75159 14.4353 2.75 12.9999 2.75H10.9999C9.5645 2.75 8.56339 2.75159 7.80804 2.85315ZM1.66451 5.32918C2.03499 5.14394 2.4855 5.29411 2.67074 5.66459L3.44713 7.21738C3.69347 7.71005 3.69347 8.28995 3.44713 8.78262L2.89435 9.8882C2.85916 9.95858 2.85916 10.0414 2.89435 10.1118L3.44713 11.2174C3.69347 11.71 3.69347 12.29 3.44713 12.7826L2.89435 13.8882C2.85916 13.9586 2.85916 14.0414 2.89435 14.1118L3.44713 15.2174C3.69347 15.7101 3.69347 16.29 3.44713 16.7826L2.67074 18.3354C2.4855 18.7059 2.03499 18.8561 1.66451 18.6708C1.29403 18.4856 1.14386 18.0351 1.3291 17.6646L2.10549 16.1118C2.14068 16.0414 2.14068 15.9586 2.10549 15.8882L1.55271 14.7826C1.30637 14.29 1.30637 13.71 1.55271 13.2174L2.10549 12.1118C2.14068 12.0414 2.14068 11.9586 2.10549 11.8882L1.55271 10.7826C1.30637 10.29 1.30637 9.71005 1.55271 9.21738L2.10549 8.1118C2.14068 8.04142 2.14068 7.95858 2.10549 7.8882L1.3291 6.33541C1.14386 5.96493 1.29403 5.51442 1.66451 5.32918ZM22.3353 5.32918C22.7058 5.51442 22.856 5.96493 22.6707 6.33541L21.8943 7.8882C21.8592 7.95858 21.8592 8.04142 21.8943 8.1118L22.4471 9.21738C22.6935 9.71005 22.6935 10.29 22.4471 10.7826L21.8943 11.8882C21.8592 11.9586 21.8592 12.0414 21.8943 12.1118L22.4471 13.2174C22.6935 13.71 22.6935 14.29 22.4471 14.7826L21.8943 15.8882C21.8592 15.9586 21.8592 16.0414 21.8943 16.1118L22.6707 17.6646C22.856 18.0351 22.7058 18.4856 22.3353 18.6708C21.9648 18.8561 21.5143 18.7059 21.3291 18.3354L20.5527 16.7826C20.3064 16.29 20.3064 15.7101 20.5527 15.2174L21.1055 14.1118C21.1407 14.0414 21.1407 13.9586 21.1055 13.8882L20.5527 12.7826C20.3064 12.29 20.3064 11.71 20.5527 11.2174L21.1055 10.1118C21.1407 10.0414 21.1407 9.95858 21.1055 9.8882L20.5527 8.78262C20.3064 8.28995 20.3064 7.71005 20.5527 7.21738L21.3291 5.66459C21.5143 5.29411 21.9648 5.14394 22.3353 5.32918ZM8.74992 19C8.74992 18.5858 9.08571 18.25 9.49992 18.25H14.4999C14.9141 18.25 15.2499 18.5858 15.2499 19C15.2499 19.4142 14.9141 19.75 14.4999 19.75H9.49992C9.08571 19.75 8.74992 19.4142 8.74992 19Z" fill="#896FCA"/>
</svg>