<svg viewBox="0 0 24 24" fill="none" xmlns="http://www.w3.org/2000/svg">
<path fill-rule="evenodd" clip-rule="evenodd" d="M13.4615 4.04658C14.665 4.86901 15.8622 5.85918 17.0013 6.99832C18.1405 8.13749 19.1306 9.3347 19.9531 10.5382C20.6541 9.16072 21.0756 7.8564 21.2061 6.72484C21.3708 5.29776 21.0676 4.24334 20.4119 3.58772C19.7563 2.9321 18.7019 2.62887 17.2748 2.79353C16.1433 2.92409 14.839 3.34552 13.4615 4.04658ZM20.8685 11.9999C21.8739 10.2347 22.514 8.47649 22.6962 6.89677C22.8913 5.20639 22.5674 3.6219 21.4726 2.52706C20.3778 1.43222 18.7933 1.10838 17.1029 1.30341C15.5232 1.48568 13.765 2.12579 11.9998 3.13117C10.2347 2.12585 8.47655 1.48578 6.89688 1.30354C5.20655 1.10853 3.62212 1.43238 2.5273 2.5272C1.43247 3.62203 1.10863 5.20649 1.30365 6.89684C1.4859 8.47654 2.12599 10.2347 3.13135 11.9999C2.12607 13.765 1.48605 15.5231 1.30383 17.1027C1.10885 18.793 1.4327 20.3774 2.5275 21.4722C3.62229 22.567 5.2067 22.8909 6.89699 22.6959C8.47662 22.5137 10.2348 21.8736 11.9998 20.8684C13.7649 21.8737 15.5231 22.5138 17.1028 22.696C18.7931 22.891 20.3776 22.5672 21.4724 21.4724C22.5672 20.3775 22.8911 18.7931 22.6961 17.1028C22.5138 15.5231 21.8738 13.765 20.8685 11.9999ZM19.1192 11.9999C18.2823 10.6747 17.214 9.33237 15.9406 8.05898C14.6673 6.78562 13.3249 5.71736 11.9998 4.88044C10.6748 5.71734 9.33256 6.78555 8.05927 8.05884C6.78584 9.33228 5.71754 10.6747 4.8806 11.9999C5.71751 13.3249 6.78575 14.6672 8.05907 15.9406C9.33242 17.2139 10.6748 18.2822 11.9998 19.1191C13.325 18.2822 14.6674 17.2139 15.9408 15.9404C17.2141 14.6671 18.2823 13.3249 19.1192 11.9999ZM13.4616 19.953C14.6651 19.1305 15.8623 18.1403 17.0015 17.0011C18.1405 15.862 19.1307 14.6649 19.953 13.4616C20.654 14.839 21.0754 16.1432 21.206 17.2747C21.3706 18.7017 21.0673 19.7561 20.4118 20.4117C19.7561 21.0673 18.7018 21.3705 17.2747 21.2059C16.1432 21.0754 14.839 20.654 13.4616 19.953ZM10.5381 19.9529C9.33468 19.1305 8.13753 18.1404 6.99841 17.0012C5.85932 15.8621 4.86918 14.665 4.04678 13.4616C3.34582 14.839 2.92447 16.1432 2.79395 17.2746C2.62934 18.7016 2.93257 19.756 3.58816 20.4116C4.24375 21.0672 5.2981 21.3704 6.72509 21.2058C7.85656 21.0752 9.16076 20.6539 10.5381 19.9529ZM4.04675 10.5381C4.8692 9.33463 5.85941 8.13738 6.99861 6.99819C8.13767 5.85912 9.33477 4.869 10.5381 4.0466C9.16074 3.34559 7.85649 2.9242 6.72497 2.79366C5.29794 2.62903 4.24356 2.93226 3.58796 3.58786C2.93235 4.24347 2.62912 5.29787 2.79377 6.72493C2.92431 7.85646 3.34572 9.16073 4.04675 10.5381ZM12 10.2497C11.0335 10.2497 10.25 11.0332 10.25 11.9997C10.25 12.9662 11.0335 13.7497 12 13.7497C12.9665 13.7497 13.75 12.9662 13.75 11.9997C13.75 11.0332 12.9665 10.2497 12 10.2497ZM8.74995 11.9997C8.74995 10.2048 10.205 8.74971 12 8.74971C13.7949 8.74971 15.25 10.2048 15.25 11.9997C15.25 13.7946 13.7949 15.2497 12 15.2497C10.205 15.2497 8.74995 13.7946 8.74995 11.9997Z" fill="#896FCA"/>
</svg>