<svg viewBox="0 0 24 24" fill="none" xmlns="http://www.w3.org/2000/svg">
<g clip-path="url(#clip0_1_21276)">
<path fill-rule="evenodd" clip-rule="evenodd" d="M11.9426 1.25C9.63423 1.24999 7.82519 1.24998 6.41371 1.43975C4.96897 1.63399 3.82895 2.03933 2.93414 2.93414C2.03933 3.82895 1.63399 4.96897 1.43975 6.41371C1.24998 7.82519 1.24999 9.63423 1.25 11.9426V12.0574C1.24999 14.3658 1.24998 16.1748 1.43975 17.5863C1.63399 19.031 2.03933 20.1711 2.93414 21.0659C3.82895 21.9607 4.96897 22.366 6.41371 22.5603C7.82519 22.75 9.63423 22.75 11.9426 22.75H12.0574C14.3658 22.75 16.1748 22.75 17.5863 22.5603C19.031 22.366 20.1711 21.9607 21.0659 21.0659C21.9607 20.1711 22.366 19.031 22.5603 17.5863C22.75 16.1748 22.75 14.3658 22.75 12.0574V11.9426C22.75 9.63423 22.75 7.82519 22.5603 6.41371C22.366 4.96897 21.9607 3.82895 21.0659 2.93414C20.1711 2.03933 19.031 1.63399 17.5863 1.43975C16.1748 1.24998 14.3658 1.24999 12.0574 1.25H11.9426ZM6.25 2.98181C5.18517 3.16506 4.50829 3.4813 3.9948 3.9948C3.42514 4.56445 3.09825 5.33517 2.92637 6.61358C2.75159 7.91356 2.75 9.62178 2.75 12C2.75 14.3782 2.75159 16.0864 2.92637 17.3864C3.09825 18.6648 3.42514 19.4355 3.9948 20.0052C4.56445 20.5749 5.33517 20.9018 6.61358 21.0736C7.91356 21.2484 9.62178 21.25 12 21.25C14.3782 21.25 16.0864 21.2484 17.3864 21.0736C18.6648 20.9018 19.4355 20.5749 20.0052 20.0052C20.5749 19.4355 20.9018 18.6648 21.0736 17.3864C21.2484 16.0864 21.25 14.3782 21.25 12C21.25 9.62178 21.2484 7.91356 21.0736 6.61358C20.9018 5.33517 20.5749 4.56445 20.0052 3.9948C19.4917 3.4813 18.8148 3.16506 17.75 2.98181V11.831C17.75 12.2986 17.75 12.6821 17.7326 12.9839C17.7155 13.2816 17.6786 13.5899 17.5563 13.8652C17.1149 14.859 16.0259 15.3949 14.9691 15.1383C14.6764 15.0673 14.4096 14.9084 14.1633 14.7404C13.9136 14.57 13.6097 14.336 13.2392 14.0508L13.2207 14.0365C12.7513 13.6751 12.6192 13.5804 12.4981 13.5277C12.1804 13.3897 11.8196 13.3897 11.5019 13.5277C11.3808 13.5804 11.2487 13.6751 10.7793 14.0365L10.7608 14.0508C10.3903 14.336 10.0864 14.57 9.83672 14.7404C9.59039 14.9084 9.32356 15.0673 9.03086 15.1383C7.97413 15.3949 6.88513 14.859 6.44371 13.8652C6.32145 13.5899 6.28454 13.2816 6.26739 12.9839C6.24999 12.6821 6.25 12.2986 6.25 11.831V2.98181ZM16.25 2.81997C15.1242 2.75085 13.7418 2.75 12 2.75C10.2582 2.75 8.87584 2.75085 7.75 2.81997V11.8076C7.75 12.3043 7.7503 12.6442 7.7649 12.8976C7.78003 13.1601 7.80769 13.2408 7.81457 13.2563C7.96171 13.5876 8.32471 13.7662 8.67695 13.6807C8.69342 13.6767 8.77428 13.6493 8.99148 13.5012C9.20112 13.3582 9.47062 13.151 9.86419 12.848L9.93118 12.7964C10.3014 12.5109 10.5899 12.2885 10.9042 12.152C11.6032 11.8483 12.3968 11.8483 13.0958 12.152C13.4101 12.2885 13.6986 12.5109 14.0688 12.7964L14.1358 12.848C14.5294 13.151 14.7989 13.3582 15.0085 13.5012C15.2257 13.6493 15.3066 13.6767 15.323 13.6807C15.6753 13.7662 16.0383 13.5876 16.1854 13.2563C16.1923 13.2408 16.22 13.1601 16.2351 12.8976C16.2497 12.6442 16.25 12.3043 16.25 11.8076V2.81997Z" fill="#896FCA"/>
<path fill-rule="evenodd" clip-rule="evenodd" d="M6.25 18C6.25 17.5858 6.58579 17.25 7 17.25H17C17.4142 17.25 17.75 17.5858 17.75 18C17.75 18.4142 17.4142 18.75 17 18.75H7C6.58579 18.75 6.25 18.4142 6.25 18Z" fill="#896FCA"/>
<path d="M11.9426 1.25L11.9426 2H11.9426V1.25ZM6.41371 1.43975L6.51364 2.18306V2.18306L6.41371 1.43975ZM1.43975 6.41371L2.18306 6.51364V6.51364L1.43975 6.41371ZM1.25 11.9426H2V11.9426L1.25 11.9426ZM1.25 12.0574L2 12.0574V12.0574H1.25ZM1.43975 17.5863L0.696435 17.6862V17.6862L1.43975 17.5863ZM6.41371 22.5603L6.51364 21.8169H6.51364L6.41371 22.5603ZM11.9426 22.75V22H11.9426L11.9426 22.75ZM12.0574 22.75L12.0574 22H12.0574V22.75ZM17.5863 22.5603L17.4864 21.8169V21.8169L17.5863 22.5603ZM22.5603 17.5863L21.8169 17.4864V17.4864L22.5603 17.5863ZM22.75 12.0574H22V12.0574L22.75 12.0574ZM22.75 11.9426L22 11.9426V11.9426H22.75ZM22.5603 6.41371L21.8169 6.51364V6.51364L22.5603 6.41371ZM17.5863 1.43975L17.6862 0.696435V0.696435L17.5863 1.43975ZM12.0574 1.25V2H12.0574L12.0574 1.25ZM6.25 2.98181H7V2.09171L6.1228 2.24267L6.25 2.98181ZM3.9948 3.9948L3.46447 3.46447V3.46447L3.9948 3.9948ZM2.92637 6.61358L3.66968 6.71351V6.71351L2.92637 6.61358ZM2.92637 17.3864L3.66968 17.2865V17.2865L2.92637 17.3864ZM3.9948 20.0052L3.46447 20.5355V20.5355L3.9948 20.0052ZM6.61358 21.0736L6.71351 20.3303H6.71351L6.61358 21.0736ZM17.3864 21.0736L17.2865 20.3303V20.3303L17.3864 21.0736ZM21.0736 17.3864L20.3303 17.2865V17.2865L21.0736 17.3864ZM21.0736 6.61358L20.3303 6.71351V6.71351L21.0736 6.61358ZM20.0052 3.9948L20.5355 3.46447V3.46447L20.0052 3.9948ZM17.75 2.98181L17.8772 2.24267L17 2.09171V2.98181H17.75ZM17.75 11.831H17V11.831L17.75 11.831ZM17.7326 12.9839L16.9839 12.9407V12.9407L17.7326 12.9839ZM17.5563 13.8652L16.8709 13.5607V13.5607L17.5563 13.8652ZM14.9691 15.1383L14.7922 15.8672H14.7922L14.9691 15.1383ZM14.1633 14.7404L13.7407 15.36H13.7407L14.1633 14.7404ZM13.2392 14.0508L13.6968 13.4565L13.6968 13.4565L13.2392 14.0508ZM13.2207 14.0365L12.7631 14.6307L12.7631 14.6307L13.2207 14.0365ZM12.4981 13.5277L12.797 12.8398L12.797 12.8398L12.4981 13.5277ZM11.5019 13.5277L11.203 12.8398L11.203 12.8398L11.5019 13.5277ZM10.7793 14.0365L11.2369 14.6307L11.2369 14.6307L10.7793 14.0365ZM10.7608 14.0508L10.3032 13.4565L10.3032 13.4565L10.7608 14.0508ZM9.83672 14.7404L10.2593 15.36H10.2593L9.83672 14.7404ZM9.03086 15.1383L9.20782 15.8672L9.20782 15.8672L9.03086 15.1383ZM6.44371 13.8652L7.12914 13.5607L6.44371 13.8652ZM6.26739 12.9839L7.01614 12.9407V12.9407L6.26739 12.9839ZM6.25 11.831L7 11.831V11.831H6.25ZM16.25 2.81997H17V2.1146L16.296 2.07138L16.25 2.81997ZM7.75 2.81997L7.70404 2.07138L7 2.1146V2.81997H7.75ZM7.7649 12.8976L8.51366 12.8544V12.8544L7.7649 12.8976ZM7.81457 13.2563L8.5 12.9518L8.5 12.9518L7.81457 13.2563ZM8.67695 13.6807L8.50001 12.9518L8.5 12.9518L8.67695 13.6807ZM8.99148 13.5012L9.4141 14.1208H9.4141L8.99148 13.5012ZM9.86419 12.848L10.3218 13.4422L10.322 13.4421L9.86419 12.848ZM9.93118 12.7964L10.389 13.3904L10.3891 13.3903L9.93118 12.7964ZM10.9042 12.152L11.203 12.8398L11.203 12.8398L10.9042 12.152ZM13.0958 12.152L12.797 12.8398L12.797 12.8398L13.0958 12.152ZM14.0688 12.7964L13.6109 13.3903L13.611 13.3904L14.0688 12.7964ZM14.1358 12.848L13.678 13.4421L13.6782 13.4422L14.1358 12.848ZM15.0085 13.5012L14.5859 14.1208H14.5859L15.0085 13.5012ZM15.323 13.6807L15.5 12.9518L15.5 12.9518L15.323 13.6807ZM16.1854 13.2563L15.5 12.9518L15.5 12.9518L16.1854 13.2563ZM16.2351 12.8976L15.4863 12.8544V12.8544L16.2351 12.8976ZM6.41371 1.43975L6.51364 2.18306C7.86377 2.00154 9.61403 1.99999 11.9426 2L11.9426 1.25L11.9426 0.5C9.65442 0.499987 7.78661 0.498416 6.31377 0.696435L6.41371 1.43975ZM2.93414 2.93414L3.46447 3.46447C4.19661 2.73232 5.15188 2.36614 6.51364 2.18306L6.41371 1.43975L6.31377 0.696435C4.78606 0.90183 3.46128 1.34633 2.40381 2.40381L2.93414 2.93414ZM1.43975 6.41371L2.18306 6.51364C2.36614 5.15188 2.73232 4.19661 3.46447 3.46447L2.93414 2.93414L2.40381 2.40381C1.34633 3.46128 0.90183 4.78606 0.696435 6.31377L1.43975 6.41371ZM1.25 11.9426L2 11.9426C1.99999 9.61403 2.00154 7.86377 2.18306 6.51364L1.43975 6.41371L0.696435 6.31377C0.498416 7.78661 0.499987 9.65442 0.5 11.9426L1.25 11.9426ZM1.43975 17.5863L2.18306 17.4864C2.00154 16.1362 1.99999 14.386 2 12.0574L1.25 12.0574L0.5 12.0574C0.499987 14.3456 0.498416 16.2134 0.696435 17.6862L1.43975 17.5863ZM2.93414 21.0659L3.46447 20.5355C2.73232 19.8034 2.36614 18.8481 2.18306 17.4864L1.43975 17.5863L0.696435 17.6862C0.90183 19.2139 1.34633 20.5387 2.40381 21.5962L2.93414 21.0659ZM6.41371 22.5603L6.51364 21.8169C5.15188 21.6339 4.19661 21.2677 3.46447 20.5355L2.93414 21.0659L2.40381 21.5962C3.46128 22.6537 4.78606 23.0982 6.31377 23.3036L6.41371 22.5603ZM11.9426 22.75L11.9426 22C9.61404 22 7.86377 21.9985 6.51364 21.8169L6.41371 22.5603L6.31377 23.3036C7.78661 23.5016 9.65443 23.5 11.9426 23.5L11.9426 22.75ZM17.5863 22.5603L17.4864 21.8169C16.1362 21.9985 14.386 22 12.0574 22L12.0574 22.75L12.0574 23.5C14.3456 23.5 16.2134 23.5016 17.6862 23.3036L17.5863 22.5603ZM21.0659 21.0659L20.5355 20.5355C19.8034 21.2677 18.8481 21.6339 17.4864 21.8169L17.5863 22.5603L17.6862 23.3036C19.2139 23.0982 20.5387 22.6537 21.5962 21.5962L21.0659 21.0659ZM22.5603 17.5863L21.8169 17.4864C21.6339 18.8481 21.2677 19.8034 20.5355 20.5355L21.0659 21.0659L21.5962 21.5962C22.6537 20.5387 23.0982 19.2139 23.3036 17.6862L22.5603 17.5863ZM22.75 12.0574L22 12.0574C22 14.386 21.9985 16.1362 21.8169 17.4864L22.5603 17.5863L23.3036 17.6862C23.5016 16.2134 23.5 14.3456 23.5 12.0574L22.75 12.0574ZM22.5603 6.41371L21.8169 6.51364C21.9985 7.86377 22 9.61404 22 11.9426L22.75 11.9426L23.5 11.9426C23.5 9.65443 23.5016 7.78661 23.3036 6.31377L22.5603 6.41371ZM21.0659 2.93414L20.5355 3.46447C21.2677 4.19661 21.6339 5.15188 21.8169 6.51364L22.5603 6.41371L23.3036 6.31377C23.0982 4.78606 22.6537 3.46128 21.5962 2.40381L21.0659 2.93414ZM17.5863 1.43975L17.4864 2.18306C18.8481 2.36614 19.8034 2.73232 20.5355 3.46447L21.0659 2.93414L21.5962 2.40381C20.5387 1.34633 19.2139 0.90183 17.6862 0.696435L17.5863 1.43975ZM12.0574 1.25L12.0574 2C14.386 1.99999 16.1362 2.00154 17.4864 2.18306L17.5863 1.43975L17.6862 0.696435C16.2134 0.498416 14.3456 0.499987 12.0574 0.5L12.0574 1.25ZM6.25 2.98181L6.1228 2.24267C4.96373 2.44214 4.12312 2.80581 3.46447 3.46447L3.9948 3.9948L4.52513 4.52513C4.89347 4.15679 5.4066 3.88798 6.3772 3.72094L6.25 2.98181ZM3.9948 3.9948L3.46447 3.46447C2.73236 4.19658 2.36615 5.15181 2.18306 6.51364L2.92637 6.61358L3.66968 6.71351C3.83034 5.51854 4.11792 4.93233 4.52513 4.52513L3.9948 3.9948ZM2.92637 6.61358L2.18306 6.51364C1.99999 7.87527 2 9.64322 2 12H2.75H3.5C3.5 9.60033 3.50319 7.95184 3.66968 6.71351L2.92637 6.61358ZM2.75 12H2C2 14.3568 1.99999 16.1247 2.18306 17.4864L2.92637 17.3864L3.66968 17.2865C3.50319 16.0482 3.5 14.3997 3.5 12H2.75ZM2.92637 17.3864L2.18306 17.4864C2.36615 18.8482 2.73236 19.8034 3.46447 20.5355L3.9948 20.0052L4.52513 19.4749C4.11792 19.0677 3.83034 18.4815 3.66968 17.2865L2.92637 17.3864ZM3.9948 20.0052L3.46447 20.5355C4.19658 21.2676 5.15181 21.6338 6.51364 21.8169L6.61358 21.0736L6.71351 20.3303C5.51854 20.1697 4.93233 19.8821 4.52513 19.4749L3.9948 20.0052ZM6.61358 21.0736L6.51364 21.8169C7.87527 22 9.64322 22 12 22V21.25V20.5C9.60033 20.5 7.95184 20.4968 6.71351 20.3303L6.61358 21.0736ZM12 21.25V22C14.3568 22 16.1247 22 17.4864 21.8169L17.3864 21.0736L17.2865 20.3303C16.0482 20.4968 14.3997 20.5 12 20.5V21.25ZM17.3864 21.0736L17.4864 21.8169C18.8482 21.6338 19.8034 21.2676 20.5355 20.5355L20.0052 20.0052L19.4749 19.4749C19.0677 19.8821 18.4815 20.1697 17.2865 20.3303L17.3864 21.0736ZM20.0052 20.0052L20.5355 20.5355C21.2676 19.8034 21.6338 18.8482 21.8169 17.4864L21.0736 17.3864L20.3303 17.2865C20.1697 18.4815 19.8821 19.0677 19.4749 19.4749L20.0052 20.0052ZM21.0736 17.3864L21.8169 17.4864C22 16.1247 22 14.3568 22 12H21.25H20.5C20.5 14.3997 20.4968 16.0482 20.3303 17.2865L21.0736 17.3864ZM21.25 12H22C22 9.64322 22 7.87527 21.8169 6.51364L21.0736 6.61358L20.3303 6.71351C20.4968 7.95184 20.5 9.60033 20.5 12H21.25ZM21.0736 6.61358L21.8169 6.51364C21.6338 5.15181 21.2676 4.19658 20.5355 3.46447L20.0052 3.9948L19.4749 4.52513C19.8821 4.93233 20.1697 5.51854 20.3303 6.71351L21.0736 6.61358ZM20.0052 3.9948L20.5355 3.46447C19.8769 2.80581 19.0363 2.44214 17.8772 2.24267L17.75 2.98181L17.6228 3.72094C18.5934 3.88798 19.1065 4.15679 19.4749 4.52513L20.0052 3.9948ZM17.75 11.831L17 11.831C17 12.307 16.9997 12.6655 16.9839 12.9407L17.7326 12.9839L18.4814 13.027C18.5003 12.6987 18.5 12.2902 18.5 11.831L17.75 11.831ZM17.7326 12.9839L16.9839 12.9407C16.9678 13.2197 16.9357 13.4148 16.8709 13.5607L17.5563 13.8652L18.2417 14.1696C18.4214 13.765 18.4631 13.3435 18.4814 13.027L17.7326 12.9839ZM17.5563 13.8652L16.8709 13.5607C16.5766 14.2233 15.8506 14.5805 15.1461 14.4095L14.9691 15.1383L14.7922 15.8672C16.2012 16.2092 17.6532 15.4947 18.2417 14.1696L17.5563 13.8652ZM14.9691 15.1383L15.1461 14.4095C14.991 14.3718 14.8167 14.2782 14.5859 14.1208L14.1633 14.7404L13.7407 15.36C14.0025 15.5386 14.3619 15.7627 14.7922 15.8672L14.9691 15.1383ZM14.1633 14.7404L14.5859 14.1208C14.3581 13.9654 14.0739 13.7469 13.6968 13.4565L13.2392 14.0508L12.7816 14.645C13.1455 14.9252 13.469 15.1746 13.7407 15.36L14.1633 14.7404ZM13.2392 14.0508L13.6968 13.4565L13.6782 13.4422L13.2207 14.0365L12.7631 14.6307L12.7816 14.645L13.2392 14.0508ZM13.2207 14.0365L13.6782 13.4422C13.2469 13.1101 13.0252 12.939 12.797 12.8398L12.4981 13.5277L12.1992 14.2156C12.1993 14.2157 12.1993 14.2157 12.1993 14.2157C12.1994 14.2157 12.1996 14.2158 12.2003 14.2161C12.2015 14.2168 12.2051 14.2187 12.2118 14.2227C12.2262 14.2313 12.2518 14.2476 12.2962 14.279C12.3882 14.3439 12.5262 14.4483 12.7631 14.6307L13.2207 14.0365ZM12.4981 13.5277L12.797 12.8398C12.2886 12.619 11.7114 12.619 11.203 12.8398L11.5019 13.5277L11.8008 14.2156C11.9278 14.1604 12.0722 14.1604 12.1992 14.2156L12.4981 13.5277ZM11.5019 13.5277L11.203 12.8398C10.9748 12.939 10.7531 13.1101 10.3218 13.4422L10.7793 14.0365L11.2369 14.6307C11.4738 14.4483 11.6118 14.3439 11.7038 14.279C11.7482 14.2476 11.7738 14.2313 11.7882 14.2227C11.7949 14.2187 11.7985 14.2168 11.7997 14.2161C11.8004 14.2158 11.8006 14.2157 11.8007 14.2157C11.8007 14.2157 11.8007 14.2157 11.8008 14.2156L11.5019 13.5277ZM10.7793 14.0365L10.3218 13.4422L10.3032 13.4565L10.7608 14.0508L11.2184 14.645L11.2369 14.6307L10.7793 14.0365ZM10.7608 14.0508L10.3032 13.4565C9.92611 13.7469 9.64188 13.9654 9.4141 14.1208L9.83672 14.7404L10.2593 15.36C10.531 15.1746 10.8545 14.9252 11.2184 14.645L10.7608 14.0508ZM9.83672 14.7404L9.4141 14.1208C9.18329 14.2782 9.00905 14.3718 8.85391 14.4095L9.03086 15.1383L9.20782 15.8672C9.63807 15.7627 9.99749 15.5386 10.2593 15.36L9.83672 14.7404ZM9.03086 15.1383L9.75969 14.9614L9.58273 14.2325L8.85391 14.4095L8.12508 14.5865L8.30204 15.3153L9.03086 15.1383ZM9.03086 15.1383L8.85391 14.4095C8.14942 14.5805 7.42342 14.2233 7.12914 13.5607L6.44371 13.8652L5.75829 14.1696C6.34684 15.4947 7.79885 16.2092 9.20782 15.8672L9.03086 15.1383ZM6.44371 13.8652L7.12914 13.5607C7.06434 13.4148 7.03222 13.2197 7.01614 12.9407L6.26739 12.9839L5.51863 13.027C5.53687 13.3435 5.57856 13.765 5.75829 14.1696L6.44371 13.8652ZM6.26739 12.9839L7.01614 12.9407C7.00028 12.6655 7 12.307 7 11.831L6.25 11.831L5.5 11.831C5.5 12.2902 5.49971 12.6987 5.51863 13.027L6.26739 12.9839ZM16.25 2.81997L16.296 2.07138C15.1421 2.00054 13.7337 2 12 2V2.75V3.5C13.7499 3.5 15.1062 3.50117 16.204 3.56856L16.25 2.81997ZM12 2.75V2C10.2663 2 8.85792 2.00054 7.70404 2.07138L7.75 2.81997L7.79596 3.56856C8.89376 3.50117 10.2501 3.5 12 3.5V2.75ZM7.75 2.81997H7V11.8076H7.75H8.5V2.81997H7.75ZM7.75 11.8076H7C7 12.2948 7 12.6606 7.01614 12.9407L7.7649 12.8976L8.51366 12.8544C8.5006 12.6279 8.5 12.3138 8.5 11.8076H7.75ZM7.7649 12.8976L7.01614 12.9407C7.0321 13.2177 7.06395 13.414 7.12914 13.5607L7.81457 13.2563L8.5 12.9518C8.50971 12.9737 8.51629 12.9916 8.52037 13.0035C8.52468 13.016 8.52757 13.0259 8.52934 13.0323C8.53281 13.045 8.53305 13.0485 8.53148 13.0396C8.52821 13.021 8.52006 12.9655 8.51366 12.8544L7.7649 12.8976ZM7.81457 13.2563L7.12914 13.5607C7.42342 14.2233 8.14942 14.5805 8.85391 14.4095L8.67695 13.6807L8.5 12.9518L8.5 12.9518L7.81457 13.2563ZM8.67695 13.6807L8.8539 14.4095C9.00998 14.3716 9.18494 14.2771 9.4141 14.1208L8.99148 13.5012L8.56886 12.8816C8.47696 12.9443 8.428 12.9717 8.41129 12.9804C8.40327 12.9846 8.40621 12.9827 8.41835 12.9777C8.42454 12.9752 8.43411 12.9714 8.44668 12.9672C8.45857 12.9632 8.47675 12.9575 8.50001 12.9518L8.67695 13.6807ZM8.99148 13.5012L9.4141 14.1208C9.6459 13.9627 9.93571 13.7395 10.3218 13.4422L9.86419 12.848L9.40662 12.2537C9.00553 12.5626 8.75633 12.7537 8.56886 12.8816L8.99148 13.5012ZM9.86419 12.848L10.322 13.4421L10.389 13.3904L9.93118 12.7964L9.47336 12.2023L9.40638 12.2539L9.86419 12.848ZM9.93118 12.7964L10.3891 13.3903C10.7803 13.0887 10.9913 12.9318 11.203 12.8398L10.9042 12.152L10.6053 11.4641C10.1885 11.6452 9.82243 11.9332 9.47324 12.2024L9.93118 12.7964ZM10.9042 12.152L11.203 12.8398C11.7114 12.619 12.2886 12.619 12.797 12.8398L13.0958 12.152L13.3947 11.4641C12.5051 11.0776 11.4949 11.0776 10.6053 11.4641L10.9042 12.152ZM13.0958 12.152L12.797 12.8398C13.0087 12.9318 13.2197 13.0887 13.6109 13.3903L14.0688 12.7964L14.5268 12.2024C14.1776 11.9332 13.8115 11.6452 13.3947 11.4641L13.0958 12.152ZM14.0688 12.7964L13.611 13.3904L13.678 13.4421L14.1358 12.848L14.5936 12.2539L14.5266 12.2023L14.0688 12.7964ZM14.1358 12.848L13.6782 13.4422C14.0643 13.7395 14.3541 13.9627 14.5859 14.1208L15.0085 13.5012L15.4311 12.8816C15.2437 12.7537 14.9945 12.5626 14.5934 12.2537L14.1358 12.848ZM15.0085 13.5012L14.5859 14.1208C14.8151 14.2771 14.99 14.3716 15.1461 14.4095L15.323 13.6807L15.5 12.9518C15.5232 12.9575 15.5414 12.9632 15.5533 12.9672C15.5659 12.9714 15.5755 12.9752 15.5817 12.9777C15.5938 12.9827 15.5967 12.9846 15.5887 12.9804C15.572 12.9717 15.523 12.9443 15.4311 12.8816L15.0085 13.5012ZM15.323 13.6807L15.1461 14.4095C15.8506 14.5805 16.5766 14.2233 16.8709 13.5607L16.1854 13.2563L15.5 12.9518L15.5 12.9518L15.323 13.6807ZM16.1854 13.2563L16.8709 13.5607C16.9361 13.414 16.9679 13.2177 16.9839 12.9407L16.2351 12.8976L15.4863 12.8544C15.4799 12.9655 15.4718 13.021 15.4685 13.0396C15.467 13.0485 15.4672 13.0449 15.4707 13.0323C15.4724 13.0259 15.4753 13.016 15.4796 13.0035C15.4837 12.9916 15.4903 12.9737 15.5 12.9518L16.1854 13.2563ZM16.2351 12.8976L16.9839 12.9407C17 12.6606 17 12.2948 17 11.8076H16.25H15.5C15.5 12.3138 15.4994 12.6279 15.4863 12.8544L16.2351 12.8976ZM16.25 11.8076H17V2.81997H16.25H15.5V11.8076H16.25ZM11.9426 1.25V2H12.0574V1.25V0.5H11.9426V1.25ZM1.25 12.0574H2V11.9426H1.25H0.5V12.0574H1.25ZM12.0574 22.75V22H11.9426V22.75V23.5H12.0574V22.75ZM22.75 11.9426H22V12.0574H22.75H23.5V11.9426H22.75ZM17.75 2.98181H17V11.831H17.75H18.5V2.98181H17.75ZM6.25 11.831H7V2.98181H6.25H5.5V11.831H6.25ZM7 17.25V16.5C6.17157 16.5 5.5 17.1716 5.5 18H6.25H7V17.25ZM17 17.25V16.5H7V17.25V18H17V17.25ZM17.75 18H18.5C18.5 17.1716 17.8284 16.5 17 16.5V17.25V18H17.75ZM17 18.75V19.5C17.8284 19.5 18.5 18.8284 18.5 18H17.75H17V18.75ZM7 18.75V19.5H17V18.75V18H7V18.75ZM6.25 18H5.5C5.5 18.8284 6.17157 19.5 7 19.5V18.75V18H6.25Z" fill="#896FCA"/>
</g>
<defs>
<clipPath id="clip0_1_21276">
<rect width="24" height="24" fill="white"/>
</clipPath>
</defs>
</svg>