<svg viewBox="0 0 24 24" fill="none" xmlns="http://www.w3.org/2000/svg">
<g clip-path="url(#clip0_1_21264)">
<path fill-rule="evenodd" clip-rule="evenodd" d="M11.9426 1.25H12.0574C14.3658 1.24999 16.1748 1.24998 17.5863 1.43975C19.031 1.63399 20.1711 2.03933 21.0659 2.93414C21.9607 3.82895 22.366 4.96897 22.5603 6.41371C22.75 7.82519 22.75 9.63423 22.75 11.9426V12.0574C22.75 14.3658 22.75 16.1748 22.5603 17.5863C22.366 19.031 21.9607 20.1711 21.0659 21.0659C20.1711 21.9607 19.031 22.366 17.5863 22.5603C16.1748 22.75 14.3658 22.75 12.0574 22.75H11.9426C9.63423 22.75 7.82519 22.75 6.41371 22.5603C4.96897 22.366 3.82895 21.9607 2.93414 21.0659C2.03933 20.1711 1.63399 19.031 1.43975 17.5863C1.24998 16.1748 1.24999 14.3658 1.25 12.0574V11.9426C1.24999 9.63423 1.24998 7.82519 1.43975 6.41371C1.63399 4.96897 2.03933 3.82895 2.93414 2.93414C3.82895 2.03933 4.96897 1.63399 6.41371 1.43975C7.82519 1.24998 9.63423 1.24999 11.9426 1.25ZM6.61358 2.92637C5.33517 3.09825 4.56445 3.42514 3.9948 3.9948C3.42514 4.56445 3.09825 5.33517 2.92637 6.61358C2.75159 7.91356 2.75 9.62177 2.75 12C2.75 14.3782 2.75159 16.0864 2.92637 17.3864C3.09825 18.6648 3.42514 19.4355 3.9948 20.0052C4.56445 20.5749 5.33517 20.9018 6.61358 21.0736C7.91356 21.2484 9.62177 21.25 12 21.25C14.3782 21.25 16.0864 21.2484 17.3864 21.0736C18.6648 20.9018 19.4355 20.5749 20.0052 20.0052C20.5749 19.4355 20.9018 18.6648 21.0736 17.3864C21.2484 16.0864 21.25 14.3782 21.25 12C21.25 9.62177 21.2484 7.91356 21.0736 6.61358C20.9018 5.33517 20.5749 4.56445 20.0052 3.9948C19.4355 3.42514 18.6648 3.09825 17.3864 2.92637C16.0864 2.75159 14.3782 2.75 12 2.75C9.62177 2.75 7.91356 2.75159 6.61358 2.92637Z" fill="#896FCA"/>
<path fill-rule="evenodd" clip-rule="evenodd" d="M8 5.74998C8.41421 5.74998 8.75 6.08576 8.75 6.49998L8.75 7.74999H10C10.4142 7.74999 10.75 8.08578 10.75 8.49999C10.75 8.91421 10.4142 9.24999 10 9.24999H8.75V10.5C8.75 10.9142 8.41421 11.25 8 11.25C7.58579 11.25 7.25 10.9142 7.25 10.5V9.24999H6C5.58579 9.24999 5.25 8.91421 5.25 8.49999C5.25 8.08578 5.58579 7.74999 6 7.74999H7.25L7.25 6.49998C7.25 6.08576 7.58579 5.74998 8 5.74998ZM13.25 8.49998C13.25 8.08576 13.5858 7.74998 14 7.74998H18C18.4142 7.74998 18.75 8.08576 18.75 8.49998C18.75 8.91419 18.4142 9.24998 18 9.24998H14C13.5858 9.24998 13.25 8.91419 13.25 8.49998ZM13.25 14.5C13.25 14.0858 13.5858 13.75 14 13.75H18C18.4142 13.75 18.75 14.0858 18.75 14.5C18.75 14.9142 18.4142 15.25 18 15.25H14C13.5858 15.25 13.25 14.9142 13.25 14.5ZM5.96967 13.9697C6.26256 13.6768 6.73744 13.6768 7.03033 13.9697L8.00001 14.9393L8.96967 13.9697C9.26256 13.6768 9.73744 13.6768 10.0303 13.9697C10.3232 14.2626 10.3232 14.7374 10.0303 15.0303L9.06067 16L10.0303 16.9697C10.3232 17.2626 10.3232 17.7374 10.0303 18.0303C9.73742 18.3232 9.26255 18.3232 8.96966 18.0303L8.00001 17.0607L7.03034 18.0303C6.73745 18.3232 6.26258 18.3232 5.96968 18.0303C5.67679 17.7374 5.67679 17.2626 5.96968 16.9697L6.93935 16L5.96967 15.0303C5.67678 14.7374 5.67678 14.2626 5.96967 13.9697ZM13.25 17.5C13.25 17.0858 13.5858 16.75 14 16.75H18C18.4142 16.75 18.75 17.0858 18.75 17.5C18.75 17.9142 18.4142 18.25 18 18.25H14C13.5858 18.25 13.25 17.9142 13.25 17.5Z" fill="#896FCA"/>
<path d="M11.9426 1.25L11.9426 2H11.9426V1.25ZM12.0574 1.25V2H12.0574L12.0574 1.25ZM17.5863 1.43975L17.4864 2.18306V2.18306L17.5863 1.43975ZM21.0659 2.93414L20.5355 3.46447V3.46447L21.0659 2.93414ZM22.5603 6.41371L21.8169 6.51364V6.51364L22.5603 6.41371ZM22.75 11.9426L22 11.9426V11.9426H22.75ZM22.75 12.0574H22V12.0574L22.75 12.0574ZM22.5603 17.5863L21.8169 17.4864V17.4864L22.5603 17.5863ZM17.5863 22.5603L17.4864 21.8169V21.8169L17.5863 22.5603ZM12.0574 22.75L12.0574 22H12.0574V22.75ZM11.9426 22.75V22H11.9426L11.9426 22.75ZM6.41371 22.5603L6.51364 21.8169H6.51364L6.41371 22.5603ZM2.93414 21.0659L3.46447 20.5355V20.5355L2.93414 21.0659ZM1.43975 17.5863L2.18306 17.4864V17.4864L1.43975 17.5863ZM1.25 12.0574L2 12.0574V12.0574H1.25ZM1.25 11.9426H2V11.9426L1.25 11.9426ZM1.43975 6.41371L2.18306 6.51364V6.51364L1.43975 6.41371ZM2.93414 2.93414L3.46447 3.46447V3.46447L2.93414 2.93414ZM6.41371 1.43975L6.51364 2.18306V2.18306L6.41371 1.43975ZM6.61358 2.92637L6.51364 2.18306V2.18306L6.61358 2.92637ZM2.92637 6.61358L2.18306 6.51364V6.51364L2.92637 6.61358ZM2.92637 17.3864L3.66968 17.2865V17.2865L2.92637 17.3864ZM6.61358 21.0736L6.71351 20.3303H6.71351L6.61358 21.0736ZM17.3864 21.0736L17.2865 20.3303V20.3303L17.3864 21.0736ZM21.0736 17.3864L20.3303 17.2865V17.2865L21.0736 17.3864ZM21.0736 6.61358L20.3303 6.71351V6.71351L21.0736 6.61358ZM17.3864 2.92637L17.2865 3.66968V3.66968L17.3864 2.92637ZM8.75 6.49998L9.5 6.49998V6.49998H8.75ZM8.75 7.74999L8 7.74999L8 8.49999H8.75V7.74999ZM8.75 9.24999V8.49999H8V9.24999H8.75ZM7.25 9.24999H8V8.49999H7.25V9.24999ZM7.25 7.74999V8.49999H8L8 7.74999L7.25 7.74999ZM7.25 6.49998L8 6.49998V6.49998H7.25ZM7.03033 13.9697L7.56066 13.4393L7.03033 13.9697ZM5.96967 13.9697L5.43934 13.4393L5.43934 13.4393L5.96967 13.9697ZM8.00001 14.9393L7.46968 15.4697L8.00001 16L8.53034 15.4697L8.00001 14.9393ZM8.96967 13.9697L8.43934 13.4394L8.43934 13.4394L8.96967 13.9697ZM10.0303 13.9697L10.5607 13.4394L10.5607 13.4394L10.0303 13.9697ZM10.0303 15.0303L10.5607 15.5607V15.5607L10.0303 15.0303ZM9.06067 16L8.53034 15.4697L8.00001 16L8.53034 16.5303L9.06067 16ZM10.0303 16.9697L10.5606 16.4393V16.4393L10.0303 16.9697ZM10.0303 18.0303L10.5606 18.5606V18.5606L10.0303 18.0303ZM8.96966 18.0303L9.49999 17.5H9.49999L8.96966 18.0303ZM8.00001 17.0607L8.53034 16.5303L8.00001 16L7.46968 16.5303L8.00001 17.0607ZM7.03034 18.0303L6.50001 17.5V17.5L7.03034 18.0303ZM5.96968 18.0303L5.43935 18.5607H5.43935L5.96968 18.0303ZM5.96968 16.9697L5.43935 16.4393V16.4393L5.96968 16.9697ZM6.93935 16L7.46968 16.5303L8.00001 16L7.46968 15.4697L6.93935 16ZM5.96967 15.0303L6.5 14.5H6.5L5.96967 15.0303ZM17.5863 1.43975L17.6862 0.696435C16.2134 0.498416 14.3456 0.499987 12.0574 0.5L12.0574 1.25L12.0574 2C14.386 1.99999 16.1362 2.00154 17.4864 2.18306L17.5863 1.43975ZM21.0659 2.93414L21.5962 2.40381C20.5387 1.34633 19.2139 0.90183 17.6862 0.696435L17.5863 1.43975L17.4864 2.18306C18.8481 2.36614 19.8034 2.73232 20.5355 3.46447L21.0659 2.93414ZM22.5603 6.41371L23.3036 6.31377C23.0982 4.78606 22.6537 3.46128 21.5962 2.40381L21.0659 2.93414L20.5355 3.46447C21.2677 4.19661 21.6339 5.15188 21.8169 6.51364L22.5603 6.41371ZM22.75 11.9426L23.5 11.9426C23.5 9.65443 23.5016 7.78661 23.3036 6.31377L22.5603 6.41371L21.8169 6.51364C21.9985 7.86377 22 9.61404 22 11.9426L22.75 11.9426ZM22.5603 17.5863L23.3036 17.6862C23.5016 16.2134 23.5 14.3456 23.5 12.0574L22.75 12.0574L22 12.0574C22 14.386 21.9985 16.1362 21.8169 17.4864L22.5603 17.5863ZM21.0659 21.0659L21.5962 21.5962C22.6537 20.5387 23.0982 19.2139 23.3036 17.6862L22.5603 17.5863L21.8169 17.4864C21.6339 18.8481 21.2677 19.8034 20.5355 20.5355L21.0659 21.0659ZM17.5863 22.5603L17.6862 23.3036C19.2139 23.0982 20.5387 22.6537 21.5962 21.5962L21.0659 21.0659L20.5355 20.5355C19.8034 21.2677 18.8481 21.6339 17.4864 21.8169L17.5863 22.5603ZM12.0574 22.75L12.0574 23.5C14.3456 23.5 16.2134 23.5016 17.6862 23.3036L17.5863 22.5603L17.4864 21.8169C16.1362 21.9985 14.386 22 12.0574 22L12.0574 22.75ZM6.41371 22.5603L6.31377 23.3036C7.78661 23.5016 9.65443 23.5 11.9426 23.5L11.9426 22.75L11.9426 22C9.61404 22 7.86377 21.9985 6.51364 21.8169L6.41371 22.5603ZM2.93414 21.0659L2.40381 21.5962C3.46128 22.6537 4.78606 23.0982 6.31377 23.3036L6.41371 22.5603L6.51364 21.8169C5.15188 21.6339 4.19661 21.2677 3.46447 20.5355L2.93414 21.0659ZM1.43975 17.5863L0.696435 17.6862C0.90183 19.2139 1.34633 20.5387 2.40381 21.5962L2.93414 21.0659L3.46447 20.5355C2.73232 19.8034 2.36614 18.8481 2.18306 17.4864L1.43975 17.5863ZM1.25 12.0574L0.5 12.0574C0.499987 14.3456 0.498416 16.2134 0.696435 17.6862L1.43975 17.5863L2.18306 17.4864C2.00154 16.1362 1.99999 14.386 2 12.0574L1.25 12.0574ZM1.43975 6.41371L0.696435 6.31377C0.498416 7.78661 0.499987 9.65442 0.5 11.9426L1.25 11.9426L2 11.9426C1.99999 9.61403 2.00154 7.86377 2.18306 6.51364L1.43975 6.41371ZM2.93414 2.93414L2.40381 2.40381C1.34633 3.46128 0.90183 4.78606 0.696435 6.31377L1.43975 6.41371L2.18306 6.51364C2.36614 5.15188 2.73232 4.19661 3.46447 3.46447L2.93414 2.93414ZM6.41371 1.43975L6.31377 0.696435C4.78606 0.90183 3.46128 1.34633 2.40381 2.40381L2.93414 2.93414L3.46447 3.46447C4.19661 2.73232 5.15188 2.36614 6.51364 2.18306L6.41371 1.43975ZM11.9426 1.25L11.9426 0.5C9.65442 0.499987 7.78661 0.498416 6.31377 0.696435L6.41371 1.43975L6.51364 2.18306C7.86377 2.00154 9.61403 1.99999 11.9426 2L11.9426 1.25ZM3.9948 3.9948L4.52513 4.52513C4.93233 4.11792 5.51854 3.83034 6.71351 3.66968L6.61358 2.92637L6.51364 2.18306C5.15181 2.36615 4.19658 2.73236 3.46447 3.46447L3.9948 3.9948ZM2.92637 6.61358L3.66968 6.71351C3.83034 5.51854 4.11792 4.93233 4.52513 4.52513L3.9948 3.9948L3.46447 3.46447C2.73236 4.19658 2.36615 5.15181 2.18306 6.51364L2.92637 6.61358ZM2.75 12H3.5C3.5 9.60033 3.50319 7.95184 3.66968 6.71351L2.92637 6.61358L2.18306 6.51364C1.99999 7.87527 2 9.64322 2 12H2.75ZM2.92637 17.3864L3.66968 17.2865C3.50319 16.0482 3.5 14.3997 3.5 12H2.75H2C2 14.3568 1.99999 16.1247 2.18306 17.4864L2.92637 17.3864ZM3.9948 20.0052L4.52513 19.4749C4.11792 19.0677 3.83034 18.4815 3.66968 17.2865L2.92637 17.3864L2.18306 17.4864C2.36615 18.8482 2.73236 19.8034 3.46447 20.5355L3.9948 20.0052ZM6.61358 21.0736L6.71351 20.3303C5.51854 20.1697 4.93233 19.8821 4.52513 19.4749L3.9948 20.0052L3.46447 20.5355C4.19657 21.2676 5.15181 21.6338 6.51364 21.8169L6.61358 21.0736ZM12 21.25V20.5C9.60033 20.5 7.95184 20.4968 6.71351 20.3303L6.61358 21.0736L6.51364 21.8169C7.87527 22 9.64322 22 12 22V21.25ZM17.3864 21.0736L17.2865 20.3303C16.0482 20.4968 14.3997 20.5 12 20.5V21.25V22C14.3568 22 16.1247 22 17.4864 21.8169L17.3864 21.0736ZM20.0052 20.0052L19.4749 19.4749C19.0677 19.8821 18.4815 20.1697 17.2865 20.3303L17.3864 21.0736L17.4864 21.8169C18.8482 21.6338 19.8034 21.2676 20.5355 20.5355L20.0052 20.0052ZM21.0736 17.3864L20.3303 17.2865C20.1697 18.4815 19.8821 19.0677 19.4749 19.4749L20.0052 20.0052L20.5355 20.5355C21.2676 19.8034 21.6338 18.8482 21.8169 17.4864L21.0736 17.3864ZM21.25 12H20.5C20.5 14.3997 20.4968 16.0482 20.3303 17.2865L21.0736 17.3864L21.8169 17.4864C22 16.1247 22 14.3568 22 12H21.25ZM21.0736 6.61358L20.3303 6.71351C20.4968 7.95184 20.5 9.60033 20.5 12H21.25H22C22 9.64322 22 7.87527 21.8169 6.51364L21.0736 6.61358ZM20.0052 3.9948L19.4749 4.52513C19.8821 4.93233 20.1697 5.51854 20.3303 6.71351L21.0736 6.61358L21.8169 6.51364C21.6338 5.15181 21.2676 4.19657 20.5355 3.46447L20.0052 3.9948ZM17.3864 2.92637L17.2865 3.66968C18.4815 3.83034 19.0677 4.11792 19.4749 4.52513L20.0052 3.9948L20.5355 3.46447C19.8034 2.73236 18.8482 2.36615 17.4864 2.18306L17.3864 2.92637ZM12 2.75V3.5C14.3997 3.5 16.0482 3.50319 17.2865 3.66968L17.3864 2.92637L17.4864 2.18306C16.1247 1.99999 14.3568 2 12 2V2.75ZM6.61358 2.92637L6.71351 3.66968C7.95184 3.50319 9.60033 3.5 12 3.5V2.75V2C9.64322 2 7.87527 1.99999 6.51364 2.18306L6.61358 2.92637ZM12.0574 1.25V0.5H11.9426V1.25V2H12.0574V1.25ZM22.75 12.0574H23.5V11.9426H22.75H22V12.0574H22.75ZM11.9426 22.75V23.5H12.0574V22.75V22H11.9426V22.75ZM1.25 11.9426H0.5V12.0574H1.25H2V11.9426H1.25ZM8.75 6.49998H9.5C9.5 5.67155 8.82843 4.99998 8 4.99998V5.74998V6.49998H8.75ZM8.75 7.74999L9.5 7.74999V6.49998L8.75 6.49998L8 6.49998L8 7.74999L8.75 7.74999ZM10 7.74999V6.99999H8.75V7.74999V8.49999H10V7.74999ZM10.75 8.49999H11.5C11.5 7.67157 10.8284 6.99999 10 6.99999V7.74999V8.49999H10.75ZM10 9.24999V9.99999C10.8284 9.99999 11.5 9.32842 11.5 8.49999H10.75H10V9.24999ZM8.75 9.24999V9.99999H10V9.24999V8.49999H8.75V9.24999ZM8.75 10.5H9.5V9.24999H8.75H8V10.5H8.75ZM8 11.25V12C8.82843 12 9.5 11.3284 9.5 10.5H8.75H8V11.25ZM7.25 10.5H6.5C6.5 11.3284 7.17157 12 8 12V11.25V10.5H7.25ZM7.25 9.24999H6.5V10.5H7.25H8V9.24999H7.25ZM6 9.24999V9.99999H7.25V9.24999V8.49999H6V9.24999ZM5.25 8.49999H4.5C4.5 9.32842 5.17157 9.99999 6 9.99999V9.24999V8.49999V8.49999H5.25ZM6 7.74999V6.99999C5.17157 6.99999 4.5 7.67157 4.5 8.49999H5.25H6V8.49999V7.74999ZM7.25 7.74999V6.99999H6V7.74999V8.49999H7.25V7.74999ZM7.25 6.49998L6.5 6.49998L6.5 7.74999L7.25 7.74999L8 7.74999L8 6.49998L7.25 6.49998ZM8 5.74998V4.99998C7.17157 4.99998 6.5 5.67155 6.5 6.49998H7.25H8V5.74998ZM14 7.74998V6.99998C13.1716 6.99998 12.5 7.67155 12.5 8.49998H13.25H14V7.74998ZM18 7.74998V6.99998H14V7.74998V8.49998H18V7.74998ZM18.75 8.49998H19.5C19.5 7.67155 18.8284 6.99998 18 6.99998V7.74998V8.49998H18.75ZM18 9.24998V9.99998C18.8284 9.99998 19.5 9.3284 19.5 8.49998H18.75H18V9.24998ZM14 9.24998V9.99998H18V9.24998V8.49998H14V9.24998ZM13.25 8.49998H12.5C12.5 9.3284 13.1716 9.99998 14 9.99998V9.24998V8.49998H13.25ZM14 13.75V13C13.1716 13 12.5 13.6715 12.5 14.5H13.25H14V13.75ZM18 13.75V13H14V13.75V14.5H18V13.75ZM18.75 14.5H19.5C19.5 13.6715 18.8284 13 18 13V13.75V14.5H18.75ZM18 15.25V16C18.8284 16 19.5 15.3284 19.5 14.5H18.75H18V15.25ZM14 15.25V16H18V15.25V14.5H14V15.25ZM13.25 14.5H12.5C12.5 15.3284 13.1716 16 14 16V15.25V14.5H13.25ZM7.03033 13.9697L7.56066 13.4393C6.97487 12.8536 6.02513 12.8536 5.43934 13.4393L5.96967 13.9697L6.5 14.5H6.5L7.03033 13.9697ZM8.00001 14.9393L8.53034 14.409L7.56066 13.4393L7.03033 13.9697L6.5 14.5L7.46968 15.4697L8.00001 14.9393ZM8.96967 13.9697L8.43934 13.4394L7.46968 14.409L8.00001 14.9393L8.53034 15.4697L9.5 14.5L8.96967 13.9697ZM10.0303 13.9697L10.5607 13.4394C9.97487 12.8536 9.02513 12.8536 8.43934 13.4394L8.96967 13.9697L9.5 14.5H9.5L10.0303 13.9697ZM10.0303 15.0303L10.5607 15.5607C11.1464 14.9749 11.1464 14.0251 10.5607 13.4394L10.0303 13.9697L9.5 14.5V14.5L10.0303 15.0303ZM9.06067 16L9.591 16.5303L10.5607 15.5607L10.0303 15.0303L9.5 14.5L8.53034 15.4697L9.06067 16ZM10.0303 16.9697L10.5606 16.4393L9.591 15.4697L9.06067 16L8.53034 16.5303L9.49999 17.5L10.0303 16.9697ZM10.0303 18.0303L10.5606 18.5606C11.1464 17.9749 11.1464 17.0251 10.5606 16.4393L10.0303 16.9697L9.49999 17.5H9.49999L10.0303 18.0303ZM8.96966 18.0303L8.43933 18.5606C9.02511 19.1464 9.97486 19.1464 10.5606 18.5606L10.0303 18.0303L9.49999 17.5V17.5L8.96966 18.0303ZM8.00001 17.0607L7.46968 17.591L8.43933 18.5606L8.96966 18.0303L9.49999 17.5L8.53034 16.5303L8.00001 17.0607ZM7.03034 18.0303L7.56067 18.5607L8.53034 17.591L8.00001 17.0607L7.46968 16.5303L6.50001 17.5L7.03034 18.0303ZM5.96968 18.0303L5.43935 18.5607C6.02514 19.1464 6.97489 19.1464 7.56067 18.5607L7.03034 18.0303L6.50001 17.5H6.50001L5.96968 18.0303ZM5.96968 16.9697L5.43935 16.4393C4.85357 17.0251 4.85357 17.9749 5.43935 18.5607L5.96968 18.0303L6.50001 17.5L6.50001 17.5L5.96968 16.9697ZM6.93935 16L6.40902 15.4697L5.43935 16.4393L5.96968 16.9697L6.50001 17.5L7.46968 16.5303L6.93935 16ZM5.96967 15.0303L5.43934 15.5607L6.40902 16.5303L6.93935 16L7.46968 15.4697L6.5 14.5L5.96967 15.0303ZM5.96967 13.9697L5.43934 13.4393C4.85355 14.0251 4.85355 14.9749 5.43934 15.5607L5.96967 15.0303L6.5 14.5L6.5 14.5L5.96967 13.9697ZM14 16.75V16C13.1716 16 12.5 16.6716 12.5 17.5H13.25H14V16.75ZM18 16.75V16H14V16.75V17.5H18V16.75ZM18.75 17.5H19.5C19.5 16.6716 18.8284 16 18 16V16.75V17.5H18.75ZM18 18.25V19C18.8284 19 19.5 18.3284 19.5 17.5H18.75H18V18.25ZM14 18.25V19H18V18.25V17.5H14V18.25ZM13.25 17.5H12.5C12.5 18.3284 13.1716 19 14 19V18.25V17.5H13.25Z" fill="#896FCA"/>
</g>
<defs>
<clipPath id="clip0_1_21264">
<rect width="24" height="24" fill="white"/>
</clipPath>
</defs>
</svg>