<svg viewBox="0 0 24 24" fill="none" xmlns="http://www.w3.org/2000/svg">
<mask id="path-1-inside-1_1_21266" fill="white">
<path fill-rule="evenodd" clip-rule="evenodd" d="M11.9375 1.25H12.0625C14.1308 1.24998 15.7678 1.24997 17.0485 1.44129C18.3725 1.63907 19.4223 2.05481 20.2395 2.96274C21.0464 3.85936 21.4066 4.99222 21.5798 6.42355C21.75 7.83014 21.75 9.63498 21.75 11.9478V12.0522C21.75 14.365 21.75 16.1699 21.5798 17.5765C21.4066 19.0078 21.0464 20.1406 20.2395 21.0373C19.4223 21.9452 18.3725 22.3609 17.0485 22.5587C15.7678 22.75 14.1308 22.75 12.0625 22.75H11.9375C9.8692 22.75 8.23221 22.75 6.95147 22.5587C5.62747 22.3609 4.57769 21.9452 3.76055 21.0373C2.95359 20.1406 2.59338 19.0078 2.42018 17.5765C2.24998 16.1699 2.24999 14.365 2.25 12.0522V11.9478C2.24999 9.63499 2.24998 7.83014 2.42018 6.42355C2.59338 4.99222 2.95359 3.85936 3.76055 2.96274C4.57769 2.05481 5.62747 1.63907 6.95147 1.44129C8.23221 1.24997 9.86922 1.24998 11.9375 1.25ZM7.17309 2.92483C6.04626 3.09316 5.37637 3.40965 4.87549 3.96619C4.36443 4.53404 4.06563 5.31193 3.90932 6.60374C3.7513 7.90972 3.75 9.62385 3.75 12C3.75 14.3762 3.7513 16.0903 3.90932 17.3963C4.06563 18.6881 4.36443 19.466 4.87549 20.0338C5.37637 20.5903 6.04626 20.9068 7.17309 21.0752C8.33029 21.248 9.8552 21.25 12 21.25C14.1448 21.25 15.6697 21.248 16.8269 21.0752C17.9537 20.9068 18.6236 20.5903 19.1245 20.0338C19.6356 19.466 19.9344 18.6881 20.0907 17.3963C20.2487 16.0903 20.25 14.3762 20.25 12C20.25 9.62385 20.2487 7.90972 20.0907 6.60374C19.9344 5.31193 19.6356 4.53404 19.1245 3.96619C18.6236 3.40965 17.9537 3.09316 16.8269 2.92483C15.6697 2.75196 14.1448 2.75 12 2.75C9.8552 2.75 8.33029 2.75196 7.17309 2.92483ZM8.91612 5.24994C8.9438 5.24997 8.97176 5.25 9 5.25H15C15.0282 5.25 15.0562 5.24997 15.0839 5.24994C15.4647 5.24954 15.7932 5.24919 16.0823 5.32667C16.8588 5.53472 17.4653 6.1412 17.6733 6.91766C17.7508 7.2068 17.7505 7.53533 17.7501 7.91612C17.75 7.9438 17.75 7.97176 17.75 8C17.75 8.02824 17.75 8.0562 17.7501 8.08389C17.7505 8.46468 17.7508 8.7932 17.6733 9.08234C17.4653 9.8588 16.8588 10.4653 16.0823 10.6733C15.7932 10.7508 15.4647 10.7505 15.0839 10.7501C15.0562 10.75 15.0282 10.75 15 10.75H9C8.97176 10.75 8.9438 10.75 8.91612 10.7501C8.53533 10.7505 8.2068 10.7508 7.91766 10.6733C7.1412 10.4653 6.53472 9.8588 6.32667 9.08234C6.24919 8.7932 6.24954 8.46468 6.24994 8.08389C6.24997 8.0562 6.25 8.02824 6.25 8C6.25 7.97176 6.24997 7.9438 6.24994 7.91612C6.24954 7.53533 6.24919 7.2068 6.32667 6.91766C6.53472 6.1412 7.1412 5.53472 7.91766 5.32667C8.2068 5.24919 8.53533 5.24954 8.91612 5.24994ZM9 6.75C8.48673 6.75 8.37722 6.75644 8.30589 6.77556C8.04707 6.84491 7.84491 7.04707 7.77556 7.30589C7.75644 7.37722 7.75 7.48673 7.75 8C7.75 8.51327 7.75644 8.62278 7.77556 8.69412C7.84491 8.95293 8.04707 9.1551 8.30589 9.22445C8.37722 9.24356 8.48673 9.25 9 9.25H15C15.5133 9.25 15.6228 9.24356 15.6941 9.22445C15.9529 9.1551 16.1551 8.95293 16.2244 8.69412C16.2436 8.62278 16.25 8.51327 16.25 8C16.25 7.48673 16.2436 7.37722 16.2244 7.30589C16.1551 7.04707 15.9529 6.84491 15.6941 6.77556C15.6228 6.75644 15.5133 6.75 15 6.75H9Z"/>
<path d="M9 13C9 13.5523 8.55229 14 8 14C7.44772 14 7 13.5523 7 13C7 12.4477 7.44772 12 8 12C8.55229 12 9 12.4477 9 13Z"/>
<path d="M9 17C9 17.5523 8.55229 18 8 18C7.44772 18 7 17.5523 7 17C7 16.4477 7.44772 16 8 16C8.55229 16 9 16.4477 9 17Z"/>
<path d="M13 13C13 13.5523 12.5523 14 12 14C11.4477 14 11 13.5523 11 13C11 12.4477 11.4477 12 12 12C12.5523 12 13 12.4477 13 13Z"/>
<path d="M13 17C13 17.5523 12.5523 18 12 18C11.4477 18 11 17.5523 11 17C11 16.4477 11.4477 16 12 16C12.5523 16 13 16.4477 13 17Z"/>
<path d="M17 13C17 13.5523 16.5523 14 16 14C15.4477 14 15 13.5523 15 13C15 12.4477 15.4477 12 16 12C16.5523 12 17 12.4477 17 13Z"/>
<path d="M17 17C17 17.5523 16.5523 18 16 18C15.4477 18 15 17.5523 15 17C15 16.4477 15.4477 16 16 16C16.5523 16 17 16.4477 17 17Z"/>
</mask>
<path fill-rule="evenodd" clip-rule="evenodd" d="M11.9375 1.25H12.0625C14.1308 1.24998 15.7678 1.24997 17.0485 1.44129C18.3725 1.63907 19.4223 2.05481 20.2395 2.96274C21.0464 3.85936 21.4066 4.99222 21.5798 6.42355C21.75 7.83014 21.75 9.63498 21.75 11.9478V12.0522C21.75 14.365 21.75 16.1699 21.5798 17.5765C21.4066 19.0078 21.0464 20.1406 20.2395 21.0373C19.4223 21.9452 18.3725 22.3609 17.0485 22.5587C15.7678 22.75 14.1308 22.75 12.0625 22.75H11.9375C9.8692 22.75 8.23221 22.75 6.95147 22.5587C5.62747 22.3609 4.57769 21.9452 3.76055 21.0373C2.95359 20.1406 2.59338 19.0078 2.42018 17.5765C2.24998 16.1699 2.24999 14.365 2.25 12.0522V11.9478C2.24999 9.63499 2.24998 7.83014 2.42018 6.42355C2.59338 4.99222 2.95359 3.85936 3.76055 2.96274C4.57769 2.05481 5.62747 1.63907 6.95147 1.44129C8.23221 1.24997 9.86922 1.24998 11.9375 1.25ZM7.17309 2.92483C6.04626 3.09316 5.37637 3.40965 4.87549 3.96619C4.36443 4.53404 4.06563 5.31193 3.90932 6.60374C3.7513 7.90972 3.75 9.62385 3.75 12C3.75 14.3762 3.7513 16.0903 3.90932 17.3963C4.06563 18.6881 4.36443 19.466 4.87549 20.0338C5.37637 20.5903 6.04626 20.9068 7.17309 21.0752C8.33029 21.248 9.8552 21.25 12 21.25C14.1448 21.25 15.6697 21.248 16.8269 21.0752C17.9537 20.9068 18.6236 20.5903 19.1245 20.0338C19.6356 19.466 19.9344 18.6881 20.0907 17.3963C20.2487 16.0903 20.25 14.3762 20.25 12C20.25 9.62385 20.2487 7.90972 20.0907 6.60374C19.9344 5.31193 19.6356 4.53404 19.1245 3.96619C18.6236 3.40965 17.9537 3.09316 16.8269 2.92483C15.6697 2.75196 14.1448 2.75 12 2.75C9.8552 2.75 8.33029 2.75196 7.17309 2.92483ZM8.91612 5.24994C8.9438 5.24997 8.97176 5.25 9 5.25H15C15.0282 5.25 15.0562 5.24997 15.0839 5.24994C15.4647 5.24954 15.7932 5.24919 16.0823 5.32667C16.8588 5.53472 17.4653 6.1412 17.6733 6.91766C17.7508 7.2068 17.7505 7.53533 17.7501 7.91612C17.75 7.9438 17.75 7.97176 17.75 8C17.75 8.02824 17.75 8.0562 17.7501 8.08389C17.7505 8.46468 17.7508 8.7932 17.6733 9.08234C17.4653 9.8588 16.8588 10.4653 16.0823 10.6733C15.7932 10.7508 15.4647 10.7505 15.0839 10.7501C15.0562 10.75 15.0282 10.75 15 10.75H9C8.97176 10.75 8.9438 10.75 8.91612 10.7501C8.53533 10.7505 8.2068 10.7508 7.91766 10.6733C7.1412 10.4653 6.53472 9.8588 6.32667 9.08234C6.24919 8.7932 6.24954 8.46468 6.24994 8.08389C6.24997 8.0562 6.25 8.02824 6.25 8C6.25 7.97176 6.24997 7.9438 6.24994 7.91612C6.24954 7.53533 6.24919 7.2068 6.32667 6.91766C6.53472 6.1412 7.1412 5.53472 7.91766 5.32667C8.2068 5.24919 8.53533 5.24954 8.91612 5.24994ZM9 6.75C8.48673 6.75 8.37722 6.75644 8.30589 6.77556C8.04707 6.84491 7.84491 7.04707 7.77556 7.30589C7.75644 7.37722 7.75 7.48673 7.75 8C7.75 8.51327 7.75644 8.62278 7.77556 8.69412C7.84491 8.95293 8.04707 9.1551 8.30589 9.22445C8.37722 9.24356 8.48673 9.25 9 9.25H15C15.5133 9.25 15.6228 9.24356 15.6941 9.22445C15.9529 9.1551 16.1551 8.95293 16.2244 8.69412C16.2436 8.62278 16.25 8.51327 16.25 8C16.25 7.48673 16.2436 7.37722 16.2244 7.30589C16.1551 7.04707 15.9529 6.84491 15.6941 6.77556C15.6228 6.75644 15.5133 6.75 15 6.75H9Z" fill="#896FCA"/>
<path d="M9 13C9 13.5523 8.55229 14 8 14C7.44772 14 7 13.5523 7 13C7 12.4477 7.44772 12 8 12C8.55229 12 9 12.4477 9 13Z" fill="#896FCA"/>
<path d="M9 17C9 17.5523 8.55229 18 8 18C7.44772 18 7 17.5523 7 17C7 16.4477 7.44772 16 8 16C8.55229 16 9 16.4477 9 17Z" fill="#896FCA"/>
<path d="M13 13C13 13.5523 12.5523 14 12 14C11.4477 14 11 13.5523 11 13C11 12.4477 11.4477 12 12 12C12.5523 12 13 12.4477 13 13Z" fill="#896FCA"/>
<path d="M13 17C13 17.5523 12.5523 18 12 18C11.4477 18 11 17.5523 11 17C11 16.4477 11.4477 16 12 16C12.5523 16 13 16.4477 13 17Z" fill="#896FCA"/>
<path d="M17 13C17 13.5523 16.5523 14 16 14C15.4477 14 15 13.5523 15 13C15 12.4477 15.4477 12 16 12C16.5523 12 17 12.4477 17 13Z" fill="#896FCA"/>
<path d="M17 17C17 17.5523 16.5523 18 16 18C15.4477 18 15 17.5523 15 17C15 16.4477 15.4477 16 16 16C16.5523 16 17 16.4477 17 17Z" fill="#896FCA"/>
<path d="M11.9375 1.25L11.9375 2.25H11.9375V1.25ZM12.0625 1.25V2.25H12.0625L12.0625 1.25ZM17.0485 1.44129L16.9008 2.43032H16.9008L17.0485 1.44129ZM20.2395 2.96274L20.9827 2.29378V2.29378L20.2395 2.96274ZM21.5798 6.42355L20.5871 6.54367V6.54367L21.5798 6.42355ZM21.75 11.9478L20.75 11.9478V11.9478H21.75ZM21.75 12.0522H20.75V12.0522L21.75 12.0522ZM21.5798 17.5765L20.5871 17.4563H20.5871L21.5798 17.5765ZM20.2395 21.0373L20.9827 21.7062V21.7062L20.2395 21.0373ZM17.0485 22.5587L16.9008 21.5697H16.9008L17.0485 22.5587ZM12.0625 22.75L12.0625 21.75H12.0625V22.75ZM11.9375 22.75V21.75H11.9375L11.9375 22.75ZM6.95147 22.5587L7.09921 21.5697H7.09921L6.95147 22.5587ZM3.76055 21.0373L3.01725 21.7062L3.01726 21.7062L3.76055 21.0373ZM2.42018 17.5765L3.41294 17.4563V17.4563L2.42018 17.5765ZM2.25 12.0522L3.25 12.0522V12.0522H2.25ZM2.25 11.9478H3.25V11.9478L2.25 11.9478ZM2.42018 6.42355L3.41294 6.54367V6.54367L2.42018 6.42355ZM3.76055 2.96274L4.50384 3.63171V3.63171L3.76055 2.96274ZM6.95147 1.44129L6.80372 0.452265V0.452265L6.95147 1.44129ZM4.87549 3.96619L4.1322 3.29723L4.1322 3.29723L4.87549 3.96619ZM7.17309 2.92483L7.32083 3.91385L7.17309 2.92483ZM3.90932 6.60374L4.90208 6.72386V6.72386L3.90932 6.60374ZM3.90932 17.3963L4.90208 17.2761V17.2761L3.90932 17.3963ZM4.87549 20.0338L5.61879 19.3648H5.61878L4.87549 20.0338ZM7.17309 21.0752L7.02534 22.0642V22.0642L7.17309 21.0752ZM16.8269 21.0752L16.9747 22.0642V22.0642L16.8269 21.0752ZM19.1245 20.0338L18.3812 19.3648V19.3648L19.1245 20.0338ZM20.0907 17.3963L21.0834 17.5164L21.0834 17.5164L20.0907 17.3963ZM20.0907 6.60374L21.0834 6.48361L21.0834 6.48361L20.0907 6.60374ZM19.1245 3.96619L19.8678 3.29723V3.29723L19.1245 3.96619ZM16.8269 2.92483L16.9747 1.9358H16.9747L16.8269 2.92483ZM8.91612 5.24994L8.91718 4.24994H8.91717L8.91612 5.24994ZM15.0839 5.24994L15.0828 4.24994H15.0828L15.0839 5.24994ZM16.0823 5.32667L16.3412 4.36074L16.3412 4.36074L16.0823 5.32667ZM17.6733 6.91766L16.7074 7.17648L16.7074 7.17648L17.6733 6.91766ZM17.7501 7.91612L18.7501 7.91718V7.91717L17.7501 7.91612ZM17.7501 8.08389L18.7501 8.08283V8.08282L17.7501 8.08389ZM17.6733 9.08234L16.7074 8.82352L16.7074 8.82352L17.6733 9.08234ZM16.0823 10.6733L15.8235 9.70741L15.8235 9.70741L16.0823 10.6733ZM15.0839 10.7501L15.0828 11.7501H15.0828L15.0839 10.7501ZM8.91612 10.7501L8.91717 11.7501H8.91718L8.91612 10.7501ZM7.91766 10.6733L8.17648 9.70741L8.17648 9.70741L7.91766 10.6733ZM6.32667 9.08234L5.36074 9.34116H5.36074L6.32667 9.08234ZM6.24994 8.08389L5.24994 8.08283V8.08283L6.24994 8.08389ZM6.24994 7.91612L5.24994 7.91717V7.91718L6.24994 7.91612ZM6.32667 6.91766L5.36074 6.65884H5.36074L6.32667 6.91766ZM7.91766 5.32667L7.65884 4.36074V4.36074L7.91766 5.32667ZM8.30589 6.77556L8.04707 5.80963L8.04707 5.80963L8.30589 6.77556ZM7.77556 7.30589L6.80963 7.04707L6.80963 7.04707L7.77556 7.30589ZM7.77556 8.69412L6.80963 8.95293L6.80963 8.95293L7.77556 8.69412ZM8.30589 9.22445L8.04707 10.1904H8.04707L8.30589 9.22445ZM15.6941 9.22445L15.4353 8.25852V8.25852L15.6941 9.22445ZM16.2244 8.69412L17.1904 8.95293V8.95293L16.2244 8.69412ZM16.2244 7.30589L17.1904 7.04707V7.04707L16.2244 7.30589ZM15.6941 6.77556L15.4353 7.74148V7.74148L15.6941 6.77556ZM17.0485 1.44129L17.1963 0.452265C15.825 0.247419 14.1013 0.249981 12.0625 0.25L12.0625 1.25L12.0625 2.25C14.1603 2.24998 15.7106 2.25251 16.9008 2.43032L17.0485 1.44129ZM20.2395 2.96274L20.9827 2.29378C19.9546 1.15136 18.6513 0.66962 17.1963 0.452265L17.0485 1.44129L16.9008 2.43032C18.0938 2.60853 18.8901 2.95827 19.4962 3.63171L20.2395 2.96274ZM21.5798 6.42355L22.5726 6.30342C22.3881 4.77918 21.987 3.40962 20.9827 2.29378L20.2395 2.96274L19.4962 3.63171C20.1058 4.3091 20.4251 5.20525 20.5871 6.54367L21.5798 6.42355ZM21.75 11.9478L22.75 11.9478C22.75 9.65939 22.7517 7.78387 22.5726 6.30342L21.5798 6.42355L20.5871 6.54367C20.7483 7.87641 20.75 9.61057 20.75 11.9478L21.75 11.9478ZM21.5798 17.5765L22.5726 17.6966C22.7517 16.2161 22.75 14.3406 22.75 12.0522L21.75 12.0522L20.75 12.0522C20.75 14.3894 20.7483 16.1236 20.5871 17.4563L21.5798 17.5765ZM20.2395 21.0373L20.9827 21.7062C21.987 20.5904 22.3881 19.2208 22.5726 17.6966L21.5798 17.5765L20.5871 17.4563C20.4251 18.7947 20.1058 19.6909 19.4962 20.3683L20.2395 21.0373ZM17.0485 22.5587L17.1963 23.5477C18.6513 23.3304 19.9546 22.8486 20.9827 21.7062L20.2395 21.0373L19.4962 20.3683C18.8901 21.0417 18.0938 21.3915 16.9008 21.5697L17.0485 22.5587ZM12.0625 22.75L12.0625 23.75C14.1013 23.75 15.825 23.7526 17.1963 23.5477L17.0485 22.5587L16.9008 21.5697C15.7106 21.7475 14.1603 21.75 12.0625 21.75L12.0625 22.75ZM6.95147 22.5587L6.80372 23.5477C8.17498 23.7526 9.8987 23.75 11.9375 23.75L11.9375 22.75L11.9375 21.75C9.83971 21.75 8.28944 21.7475 7.09921 21.5697L6.95147 22.5587ZM3.76055 21.0373L3.01726 21.7062C4.04543 22.8486 5.34872 23.3304 6.80372 23.5477L6.95147 22.5587L7.09921 21.5697C5.90623 21.3915 5.10994 21.0417 4.50384 20.3683L3.76055 21.0373ZM2.42018 17.5765L1.42742 17.6966C1.61186 19.2208 2.01299 20.5904 3.01725 21.7062L3.76055 21.0373L4.50384 20.3683C3.89419 19.6909 3.57489 18.7948 3.41294 17.4563L2.42018 17.5765ZM2.25 12.0522L1.25 12.0522C1.24999 14.3406 1.24829 16.2161 1.42742 17.6966L2.42018 17.5765L3.41294 17.4563C3.25168 16.1236 3.24999 14.3894 3.25 12.0522L2.25 12.0522ZM2.42018 6.42355L1.42742 6.30342C1.24829 7.78387 1.24999 9.6594 1.25 11.9478L2.25 11.9478L3.25 11.9478C3.24999 9.61058 3.25168 7.87641 3.41294 6.54367L2.42018 6.42355ZM3.76055 2.96274L3.01726 2.29378C2.01299 3.40962 1.61186 4.77918 1.42742 6.30342L2.42018 6.42355L3.41294 6.54367C3.57489 5.20525 3.89419 4.3091 4.50384 3.63171L3.76055 2.96274ZM6.95147 1.44129L6.80372 0.452265C5.34872 0.66962 4.04543 1.15136 3.01726 2.29378L3.76055 2.96274L4.50384 3.63171C5.10994 2.95827 5.90623 2.60853 7.09921 2.43032L6.95147 1.44129ZM11.9375 1.25L11.9375 0.25C9.89871 0.249981 8.17498 0.247419 6.80372 0.452265L6.95147 1.44129L7.09921 2.43032C8.28944 2.25251 9.83973 2.24998 11.9375 2.25L11.9375 1.25ZM4.87549 3.96619L5.61878 4.63516C5.90912 4.31256 6.32606 4.06246 7.32083 3.91385L7.17309 2.92483L7.02534 1.9358C5.76645 2.12386 4.84362 2.50675 4.1322 3.29723L4.87549 3.96619ZM3.90932 6.60374L4.90208 6.72386C5.04712 5.52521 5.30492 4.98389 5.61878 4.63515L4.87549 3.96619L4.1322 3.29723C3.42393 4.08419 3.08415 5.09865 2.91656 6.48361L3.90932 6.60374ZM3.75 12H4.75C4.75 9.59807 4.75303 7.95568 4.90208 6.72386L3.90932 6.60374L2.91656 6.48361C2.74956 7.86377 2.75 9.64962 2.75 12H3.75ZM3.90932 17.3963L4.90208 17.2761C4.75303 16.0443 4.75 14.4019 4.75 12H3.75H2.75C2.75 14.3504 2.74956 16.1362 2.91656 17.5164L3.90932 17.3963ZM4.87549 20.0338L5.61878 19.3648C5.30492 19.0161 5.04712 18.4748 4.90208 17.2761L3.90932 17.3963L2.91656 17.5164C3.08415 18.9014 3.42393 19.9158 4.1322 20.7028L4.87549 20.0338ZM7.17309 21.0752L7.32083 20.0861C6.32606 19.9375 5.90912 19.6874 5.61879 19.3648L4.87549 20.0338L4.1322 20.7028C4.84362 21.4933 5.76645 21.8761 7.02534 22.0642L7.17309 21.0752ZM12 21.25V20.25C9.82344 20.25 8.387 20.2454 7.32083 20.0861L7.17309 21.0752L7.02534 22.0642C8.27359 22.2507 9.88695 22.25 12 22.25V21.25ZM16.8269 21.0752L16.6792 20.0861C15.613 20.2454 14.1766 20.25 12 20.25V21.25V22.25C14.113 22.25 15.7264 22.2507 16.9747 22.0642L16.8269 21.0752ZM19.1245 20.0338L18.3812 19.3648C18.0909 19.6874 17.6739 19.9375 16.6792 20.0861L16.8269 21.0752L16.9747 22.0642C18.2335 21.8761 19.1564 21.4933 19.8678 20.7028L19.1245 20.0338ZM20.0907 17.3963L19.0979 17.2761C18.9529 18.4748 18.6951 19.0161 18.3812 19.3648L19.1245 20.0338L19.8678 20.7028C20.5761 19.9158 20.9159 18.9014 21.0834 17.5164L20.0907 17.3963ZM20.25 12H19.25C19.25 14.4019 19.247 16.0443 19.0979 17.2761L20.0907 17.3963L21.0834 17.5164C21.2504 16.1362 21.25 14.3504 21.25 12H20.25ZM20.0907 6.60374L19.0979 6.72386C19.247 7.95568 19.25 9.59807 19.25 12H20.25H21.25C21.25 9.64962 21.2504 7.86377 21.0834 6.48361L20.0907 6.60374ZM19.1245 3.96619L18.3812 4.63516C18.6951 4.98389 18.9529 5.52521 19.0979 6.72386L20.0907 6.60374L21.0834 6.48361C20.9159 5.09865 20.5761 4.08419 19.8678 3.29723L19.1245 3.96619ZM16.8269 2.92483L16.6792 3.91385C17.6739 4.06246 18.0909 4.31256 18.3812 4.63516L19.1245 3.96619L19.8678 3.29723C19.1564 2.50675 18.2336 2.12386 16.9747 1.9358L16.8269 2.92483ZM12 2.75V3.75C14.1766 3.75 15.613 3.75458 16.6792 3.91385L16.8269 2.92483L16.9747 1.9358C15.7264 1.74933 14.113 1.75 12 1.75V2.75ZM7.17309 2.92483L7.32083 3.91385C8.387 3.75458 9.82344 3.75 12 3.75V2.75V1.75C9.88696 1.75 8.27359 1.74933 7.02534 1.9358L7.17309 2.92483ZM9 5.25V4.25C8.97238 4.25 8.94495 4.24997 8.91718 4.24994L8.91612 5.24994L8.91506 6.24994C8.94265 6.24997 8.97114 6.25 9 6.25V5.25ZM15 5.25V4.25H9V5.25V6.25H15V5.25ZM15.0839 5.24994L15.0828 4.24994C15.0551 4.24997 15.0276 4.25 15 4.25V5.25V6.25C15.0289 6.25 15.0574 6.24997 15.0849 6.24994L15.0839 5.24994ZM16.0823 5.32667L16.3412 4.36074C15.8988 4.2422 15.4264 4.24958 15.0828 4.24994L15.0839 5.24994L15.0849 6.24994C15.5029 6.2495 15.6876 6.25618 15.8235 6.29259L16.0823 5.32667ZM17.6733 6.91766L18.6393 6.65884C18.3387 5.53729 17.4627 4.66126 16.3412 4.36074L16.0823 5.32667L15.8235 6.29259C16.2549 6.40818 16.5918 6.74511 16.7074 7.17648L17.6733 6.91766ZM17.7501 7.91612L18.7501 7.91717C18.7504 7.57357 18.7578 7.10124 18.6393 6.65884L17.6733 6.91766L16.7074 7.17648C16.7438 7.31236 16.7505 7.49708 16.7501 7.91506L17.7501 7.91612ZM17.75 8H18.75C18.75 7.97238 18.75 7.94494 18.7501 7.91718L17.7501 7.91612L16.7501 7.91505C16.75 7.94266 16.75 7.97114 16.75 8H17.75ZM17.7501 8.08389L18.7501 8.08282C18.75 8.05506 18.75 8.02762 18.75 8H17.75H16.75C16.75 8.02886 16.75 8.05734 16.7501 8.08495L17.7501 8.08389ZM17.6733 9.08234L18.6393 9.34116C18.7578 8.89876 18.7504 8.42643 18.7501 8.08283L17.7501 8.08389L16.7501 8.08494C16.7505 8.50292 16.7438 8.68764 16.7074 8.82352L17.6733 9.08234ZM16.0823 10.6733L16.3412 11.6393C17.4627 11.3387 18.3387 10.4627 18.6393 9.34116L17.6733 9.08234L16.7074 8.82352C16.5918 9.25489 16.2549 9.59182 15.8235 9.70741L16.0823 10.6733ZM15.0839 10.7501L15.0828 11.7501C15.4264 11.7504 15.8988 11.7578 16.3412 11.6393L16.0823 10.6733L15.8235 9.70741C15.6876 9.74382 15.5029 9.7505 15.0849 9.75006L15.0839 10.7501ZM15 10.75V11.75C15.0276 11.75 15.0551 11.75 15.0828 11.7501L15.0839 10.7501L15.085 9.75006C15.0573 9.75003 15.0289 9.75 15 9.75V10.75ZM9 10.75V11.75H15V10.75V9.75H9V10.75ZM8.91612 10.7501L8.91718 11.7501C8.94494 11.75 8.97238 11.75 9 11.75V10.75V9.75C8.97114 9.75 8.94266 9.75003 8.91505 9.75006L8.91612 10.7501ZM7.91766 10.6733L7.65884 11.6393C8.10124 11.7578 8.57357 11.7504 8.91717 11.7501L8.91612 10.7501L8.91506 9.75006C8.49708 9.7505 8.31236 9.74382 8.17648 9.70741L7.91766 10.6733ZM6.32667 9.08234L5.36074 9.34116C5.66126 10.4627 6.53729 11.3387 7.65884 11.6393L7.91766 10.6733L8.17648 9.70741C7.74511 9.59182 7.40818 9.25489 7.29259 8.82352L6.32667 9.08234ZM6.24994 8.08389L5.24994 8.08283C5.24958 8.42643 5.2422 8.89876 5.36074 9.34116L6.32667 9.08234L7.29259 8.82352C7.25618 8.68764 7.2495 8.50292 7.24994 8.08494L6.24994 8.08389ZM6.25 8H5.25C5.25 8.02762 5.24997 8.05505 5.24994 8.08283L6.24994 8.08389L7.24994 8.08494C7.24997 8.05735 7.25 8.02886 7.25 8H6.25ZM6.24994 7.91612L5.24994 7.91718C5.24997 7.94495 5.25 7.97238 5.25 8H6.25H7.25C7.25 7.97114 7.24997 7.94265 7.24994 7.91506L6.24994 7.91612ZM6.32667 6.91766L5.36074 6.65884C5.2422 7.10125 5.24958 7.57357 5.24994 7.91717L6.24994 7.91612L7.24994 7.91506C7.2495 7.49708 7.25618 7.31236 7.29259 7.17648L6.32667 6.91766ZM7.91766 5.32667L7.65884 4.36074C6.53729 4.66126 5.66126 5.53729 5.36074 6.65884L6.32667 6.91766L7.29259 7.17648C7.40818 6.74511 7.74511 6.40818 8.17648 6.29259L7.91766 5.32667ZM8.91612 5.24994L8.91717 4.24994C8.57357 4.24958 8.10124 4.2422 7.65884 4.36074L7.91766 5.32667L8.17648 6.29259C8.31236 6.25618 8.49708 6.2495 8.91506 6.24994L8.91612 5.24994ZM8.30589 6.77556L8.5647 7.74148C8.49053 7.76136 8.44617 7.75804 8.527 7.75482C8.60485 7.75172 8.74173 7.75 9 7.75V6.75V5.75C8.745 5.75 8.57049 5.7515 8.44743 5.7564C8.32736 5.76118 8.19258 5.77064 8.04707 5.80963L8.30589 6.77556ZM7.77556 7.30589L8.74148 7.56471C8.71837 7.65098 8.65098 7.71837 8.5647 7.74148L8.30589 6.77556L8.04707 5.80963C7.44316 5.97145 6.97145 6.44316 6.80963 7.04707L7.77556 7.30589ZM7.75 8H8.75C8.75 7.74173 8.75172 7.60485 8.75482 7.527C8.75804 7.44617 8.76136 7.49053 8.74148 7.5647L7.77556 7.30589L6.80963 7.04707C6.77064 7.19258 6.76118 7.32736 6.7564 7.44743C6.7515 7.57049 6.75 7.745 6.75 8H7.75ZM7.77556 8.69412L8.74148 8.4353C8.76136 8.50947 8.75804 8.55383 8.75482 8.473C8.75172 8.39515 8.75 8.25827 8.75 8H7.75H6.75C6.75 8.255 6.7515 8.42951 6.7564 8.55257C6.76118 8.67264 6.77064 8.80742 6.80963 8.95293L7.77556 8.69412ZM8.30589 9.22445L8.5647 8.25852C8.65098 8.28164 8.71837 8.34902 8.74148 8.4353L7.77556 8.69412L6.80963 8.95293C6.97145 9.55685 7.44316 10.0286 8.04707 10.1904L8.30589 9.22445ZM9 9.25V8.25C8.74173 8.25 8.60485 8.24828 8.527 8.24518C8.44617 8.24196 8.49053 8.23864 8.5647 8.25852L8.30589 9.22445L8.04707 10.1904C8.19258 10.2294 8.32736 10.2388 8.44743 10.2436C8.57049 10.2485 8.745 10.25 9 10.25V9.25ZM15 9.25V8.25H9V9.25V10.25H15V9.25ZM15.6941 9.22445L15.4353 8.25852C15.5095 8.23864 15.5538 8.24196 15.473 8.24518C15.3952 8.24828 15.2583 8.25 15 8.25V9.25V10.25C15.255 10.25 15.4295 10.2485 15.5526 10.2436C15.6726 10.2388 15.8074 10.2294 15.9529 10.1904L15.6941 9.22445ZM16.2244 8.69412L15.2585 8.4353C15.2816 8.34902 15.349 8.28164 15.4353 8.25852L15.6941 9.22445L15.9529 10.1904C16.5568 10.0286 17.0286 9.55685 17.1904 8.95293L16.2244 8.69412ZM16.25 8H15.25C15.25 8.25827 15.2483 8.39515 15.2452 8.473C15.242 8.55383 15.2386 8.50947 15.2585 8.4353L16.2244 8.69412L17.1904 8.95293C17.2294 8.80742 17.2388 8.67264 17.2436 8.55257C17.2485 8.42951 17.25 8.255 17.25 8H16.25ZM16.2244 7.30589L15.2585 7.5647C15.2386 7.49053 15.242 7.44617 15.2452 7.527C15.2483 7.60485 15.25 7.74173 15.25 8H16.25H17.25C17.25 7.745 17.2485 7.57049 17.2436 7.44743C17.2388 7.32736 17.2294 7.19258 17.1904 7.04707L16.2244 7.30589ZM15.6941 6.77556L15.4353 7.74148C15.349 7.71837 15.2816 7.65098 15.2585 7.56471L16.2244 7.30589L17.1904 7.04707C17.0286 6.44316 16.5568 5.97145 15.9529 5.80963L15.6941 6.77556ZM15 6.75V7.75C15.2583 7.75 15.3952 7.75172 15.473 7.75482C15.5538 7.75804 15.5095 7.76136 15.4353 7.74148L15.6941 6.77556L15.9529 5.80963C15.8074 5.77064 15.6726 5.76118 15.5526 5.7564C15.4295 5.7515 15.255 5.75 15 5.75V6.75ZM9 6.75V7.75H15V6.75V5.75H9V6.75ZM12.0625 1.25V0.25H11.9375V1.25V2.25H12.0625V1.25ZM21.75 12.0522H22.75V11.9478H21.75H20.75V12.0522H21.75ZM11.9375 22.75V23.75H12.0625V22.75V21.75H11.9375V22.75ZM2.25 11.9478H1.25V12.0522H2.25H3.25V11.9478H2.25ZM9 13H8V14V15C9.10457 15 10 14.1046 10 13H9ZM8 14V13H7H6C6 14.1046 6.89543 15 8 15V14ZM7 13H8V12V11C6.89543 11 6 11.8954 6 13H7ZM8 12V13H9H10C10 11.8954 9.10457 11 8 11V12ZM9 17H8V17V18V19C9.10457 19 10 18.1046 10 17H9ZM8 18V17V17H7H6C6 18.1046 6.89543 19 8 19V18ZM7 17H8V16V15C6.89543 15 6 15.8954 6 17H7ZM8 16V17H9H10C10 15.8954 9.10457 15 8 15V16ZM13 13H12V14V15C13.1046 15 14 14.1046 14 13H13ZM12 14V13H11H10C10 14.1046 10.8954 15 12 15V14ZM11 13H12V12V11C10.8954 11 10 11.8954 10 13H11ZM12 12V13H13H14C14 11.8954 13.1046 11 12 11V12ZM13 17H12V17V18V19C13.1046 19 14 18.1046 14 17H13ZM12 18V17V17H11H10C10 18.1046 10.8954 19 12 19V18ZM11 17H12V16V15C10.8954 15 10 15.8954 10 17H11ZM12 16V17H13H14C14 15.8954 13.1046 15 12 15V16ZM17 13H16V14V15C17.1046 15 18 14.1046 18 13H17ZM16 14V13H15H14C14 14.1046 14.8954 15 16 15V14ZM15 13H16V12V11C14.8954 11 14 11.8954 14 13H15ZM16 12V13H17H18C18 11.8954 17.1046 11 16 11V12ZM17 17H16V17V18V19C17.1046 19 18 18.1046 18 17H17ZM16 18V17V17H15H14C14 18.1046 14.8954 19 16 19V18ZM15 17H16V16V15C14.8954 15 14 15.8954 14 17H15ZM16 16V17H17H18C18 15.8954 17.1046 15 16 15V16Z" fill="#896FCA" mask="url(#path-1-inside-1_1_21266)"/>
</svg>