<svg viewBox="0 0 24 24" fill="none" xmlns="http://www.w3.org/2000/svg">
<g clip-path="url(#clip0_1_21234)">
<path fill-rule="evenodd" clip-rule="evenodd" d="M10.5814 1.25L10.561 1.25C10.4474 1.24998 10.3591 1.24997 10.2755 1.25503C9.21507 1.31926 8.28648 1.98855 7.89021 2.97425C7.85898 3.05196 7.83104 3.1358 7.79516 3.24351L7.78872 3.26283L7.76306 3.33981C7.74407 3.39678 7.73878 3.41248 7.73417 3.4252C7.5743 3.86717 7.04303 4.236 6.481 4.25024L4.6616 4.33925C3.87537 4.43163 3.20216 4.62833 2.63325 5.09123C2.43454 5.25291 2.25292 5.43454 2.09123 5.63325C1.62833 6.20216 1.43163 6.87537 1.33925 7.6616C1.24998 8.42138 1.24999 9.37673 1.25 10.5617L1.25 10.6089L1.25 10.6402C1.24997 10.9241 1.24994 11.1903 1.27268 11.4144C1.29784 11.6624 1.35574 11.9257 1.51386 12.18C1.56526 12.2627 1.62347 12.3409 1.68788 12.4139C1.85699 12.6055 2.05339 12.7291 2.25048 12.8205C2.25336 14.4357 2.27381 16.0682 2.41875 17.4664C2.50368 18.2856 2.63401 19.0548 2.84074 19.7106C3.04411 20.3557 3.34441 20.9665 3.81975 21.389C4.64319 22.1209 5.67956 22.4436 6.97328 22.5983C8.2432 22.75 9.87087 22.75 11.9488 22.75H12.0512C14.1291 22.75 15.7568 22.75 17.0267 22.5983C18.3204 22.4436 19.3568 22.1209 20.1803 21.389C20.6556 20.9665 20.9559 20.3557 21.1593 19.7106C21.366 19.0548 21.4963 18.2856 21.5813 17.4664C21.7262 16.0682 21.7466 14.4357 21.7495 12.8205C21.9466 12.7291 22.143 12.6055 22.3121 12.4139C22.3765 12.3409 22.4347 12.2627 22.4861 12.18C22.6443 11.9257 22.7022 11.6624 22.7273 11.4144C22.7501 11.1903 22.75 10.9241 22.75 10.6402L22.75 10.5616C22.75 9.37672 22.75 8.42138 22.6608 7.6616C22.5684 6.87537 22.3717 6.20216 21.9088 5.63325C21.7471 5.43454 21.5655 5.25291 21.3668 5.09123C20.7978 4.62833 20.1246 4.43163 19.3384 4.33925L17.519 4.25024C16.9572 4.23601 16.4262 3.86731 16.2663 3.42518C16.2617 3.41254 16.2563 3.39649 16.2374 3.33981L16.2053 3.24347C16.1694 3.13578 16.1415 3.05195 16.1102 2.97426C15.714 1.98855 14.7854 1.31926 13.725 1.25503C13.6414 1.24997 13.553 1.24998 13.4395 1.25L10.5814 1.25ZM7.57032 5.75L7.60893 5.75H16.3911L16.4297 5.75C17.6524 5.75004 18.5082 5.75202 19.1634 5.829C19.809 5.90486 20.1619 6.04466 20.4201 6.25474C20.5393 6.35175 20.6483 6.46072 20.7453 6.57995C20.9553 6.83814 21.0951 7.19102 21.171 7.83664C21.2488 8.49864 21.25 9.3656 21.25 10.6089C21.25 10.935 21.2491 11.1238 21.235 11.263C21.2266 11.3452 21.2161 11.3786 21.2122 11.3882C21.2049 11.3999 21.1967 11.4109 21.1876 11.4212C21.1795 11.4277 21.1506 11.4474 21.0742 11.479C20.945 11.5326 20.7644 11.5877 20.4521 11.6814L15.25 13.242V13C15.25 12.3096 14.6904 11.75 14 11.75H10C9.30965 11.75 8.75 12.3096 8.75 13V13.242L3.54792 11.6814C3.23557 11.5877 3.05502 11.5326 2.92578 11.479C2.84942 11.4474 2.82047 11.4277 2.81236 11.4212L8.75 13.242L2.78785 11.3882C2.78391 11.3786 2.77336 11.3452 2.76502 11.263C2.7509 11.1238 2.75 10.935 2.75 10.6089C2.75 9.3656 2.75122 8.49864 2.829 7.83664C2.90487 7.19102 3.04466 6.83814 3.25474 6.57995C3.35175 6.46072 3.46072 6.35175 3.57995 6.25474C3.83814 6.04466 4.19102 5.90486 4.83665 5.829C5.49176 5.75202 6.34762 5.75004 7.57032 5.75ZM10.5814 2.75C10.438 2.75 10.3984 2.75034 10.3662 2.75229C9.88417 2.78148 9.46208 3.08571 9.28196 3.53375C9.26991 3.56374 9.25708 3.60117 9.21174 3.73717L9.18338 3.82225C9.16835 3.86736 9.15665 3.90246 9.14472 3.93544C9.10527 4.04452 9.05863 4.14944 9.00558 4.25H14.9949C14.9418 4.14945 14.8952 4.04453 14.8557 3.93547C14.8438 3.90249 14.8321 3.86736 14.8171 3.82225L14.7887 3.73717C14.7434 3.60117 14.7305 3.56374 14.7185 3.53375C14.5384 3.08571 14.1163 2.78148 13.6343 2.75229C13.602 2.75034 13.5625 2.75 13.4191 2.75H10.5814ZM3.7521 13.3087C3.7589 14.7455 3.78782 16.1259 3.91076 17.3118C3.99059 18.0818 4.10738 18.7394 4.27134 19.2596C4.43867 19.7904 4.63263 20.1046 4.8163 20.2679C5.31088 20.7075 5.99418 20.9706 7.15128 21.1089C8.32178 21.2487 9.85979 21.25 12 21.25C14.1402 21.25 15.6782 21.2487 16.8487 21.1089C18.0058 20.9706 18.6891 20.7075 19.1837 20.2679C19.3674 20.1046 19.5613 19.7904 19.7287 19.2596C19.8926 18.7394 20.0094 18.0818 20.0892 17.3118C20.2122 16.1259 20.2411 14.7455 20.2479 13.3087L15.25 14.808V15.1615C15.25 15.6726 14.9388 16.1323 14.4642 16.3221L13.7641 16.6021C12.6317 17.0551 11.3684 17.0551 10.2359 16.6021L9.53577 16.3221C9.06119 16.1323 8.75 15.6726 8.75 15.1615V14.808L3.7521 13.3087ZM10.25 13.25V14.9922L10.793 15.2094C11.5678 15.5194 12.4322 15.5194 13.207 15.2094L13.75 14.9922V13.25H10.25Z" fill="#896FCA"/>
<path d="M10.5814 1.25V2H10.5814L10.5814 1.25ZM10.561 1.25L10.5608 2H10.5608L10.561 1.25ZM13.4395 1.25L13.4395 2H13.4396L13.4395 1.25ZM13.725 1.25503L13.6796 2.00366H13.6796L13.725 1.25503ZM16.1102 2.97426L15.4144 3.25401L15.4144 3.25402L16.1102 2.97426ZM16.2053 3.24347L15.4937 3.48053L15.4938 3.48063L16.2053 3.24347ZM16.2374 3.33981L15.5259 3.57696L15.5259 3.57697L16.2374 3.33981ZM16.2663 3.42518L16.9716 3.17006L16.9715 3.17001L16.2663 3.42518ZM17.519 4.25024L17.5557 3.50114L17.5468 3.50071L17.538 3.50049L17.519 4.25024ZM6.481 4.25024L6.462 3.50049L6.45318 3.50071L6.44436 3.50114L6.481 4.25024ZM7.73417 3.4252L8.43945 3.68032L8.43945 3.68032L7.73417 3.4252ZM7.76306 3.33981L7.05155 3.10263L7.05155 3.10264L7.76306 3.33981ZM7.78872 3.26283L8.50023 3.50001L8.50023 3.5L7.78872 3.26283ZM7.79516 3.24351L8.50671 3.48057L8.50671 3.48057L7.79516 3.24351ZM7.89021 2.97425L8.58609 3.254L8.58609 3.254L7.89021 2.97425ZM10.2755 1.25503L10.3208 2.00366H10.3208L10.2755 1.25503ZM10.3662 2.75229L10.3208 2.00366H10.3208L10.3662 2.75229ZM9.28196 3.53375L9.97783 3.81351L9.97783 3.8135L9.28196 3.53375ZM9.21174 3.73717L8.50023 3.5V3.50001L9.21174 3.73717ZM9.18338 3.82225L8.47187 3.58508L8.47186 3.58513L9.18338 3.82225ZM9.14472 3.93544L9.85 4.19056L9.85 4.19056L9.14472 3.93544ZM9.00558 4.25L8.34224 3.90003L7.7619 5H9.00558V4.25ZM14.9949 4.25V5H16.2385L15.6582 3.90007L14.9949 4.25ZM14.8557 3.93547L14.1505 4.19058L14.1505 4.19059L14.8557 3.93547ZM13.6343 2.75229L13.6796 2.00366H13.6796L13.6343 2.75229ZM14.7185 3.53375L14.0226 3.8135L14.0226 3.81351L14.7185 3.53375ZM14.7887 3.73717L15.5002 3.50001L15.5002 3.5L14.7887 3.73717ZM14.8171 3.82225L15.5286 3.58513L15.5286 3.58508L14.8171 3.82225ZM19.3384 4.33925L19.4259 3.59438L19.4006 3.59139L19.3751 3.59015L19.3384 4.33925ZM21.3668 5.09123L20.8934 5.67298L20.8934 5.67299L21.3668 5.09123ZM21.9088 5.63325L21.327 6.1066V6.1066L21.9088 5.63325ZM22.6608 7.6616L21.9159 7.74912V7.74912L22.6608 7.6616ZM22.75 10.5616L22 10.5616V10.5617L22.75 10.5616ZM22.75 10.6402L22 10.6403V10.6403L22.75 10.6402ZM22.7273 11.4144L23.4735 11.4901V11.4901L22.7273 11.4144ZM22.4861 12.18L21.8492 11.784L21.8492 11.784L22.4861 12.18ZM22.3121 12.4139L22.8745 12.9102V12.9102L22.3121 12.4139ZM21.7495 12.8205L21.434 12.1401L21.0004 12.3412L20.9995 12.8192L21.7495 12.8205ZM21.5813 17.4664L20.8353 17.3891V17.3891L21.5813 17.4664ZM21.1593 19.7106L21.8746 19.936V19.936L21.1593 19.7106ZM20.1803 21.389L19.682 20.8284L19.682 20.8284L20.1803 21.389ZM17.0267 22.5983L16.9377 21.8536V21.8536L17.0267 22.5983ZM12.0512 22.75L12.0512 22H12.0512V22.75ZM11.9488 22.75V22H11.9488L11.9488 22.75ZM6.97328 22.5983L7.06228 21.8536H7.06228L6.97328 22.5983ZM3.81975 21.389L4.31802 20.8284L4.31802 20.8284L3.81975 21.389ZM2.84074 19.7106L2.12544 19.936V19.936L2.84074 19.7106ZM2.41875 17.4664L1.67275 17.5438V17.5438L2.41875 17.4664ZM2.25048 12.8205L3.00048 12.8192L2.99962 12.3412L2.56597 12.1401L2.25048 12.8205ZM1.68788 12.4139L1.12553 12.9102L1.12554 12.9102L1.68788 12.4139ZM1.51386 12.18L0.876947 12.5761H0.876947L1.51386 12.18ZM2.54219 12.4238C2.89395 12.2051 3.0018 11.7426 2.78308 11.3909C2.56436 11.0391 2.1019 10.9312 1.75014 11.15L2.14616 11.7869L2.54219 12.4238ZM1.27268 11.4144L0.526514 11.4901V11.4901L1.27268 11.4144ZM1.25 10.6089H2V10.6089L1.25 10.6089ZM1.25 10.5617L2 10.5617V10.5617L1.25 10.5617ZM1.33925 7.6616L0.594376 7.57407V7.57407L1.33925 7.6616ZM2.09123 5.63325L1.50948 5.15989L1.50948 5.1599L2.09123 5.63325ZM2.63325 5.09123L2.1599 4.50948H2.1599L2.63325 5.09123ZM4.6616 4.33925L4.62495 3.59015L4.59944 3.59139L4.57407 3.59438L4.6616 4.33925ZM3.91076 17.3118L4.65676 17.2344V17.2344L3.91076 17.3118ZM3.7521 13.3087L3.96761 12.5903L2.99731 12.2992L3.0021 13.3122L3.7521 13.3087ZM4.27134 19.2596L3.55604 19.4851H3.55604L4.27134 19.2596ZM4.8163 20.2679L5.31457 19.7073L5.31457 19.7073L4.8163 20.2679ZM7.15128 21.1089L7.06228 21.8536H7.06228L7.15128 21.1089ZM16.8487 21.1089L16.9377 21.8536H16.9377L16.8487 21.1089ZM19.1837 20.2679L19.682 20.8284L19.682 20.8284L19.1837 20.2679ZM19.7287 19.2596L19.0134 19.0341V19.0341L19.7287 19.2596ZM20.0892 17.3118L19.3432 17.2344V17.2344L20.0892 17.3118ZM20.2479 13.3087L20.9979 13.3122L21.0027 12.2992L20.0324 12.5903L20.2479 13.3087ZM15.25 14.808L15.0345 14.0897L14.5 14.25V14.808H15.25ZM14.4642 16.3221L14.7428 17.0184V17.0184L14.4642 16.3221ZM13.7641 16.6021L14.0427 17.2985H14.0427L13.7641 16.6021ZM10.2359 16.6021L9.95735 17.2985H9.95736L10.2359 16.6021ZM9.53577 16.3221L9.81431 15.6257V15.6257L9.53577 16.3221ZM8.75 14.808H9.5V14.25L8.96552 14.0897L8.75 14.808ZM8.75 13.242L8.53449 13.9604L9.5 14.25V13.242H8.75ZM3.54792 11.6814L3.76343 10.963H3.76343L3.54792 11.6814ZM2.73396 11.7845C2.61493 12.1812 2.84007 12.5993 3.23681 12.7184C3.63356 12.8374 4.05167 12.6123 4.17069 12.2155L3.45233 12L2.73396 11.7845ZM2.92578 11.479L2.63885 12.172L2.63885 12.172L2.92578 11.479ZM2.81236 11.4212L2.2542 11.9221L2.29422 11.9667L2.34083 12.0044L2.81236 11.4212ZM3.24429 10.8074C2.90668 10.5675 2.43845 10.6466 2.19847 10.9842C1.95849 11.3218 2.03763 11.7901 2.37524 12.03L2.80977 11.4187L3.24429 10.8074ZM2.78785 11.3882L2.09372 11.6723L2.11643 11.7278L2.14766 11.7789L2.78785 11.3882ZM2.76502 11.263L2.01885 11.3387V11.3387L2.76502 11.263ZM2.829 7.83664L2.08413 7.74912V7.74912L2.829 7.83664ZM3.25474 6.57995L2.67299 6.1066L2.67299 6.1066L3.25474 6.57995ZM3.57995 6.25474L4.0533 6.83649V6.83649L3.57995 6.25474ZM4.83665 5.829L4.92417 6.57388H4.92417L4.83665 5.829ZM19.1634 5.829L19.0758 6.57388V6.57388L19.1634 5.829ZM20.4201 6.25474L20.8934 5.67299L20.8934 5.67298L20.4201 6.25474ZM20.7453 6.57995L21.327 6.1066V6.1066L20.7453 6.57995ZM21.171 7.83664L21.9159 7.74912V7.74912L21.171 7.83664ZM21.235 11.263L20.4888 11.1873L20.4888 11.1873L21.235 11.263ZM21.1876 11.4212L21.6591 12.0045L21.7059 11.9667L21.746 11.9219L21.1876 11.4212ZM21.0742 11.479L21.3612 12.172L21.3612 12.172L21.0742 11.479ZM20.4521 11.6814L20.2366 10.963V10.963L20.4521 11.6814ZM15.25 13.242H14.5V14.25L15.4655 13.9604L15.25 13.242ZM21.6234 12.031C21.9616 11.7917 22.0417 11.3237 21.8025 10.9855C21.5632 10.6474 21.0952 10.5672 20.757 10.8065L21.1902 11.4187L21.6234 12.031ZM20.6119 10.9396C20.3624 11.2703 20.4282 11.7406 20.7588 11.9901C21.0894 12.2396 21.5597 12.1738 21.8092 11.8432L21.2106 11.3914L20.6119 10.9396ZM2.07887 11.6314C2.21142 12.0238 2.637 12.2345 3.02943 12.102C3.42187 11.9694 3.63255 11.5439 3.50001 11.1514L2.78944 11.3914L2.07887 11.6314ZM10.25 14.9922H9.5V15.5L9.97146 15.6886L10.25 14.9922ZM10.25 13.25V12.5H9.5V13.25H10.25ZM10.793 15.2094L10.5144 15.9058V15.9058L10.793 15.2094ZM13.207 15.2094L13.4856 15.9058V15.9058L13.207 15.2094ZM13.75 14.9922L14.0285 15.6886L14.5 15.5V14.9922H13.75ZM13.75 13.25H14.5V12.5H13.75V13.25ZM10.5814 1.25V0.500004C10.5745 0.500004 10.5678 0.500003 10.5611 0.500002L10.561 1.25L10.5608 2C10.5675 2 10.5744 2 10.5814 2V1.25ZM13.725 1.25503L13.7703 0.506405C13.6595 0.499693 13.5467 0.499986 13.4394 0.500002L13.4395 1.25L13.4396 2C13.5593 1.99998 13.6233 2.00025 13.6796 2.00366L13.725 1.25503ZM16.1102 2.97426L16.8061 2.69451C16.3018 1.43997 15.1199 0.588144 13.7703 0.506405L13.725 1.25503L13.6796 2.00366C14.4508 2.05037 15.1262 2.53713 15.4144 3.25401L16.1102 2.97426ZM16.2053 3.24347L16.9168 3.00641C16.8829 2.90462 16.8475 2.79752 16.8061 2.69449L16.1102 2.97426L15.4144 3.25402C15.4354 3.30639 15.4559 3.36694 15.4937 3.48053L16.2053 3.24347ZM16.2663 3.42518L16.9715 3.17001C16.9719 3.17087 16.9713 3.16936 16.9677 3.15879C16.964 3.14789 16.9584 3.13125 16.9489 3.10264L16.2374 3.33981L15.5259 3.57697C15.5433 3.62908 15.5524 3.65645 15.561 3.68035L16.2663 3.42518ZM17.519 4.25024L17.538 3.50049C17.2419 3.49298 17.0125 3.2832 16.9716 3.17006L16.2663 3.42518L15.561 3.6803C15.8399 4.45143 16.6725 4.97903 17.5 5L17.519 4.25024ZM7.73417 3.4252L7.0289 3.17008C6.98809 3.28289 6.75853 3.49297 6.462 3.50049L6.481 4.25024L6.5 5C7.32754 4.97903 8.16051 4.45145 8.43945 3.68032L7.73417 3.4252ZM7.76306 3.33981L7.05155 3.10264C7.04196 3.1314 7.0364 3.14802 7.03273 3.15887C7.03097 3.1641 7.02996 3.16703 7.02939 3.16866C7.02913 3.16943 7.02899 3.16983 7.02894 3.16997C7.02891 3.17005 7.0289 3.17008 7.0289 3.17008C7.02889 3.17009 7.0289 3.17009 7.02889 3.17009L7.73417 3.4252L8.43945 3.68032C8.44811 3.65637 8.4571 3.6294 8.47457 3.57698L7.76306 3.33981ZM7.78872 3.26283L7.07721 3.02566L7.05155 3.10263L7.76306 3.33981L8.47457 3.57698L8.50023 3.50001L7.78872 3.26283ZM7.79516 3.24351L7.08361 3.00644C7.08149 3.01281 7.07936 3.0192 7.07721 3.02566L7.78872 3.26283L8.50023 3.5C8.50243 3.49341 8.50459 3.48691 8.50671 3.48057L7.79516 3.24351ZM7.89021 2.97425L7.19434 2.6945C7.15292 2.79753 7.11753 2.90464 7.08361 3.00644L7.79516 3.24351L8.50671 3.48057C8.54456 3.36697 8.56503 3.30639 8.58609 3.254L7.89021 2.97425ZM10.2755 1.25503L10.2302 0.506405C8.88052 0.588144 7.69868 1.43997 7.19434 2.6945L7.89021 2.97425L8.58609 3.254C8.87428 2.53713 9.54962 2.05037 10.3208 2.00366L10.2755 1.25503ZM10.561 1.25L10.5611 0.500002C10.4538 0.499986 10.341 0.499693 10.2302 0.506405L10.2755 1.25503L10.3208 2.00366C10.3772 2.00025 10.4411 1.99998 10.5608 2L10.561 1.25ZM10.3662 2.75229L10.4115 3.50092C10.4115 3.50092 10.4115 3.50092 10.4115 3.50092C10.4116 3.50092 10.4116 3.50091 10.4118 3.5009C10.4122 3.50089 10.4132 3.50085 10.4151 3.50079C10.4193 3.50067 10.4266 3.50051 10.4398 3.50037C10.4671 3.50009 10.509 3.5 10.5814 3.5V2.75V2C10.4494 2 10.3816 1.99998 10.3208 2.00366L10.3662 2.75229ZM9.28196 3.53375L9.97783 3.8135C10.0499 3.63428 10.2187 3.5126 10.4115 3.50092L10.3662 2.75229L10.3208 2.00366C9.54962 2.05037 8.87428 2.53713 8.58609 3.25401L9.28196 3.53375ZM9.21174 3.73717L9.92326 3.97434C9.94615 3.90568 9.95946 3.86602 9.96837 3.84018C9.97267 3.82771 9.97515 3.82076 9.97657 3.81688C9.97723 3.81508 9.97759 3.81413 9.97772 3.81379C9.97779 3.81362 9.97782 3.81354 9.97782 3.81353C9.97783 3.81352 9.97783 3.81352 9.97783 3.81351L9.28196 3.53375L8.58609 3.254C8.5634 3.31044 8.54195 3.37485 8.50023 3.5L9.21174 3.73717ZM9.14472 3.93544L9.85 4.19056C9.86582 4.14684 9.8807 4.10202 9.89491 4.05937L9.18338 3.82225L8.47186 3.58513C8.456 3.6327 8.44749 3.65809 8.43945 3.68032L9.14472 3.93544ZM9.00558 4.25L9.66891 4.59998C9.73782 4.46937 9.79856 4.33278 9.85 4.19056L9.14472 3.93544L8.43945 3.68032C8.41198 3.75625 8.37944 3.82952 8.34224 3.90003L9.00558 4.25ZM14.9949 4.25V3.5H9.00558V4.25V5H14.9949V4.25ZM14.8557 3.93547L14.1505 4.19059C14.2019 4.33278 14.2626 4.46935 14.3315 4.59994L14.9949 4.25L15.6582 3.90007C15.621 3.82955 15.5885 3.75628 15.561 3.68034L14.8557 3.93547ZM13.4395 1.25L13.4395 0.500002L10.5814 0.500004L10.5814 1.25L10.5814 2L13.4395 2L13.4395 1.25ZM16.2374 3.33981L16.9489 3.10265L16.9168 3.00632L16.2053 3.24347L15.4938 3.48063L15.5259 3.57696L16.2374 3.33981ZM13.6343 2.75229L13.6796 2.00366C13.6189 1.99998 13.551 2 13.4191 2V2.75V3.5C13.4915 3.5 13.5333 3.50009 13.5606 3.50037C13.5738 3.50051 13.5812 3.50067 13.5853 3.50079C13.5872 3.50085 13.5883 3.50089 13.5886 3.5009C13.5888 3.50091 13.5889 3.50092 13.5889 3.50092C13.5889 3.50092 13.5889 3.50092 13.5889 3.50092L13.6343 2.75229ZM14.7185 3.53375L15.4144 3.25401C15.1262 2.53713 14.4508 2.05037 13.6796 2.00366L13.6343 2.75229L13.5889 3.50092C13.7817 3.5126 13.9506 3.63428 14.0226 3.8135L14.7185 3.53375ZM14.7887 3.73717L15.5002 3.5C15.4585 3.37484 15.437 3.31043 15.4144 3.254L14.7185 3.53375L14.0226 3.81351C14.0226 3.81352 14.0226 3.81352 14.0226 3.81353C14.0226 3.81354 14.0227 3.81362 14.0227 3.8138C14.0229 3.81413 14.0232 3.81509 14.0239 3.81689C14.0253 3.82077 14.0278 3.82772 14.0321 3.84018C14.041 3.86602 14.0543 3.90568 14.0772 3.97434L14.7887 3.73717ZM14.8557 3.93547L15.561 3.68035C15.553 3.65806 15.5444 3.63251 15.5286 3.58513L14.8171 3.82225L14.1055 4.05937C14.1198 4.10221 14.1347 4.14692 14.1505 4.19058L14.8557 3.93547ZM13.4191 2.75V2H10.5814V2.75V3.5H13.4191V2.75ZM10.561 1.25L10.5609 2L10.5813 2L10.5814 1.25L10.5814 0.500004L10.561 0.500002L10.561 1.25ZM7.78872 3.26283L8.50025 3.49993L8.5067 3.4806L7.79516 3.24351L7.08362 3.00641L7.07718 3.02574L7.78872 3.26283ZM21.3668 5.09123L21.8401 4.50948C21.1158 3.92013 20.2824 3.69501 19.4259 3.59438L19.3384 4.33925L19.2509 5.08413C19.9669 5.16826 20.4799 5.33653 20.8934 5.67298L21.3668 5.09123ZM21.9088 5.63325L22.4905 5.1599C22.2965 4.92144 22.0786 4.7035 21.8401 4.50947L21.3668 5.09123L20.8934 5.67299C21.0524 5.80233 21.1977 5.94763 21.327 6.1066L21.9088 5.63325ZM22.6608 7.6616L23.4056 7.57407C23.305 6.71763 23.0799 5.88421 22.4905 5.1599L21.9088 5.63325L21.327 6.1066C21.6635 6.52011 21.8317 7.03311 21.9159 7.74912L22.6608 7.6616ZM22.75 10.5616L23.5 10.5617C23.5 9.39355 23.5012 8.38745 23.4056 7.57407L22.6608 7.6616L21.9159 7.74912C21.9989 8.45531 22 9.3599 22 10.5616L22.75 10.5616ZM22.7273 11.4144L23.4735 11.4901C23.5009 11.2203 23.5 10.9124 23.5 10.6401L22.75 10.6402L22 10.6403C22 10.9358 21.9993 11.1603 21.9812 11.3387L22.7273 11.4144ZM22.4861 12.18L23.1231 12.5761C23.3639 12.1887 23.442 11.8003 23.4735 11.4901L22.7273 11.4144L21.9812 11.3387C21.9623 11.5244 21.9246 11.6627 21.8492 11.784L22.4861 12.18ZM22.3121 12.4139L22.8745 12.9102C22.9665 12.8059 23.0496 12.6942 23.1231 12.5761L22.4861 12.18L21.8492 11.784C21.8199 11.8312 21.7866 11.8759 21.7498 11.9177L22.3121 12.4139ZM21.7495 12.8205L22.065 13.5009C22.3252 13.3803 22.6172 13.2017 22.8745 12.9102L22.3121 12.4139L21.7498 11.9177C21.6689 12.0094 21.5681 12.078 21.434 12.1401L21.7495 12.8205ZM21.5813 17.4664L22.3273 17.5438C22.4766 16.1029 22.4967 14.4349 22.4995 12.8219L21.7495 12.8205L20.9995 12.8192C20.9966 14.4364 20.9758 16.0336 20.8353 17.3891L21.5813 17.4664ZM21.1593 19.7106L21.8746 19.936C22.1027 19.2124 22.2398 18.3876 22.3273 17.5438L21.5813 17.4664L20.8353 17.3891C20.7529 18.1837 20.6293 18.8971 20.444 19.4851L21.1593 19.7106ZM20.1803 21.389L20.6785 21.9495C21.2997 21.3974 21.6532 20.6384 21.8746 19.936L21.1593 19.7106L20.444 19.4851C20.2586 20.073 20.0115 20.5355 19.682 20.8284L20.1803 21.389ZM17.0267 22.5983L17.1157 23.343C18.4777 23.1802 19.6906 22.8277 20.6785 21.9495L20.1803 21.389L19.682 20.8284C19.023 21.4142 18.1632 21.7071 16.9377 21.8536L17.0267 22.5983ZM12.0512 22.75L12.0512 23.5C14.1111 23.5 15.7911 23.5013 17.1157 23.343L17.0267 22.5983L16.9377 21.8536C15.7225 21.9988 14.1472 22 12.0512 22L12.0512 22.75ZM6.97328 22.5983L6.88428 23.343C8.2089 23.5013 9.88888 23.5 11.9488 23.5L11.9488 22.75L11.9488 22C9.85286 22 8.27749 21.9988 7.06228 21.8536L6.97328 22.5983ZM3.81975 21.389L3.32148 21.9495C4.30938 22.8277 5.52232 23.1802 6.88429 23.343L6.97328 22.5983L7.06228 21.8536C5.8368 21.7071 4.977 21.4142 4.31802 20.8284L3.81975 21.389ZM2.84074 19.7106L2.12544 19.936C2.34685 20.6384 2.70032 21.3974 3.32148 21.9495L3.81975 21.389L4.31802 20.8284C3.9885 20.5355 3.74138 20.073 3.55604 19.4851L2.84074 19.7106ZM2.41875 17.4664L1.67275 17.5438C1.76023 18.3876 1.89734 19.2124 2.12544 19.936L2.84074 19.7106L3.55604 19.4851C3.37069 18.8971 3.24713 18.1837 3.16476 17.3891L2.41875 17.4664ZM2.25048 12.8205L1.50048 12.8219C1.50336 14.4349 1.52338 16.1029 1.67275 17.5438L2.41875 17.4664L3.16476 17.3891C3.02424 16.0336 3.00336 14.4364 3.00048 12.8192L2.25048 12.8205ZM1.68788 12.4139L1.12554 12.9102C1.38283 13.2017 1.67483 13.3803 1.93498 13.5009L2.25048 12.8205L2.56597 12.1401C2.43195 12.078 2.33115 12.0094 2.25022 11.9177L1.68788 12.4139ZM1.51386 12.18L0.876947 12.5761C0.950375 12.6942 1.03353 12.8059 1.12553 12.9102L1.68788 12.4139L2.25022 11.9177C2.21341 11.8759 2.18015 11.8312 2.15078 11.784L1.51386 12.18ZM2.14616 11.7869L1.75014 11.15L1.11784 11.5431L1.51386 12.18L1.90989 12.817L2.54219 12.4238L2.14616 11.7869ZM1.27268 11.4144L0.526514 11.4901C0.557993 11.8003 0.636091 12.1887 0.876947 12.5761L1.51386 12.18L2.15078 11.784C2.07538 11.6627 2.0377 11.5244 2.01885 11.3387L1.27268 11.4144ZM1.25 10.6402L0.500002 10.6401C0.499973 10.9124 0.499139 11.2203 0.526514 11.4901L1.27268 11.4144L2.01885 11.3387C2.00075 11.1603 1.99997 10.9358 2 10.6403L1.25 10.6402ZM1.25 10.6089H0.500004C0.500004 10.6193 0.500003 10.6297 0.500002 10.6401L1.25 10.6402L2 10.6403C2 10.6299 2 10.6194 2 10.6089H1.25ZM1.25 10.5617L0.500004 10.5617L0.500004 10.6089L1.25 10.6089L2 10.6089L2 10.5617L1.25 10.5617ZM1.33925 7.6616L0.594376 7.57407C0.498803 8.38745 0.499989 9.39355 0.500004 10.5617L1.25 10.5617L2 10.5617C1.99999 9.35991 2.00115 8.45531 2.08413 7.74912L1.33925 7.6616ZM2.09123 5.63325L1.50948 5.1599C0.920131 5.88421 0.695009 6.71763 0.594376 7.57407L1.33925 7.6616L2.08413 7.74912C2.16826 7.03311 2.33653 6.52011 2.67299 6.1066L2.09123 5.63325ZM2.63325 5.09123L2.1599 4.50948C1.92144 4.7035 1.7035 4.92144 1.50948 5.15989L2.09123 5.63325L2.67299 6.1066C2.80233 5.94763 2.94763 5.80233 3.1066 5.67299L2.63325 5.09123ZM4.6616 4.33925L4.57407 3.59438C3.71763 3.69501 2.88421 3.92013 2.1599 4.50948L2.63325 5.09123L3.1066 5.67299C3.52011 5.33653 4.03311 5.16826 4.74912 5.08413L4.6616 4.33925ZM3.91076 17.3118L4.65676 17.2344C4.53796 16.0884 4.50888 14.7402 4.50209 13.3051L3.7521 13.3087L3.0021 13.3122C3.00891 14.7507 3.03768 16.1633 3.16476 17.3891L3.91076 17.3118ZM4.27134 19.2596L4.98664 19.0341C4.84407 18.5818 4.73404 17.9799 4.65676 17.2344L3.91076 17.3118L3.16476 17.3891C3.24713 18.1837 3.37069 18.8971 3.55604 19.4851L4.27134 19.2596ZM4.8163 20.2679L5.31457 19.7073C5.27678 19.6737 5.13597 19.5078 4.98664 19.0341L4.27134 19.2596L3.55604 19.4851C3.74137 20.0729 3.98848 20.5355 4.31803 20.8284L4.8163 20.2679ZM7.15128 21.1089L7.24028 20.3642C6.15158 20.234 5.64477 20.0008 5.31457 19.7073L4.8163 20.2679L4.31802 20.8284C4.97699 21.4142 5.83677 21.7071 7.06228 21.8536L7.15128 21.1089ZM12 21.25V20.5C9.84067 20.5 8.35581 20.4975 7.24028 20.3642L7.15128 21.1089L7.06228 21.8536C8.28774 22 9.8789 22 12 22V21.25ZM16.8487 21.1089L16.7597 20.3642C15.6442 20.4975 14.1593 20.5 12 20.5V21.25V22C14.1211 22 15.7123 22 16.9377 21.8536L16.8487 21.1089ZM19.1837 20.2679L18.6854 19.7073C18.3552 20.0008 17.8484 20.234 16.7597 20.3642L16.8487 21.1089L16.9377 21.8536C18.1632 21.7071 19.023 21.4142 19.682 20.8284L19.1837 20.2679ZM19.7287 19.2596L19.0134 19.0341C18.864 19.5078 18.7232 19.6737 18.6854 19.7073L19.1837 20.2679L19.682 20.8284C20.0115 20.5355 20.2586 20.0729 20.444 19.4851L19.7287 19.2596ZM20.0892 17.3118L19.3432 17.2344C19.266 17.9799 19.1559 18.5818 19.0134 19.0341L19.7287 19.2596L20.444 19.4851C20.6293 18.8971 20.7529 18.1837 20.8353 17.3891L20.0892 17.3118ZM20.2479 13.3087L19.4979 13.3051C19.4911 14.7402 19.462 16.0884 19.3432 17.2344L20.0892 17.3118L20.8353 17.3891C20.9623 16.1633 20.9911 14.7507 20.9979 13.3122L20.2479 13.3087ZM15.25 14.808L15.4655 15.5264L20.4634 14.027L20.2479 13.3087L20.0324 12.5903L15.0345 14.0897L15.25 14.808ZM15.25 15.1615H16V14.808H15.25H14.5V15.1615H15.25ZM14.4642 16.3221L14.7428 17.0184C15.5021 16.7147 16 15.9793 16 15.1615H15.25H14.5C14.5 15.3659 14.3755 15.5498 14.1857 15.6257L14.4642 16.3221ZM13.7641 16.6021L14.0427 17.2985L14.7428 17.0184L14.4642 16.3221L14.1857 15.6257L13.4856 15.9058L13.7641 16.6021ZM10.2359 16.6021L9.95736 17.2985C11.2686 17.823 12.7314 17.823 14.0427 17.2985L13.7641 16.6021L13.4856 15.9058C12.5319 16.2872 11.4681 16.2872 10.5144 15.9058L10.2359 16.6021ZM9.53577 16.3221L9.25722 17.0184L9.95735 17.2985L10.2359 16.6021L10.5144 15.9058L9.81431 15.6257L9.53577 16.3221ZM8.75 15.1615H8C8 15.9793 8.49791 16.7147 9.25722 17.0184L9.53577 16.3221L9.81431 15.6257C9.62448 15.5498 9.5 15.3659 9.5 15.1615H8.75ZM8.75 14.808H8V15.1615H8.75H9.5V14.808H8.75ZM3.7521 13.3087L3.53658 14.027L8.53449 15.5264L8.75 14.808L8.96552 14.0897L3.96761 12.5903L3.7521 13.3087ZM8.75 13.242L8.96552 12.5236L3.76343 10.963L3.54792 11.6814L3.33241 12.3997L8.53449 13.9604L8.75 13.242ZM3.54792 11.6814L2.82955 11.4658L2.73396 11.7845L3.45233 12L4.17069 12.2155L4.26629 11.8969L3.54792 11.6814ZM3.54792 11.6814L3.76343 10.963C3.43541 10.8646 3.29846 10.8216 3.21271 10.7861L2.92578 11.479L2.63885 12.172C2.81159 12.2435 3.03574 12.3107 3.33241 12.3997L3.54792 11.6814ZM2.92578 11.479L3.21271 10.7861C3.19366 10.7782 3.1921 10.7766 3.20227 10.7821C3.20753 10.785 3.21712 10.7904 3.22985 10.7986C3.24171 10.8063 3.26083 10.8193 3.2839 10.8379L2.81236 11.4212L2.34083 12.0044C2.43048 12.0769 2.53545 12.1292 2.63885 12.172L2.92578 11.479ZM2.81236 11.4212L2.59248 12.1382L8.53012 13.959L8.75 13.242L8.96989 12.5249L3.03225 10.7041L2.81236 11.4212ZM2.80977 11.4187C2.37524 12.03 2.37514 12.03 2.37504 12.0299C2.375 12.0299 2.3749 12.0298 2.37483 12.0297C2.37469 12.0296 2.37455 12.0295 2.37442 12.0294C2.37414 12.0293 2.37386 12.0291 2.37359 12.0289C2.37303 12.0285 2.37248 12.0281 2.37192 12.0277C2.37081 12.0269 2.36969 12.0261 2.36856 12.0252C2.36632 12.0236 2.36405 12.0219 2.36177 12.0202C2.3572 12.0168 2.35255 12.0133 2.34782 12.0096C2.33839 12.0022 2.32857 11.9942 2.31848 11.9854C2.29845 11.968 2.27654 11.947 2.2542 11.9221L2.81236 11.4212L3.37053 10.9202C3.34672 10.8937 3.32351 10.8715 3.30255 10.8533C3.292 10.8441 3.28181 10.8358 3.27211 10.8282C3.26726 10.8244 3.26251 10.8208 3.25787 10.8173C3.25555 10.8156 3.25326 10.8139 3.251 10.8123C3.24987 10.8114 3.24874 10.8106 3.24763 10.8098C3.24707 10.8094 3.24651 10.809 3.24596 10.8086C3.24568 10.8084 3.2454 10.8082 3.24512 10.808C3.24499 10.8079 3.24485 10.8078 3.24471 10.8077C3.24464 10.8077 3.24454 10.8076 3.2445 10.8076C3.2444 10.8075 3.24429 10.8074 2.80977 11.4187ZM2.78785 11.3882L3.48199 11.1042C3.49322 11.1316 3.50018 11.1537 3.50411 11.1672C3.50833 11.1818 3.51079 11.1925 3.51202 11.1984C3.5144 11.2097 3.51327 11.2078 3.51119 11.1873L2.76502 11.263L2.01885 11.3387C2.03015 11.45 2.05007 11.5656 2.09372 11.6723L2.78785 11.3882ZM2.76502 11.263L3.51119 11.1873C3.50182 11.0949 3.5 10.9514 3.5 10.6089H2.75H2C2 10.9187 1.99998 11.1527 2.01885 11.3387L2.76502 11.263ZM2.75 10.6089H3.5C3.5 9.34699 3.50244 8.53215 3.57388 7.92417L2.829 7.83664L2.08413 7.74912C1.99999 8.46513 2 9.38422 2 10.6089H2.75ZM2.829 7.83664L3.57388 7.92417C3.64146 7.34898 3.75277 7.1562 3.8365 7.0533L3.25474 6.57995L2.67299 6.1066C2.33655 6.52008 2.16827 7.03305 2.08413 7.74912L2.829 7.83664ZM3.25474 6.57995L3.83649 7.0533C3.90117 6.97382 3.97382 6.90117 4.0533 6.83649L3.57995 6.25474L3.1066 5.67299C2.94763 5.80233 2.80233 5.94763 2.67299 6.1066L3.25474 6.57995ZM3.57995 6.25474L4.0533 6.83649C4.1562 6.75277 4.34898 6.64146 4.92417 6.57388L4.83665 5.829L4.74912 5.08413C4.03306 5.16827 3.52008 5.33655 3.1066 5.67299L3.57995 6.25474ZM7.60893 5.75V6.5H16.3911V5.75V5H7.60893V5.75ZM19.1634 5.829L19.0758 6.57388C19.651 6.64146 19.8438 6.75277 19.9467 6.8365L20.4201 6.25474L20.8934 5.67298C20.4799 5.33655 19.967 5.16827 19.2509 5.08413L19.1634 5.829ZM20.4201 6.25474L19.9467 6.83649C20.0262 6.90117 20.0988 6.97382 20.1635 7.0533L20.7453 6.57995L21.327 6.1066C21.1977 5.94763 21.0524 5.80233 20.8934 5.67299L20.4201 6.25474ZM20.7453 6.57995L20.1635 7.0533C20.2472 7.1562 20.3585 7.34898 20.4261 7.92417L21.171 7.83664L21.9159 7.74912C21.8317 7.03305 21.6635 6.52008 21.327 6.1066L20.7453 6.57995ZM21.171 7.83664L20.4261 7.92417C20.4976 8.53215 20.5 9.34699 20.5 10.6089H21.25H22C22 9.38422 22 8.46513 21.9159 7.74912L21.171 7.83664ZM21.25 10.6089H20.5C20.5 10.9514 20.4982 11.0949 20.4888 11.1873L21.235 11.263L21.9812 11.3387C22 11.1527 22 10.9187 22 10.6089H21.25ZM21.235 11.263L20.4888 11.1873C20.4867 11.2078 20.4856 11.2097 20.488 11.1984C20.4892 11.1925 20.4917 11.1818 20.4959 11.1672C20.4998 11.1536 20.5068 11.1316 20.518 11.1042L21.2122 11.3882L21.9063 11.6723C21.9499 11.5656 21.9699 11.4501 21.9812 11.3387L21.235 11.263ZM21.2122 11.3882L20.5757 10.9914C20.5902 10.9682 20.6066 10.9462 20.6247 10.9256L21.1876 11.4212L21.7506 11.9168C21.7868 11.8756 21.8196 11.8315 21.8486 11.785L21.2122 11.3882ZM21.1876 11.4212L20.7162 10.8379C20.7393 10.8192 20.7583 10.8063 20.7702 10.7986C20.7829 10.7904 20.7925 10.785 20.7977 10.7821C20.8079 10.7766 20.8063 10.7782 20.7873 10.7861L21.0742 11.479L21.3612 12.172C21.4646 12.1292 21.5695 12.0769 21.6591 12.0045L21.1876 11.4212ZM21.0742 11.479L20.7873 10.7861C20.7015 10.8216 20.5646 10.8646 20.2366 10.963L20.4521 11.6814L20.6676 12.3997C20.9643 12.3107 21.1884 12.2435 21.3612 12.172L21.0742 11.479ZM20.4521 11.6814L20.2366 10.963L15.0345 12.5236L15.25 13.242L15.4655 13.9604L20.6676 12.3997L20.4521 11.6814ZM15.25 13.242H16V13H15.25H14.5V13.242H15.25ZM15.25 13H16C16 11.8954 15.1046 11 14 11V11.75V12.5C14.2761 12.5 14.5 12.7239 14.5 13H15.25ZM14 11.75V11H10V11.75V12.5H14V11.75ZM10 11.75V11C8.89544 11 8 11.8954 8 13H8.75H9.5C9.5 12.7239 9.72386 12.5 10 12.5V11.75ZM8.75 13H8V13.242H8.75H9.5V13H8.75ZM8.75 13.242L8.97268 12.5258L3.01053 10.6721L2.78785 11.3882L2.56518 12.1044L8.52733 13.9582L8.75 13.242ZM21.1876 11.4212L21.746 11.9219C21.7234 11.9471 21.7012 11.9683 21.6809 11.9859C21.6707 11.9948 21.6608 12.0029 21.6512 12.0103C21.6464 12.0141 21.6417 12.0177 21.6371 12.0211C21.6348 12.0228 21.6325 12.0245 21.6302 12.0261C21.6291 12.027 21.6279 12.0278 21.6268 12.0286C21.6262 12.029 21.6257 12.0294 21.6251 12.0298C21.6248 12.03 21.6246 12.0302 21.6243 12.0304C21.6241 12.0305 21.624 12.0306 21.6239 12.0307C21.6238 12.0307 21.6237 12.0308 21.6236 12.0308C21.6235 12.0309 21.6234 12.031 21.1902 11.4187C20.757 10.8065 20.7569 10.8066 20.7568 10.8066C20.7568 10.8067 20.7567 10.8067 20.7566 10.8068C20.7565 10.8069 20.7563 10.807 20.7562 10.8071C20.7559 10.8073 20.7556 10.8075 20.7554 10.8077C20.7548 10.8081 20.7542 10.8085 20.7537 10.8089C20.7525 10.8097 20.7514 10.8105 20.7502 10.8114C20.748 10.813 20.7456 10.8147 20.7433 10.8165C20.7386 10.8199 20.7338 10.8236 20.7289 10.8274C20.719 10.8351 20.7087 10.8435 20.698 10.8528C20.6768 10.8712 20.6533 10.8936 20.6292 10.9205L21.1876 11.4212ZM21.2122 11.3882L20.518 11.1043C20.5271 11.082 20.5388 11.0566 20.5539 11.0292C20.5615 11.0154 20.57 11.0009 20.5796 10.986C20.5844 10.9785 20.5895 10.9709 20.5949 10.9632C20.5975 10.9593 20.6003 10.9554 20.6031 10.9515C20.6046 10.9495 20.606 10.9475 20.6075 10.9456C20.6082 10.9446 20.6089 10.9436 20.6097 10.9426C20.61 10.9421 20.6104 10.9416 20.6108 10.9411C20.611 10.9409 20.6112 10.9406 20.6114 10.9404C20.6114 10.9402 20.6116 10.9401 20.6116 10.94C20.6118 10.9398 20.6119 10.9396 21.2106 11.3914C21.8092 11.8432 21.8094 11.843 21.8095 11.8428C21.8095 11.8428 21.8097 11.8426 21.8098 11.8425C21.81 11.8422 21.8102 11.842 21.8103 11.8417C21.8107 11.8412 21.8111 11.8407 21.8115 11.8402C21.8122 11.8392 21.8129 11.8382 21.8137 11.8373C21.8151 11.8353 21.8166 11.8333 21.818 11.8313C21.8209 11.8274 21.8236 11.8235 21.8263 11.8196C21.8318 11.8118 21.8369 11.8041 21.8418 11.7965C21.8515 11.7813 21.8602 11.7665 21.8681 11.7523C21.8837 11.7239 21.8962 11.6968 21.9063 11.6722L21.2122 11.3882ZM2.78785 11.3882L2.14766 11.7789C2.13018 11.7503 2.11636 11.7232 2.10541 11.6989C2.09989 11.6867 2.09498 11.6749 2.09061 11.6637C2.08842 11.6581 2.08636 11.6526 2.08441 11.6472C2.08343 11.6445 2.08248 11.6419 2.08156 11.6392C2.0811 11.6379 2.08065 11.6366 2.0802 11.6353C2.07997 11.6346 2.07975 11.634 2.07953 11.6333C2.07942 11.633 2.07931 11.6327 2.0792 11.6324C2.07915 11.6322 2.07909 11.6321 2.07904 11.6319C2.07901 11.6318 2.07897 11.6317 2.07896 11.6317C2.07891 11.6315 2.07887 11.6314 2.78944 11.3914C3.50001 11.1514 3.49996 11.1513 3.49992 11.1512C3.49991 11.1511 3.49987 11.151 3.49984 11.1509C3.49979 11.1508 3.49973 11.1506 3.49968 11.1505C3.49957 11.1501 3.49946 11.1498 3.49935 11.1495C3.49913 11.1488 3.4989 11.1482 3.49868 11.1475C3.49823 11.1462 3.49777 11.1449 3.49731 11.1436C3.49638 11.1409 3.49542 11.1382 3.49443 11.1355C3.49245 11.1301 3.49034 11.1244 3.48809 11.1187C3.4836 11.1072 3.47851 11.0949 3.47274 11.0821C3.46128 11.0567 3.44667 11.028 3.42805 10.9975L2.78785 11.3882ZM10.25 14.9922H11V13.25H10.25H9.5V14.9922H10.25ZM10.793 15.2094L11.0715 14.5131L10.5285 14.2959L10.25 14.9922L9.97146 15.6886L10.5144 15.9058L10.793 15.2094ZM13.207 15.2094L12.9285 14.5131C12.3325 14.7515 11.6676 14.7515 11.0715 14.5131L10.793 15.2094L10.5144 15.9058C11.4681 16.2872 12.5319 16.2872 13.4856 15.9058L13.207 15.2094ZM13.75 14.9922L13.4715 14.2959L12.9285 14.5131L13.207 15.2094L13.4856 15.9058L14.0285 15.6886L13.75 14.9922ZM13.75 13.25H13V14.9922H13.75H14.5V13.25H13.75ZM10.25 13.25V14H13.75V13.25V12.5H10.25V13.25ZM22.75 10.6402L23.5 10.6402L23.5 10.5616L22.75 10.5616L22 10.5617L22 10.6403L22.75 10.6402ZM11.9488 22.75V23.5H12.0512V22.75V22H11.9488V22.75ZM9.18338 3.82225L9.8949 4.05942L9.92326 3.97434L9.21174 3.73717L8.50023 3.50001L8.47187 3.58508L9.18338 3.82225ZM14.8171 3.82225L15.5286 3.58508L15.5002 3.50001L14.7887 3.73717L14.0772 3.97434L14.1056 4.05942L14.8171 3.82225ZM4.6616 4.33925L4.69824 5.08836L6.51765 4.99935L6.481 4.25024L6.44436 3.50114L4.62495 3.59015L4.6616 4.33925ZM17.519 4.25024L17.4824 4.99935L19.3018 5.08836L19.3384 4.33925L19.3751 3.59015L17.5557 3.50114L17.519 4.25024ZM1.25 10.6089L0.500004 10.6089L0.500002 10.6401L1.25 10.6402L2 10.6403L2 10.609L1.25 10.6089ZM7.57032 5.75L7.57033 6.5L7.60894 6.5L7.60893 5.75L7.60892 5L7.57031 5L7.57032 5.75ZM16.3911 5.75L16.3911 6.5L16.4297 6.5L16.4297 5.75L16.4297 5L16.3911 5L16.3911 5.75ZM16.4297 5.75L16.4297 6.5C17.6702 6.50004 18.4745 6.50322 19.0758 6.57388L19.1634 5.829L19.2509 5.08413C18.542 5.00083 17.6346 5.00004 16.4297 5L16.4297 5.75ZM4.83665 5.829L4.92417 6.57388C5.52547 6.50322 6.32984 6.50004 7.57034 6.5L7.57032 5.75L7.5703 5C6.3654 5.00004 5.45806 5.00083 4.74912 5.08413L4.83665 5.829ZM16.3911 5.75V6.5C16.404 6.5 16.4168 6.5 16.4297 6.5L16.4297 5.75L16.4297 5C16.4169 5 16.404 5 16.3911 5V5.75ZM7.57032 5.75L7.57034 6.5C7.58316 6.5 7.59603 6.5 7.60893 6.5V5.75V5C7.59602 5 7.58314 5 7.5703 5L7.57032 5.75ZM6.5 5.75V6.5H7.57032V5.75V5H6.5V5.75ZM7.57032 5.75V6.5H16.4297V5.75V5H7.57032V5.75ZM16.4297 5.75V6.5H17.5V5.75V5H16.4297V5.75Z" fill="#896FCA"/>
</g>
<defs>
<clipPath id="clip0_1_21234">
<rect width="24" height="24" fill="white"/>
</clipPath>
</defs>
</svg>