<svg viewBox="0 0 24 24" fill="none" xmlns="http://www.w3.org/2000/svg">
<mask id="path-1-inside-1_1_21236" fill="white">
<path fill-rule="evenodd" clip-rule="evenodd" d="M6.7755 5.25H17.2247C18.041 5.24999 18.6994 5.24999 19.2326 5.29373C19.7815 5.33876 20.2635 5.43392 20.7092 5.66214C21.4096 6.02074 21.9794 6.59053 22.338 7.29084C22.5662 7.73655 22.6613 8.21861 22.7064 8.76754C22.7501 9.30066 22.7501 9.9591 22.7501 10.7754V10.8077C22.7501 10.8363 22.7502 10.8651 22.7503 10.894C22.7512 11.2321 22.7523 11.5921 22.6217 11.9139C22.5096 12.1902 22.3287 12.4333 22.0962 12.6201C21.9902 12.7054 21.8727 12.7729 21.7496 12.8293C21.7467 14.4416 21.726 16.0708 21.5813 17.4664C21.4964 18.2856 21.3661 19.0548 21.1594 19.7105C20.956 20.3557 20.6557 20.9665 20.1803 21.389C19.3569 22.1209 18.3205 22.4436 17.0268 22.5983C15.7569 22.75 14.1292 22.75 12.0513 22.75H11.9489C9.87096 22.75 8.24328 22.75 6.97337 22.5983C5.67965 22.4436 4.64328 22.1209 3.81984 21.389C3.3445 20.9665 3.0442 20.3557 2.84083 19.7105C2.6341 19.0548 2.50377 18.2856 2.41884 17.4664C2.27416 16.0708 2.25352 14.4416 2.25058 12.8293C2.12745 12.7729 2.00999 12.7054 1.90394 12.6201C1.67147 12.4333 1.4906 12.1902 1.37848 11.9139C1.24791 11.5921 1.24895 11.2321 1.24993 10.894C1.25001 10.8651 1.25009 10.8363 1.25009 10.8077L1.25009 10.7754C1.25009 9.95908 1.25008 9.30065 1.29382 8.76754C1.33886 8.21861 1.43401 7.73655 1.66224 7.29084C2.02083 6.59053 2.59062 6.02074 3.29094 5.66214C3.73664 5.43392 4.2187 5.33876 4.76763 5.29373C5.30074 5.24999 5.95917 5.24999 6.7755 5.25ZM3.75218 13.3087C3.75899 14.7455 3.78791 16.1259 3.91085 17.3118C3.99067 18.0818 4.10747 18.7394 4.27143 19.2596C4.43876 19.7904 4.63272 20.1046 4.81639 20.2679C5.31097 20.7075 5.99426 20.9706 7.15137 21.1089C8.32187 21.2487 9.85987 21.25 12.0001 21.25C14.1403 21.25 15.6783 21.2487 16.8488 21.1089C18.0059 20.9706 18.6892 20.7075 19.1838 20.2679C19.3675 20.1046 19.5614 19.7904 19.7288 19.2596C19.8927 18.7394 20.0095 18.0818 20.0893 17.3118C20.2123 16.1259 20.2412 14.7455 20.248 13.3087L15.2501 14.808V15.1615C15.2501 15.6726 14.9389 16.1322 14.4643 16.3221L13.7642 16.6021C12.6317 17.0551 11.3684 17.0551 10.236 16.6021L9.53585 16.3221C9.06128 16.1323 8.75009 15.6726 8.75009 15.1615V14.808L3.75218 13.3087ZM8.75009 13.242L3.35766 11.6242C3.14225 11.5596 3.01775 11.5218 2.92649 11.4873C2.87054 11.4661 2.84827 11.4536 2.84248 11.45C2.8101 11.4237 2.78482 11.3897 2.76893 11.3512C2.76714 11.3446 2.76161 11.3197 2.7574 11.26C2.75052 11.1627 2.75009 11.0326 2.75009 10.8077C2.75009 9.95153 2.75068 9.35474 2.7888 8.89019C2.82619 8.43445 2.89589 8.17271 2.99738 7.97451C3.21254 7.55432 3.55441 7.21245 3.9746 6.99729C4.17281 6.89579 4.43454 6.82609 4.89028 6.7887C5.35484 6.75059 5.95163 6.75 6.80775 6.75H17.1924C18.0486 6.75 18.6454 6.75059 19.1099 6.7887C19.5656 6.82609 19.8274 6.89579 20.0256 6.99729C20.4458 7.21245 20.7876 7.55432 21.0028 7.97451C21.1043 8.17271 21.174 8.43445 21.2114 8.89019C21.2495 9.35474 21.2501 9.95153 21.2501 10.8077C21.2501 11.0326 21.2497 11.1627 21.2428 11.26C21.2386 11.3197 21.2331 11.3446 21.2313 11.3512C21.2154 11.3897 21.1901 11.4237 21.1577 11.45C21.1519 11.4536 21.1297 11.4661 21.0737 11.4873C20.9824 11.5218 20.8579 11.5596 20.6425 11.6242L15.2501 13.242V13C15.2501 12.3096 14.6904 11.75 14.0001 11.75H10.0001C9.30974 11.75 8.75009 12.3096 8.75009 13V13.242ZM21.1593 11.4489L21.1577 11.45L21.1593 11.4489ZM21.2307 11.3531L21.2313 11.3512L21.2307 11.3531ZM2.76952 11.3531L2.76893 11.3512L2.76952 11.3531ZM2.84084 11.4489L2.84248 11.45L2.84084 11.4489ZM10.2501 13.25V14.9922L10.7931 15.2094C11.5679 15.5194 12.4323 15.5194 13.2071 15.2094L13.7501 14.9922V13.25H10.2501Z"/>
<path fill-rule="evenodd" clip-rule="evenodd" d="M12.0003 2.75C11.0218 2.75 10.1874 3.37503 9.87812 4.24993C9.74009 4.64047 9.31159 4.84517 8.92106 4.70713C8.53052 4.56909 8.32583 4.1406 8.46386 3.75007C8.9783 2.29459 10.3663 1.25 12.0003 1.25C13.6342 1.25 15.0223 2.29459 15.5367 3.75007C15.6747 4.1406 15.4701 4.56909 15.0795 4.70713C14.689 4.84517 14.2605 4.64047 14.1224 4.24993C13.8132 3.37503 12.9788 2.75 12.0003 2.75Z"/>
</mask>
<path fill-rule="evenodd" clip-rule="evenodd" d="M6.7755 5.25H17.2247C18.041 5.24999 18.6994 5.24999 19.2326 5.29373C19.7815 5.33876 20.2635 5.43392 20.7092 5.66214C21.4096 6.02074 21.9794 6.59053 22.338 7.29084C22.5662 7.73655 22.6613 8.21861 22.7064 8.76754C22.7501 9.30066 22.7501 9.9591 22.7501 10.7754V10.8077C22.7501 10.8363 22.7502 10.8651 22.7503 10.894C22.7512 11.2321 22.7523 11.5921 22.6217 11.9139C22.5096 12.1902 22.3287 12.4333 22.0962 12.6201C21.9902 12.7054 21.8727 12.7729 21.7496 12.8293C21.7467 14.4416 21.726 16.0708 21.5813 17.4664C21.4964 18.2856 21.3661 19.0548 21.1594 19.7105C20.956 20.3557 20.6557 20.9665 20.1803 21.389C19.3569 22.1209 18.3205 22.4436 17.0268 22.5983C15.7569 22.75 14.1292 22.75 12.0513 22.75H11.9489C9.87096 22.75 8.24328 22.75 6.97337 22.5983C5.67965 22.4436 4.64328 22.1209 3.81984 21.389C3.3445 20.9665 3.0442 20.3557 2.84083 19.7105C2.6341 19.0548 2.50377 18.2856 2.41884 17.4664C2.27416 16.0708 2.25352 14.4416 2.25058 12.8293C2.12745 12.7729 2.00999 12.7054 1.90394 12.6201C1.67147 12.4333 1.4906 12.1902 1.37848 11.9139C1.24791 11.5921 1.24895 11.2321 1.24993 10.894C1.25001 10.8651 1.25009 10.8363 1.25009 10.8077L1.25009 10.7754C1.25009 9.95908 1.25008 9.30065 1.29382 8.76754C1.33886 8.21861 1.43401 7.73655 1.66224 7.29084C2.02083 6.59053 2.59062 6.02074 3.29094 5.66214C3.73664 5.43392 4.2187 5.33876 4.76763 5.29373C5.30074 5.24999 5.95917 5.24999 6.7755 5.25ZM3.75218 13.3087C3.75899 14.7455 3.78791 16.1259 3.91085 17.3118C3.99067 18.0818 4.10747 18.7394 4.27143 19.2596C4.43876 19.7904 4.63272 20.1046 4.81639 20.2679C5.31097 20.7075 5.99426 20.9706 7.15137 21.1089C8.32187 21.2487 9.85987 21.25 12.0001 21.25C14.1403 21.25 15.6783 21.2487 16.8488 21.1089C18.0059 20.9706 18.6892 20.7075 19.1838 20.2679C19.3675 20.1046 19.5614 19.7904 19.7288 19.2596C19.8927 18.7394 20.0095 18.0818 20.0893 17.3118C20.2123 16.1259 20.2412 14.7455 20.248 13.3087L15.2501 14.808V15.1615C15.2501 15.6726 14.9389 16.1322 14.4643 16.3221L13.7642 16.6021C12.6317 17.0551 11.3684 17.0551 10.236 16.6021L9.53585 16.3221C9.06128 16.1323 8.75009 15.6726 8.75009 15.1615V14.808L3.75218 13.3087ZM8.75009 13.242L3.35766 11.6242C3.14225 11.5596 3.01775 11.5218 2.92649 11.4873C2.87054 11.4661 2.84827 11.4536 2.84248 11.45C2.8101 11.4237 2.78482 11.3897 2.76893 11.3512C2.76714 11.3446 2.76161 11.3197 2.7574 11.26C2.75052 11.1627 2.75009 11.0326 2.75009 10.8077C2.75009 9.95153 2.75068 9.35474 2.7888 8.89019C2.82619 8.43445 2.89589 8.17271 2.99738 7.97451C3.21254 7.55432 3.55441 7.21245 3.9746 6.99729C4.17281 6.89579 4.43454 6.82609 4.89028 6.7887C5.35484 6.75059 5.95163 6.75 6.80775 6.75H17.1924C18.0486 6.75 18.6454 6.75059 19.1099 6.7887C19.5656 6.82609 19.8274 6.89579 20.0256 6.99729C20.4458 7.21245 20.7876 7.55432 21.0028 7.97451C21.1043 8.17271 21.174 8.43445 21.2114 8.89019C21.2495 9.35474 21.2501 9.95153 21.2501 10.8077C21.2501 11.0326 21.2497 11.1627 21.2428 11.26C21.2386 11.3197 21.2331 11.3446 21.2313 11.3512C21.2154 11.3897 21.1901 11.4237 21.1577 11.45C21.1519 11.4536 21.1297 11.4661 21.0737 11.4873C20.9824 11.5218 20.8579 11.5596 20.6425 11.6242L15.2501 13.242V13C15.2501 12.3096 14.6904 11.75 14.0001 11.75H10.0001C9.30974 11.75 8.75009 12.3096 8.75009 13V13.242ZM21.1593 11.4489L21.1577 11.45L21.1593 11.4489ZM21.2307 11.3531L21.2313 11.3512L21.2307 11.3531ZM2.76952 11.3531L2.76893 11.3512L2.76952 11.3531ZM2.84084 11.4489L2.84248 11.45L2.84084 11.4489ZM10.2501 13.25V14.9922L10.7931 15.2094C11.5679 15.5194 12.4323 15.5194 13.2071 15.2094L13.7501 14.9922V13.25H10.2501Z" fill="#896FCA"/>
<path fill-rule="evenodd" clip-rule="evenodd" d="M12.0003 2.75C11.0218 2.75 10.1874 3.37503 9.87812 4.24993C9.74009 4.64047 9.31159 4.84517 8.92106 4.70713C8.53052 4.56909 8.32583 4.1406 8.46386 3.75007C8.9783 2.29459 10.3663 1.25 12.0003 1.25C13.6342 1.25 15.0223 2.29459 15.5367 3.75007C15.6747 4.1406 15.4701 4.56909 15.0795 4.70713C14.689 4.84517 14.2605 4.64047 14.1224 4.24993C13.8132 3.37503 12.9788 2.75 12.0003 2.75Z" fill="#896FCA"/>
<path d="M22.3397 12.6089C22.7236 12.7646 23.161 12.5797 23.3167 12.1959C23.4724 11.812 23.2875 11.3747 22.9037 11.2189L22.6217 11.9139L22.3397 12.6089ZM22.2087 10.937C21.8249 10.7812 21.3875 10.9661 21.2318 11.35C21.076 11.7338 21.2609 12.1712 21.6448 12.3269L21.9267 11.6319L22.2087 10.937ZM4.07603 11.8398C4.19506 11.443 3.96992 11.0249 3.57318 10.9059C3.17643 10.7869 2.75832 11.012 2.63929 11.4087L3.35766 11.6242L4.07603 11.8398ZM2.52657 11.7845C2.40755 12.1812 2.63268 12.5993 3.02943 12.7184C3.42617 12.8374 3.84429 12.6123 3.96331 12.2155L3.24494 12L2.52657 11.7845ZM2.42253 12.0714C2.76572 12.3034 3.23195 12.2132 3.46388 11.87C3.69581 11.5268 3.60562 11.0606 3.26243 10.8286L2.84248 11.45L2.42253 12.0714ZM3.4848 11.1275C3.36128 10.7321 2.94063 10.5118 2.54527 10.6353C2.1499 10.7588 1.92953 11.1795 2.05306 11.5748L2.76893 11.3512L3.4848 11.1275ZM21.9473 11.5742C22.0705 11.1787 21.8498 10.7583 21.4543 10.6351C21.0588 10.5119 20.6384 10.7327 20.5152 11.1281L21.2313 11.3512L21.9473 11.5742ZM20.7374 10.8288C20.3944 11.061 20.3044 11.5272 20.5365 11.8703C20.7687 12.2134 21.2349 12.3033 21.578 12.0712L21.1577 11.45L20.7374 10.8288ZM21.5796 12.0701C21.9227 11.838 22.0126 11.3717 21.7805 11.0286C21.5484 10.6856 21.0821 10.5956 20.7391 10.8277L21.1593 11.4489L21.5796 12.0701ZM20.5146 11.13C20.3914 11.5255 20.6121 11.9459 21.0076 12.0691C21.4031 12.1923 21.8235 11.9716 21.9467 11.5761L21.2307 11.3531L20.5146 11.13ZM2.05365 11.5767C2.17717 11.9721 2.59782 12.1925 2.99318 12.0689C3.38855 11.9454 3.60892 11.5248 3.48539 11.1294L2.76952 11.3531L2.05365 11.5767ZM3.26079 10.8275C2.9176 10.5956 2.45137 10.6858 2.21944 11.029C1.98751 11.3722 2.0777 11.8384 2.42089 12.0703L2.84084 11.4489L3.26079 10.8275ZM21.9267 11.6319L21.6448 12.3269L22.3397 12.6089L22.6217 11.9139L22.9037 11.2189L22.2087 10.937L21.9267 11.6319ZM3.35766 11.6242L2.63929 11.4087L2.52657 11.7845L3.24494 12L3.96331 12.2155L4.07603 11.8398L3.35766 11.6242ZM21.1593 11.4489L20.7391 10.8277L20.7374 10.8288L21.1577 11.45L21.578 12.0712L21.5796 12.0701L21.1593 11.4489ZM21.2307 11.3531L21.9467 11.5761L21.9473 11.5742L21.2313 11.3512L20.5152 11.1281L20.5146 11.13L21.2307 11.3531ZM2.76952 11.3531L3.48539 11.1294L3.4848 11.1275L2.76893 11.3512L2.05306 11.5748L2.05365 11.5767L2.76952 11.3531ZM2.84084 11.4489L2.42089 12.0703L2.42253 12.0714L2.84248 11.45L3.26243 10.8286L3.26079 10.8275L2.84084 11.4489ZM6.7755 5.25L6.77549 6.75H6.7755V5.25ZM17.2247 5.25V6.75H17.2247L17.2247 5.25ZM19.2326 5.29373L19.1099 6.7887V6.7887L19.2326 5.29373ZM20.7092 5.66214L21.3929 4.327V4.327L20.7092 5.66214ZM22.338 7.29084L23.6731 6.60718L23.6731 6.60718L22.338 7.29084ZM22.7064 8.76754L24.2013 8.64488V8.64488L22.7064 8.76754ZM22.7501 10.7754L21.2501 10.7754V10.7754H22.7501ZM22.7503 10.894L24.2503 10.8897V10.8897L22.7503 10.894ZM22.6217 11.9139L21.2318 11.35V11.35L22.6217 11.9139ZM22.0962 12.6201L21.1567 11.4508L21.1567 11.4509L22.0962 12.6201ZM21.7496 12.8293L21.1246 11.4657L20.2514 11.866L20.2496 12.8266L21.7496 12.8293ZM21.5813 17.4664L20.0893 17.3118V17.3118L21.5813 17.4664ZM21.1594 19.7105L22.59 20.1615V20.1615L21.1594 19.7105ZM20.1803 21.389L19.1838 20.2679L19.1838 20.2679L20.1803 21.389ZM17.0268 22.5983L16.8488 21.1089L16.8488 21.1089L17.0268 22.5983ZM12.0513 22.75L12.0513 21.25H12.0513V22.75ZM11.9489 22.75V21.25H11.9489L11.9489 22.75ZM6.97337 22.5983L7.15137 21.1089L7.15137 21.1089L6.97337 22.5983ZM3.81984 21.389L2.82329 22.5101H2.82329L3.81984 21.389ZM2.84083 19.7105L1.41023 20.1615H1.41023L2.84083 19.7105ZM2.41884 17.4664L0.926839 17.6211V17.6211L2.41884 17.4664ZM2.25058 12.8293L3.75058 12.8266L3.74883 11.866L2.87555 11.4657L2.25058 12.8293ZM1.90394 12.6201L2.8435 11.4509L2.8435 11.4508L1.90394 12.6201ZM1.37848 11.9139L-0.0114726 12.4778H-0.0114723L1.37848 11.9139ZM1.24993 10.894L-0.250068 10.8897V10.8897L1.24993 10.894ZM1.25009 10.8077H2.75009V10.8076L1.25009 10.8077ZM1.25009 10.7754L2.75009 10.7754V10.7754L1.25009 10.7754ZM1.29382 8.76754L-0.201158 8.64488V8.64488L1.29382 8.76754ZM1.66224 7.29084L2.99738 7.97451L1.66224 7.29084ZM3.29094 5.66214L3.9746 6.99729H3.9746L3.29094 5.66214ZM4.76763 5.29373L4.64497 3.79875V3.79875L4.76763 5.29373ZM3.91085 17.3118L5.40285 17.1571V17.1571L3.91085 17.3118ZM3.75218 13.3087L4.18321 11.8719L2.24261 11.2897L2.2522 13.3158L3.75218 13.3087ZM4.27143 19.2596L2.84083 19.7105H2.84083L4.27143 19.2596ZM4.81639 20.2679L5.81293 19.1468L5.81293 19.1468L4.81639 20.2679ZM7.15137 21.1089L6.97337 22.5983H6.97337L7.15137 21.1089ZM16.8488 21.1089L17.0268 22.5983H17.0268L16.8488 21.1089ZM19.1838 20.2679L20.1803 21.389L20.1803 21.389L19.1838 20.2679ZM19.7288 19.2596L18.2982 18.8086V18.8086L19.7288 19.2596ZM20.0893 17.3118L18.5973 17.1571V17.1571L20.0893 17.3118ZM20.248 13.3087L21.748 13.3158L21.7576 11.2897L19.817 11.8719L20.248 13.3087ZM15.2501 14.808L14.8191 13.3713L13.7501 13.692V14.808H15.2501ZM14.4643 16.3221L15.0214 17.7148H15.0214L14.4643 16.3221ZM13.7642 16.6021L14.3213 17.9948V17.9948L13.7642 16.6021ZM10.236 16.6021L9.6789 17.9948H9.6789L10.236 16.6021ZM9.53585 16.3221L10.0929 14.9294L10.0929 14.9294L9.53585 16.3221ZM8.75009 14.808H10.2501V13.692L9.18111 13.3713L8.75009 14.808ZM8.75009 13.242L8.31907 14.6787L10.2501 15.258V13.242H8.75009ZM3.35766 11.6242L3.78869 10.1875L3.78868 10.1875L3.35766 11.6242ZM2.92649 11.4873L2.3953 12.8901L2.39532 12.8901L2.92649 11.4873ZM2.84248 11.45L2.00258 12.6928L2.02564 12.7084L2.04927 12.7231L2.84248 11.45ZM2.76893 11.3512L1.32156 11.745L1.32887 11.7719L1.33719 11.7985L2.76893 11.3512ZM2.7574 11.26L1.26113 11.3657L1.26113 11.3657L2.7574 11.26ZM2.7888 8.89019L1.29382 8.76753L1.29382 8.76754L2.7888 8.89019ZM2.99738 7.97451L4.33252 8.65817L4.33252 8.65817L2.99738 7.97451ZM3.9746 6.99729L4.65826 8.33243V8.33243L3.9746 6.99729ZM4.89028 6.7887L4.76763 5.29373V5.29373L4.89028 6.7887ZM19.1099 6.7887L18.9872 8.28368H18.9872L19.1099 6.7887ZM20.0256 6.99729L20.7092 5.66214V5.66214L20.0256 6.99729ZM21.0028 7.97451L19.6677 8.65817L19.6677 8.65817L21.0028 7.97451ZM21.2114 8.89019L22.7064 8.76753V8.76753L21.2114 8.89019ZM21.2428 11.26L19.7465 11.1543L19.7465 11.1544L21.2428 11.26ZM21.2313 11.3512L22.6634 11.7973L22.6715 11.7712L22.6787 11.7449L21.2313 11.3512ZM21.1577 11.45L21.9509 12.7231L21.9749 12.7082L21.9983 12.6924L21.1577 11.45ZM21.0737 11.4873L21.6049 12.8901L21.6049 12.8901L21.0737 11.4873ZM20.6425 11.6242L21.0735 13.061V13.061L20.6425 11.6242ZM15.2501 13.242H13.7501V15.258L15.6811 14.6787L15.2501 13.242ZM21.9999 12.6913C22.6861 12.227 22.8659 11.2945 22.4017 10.6083C21.9374 9.92221 21.0049 9.74233 20.3188 10.2066L21.1593 11.4489L21.9999 12.6913ZM19.7985 10.907C19.5522 11.6979 19.9936 12.5388 20.7846 12.7852C21.5755 13.0316 22.4164 12.5901 22.6628 11.7992L21.2307 11.3531L19.7985 10.907ZM1.33777 11.8004C1.58483 12.5911 2.42612 13.0319 3.21685 12.7848C4.00758 12.5378 4.44832 11.6965 4.20127 10.9057L2.76952 11.3531L1.33777 11.8004ZM3.68074 10.2061C2.99436 9.74225 2.0619 9.92264 1.59804 10.609C1.13417 11.2954 1.31456 12.2279 2.00094 12.6917L2.84084 11.4489L3.68074 10.2061ZM10.2501 14.9922H8.75009V16.0078L9.69301 16.3849L10.2501 14.9922ZM10.2501 13.25V11.75H8.75009V13.25H10.2501ZM10.7931 15.2094L10.236 16.6021V16.6021L10.7931 15.2094ZM13.2071 15.2094L13.7642 16.6021V16.6021L13.2071 15.2094ZM13.7501 14.9922L14.3072 16.3849L15.2501 16.0078V14.9922H13.7501ZM13.7501 13.25H15.2501V11.75H13.7501V13.25ZM9.87812 4.24993L8.46386 3.75007V3.75007L9.87812 4.24993ZM8.46386 3.75007L9.87812 4.24993L8.46386 3.75007ZM15.5367 3.75007L16.951 3.2502V3.2502L15.5367 3.75007ZM15.0795 4.70713L15.5794 6.12139V6.12139L15.0795 4.70713ZM14.1224 4.24993L12.7082 4.7498V4.7498L14.1224 4.24993ZM19.2326 5.29373L19.3552 3.79875C18.747 3.74885 18.0181 3.74999 17.2247 3.75L17.2247 5.25L17.2247 6.75C18.0639 6.74999 18.6519 6.75112 19.1099 6.7887L19.2326 5.29373ZM20.7092 5.66214L21.3929 4.327C20.6999 3.97213 19.9976 3.85146 19.3552 3.79875L19.2326 5.29373L19.1099 6.7887C19.5654 6.82607 19.8272 6.89571 20.0256 6.99729L20.7092 5.66214ZM22.338 7.29084L23.6731 6.60718C23.1711 5.62674 22.3734 4.82904 21.3929 4.327L20.7092 5.66214L20.0256 6.99729C20.4458 7.21245 20.7877 7.55432 21.0028 7.97451L22.338 7.29084ZM22.7064 8.76754L24.2013 8.64488C24.1486 8.00248 24.028 7.30022 23.6731 6.60718L22.338 7.29084L21.0028 7.9745C21.1044 8.17287 21.174 8.43474 21.2114 8.89019L22.7064 8.76754ZM22.7501 10.7754L24.2501 10.7755C24.2501 9.98197 24.2512 9.25309 24.2013 8.64488L22.7064 8.76754L21.2114 8.89019C21.249 9.34823 21.2501 9.93623 21.2501 10.7754L22.7501 10.7754ZM22.7501 10.8077H24.2501V10.7754H22.7501H21.2501V10.8077H22.7501ZM22.7503 10.894L24.2503 10.8897C24.2502 10.8603 24.2501 10.8337 24.2501 10.8077H22.7501H21.2501C21.2501 10.8388 21.2502 10.8698 21.2503 10.8984L22.7503 10.894ZM22.6217 11.9139L24.0117 12.4778C24.2722 11.8358 24.2511 11.1699 24.2503 10.8897L22.7503 10.894L21.2503 10.8984C21.2508 11.0792 21.25 11.1824 21.2417 11.272C21.2341 11.3542 21.2241 11.3689 21.2318 11.35L22.6217 11.9139ZM22.0962 12.6201L23.0358 13.7894C23.4675 13.4425 23.8034 12.991 24.0117 12.4778L22.6217 11.9139L21.2318 11.35C21.2157 11.3894 21.1899 11.4242 21.1567 11.4508L22.0962 12.6201ZM21.7496 12.8293L22.3746 14.1929C22.5798 14.0989 22.8103 13.9706 23.0358 13.7894L22.0962 12.6201L21.1567 11.4509C21.1701 11.4401 21.1657 11.4469 21.1246 11.4657L21.7496 12.8293ZM21.5813 17.4664L23.0733 17.6211C23.2269 16.1402 23.2467 14.4403 23.2496 12.8321L21.7496 12.8293L20.2496 12.8266C20.2467 14.4429 20.2252 16.0014 20.0893 17.3118L21.5813 17.4664ZM21.1594 19.7105L22.59 20.1615C22.8394 19.3701 22.9833 18.4896 23.0733 17.6211L21.5813 17.4664L20.0893 17.3118C20.0095 18.0817 19.8927 18.7394 19.7288 19.2596L21.1594 19.7105ZM20.1803 21.389L21.1769 22.5101C21.9439 21.8283 22.3505 20.9211 22.59 20.1615L21.1594 19.7105L19.7288 19.2596C19.5615 19.7903 19.3675 20.1046 19.1838 20.2679L20.1803 21.389ZM17.0268 22.5983L17.2048 24.0877C18.635 23.9167 20.0245 23.5344 21.1769 22.5101L20.1803 21.389L19.1838 20.2679C18.6893 20.7074 18.0061 20.9706 16.8488 21.1089L17.0268 22.5983ZM12.0513 22.75L12.0513 24.25C14.0932 24.25 15.8255 24.2525 17.2048 24.0877L17.0268 22.5983L16.8488 21.1089C15.6883 21.2475 14.1652 21.25 12.0513 21.25L12.0513 22.75ZM6.97337 22.5983L6.79537 24.0877C8.1747 24.2525 9.90698 24.25 11.9489 24.25L11.9489 22.75L11.9489 21.25C9.83493 21.25 8.31187 21.2475 7.15137 21.1089L6.97337 22.5983ZM3.81984 21.389L2.82329 22.5101C3.97565 23.5344 5.36518 23.9167 6.79538 24.0877L6.97337 22.5983L7.15137 21.1089C5.99412 20.9706 5.3109 20.7074 4.81638 20.2679L3.81984 21.389ZM2.84083 19.7105L1.41023 20.1615C1.64967 20.9211 2.05632 21.8283 2.82329 22.5101L3.81984 21.389L4.81639 20.2679C4.63267 20.1046 4.43873 19.7903 4.27143 19.2596L2.84083 19.7105ZM2.41884 17.4664L0.926839 17.6211C1.01687 18.4896 1.16075 19.3701 1.41023 20.1615L2.84083 19.7105L4.27143 19.2596C4.10745 18.7394 3.99067 18.0817 3.91085 17.3118L2.41884 17.4664ZM2.25058 12.8293L0.750584 12.8321C0.753517 14.4403 0.773315 16.1402 0.926839 17.6211L2.41884 17.4664L3.91085 17.3118C3.775 16.0014 3.75353 14.4429 3.75058 12.8266L2.25058 12.8293ZM1.90394 12.6201L0.964382 13.7894C1.18986 13.9706 1.4204 14.0989 1.62562 14.1929L2.25058 12.8293L2.87555 11.4657C2.83449 11.4469 2.83011 11.4401 2.8435 11.4509L1.90394 12.6201ZM1.37848 11.9139L-0.0114723 12.4778C0.196746 12.991 0.532658 13.4425 0.964387 13.7894L1.90394 12.6201L2.8435 11.4508C2.81029 11.4242 2.78445 11.3894 2.76843 11.35L1.37848 11.9139ZM1.24993 10.894L-0.250068 10.8897C-0.250878 11.1699 -0.271979 11.8358 -0.0114726 12.4778L1.37848 11.9139L2.76843 11.35C2.77613 11.3689 2.7661 11.3542 2.75851 11.272C2.75022 11.1824 2.7494 11.0792 2.74992 10.8984L1.24993 10.894ZM1.25009 10.8077H-0.249907C-0.249907 10.8337 -0.249983 10.8603 -0.250068 10.8897L1.24993 10.894L2.74992 10.8984C2.75 10.8698 2.75009 10.8388 2.75009 10.8077H1.25009ZM1.25009 10.7754L-0.249907 10.7754L-0.249907 10.8077L1.25009 10.8077L2.75009 10.8076L2.75009 10.7754L1.25009 10.7754ZM1.29382 8.76754L-0.201158 8.64488C-0.251058 9.25308 -0.249915 9.98195 -0.249907 10.7754L1.25009 10.7754L2.75009 10.7754C2.75008 9.9362 2.75122 9.34822 2.7888 8.89019L1.29382 8.76754ZM1.66224 7.29084L0.327093 6.60718C-0.027778 7.30022 -0.148452 8.00248 -0.201158 8.64488L1.29382 8.76754L2.7888 8.89019C2.82616 8.43474 2.89581 8.17287 2.99738 7.97451L1.66224 7.29084ZM3.29094 5.66214L2.60728 4.327C1.62683 4.82904 0.829131 5.62674 0.327093 6.60718L1.66224 7.29084L2.99738 7.97451C3.21254 7.55432 3.55441 7.21245 3.9746 6.99729L3.29094 5.66214ZM4.76763 5.29373L4.64497 3.79875C4.00257 3.85146 3.30031 3.97213 2.60728 4.327L3.29094 5.66214L3.9746 6.99729C4.17297 6.89571 4.43483 6.82607 4.89028 6.7887L4.76763 5.29373ZM6.7755 5.25L6.77552 3.75C5.98204 3.74999 5.25317 3.74885 4.64497 3.79875L4.76763 5.29373L4.89028 6.7887C5.34831 6.75112 5.9363 6.74999 6.77549 6.75L6.7755 5.25ZM3.91085 17.3118L5.40285 17.1571C5.28819 16.051 5.25895 14.735 5.25217 13.3015L3.75218 13.3087L2.2522 13.3158C2.25902 14.756 2.28763 16.2007 2.41884 17.4664L3.91085 17.3118ZM4.27143 19.2596L5.70203 18.8086C5.58085 18.4242 5.47759 17.878 5.40285 17.1571L3.91085 17.3118L2.41884 17.4664C2.50376 18.2855 2.63408 19.0547 2.84083 19.7105L4.27143 19.2596ZM4.81639 20.2679L5.81293 19.1468C5.87752 19.2042 5.88091 19.2302 5.84726 19.1699C5.81536 19.1128 5.76232 18.9998 5.70203 18.8086L4.27143 19.2596L2.84083 19.7105C3.04415 20.3555 3.34442 20.9664 3.81984 21.389L4.81639 20.2679ZM7.15137 21.1089L7.32936 19.6195C6.30908 19.4975 5.97875 19.2941 5.81293 19.1468L4.81639 20.2679L3.81984 21.389C4.64318 22.1208 5.67945 22.4436 6.97337 22.5983L7.15137 21.1089ZM12.0001 21.25V19.75C9.82164 19.75 8.38994 19.7462 7.32936 19.6195L7.15137 21.1089L6.97337 22.5983C8.2538 22.7513 9.8981 22.75 12.0001 22.75V21.25ZM16.8488 21.1089L16.6708 19.6195C15.6102 19.7462 14.1785 19.75 12.0001 19.75V21.25V22.75C14.1021 22.75 15.7464 22.7513 17.0268 22.5983L16.8488 21.1089ZM19.1838 20.2679L18.1873 19.1468C18.0214 19.2941 17.6911 19.4975 16.6708 19.6195L16.8488 21.1089L17.0268 22.5983C18.3207 22.4436 19.357 22.1208 20.1803 21.389L19.1838 20.2679ZM19.7288 19.2596L18.2982 18.8086C18.2379 18.9998 18.1848 19.1128 18.1529 19.1699C18.1193 19.2302 18.1227 19.2042 18.1873 19.1468L19.1838 20.2679L20.1803 21.389C20.6558 20.9664 20.956 20.3555 21.1594 19.7105L19.7288 19.2596ZM20.0893 17.3118L18.5973 17.1571C18.5226 17.878 18.4193 18.4242 18.2982 18.8086L19.7288 19.2596L21.1594 19.7106C21.3661 19.0547 21.4964 18.2855 21.5813 17.4664L20.0893 17.3118ZM20.248 13.3087L18.748 13.3015C18.7412 14.735 18.712 16.051 18.5973 17.1571L20.0893 17.3118L21.5813 17.4664C21.7126 16.2007 21.7412 14.756 21.748 13.3158L20.248 13.3087ZM15.2501 14.808L15.6811 16.2448L20.679 14.7454L20.248 13.3087L19.817 11.8719L14.8191 13.3713L15.2501 14.808ZM15.2501 15.1615H16.7501V14.808H15.2501H13.7501V15.1615H15.2501ZM14.4643 16.3221L15.0214 17.7148C16.0655 17.2972 16.7501 16.286 16.7501 15.1615H15.2501H13.7501C13.7501 15.0593 13.8123 14.9673 13.9072 14.9294L14.4643 16.3221ZM13.7642 16.6021L14.3213 17.9948L15.0214 17.7148L14.4643 16.3221L13.9072 14.9294L13.2071 15.2094L13.7642 16.6021ZM10.236 16.6021L9.6789 17.9948C11.169 18.5909 12.8312 18.5909 14.3213 17.9948L13.7642 16.6021L13.2071 15.2094C12.4323 15.5194 11.5679 15.5194 10.7931 15.2094L10.236 16.6021ZM9.53585 16.3221L8.97877 17.7148L9.6789 17.9948L10.236 16.6021L10.7931 15.2094L10.0929 14.9294L9.53585 16.3221ZM8.75009 15.1615H7.25009C7.25009 16.286 7.93471 17.2972 8.97877 17.7148L9.53585 16.3221L10.0929 14.9294C10.1879 14.9673 10.2501 15.0593 10.2501 15.1615H8.75009ZM8.75009 14.808H7.25009V15.1615H8.75009H10.2501V14.808H8.75009ZM3.75218 13.3087L3.32116 14.7454L8.31907 16.2448L8.75009 14.808L9.18111 13.3713L4.18321 11.8719L3.75218 13.3087ZM8.75009 13.242L9.18111 11.8052L3.78869 10.1875L3.35766 11.6242L2.92664 13.061L8.31907 14.6787L8.75009 13.242ZM3.35766 11.6242L3.78868 10.1875C3.55182 10.1165 3.48764 10.0958 3.45765 10.0845L2.92649 11.4873L2.39532 12.8901C2.54787 12.9478 2.73267 13.0028 2.92664 13.061L3.35766 11.6242ZM2.92649 11.4873L3.45767 10.0845C3.45819 10.0847 3.47416 10.0907 3.50099 10.1032C3.52426 10.1141 3.57343 10.1381 3.63568 10.1769L2.84248 11.45L2.04927 12.7231C2.17158 12.7993 2.29452 12.8519 2.3953 12.8901L2.92649 11.4873ZM2.84248 11.45L3.78818 10.2857C3.95005 10.4172 4.07647 10.5871 4.1559 10.7799L2.76893 11.3512L1.38196 11.9224C1.49316 12.1924 1.67015 12.4303 1.89678 12.6143L2.84248 11.45ZM2.76893 11.3512L4.21631 10.9573C4.23555 11.0281 4.2444 11.082 4.24814 11.1074C4.25244 11.1367 4.25363 11.1538 4.25367 11.1543L2.7574 11.26L1.26113 11.3657C1.26872 11.4732 1.28374 11.606 1.32156 11.745L2.76893 11.3512ZM2.7574 11.26L4.25367 11.1543C4.25141 11.1224 4.25009 11.055 4.25009 10.8077H2.75009H1.25009C1.25009 11.0102 1.24963 11.203 1.26113 11.3657L2.7574 11.26ZM2.75009 10.8077H4.25009C4.25009 9.92618 4.25187 9.40172 4.28377 9.01285L2.7888 8.89019L1.29382 8.76754C1.24949 9.30777 1.25009 9.97689 1.25009 10.8077H2.75009ZM2.7888 8.89019L4.28377 9.01285C4.31356 8.64982 4.35789 8.60862 4.33252 8.65817L2.99738 7.97451L1.66224 7.29084C1.43388 7.73681 1.33882 8.21908 1.29382 8.76753L2.7888 8.89019ZM2.99738 7.97451L4.33252 8.65817C4.40424 8.51811 4.5182 8.40415 4.65826 8.33243L3.9746 6.99729L3.29094 5.66214C2.59062 6.02074 2.02083 6.59053 1.66224 7.29085L2.99738 7.97451ZM3.9746 6.99729L4.65826 8.33243C4.60871 8.3578 4.64992 8.31346 5.01294 8.28368L4.89028 6.7887L4.76763 5.29373C4.21917 5.33872 3.7369 5.43379 3.29094 5.66214L3.9746 6.99729ZM4.89028 6.7887L5.01294 8.28368C5.40181 8.25177 5.92627 8.25 6.80775 8.25V6.75V5.25C5.97698 5.25 5.30786 5.2494 4.76763 5.29373L4.89028 6.7887ZM6.80775 6.75V8.25H17.1924V6.75V5.25H6.80775V6.75ZM17.1924 6.75V8.25C18.0739 8.25 18.5984 8.25177 18.9872 8.28368L19.1099 6.7887L19.2326 5.29373C18.6923 5.2494 18.0232 5.25 17.1924 5.25V6.75ZM19.1099 6.7887L18.9872 8.28368C19.3503 8.31346 19.3915 8.3578 19.3419 8.33243L20.0256 6.99729L20.7092 5.66214C20.2633 5.43379 19.781 5.33873 19.2326 5.29373L19.1099 6.7887ZM20.0256 6.99729L19.3419 8.33243C19.482 8.40415 19.5959 8.51811 19.6677 8.65817L21.0028 7.97451L22.338 7.29085C21.9794 6.59053 21.4096 6.02074 20.7092 5.66214L20.0256 6.99729ZM21.0028 7.97451L19.6677 8.65817C19.6423 8.60862 19.6866 8.64983 19.7164 9.01285L21.2114 8.89019L22.7064 8.76753C22.6614 8.21908 22.5663 7.73681 22.3379 7.29085L21.0028 7.97451ZM21.2114 8.89019L19.7164 9.01285C19.7483 9.40172 19.7501 9.92617 19.7501 10.8077H21.2501H22.7501C22.7501 9.97689 22.7507 9.30777 22.7064 8.76753L21.2114 8.89019ZM21.2501 10.8077H19.7501C19.7501 11.055 19.7488 11.1223 19.7465 11.1543L21.2428 11.26L22.7391 11.3657C22.7506 11.203 22.7501 11.0102 22.7501 10.8077H21.2501ZM21.2428 11.26L19.7465 11.1544C19.7466 11.1538 19.7477 11.1368 19.752 11.1075C19.7558 11.0821 19.7646 11.0281 19.7839 10.9574L21.2313 11.3512L22.6787 11.7449C22.7165 11.6059 22.7315 11.4731 22.7391 11.3656L21.2428 11.26ZM21.2313 11.3512L19.8443 10.78C19.9237 10.5871 20.0501 10.4172 20.212 10.2857L21.1577 11.45L22.1034 12.6143C22.33 12.4303 22.507 12.1924 22.6182 11.9224L21.2313 11.3512ZM21.1577 11.45L20.3645 10.1769C20.4267 10.1381 20.4759 10.1142 20.4992 10.1033C20.526 10.0907 20.542 10.0847 20.5425 10.0845L21.0737 11.4873L21.6049 12.8901C21.7057 12.8519 21.8286 12.7993 21.9509 12.7231L21.1577 11.45ZM21.0737 11.4873L20.5425 10.0845C20.5125 10.0958 20.4484 10.1164 20.2115 10.1875L20.6425 11.6242L21.0735 13.061C21.2675 13.0028 21.4523 12.9478 21.6049 12.8901L21.0737 11.4873ZM20.6425 11.6242L20.2115 10.1875L14.8191 11.8052L15.2501 13.242L15.6811 14.6787L21.0735 13.061L20.6425 11.6242ZM15.2501 13.242H16.7501V13H15.2501H13.7501V13.242H15.2501ZM15.2501 13H16.7501C16.7501 11.4812 15.5189 10.25 14.0001 10.25V11.75V13.25C13.862 13.25 13.7501 13.1381 13.7501 13H15.2501ZM14.0001 11.75V10.25H10.0001V11.75V13.25H14.0001V11.75ZM10.0001 11.75V10.25C8.48131 10.25 7.25009 11.4812 7.25009 13H8.75009H10.2501C10.2501 13.1381 10.1382 13.25 10.0001 13.25V11.75ZM8.75009 13H7.25009V13.242H8.75009H10.2501V13H8.75009ZM21.1593 11.4489L20.3188 10.2066L20.3171 10.2077L21.1577 11.45L21.9983 12.6924L21.9999 12.6913L21.1593 11.4489ZM21.2307 11.3531L22.6628 11.7992L22.6634 11.7973L21.2313 11.3512L19.7991 10.9051L19.7985 10.907L21.2307 11.3531ZM2.76952 11.3531L4.20127 10.9057L4.20068 10.9038L2.76893 11.3512L1.33719 11.7985L1.33777 11.8004L2.76952 11.3531ZM2.84084 11.4489L2.00094 12.6917L2.00258 12.6928L2.84248 11.45L3.68238 10.2072L3.68074 10.2061L2.84084 11.4489ZM10.2501 14.9922H11.7501V13.25H10.2501H8.75009V14.9922H10.2501ZM10.7931 15.2094L11.3502 13.8167L10.8072 13.5995L10.2501 14.9922L9.69301 16.3849L10.236 16.6021L10.7931 15.2094ZM13.2071 15.2094L12.65 13.8167C12.2328 13.9836 11.7674 13.9836 11.3502 13.8167L10.7931 15.2094L10.236 16.6021C11.3684 17.0551 12.6317 17.0551 13.7642 16.6021L13.2071 15.2094ZM13.7501 14.9922L13.193 13.5995L12.65 13.8167L13.2071 15.2094L13.7642 16.6021L14.3072 16.3849L13.7501 14.9922ZM13.7501 13.25H12.2501V14.9922H13.7501H15.2501V13.25H13.7501ZM10.2501 13.25V14.75H13.7501V13.25V11.75H10.2501V13.25ZM17.2247 5.25V3.75H6.7755V5.25V6.75H17.2247V5.25ZM11.9489 22.75V24.25H12.0513V22.75V21.25H11.9489V22.75ZM9.87812 4.24993L11.2924 4.7498C11.396 4.45652 11.6762 4.25 12.0003 4.25V2.75V1.25C10.3674 1.25 8.97867 2.29354 8.46386 3.75007L9.87812 4.24993ZM8.92106 4.70713L8.42119 6.12139C9.5928 6.53549 10.8783 5.92142 11.2924 4.7498L9.87812 4.24993L8.46386 3.75007C8.6019 3.35953 9.03039 3.15484 9.42093 3.29287L8.92106 4.70713ZM8.46386 3.75007L7.0496 3.2502C6.6355 4.42181 7.24958 5.70728 8.42119 6.12139L8.92106 4.70713L9.42093 3.29287C9.81146 3.43091 10.0162 3.8594 9.87812 4.24993L8.46386 3.75007ZM12.0003 1.25V-0.25C9.71024 -0.25 7.76902 1.21477 7.0496 3.2502L8.46386 3.75007L9.87812 4.24993C10.1876 3.3744 11.0224 2.75 12.0003 2.75V1.25ZM15.5367 3.75007L16.951 3.2502C16.2316 1.21477 14.2903 -0.25 12.0003 -0.25V1.25V2.75C12.9781 2.75 13.813 3.3744 14.1224 4.24993L15.5367 3.75007ZM15.0795 4.70713L15.5794 6.12139C16.751 5.70728 17.3651 4.42181 16.951 3.2502L15.5367 3.75007L14.1224 4.24993C13.9844 3.8594 14.1891 3.43091 14.5796 3.29287L15.0795 4.70713ZM14.1224 4.24993L12.7082 4.7498C13.1223 5.92141 14.4078 6.53549 15.5794 6.12139L15.0795 4.70713L14.5796 3.29287C14.9702 3.15484 15.3987 3.35953 15.5367 3.75006L14.1224 4.24993ZM12.0003 2.75V4.25C12.3244 4.25 12.6045 4.45652 12.7082 4.7498L14.1224 4.24993L15.5367 3.75007C15.0219 2.29354 13.6331 1.25 12.0003 1.25V2.75Z" fill="#896FCA" mask="url(#path-1-inside-1_1_21236)"/>
</svg>