<svg viewBox="0 0 24 24" fill="none" xmlns="http://www.w3.org/2000/svg">
<path fill-rule="evenodd" clip-rule="evenodd" d="M18.8231 2.81493C18.4753 2.92884 18.0048 3.15967 17.2784 3.5194L16.9139 3.69986C16.888 3.7127 16.862 3.72568 16.8358 3.73873C16.5173 3.89761 16.1805 4.06557 15.8068 4.08528C15.428 4.10527 15.0788 3.96978 14.7559 3.8445C14.7295 3.83425 14.7032 3.82407 14.6772 3.81404L14.3084 3.67227C13.5718 3.38906 13.1005 3.21009 12.7546 3.13402C12.5901 3.09786 12.5017 3.09682 12.4595 3.10154C12.4464 3.103 12.4396 3.10483 12.4372 3.10557C12.4369 3.1058 12.4365 3.10612 12.4359 3.10656C12.4349 3.10732 12.4343 3.10784 12.434 3.10813C12.4337 3.10866 12.4326 3.11024 12.431 3.1133C12.4291 3.11695 12.4262 3.12318 12.4226 3.13276C12.4068 3.17543 12.3859 3.26435 12.3802 3.43515C12.3684 3.79372 12.4249 4.30008 12.5161 5.08928L12.5618 5.48466C12.565 5.51246 12.5683 5.54043 12.5716 5.56855C12.6128 5.916 12.6568 6.28678 12.5458 6.64826C12.436 7.00563 12.1936 7.29172 11.9621 7.56502C11.9433 7.58721 11.9245 7.60931 11.906 7.63137L11.643 7.94338C11.1192 8.5651 10.7813 8.969 10.5859 9.28198C10.4906 9.4345 10.4587 9.51988 10.4487 9.56064C10.4816 9.58277 10.5527 9.62019 10.6955 9.66615C11.0315 9.77427 11.5327 9.85793 12.3172 9.9856L12.7099 10.0495C12.7382 10.0541 12.7668 10.0587 12.7956 10.0633C13.137 10.1177 13.5117 10.1774 13.8262 10.3866C14.1425 10.5971 14.3402 10.9202 14.5186 11.2118C14.5336 11.2364 14.5485 11.2607 14.5633 11.2848L14.7696 11.6194C15.1821 12.2885 15.4462 12.7129 15.6719 12.9778C15.7784 13.1029 15.8439 13.1522 15.8741 13.1698C15.8779 13.1677 15.8828 13.1646 15.8889 13.1603C15.9289 13.1324 16.0001 13.0681 16.1069 12.9269C16.3299 12.6323 16.5857 12.174 16.9782 11.4649L17.1751 11.109C17.1889 11.0841 17.2027 11.0591 17.2165 11.0339C17.3893 10.7199 17.569 10.3931 17.8637 10.1617C18.1592 9.92977 18.5192 9.83379 18.8636 9.74197C18.8911 9.73462 18.9186 9.7273 18.9459 9.71994L19.3363 9.61473C20.1144 9.405 20.6166 9.26768 20.9537 9.12237C21.1149 9.05287 21.1939 8.99934 21.2305 8.96707C21.2387 8.95982 21.2439 8.95444 21.2469 8.95105C21.2476 8.95021 21.2483 8.94947 21.2488 8.94883C21.2483 8.94661 21.2476 8.94384 21.2467 8.94046C21.2369 8.90522 21.2052 8.82811 21.1106 8.69243C20.9114 8.40672 20.5685 8.04434 20.0267 7.47674L19.7558 7.19289C19.7364 7.17259 19.7168 7.15214 19.697 7.13151C19.46 6.88491 19.1984 6.61268 19.0743 6.25315C18.9516 5.89742 18.9858 5.52029 19.0174 5.17247C19.02 5.1433 19.0226 5.11433 19.0252 5.0856L19.0602 4.68596C19.1301 3.88816 19.1729 3.37591 19.1514 3.01914C19.1424 2.86934 19.124 2.78936 19.1106 2.75007C19.0676 2.75133 18.9805 2.76339 18.8231 2.81493ZM19.1459 2.75327C19.1455 2.75371 19.1414 2.75329 19.1349 2.75068C19.143 2.75152 19.1463 2.75282 19.1459 2.75327ZM19.1016 2.72766C19.0963 2.72188 19.0943 2.71769 19.0946 2.71704C19.0949 2.71639 19.0976 2.71929 19.1016 2.72766ZM10.4238 9.53874C10.4246 9.53858 10.4284 9.54179 10.4328 9.54887C10.4252 9.54244 10.423 9.5389 10.4238 9.53874ZM10.4449 9.58037C10.446 9.58702 10.4456 9.59091 10.4451 9.59118C10.4446 9.59145 10.444 9.58812 10.4449 9.58037ZM18.3563 1.38941C18.832 1.23364 19.4171 1.13884 19.9498 1.49326C20.4876 1.85109 20.6187 2.43061 20.6487 2.9289C20.6777 3.41068 20.6229 4.03615 20.5596 4.7583L20.5194 5.2165C20.4992 5.44758 20.4883 5.57768 20.4876 5.67548C20.4872 5.73155 20.4907 5.75596 20.4922 5.76352C20.4958 5.7703 20.5074 5.78975 20.5386 5.82839C20.5975 5.90138 20.6838 5.9926 20.8409 6.15722L21.1531 6.48434C21.6413 6.99577 22.0675 7.44217 22.341 7.83454C22.6303 8.24945 22.8719 8.77649 22.6845 9.38691C22.5005 9.98613 22.0142 10.2986 21.5475 10.4998C21.0985 10.6934 20.489 10.8576 19.7816 11.0482L19.3362 11.1683C19.1109 11.229 18.9829 11.264 18.8883 11.2976C18.8059 11.3269 18.7903 11.3413 18.79 11.3416C18.7663 11.3602 18.7341 11.3899 18.4875 11.8354L18.2631 12.241C17.9059 12.8863 17.5988 13.4413 17.303 13.8321C16.9972 14.2362 16.5769 14.6381 15.9492 14.6712C15.85 14.6765 15.7554 14.672 15.6651 14.6594C15.5458 15.0025 15.4245 15.4291 15.3093 15.9265C15.0515 17.039 14.8327 18.4667 14.7275 20.0301C14.6278 21.5116 13.418 22.75 11.8718 22.75H3.7166C2.95485 22.75 2.23935 22.4395 1.77165 21.9012C1.28966 21.3465 1.09584 20.5702 1.38615 19.7744C2.11686 17.7714 3.39663 15.6878 4.96376 13.9034C6.20232 12.4931 7.64441 11.2425 9.17233 10.3653C9.11339 10.2734 9.06304 10.1711 9.02365 10.057C8.81631 9.45628 9.04737 8.91383 9.31348 8.48759C9.5727 8.07241 9.98252 7.58609 10.4592 7.02042C10.4714 7.00594 10.4837 6.99141 10.496 6.97683L10.7589 6.66482C10.9105 6.4849 10.9969 6.38161 11.0562 6.29901C11.083 6.26176 11.0967 6.23893 11.1038 6.22559C11.1101 6.21385 11.1115 6.20911 11.1119 6.20796C11.1122 6.20689 11.1134 6.20311 11.1146 6.19183C11.1159 6.17873 11.1173 6.15436 11.1158 6.11102C11.1124 6.01382 11.0981 5.8856 11.0717 5.6569L11.026 5.26152C11.0238 5.24223 11.0215 5.22301 11.0193 5.20387C10.9367 4.48916 10.865 3.86965 10.8811 3.38547C10.8979 2.87653 11.0156 2.31453 11.5097 1.92668C12.0059 1.53713 12.58 1.55978 13.0768 1.66903C13.5474 1.77253 14.1262 1.99513 14.7919 2.2511L14.8467 2.27218L15.2155 2.41395C15.429 2.49606 15.548 2.54119 15.6397 2.5681C15.6805 2.58005 15.7034 2.5845 15.7152 2.58624C15.7209 2.58707 15.724 2.58729 15.7253 2.58735L15.7278 2.58737L15.7312 2.58698C15.7331 2.58668 15.737 2.58597 15.7436 2.5843C15.7575 2.58078 15.7822 2.57321 15.8243 2.55628C15.9179 2.51867 16.038 2.45976 16.2483 2.35564L16.6643 2.14965C17.3244 1.82271 17.8929 1.54116 18.3563 1.38941ZM10.7614 11.2317C9.12352 11.9801 7.49263 13.2971 6.09082 14.8932C4.62838 16.5584 3.45355 18.4841 2.79531 20.2884C2.70267 20.5424 2.75879 20.7503 2.90397 20.9174C3.06345 21.101 3.35236 21.25 3.7166 21.25H4.83733C4.86931 21.0902 4.9088 20.9242 4.95365 20.7553C5.07868 20.2844 5.25879 19.7419 5.48327 19.1605C5.93214 17.9981 6.5705 16.6494 7.33614 15.3641C8.09902 14.0834 9.00612 12.8355 10.0012 11.8981C10.2524 11.6614 10.5157 11.4385 10.7897 11.2378C10.7802 11.2358 10.7708 11.2338 10.7614 11.2317ZM12.5832 11.9318C12.0975 12.123 11.576 12.4752 11.0297 12.9899C10.1728 13.7972 9.34802 14.9177 8.62482 16.1318C7.90437 17.3412 7.30246 18.6135 6.88257 19.7009C6.67268 20.2444 6.51128 20.734 6.40341 21.1403C6.39342 21.1779 6.38398 21.2145 6.37508 21.25H9.12584C9.24478 20.0732 9.60809 18.3919 10.1768 16.7077C10.7398 15.0409 11.5386 13.2651 12.5832 11.9318ZM10.6344 21.25H11.8718C12.5775 21.25 13.1807 20.6755 13.2309 19.9294C13.341 18.2935 13.5704 16.7857 13.848 15.5879C13.9867 14.9895 14.1396 14.4586 14.2998 14.0227C14.3298 13.941 14.361 13.8602 14.3933 13.7811C14.1951 13.5234 13.9894 13.2064 13.7679 12.8513C12.8869 13.9733 12.1479 15.5592 11.598 17.1877C11.0728 18.7427 10.7522 20.2382 10.6344 21.25ZM20.4922 5.76352C20.4927 5.76489 20.493 5.76614 20.4929 5.76624L20.4922 5.76352Z" fill="#896FCA"/>
</svg>