<svg viewBox="0 0 24 24" fill="none" xmlns="http://www.w3.org/2000/svg">
<g clip-path="url(#clip0_12_7010)">
<path d="M6.72362 11.6433C9.20742 12.3088 10.9789 11.286 11.6445 8.80223M6.72362 11.6433C4.23981 10.9777 3.21704 9.20624 3.88257 6.72243M6.72362 11.6433L6.0994 13.9718M11.6445 8.80223C12.31 6.31843 11.2872 4.54692 8.80342 3.88139M11.6445 8.80223L13.9728 9.4261M3.88257 6.72243C4.54811 4.23862 6.31961 3.21585 8.80342 3.88139M3.88257 6.72243L1.55371 6.09843M8.80342 3.88139L9.42707 1.55273M4.54898 2.19471L5.65927 4.1178M13.3309 4.54784L11.4078 5.65813M2.19583 10.9768L4.11892 9.86647M10.9778 13.3299L9.86748 11.4068" stroke="#896FCA" stroke-width="1.5" stroke-linecap="round"/>
<path d="M16.544 20.8084C18.2751 21.8078 19.8111 21.3963 20.8104 19.6651M16.544 20.8084C14.8129 19.8089 14.4014 18.273 15.4008 16.5419M16.544 20.8084L15.8579 21.9961M20.8104 19.6651C21.8099 17.9341 21.3983 16.3982 19.6672 15.3987M20.8104 19.6651L21.9982 20.3509M15.4008 16.5419C16.4003 14.8108 17.9362 14.3993 19.6672 15.3987M15.4008 16.5419L14.2126 15.8559M19.6672 15.3987L20.3528 14.2106M21.2614 17.2579L22.4471 16.9402M13.7637 19.2667L14.9494 18.949M18.9511 21.2592L19.2688 22.445M16.942 13.7617L17.2597 14.9475" stroke="#896FCA" stroke-width="1.5" stroke-linecap="round"/>
<path d="M9.39717 20.2637L8.26074 21.4001" stroke="#896FCA" stroke-width="1.5" stroke-linecap="round"/>
<path d="M18.1398 2.1787L16.6597 1.55273" stroke="#896FCA" stroke-width="1.5" stroke-linecap="round"/>
<path d="M19.6611 9.17697C20.5963 9.42755 21.2632 9.04245 21.5139 8.10725C21.7645 7.17204 21.3794 6.50503 20.4442 6.25444C19.5089 6.00386 18.8419 6.38896 18.5913 7.32416C18.3408 8.25937 18.7259 8.92636 19.6611 9.17697Z" stroke="#896FCA" stroke-width="1.5" stroke-linecap="round" stroke-linejoin="round"/>
<path d="M3.04828 20.0755C3.98348 20.326 4.65049 19.9409 4.90108 19.0057C5.15166 18.0705 4.76656 17.4034 3.83136 17.1529C2.89615 16.9023 2.22915 17.2874 1.97856 18.2226C1.72798 19.1578 2.11307 19.8247 3.04828 20.0755Z" stroke="#896FCA" stroke-width="1.5" stroke-linecap="round" stroke-linejoin="round"/>
</g>
<defs>
<clipPath id="clip0_12_7010">
<rect width="24" height="24" fill="white"/>
</clipPath>
</defs>
</svg>