<svg viewBox="0 0 24 24" fill="none" xmlns="http://www.w3.org/2000/svg">
<path d="M14.7862 2.04883C11.9741 2.69005 11.9741 5.25494 11.9741 5.25494V6.67599" stroke="#896FCA" stroke-width="1.5" stroke-linecap="round" stroke-linejoin="round"/>
<path d="M8.17294 5.36523C9.48356 5.36523 10.5641 5.92721 11.2442 6.52497C11.5304 6.77641 12.47 6.77641 12.7562 6.52497C13.4363 5.92721 14.5169 5.36523 15.8275 5.36523C17.927 5.36523 21.9511 6.8074 21.9511 12.576C21.9511 17.3277 18.5613 21.95 15.062 21.95C14.1678 21.95 13.4428 21.7174 12.9031 21.3845C12.411 21.0807 11.5894 21.0807 11.0973 21.3845C10.5576 21.7174 9.83265 21.95 8.93839 21.95C5.43918 21.95 2.04932 17.3277 2.04932 12.576C2.04932 6.8074 6.07341 5.36523 8.17294 5.36523Z" stroke="#896FCA" stroke-width="1.5" stroke-linecap="round" stroke-linejoin="round"/>
</svg>