<svg viewBox="0 0 24 24" fill="none" xmlns="http://www.w3.org/2000/svg">
<g clip-path="url(#clip0_12_7030)">
<path d="M9.04736 14.6815L9.61557 14.1133" stroke="#896FCA" stroke-width="1.5" stroke-linecap="round"/>
<path d="M9.36732 10.1544C10.0982 9.42355 10.0982 8.60131 9.36732 7.87043C8.63644 7.13955 7.8142 7.13955 7.08332 7.87043C6.35244 8.60131 6.35244 9.42355 7.08332 10.1544C7.8142 10.8853 8.63644 10.8853 9.36732 10.1544Z" stroke="#896FCA" stroke-width="1.5" stroke-linecap="round" stroke-linejoin="round"/>
<path d="M16.209 16.0537C17.0883 15.1744 17.0883 14.1852 16.209 13.306C15.3297 12.4267 14.3405 12.4267 13.4612 13.306C12.5819 14.1852 12.5819 15.1744 13.4612 16.0537C14.3405 16.933 15.3297 16.933 16.209 16.0537Z" stroke="#896FCA" stroke-width="1.5" stroke-linecap="round" stroke-linejoin="round"/>
<path d="M15.2816 7.64027C23.3248 7.88883 22.8565 20.452 13.5348 20.7996C2.46296 21.2127 0.646902 5.33526 6.14781 3.41857C11.6487 1.50186 11.5456 7.38149 15.2816 7.64027Z" stroke="#896FCA" stroke-width="1.5" stroke-linecap="round" stroke-linejoin="round"/>
<path d="M4.32362 4.88092L3.0376 3.83203" stroke="#896FCA" stroke-width="1.5" stroke-linecap="round" stroke-linejoin="round"/>
<path d="M3.19761 8.32153L1.55371 8.08594" stroke="#896FCA" stroke-width="1.5" stroke-linecap="round" stroke-linejoin="round"/>
<path d="M3.68354 13.1758L2.0835 13.6199" stroke="#896FCA" stroke-width="1.5" stroke-linecap="round" stroke-linejoin="round"/>
<path d="M5.68634 17.1914L4.29248 18.0925" stroke="#896FCA" stroke-width="1.5" stroke-linecap="round" stroke-linejoin="round"/>
<path d="M8.6164 19.7129L7.83496 21.1747" stroke="#896FCA" stroke-width="1.5" stroke-linecap="round" stroke-linejoin="round"/>
<path d="M12.4036 20.7891L12.3452 22.4457" stroke="#896FCA" stroke-width="1.5" stroke-linecap="round" stroke-linejoin="round"/>
<path d="M17.0396 19.9551L17.8373 21.4083" stroke="#896FCA" stroke-width="1.5" stroke-linecap="round" stroke-linejoin="round"/>
<path d="M21.8079 17.1899L20.4126 16.291" stroke="#896FCA" stroke-width="1.5" stroke-linecap="round" stroke-linejoin="round"/>
<path d="M22.4468 11.9336L20.8027 12.1668" stroke="#896FCA" stroke-width="1.5" stroke-linecap="round" stroke-linejoin="round"/>
<path d="M19.8511 7.55859L18.7192 8.77157" stroke="#896FCA" stroke-width="1.5" stroke-linecap="round" stroke-linejoin="round"/>
<path d="M15.1974 5.98438L14.4736 7.47572" stroke="#896FCA" stroke-width="1.5" stroke-linecap="round" stroke-linejoin="round"/>
<path d="M11.5165 2.56055L10.6177 3.95447" stroke="#896FCA" stroke-width="1.5" stroke-linecap="round" stroke-linejoin="round"/>
<path d="M6.66846 1.55273L6.89892 3.19432" stroke="#896FCA" stroke-width="1.5" stroke-linecap="round" stroke-linejoin="round"/>
</g>
<defs>
<clipPath id="clip0_12_7030">
<rect width="24" height="24" fill="white"/>
</clipPath>
</defs>
</svg>