<svg viewBox="0 0 24 24" fill="none" xmlns="http://www.w3.org/2000/svg">
<path d="M15.9074 2.86914C13.7494 2.86914 12 4.61852 12 6.77647L12.0001 16.6583C12.0001 19.1281 14.0023 21.1303 16.4721 21.1303C18.9418 21.1303 20.944 19.1281 20.944 16.6583C20.944 16.5317 20.9387 16.4064 20.9284 16.2825C21.8591 15.2827 22.4464 13.8182 22.4464 12.1864C22.4464 9.96278 21.3561 8.04986 19.792 7.20005C19.807 7.06092 19.8147 6.91959 19.8147 6.77647C19.8147 4.61852 18.0653 2.86914 15.9074 2.86914Z" stroke="#896FCA" stroke-width="1.5" stroke-linecap="round" stroke-linejoin="round"/>
<path d="M19.7966 7.14648C19.7966 9.09326 18.323 10.0817 17.7017 10.2234" stroke="#896FCA" stroke-width="1.5" stroke-linecap="round" stroke-linejoin="round"/>
<path d="M18.5044 15.5273C19.2959 15.5263 20.2652 16.0041 20.9437 16.6026" stroke="#896FCA" stroke-width="1.5" stroke-linecap="round" stroke-linejoin="round"/>
<path d="M12 10.1367C12 12.0835 13.4735 13.072 14.0949 13.2136" stroke="#896FCA" stroke-width="1.5" stroke-linecap="round" stroke-linejoin="round"/>
<path d="M8.09273 2.86914C10.2507 2.86914 12.0001 4.61852 12.0001 6.77647L11.9999 16.6583C11.9999 19.1281 9.99778 21.1303 7.52799 21.1303C5.05821 21.1303 3.05607 19.1281 3.05607 16.6583C3.05607 16.5317 3.06132 16.4064 3.07163 16.2825C2.14093 15.2827 1.55371 13.8182 1.55371 12.1864C1.55371 9.96278 2.64406 8.04986 4.20807 7.20005C4.19307 7.06092 4.18538 6.91959 4.18538 6.77647C4.18538 4.61852 5.93475 2.86914 8.09273 2.86914Z" stroke="#896FCA" stroke-width="1.5" stroke-linecap="round" stroke-linejoin="round"/>
<path d="M4.20361 7.14648C4.20361 9.09326 5.67715 10.0817 6.29856 10.2234" stroke="#896FCA" stroke-width="1.5" stroke-linecap="round" stroke-linejoin="round"/>
<path d="M5.49587 15.5273C4.70444 15.5263 3.73513 16.0041 3.05664 16.6026" stroke="#896FCA" stroke-width="1.5" stroke-linecap="round" stroke-linejoin="round"/>
<path d="M12.0002 10.1367C12.0002 12.0835 10.5267 13.072 9.90527 13.2136" stroke="#896FCA" stroke-width="1.5" stroke-linecap="round" stroke-linejoin="round"/>
</svg>