<svg viewBox="0 0 24 24" fill="none" xmlns="http://www.w3.org/2000/svg">
<path d="M1.95557 16.1851C1.95557 15.6697 1.95557 15.2601 1.9628 14.9128C2.85046 15.7042 4.02089 16.1851 5.30365 16.1851C6.58996 16.1851 7.76331 15.7015 8.65187 14.9062C9.54041 15.7015 10.7138 16.1851 12.0001 16.1851C13.2864 16.1851 14.4597 15.7015 15.3483 14.9062C16.2368 15.7015 17.4102 16.1851 18.6965 16.1851C19.9792 16.1851 21.1495 15.7043 22.0371 14.9131L22.0449 16.1851C22.0449 17.9784 22.0449 18.491 21.74 19.5521C21.4378 20.6039 20.5968 21.4237 19.5175 21.6042C16.8846 22.0444 13.3516 22.0444 12.0002 22.0444C10.6489 22.0444 7.11584 22.0444 4.48302 21.6042C3.4036 21.4237 2.56258 20.6039 2.26039 19.5521C1.95557 18.491 1.95557 17.9784 1.95557 16.1851Z" stroke="#896FCA" stroke-width="1.5" stroke-linecap="round" stroke-linejoin="round"/>
<path d="M8.65202 14.9067C7.76348 15.702 6.5901 16.1856 5.30379 16.1856C4.02078 16.1856 2.85012 15.7045 1.9624 14.9128C1.98036 14.0521 2.0428 13.5745 2.25998 12.8186C2.56217 11.7667 3.40319 10.9469 4.48261 10.7664C7.11543 10.3262 10.6484 10.3262 11.9998 10.3262C13.3512 10.3262 16.8841 10.3262 19.5169 10.7664C20.5965 10.9469 21.4375 11.7667 21.7396 12.8186C21.9569 13.5748 22.0193 14.0524 22.0373 14.9136C21.1496 15.7048 19.9793 16.1856 18.6967 16.1856C17.4103 16.1856 16.237 15.702 15.3485 14.9067C14.4599 15.702 13.2865 16.1856 12.0002 16.1856C10.7139 16.1856 9.54056 15.702 8.65202 14.9067Z" stroke="#896FCA" stroke-width="1.5" stroke-linecap="round" stroke-linejoin="round"/>
<path d="M4.47266 6.72461V10.7426" stroke="#896FCA" stroke-width="1.5" stroke-linecap="round" stroke-linejoin="round"/>
<path d="M12.02 6.72461V10.1081" stroke="#896FCA" stroke-width="1.5" stroke-linecap="round" stroke-linejoin="round"/>
<path d="M19.4434 6.72461V10.7426" stroke="#896FCA" stroke-width="1.5" stroke-linecap="round" stroke-linejoin="round"/>
<path d="M4.47266 1.95508V3.15029" stroke="#896FCA" stroke-width="1.5" stroke-linecap="round" stroke-linejoin="round"/>
<path d="M12.02 1.95508V2.96155" stroke="#896FCA" stroke-width="1.5" stroke-linecap="round" stroke-linejoin="round"/>
<path d="M19.4434 1.95508V3.15029" stroke="#896FCA" stroke-width="1.5" stroke-linecap="round" stroke-linejoin="round"/>
</svg>