<svg viewBox="0 0 24 24" fill="none" xmlns="http://www.w3.org/2000/svg">
<g clip-path="url(#clip0_12_7197)">
<path d="M10.1953 7.32982C11.8327 7.54723 13.2965 8.583 14.3559 9.64246C15.4064 10.6929 16.4336 12.1408 16.6629 13.7614C19.1828 12.8272 22.9634 10.9583 22.3879 9.23276C22.0456 8.2065 20.9677 8.09093 20.0008 8.25004C19.8478 8.27522 19.5887 7.81402 19.6938 7.70002C20.7023 6.60693 21.4836 5.06304 20.2107 3.79033C18.938 2.51758 17.394 3.29878 16.3008 4.30728C16.1868 4.41245 15.7256 4.15338 15.7508 4.00033C15.9099 3.03349 15.7943 1.95566 14.768 1.61337C13.0191 1.03005 11.1159 4.78459 10.1953 7.32982Z" stroke="#896FCA" stroke-width="1.5" stroke-linecap="round" stroke-linejoin="round"/>
<path d="M5.75338 9.0698C1.94741 12.8758 1.34937 17.7369 1.60423 20.5073C1.69778 21.5241 2.4755 22.3018 3.49241 22.3954C6.26283 22.6503 11.1239 22.0522 14.9299 18.2464C18.2075 14.9687 16.3227 11.6097 14.3563 9.64332C12.39 7.67694 9.03099 5.79219 5.75338 9.0698Z" stroke="#896FCA" stroke-width="1.5" stroke-linecap="round" stroke-linejoin="round"/>
<path d="M5.54834 9.27344C7.05468 10.1283 8.13544 11.2091 8.99033 12.7154" stroke="#896FCA" stroke-width="1.5" stroke-linecap="round" stroke-linejoin="round"/>
<path d="M7.26904 17.877C8.72066 18.6754 9.74547 19.7003 10.544 21.1518" stroke="#896FCA" stroke-width="1.5" stroke-linecap="round" stroke-linejoin="round"/>
</g>
<defs>
<clipPath id="clip0_12_7197">
<rect width="24" height="24" fill="white"/>
</clipPath>
</defs>
</svg>