<svg viewBox="0 0 24 24" fill="none" xmlns="http://www.w3.org/2000/svg">
<g clip-path="url(#clip0_12_7243)">
<path d="M20.9545 8.64219C21.9093 8.64219 22.4464 8.10508 22.4464 7.15019C22.4464 6.19533 21.9093 5.6582 20.9545 5.6582C19.9995 5.6582 19.4624 6.19533 19.4624 7.15019C19.4624 8.10508 19.9995 8.64219 20.9545 8.64219Z" stroke="#896FCA" stroke-width="1.5" stroke-linecap="round" stroke-linejoin="round"/>
<path d="M18.5309 15.0481C20.9286 16.1846 21.5925 17.6516 21.5925 19.6699C21.5925 20.8751 20.7043 21.9004 19.5063 22.0319C14.9623 22.5304 10.4989 22.5786 5.97062 22.1767C3.75759 21.9801 1.78055 20.5316 1.5926 18.3178C1.47093 16.8847 1.60493 15.1765 2.42515 13.5384C4.38622 9.62165 9.21286 8.76144 12.3031 10.3832L13.4533 11.1245L13.4653 11.1337C14.9386 10.2587 16.6445 10.2411 17.7257 11.2257C18.6923 12.1057 18.9083 13.5576 18.4194 14.9619L18.5309 15.0481Z" stroke="#896FCA" stroke-width="1.5" stroke-linecap="round"/>
<path d="M17.3158 16.7941C18.9493 15.0001 19.1328 12.5072 17.7258 11.226C16.3187 9.94483 13.8538 10.3606 12.2203 12.1546C10.7374 13.7833 10.4494 15.988 11.4617 17.3391C11.5645 17.4764 11.6806 17.6046 11.8103 17.7227" stroke="#896FCA" stroke-width="1.5" stroke-linecap="round"/>
<path d="M19.9937 8.375L17.7104 11.1538" stroke="#896FCA" stroke-width="1.5" stroke-linecap="round" stroke-linejoin="round"/>
<path d="M3.9763 6.65123C3.49162 5.67489 3.49162 4.7146 3.9763 3.73828" stroke="#896FCA" stroke-width="1.5" stroke-linecap="round" stroke-linejoin="round"/>
<path d="M8.2913 5.19391C7.68545 3.97351 7.68545 2.77315 8.2913 1.55273" stroke="#896FCA" stroke-width="1.5" stroke-linecap="round" stroke-linejoin="round"/>
<path d="M12.5154 6.65123C12.0307 5.67489 12.0307 4.7146 12.5154 3.73828" stroke="#896FCA" stroke-width="1.5" stroke-linecap="round" stroke-linejoin="round"/>
</g>
<defs>
<clipPath id="clip0_12_7243">
<rect width="24" height="24" fill="white"/>
</clipPath>
</defs>
</svg>