<svg viewBox="0 0 24 24" fill="none" xmlns="http://www.w3.org/2000/svg">
<path d="M4.71795 16.359C4.71795 15.576 4.78285 14.7471 4.88656 13.9224H4.07842C-0.74737 13.1102 2.42191 6.11509 4.7179 4.17601C6.52243 2.652 9.76522 1.95508 11.9568 1.95508C14.1484 1.95508 17.3911 2.652 19.1956 4.17601C21.4918 6.11509 24.6609 13.1102 19.8351 13.9224H19.0271C19.1307 14.7471 19.1956 15.576 19.1956 16.359C19.1956 21.2321 15.9784 22.0444 11.9568 22.0444C7.93521 22.0444 4.71795 21.2321 4.71795 16.359Z" stroke="#896FCA" stroke-width="1.5" stroke-linecap="round"/>
<path d="M6.32641 7.42578C6.32641 7.42578 4.71777 12.4614 4.71777 16.36C4.71777 21.2332 7.93503 22.0454 11.9566 22.0454C15.9782 22.0454 19.1958 21.2332 19.1958 16.36C19.1958 12.4614 17.5872 7.42578 17.5872 7.42578" stroke="#896FCA" stroke-width="1.5" stroke-linecap="round" stroke-linejoin="round"/>
<path d="M14.7695 10.6875V11.4911" stroke="#896FCA" stroke-width="1.5" stroke-linecap="round" stroke-linejoin="round"/>
<path d="M9.14453 10.6875V11.4911" stroke="#896FCA" stroke-width="1.5" stroke-linecap="round" stroke-linejoin="round"/>
<path d="M10.9831 15.9525C11.1696 16.3825 11.5992 16.7695 11.8646 16.9462C11.9167 16.9811 11.9969 16.9811 12.049 16.9462C12.3144 16.7695 12.744 16.3825 12.9305 15.9525C12.9501 15.9073 12.9211 15.8591 12.859 15.8399C12.6807 15.7847 12.3556 15.7148 11.9568 15.7148C11.558 15.7148 11.2329 15.7847 11.0546 15.8399C10.9925 15.8591 10.9635 15.9073 10.9831 15.9525Z" stroke="#896FCA" stroke-width="1.5" stroke-linecap="round" stroke-linejoin="round"/>
</svg>