<svg viewBox="0 0 24 24" fill="none" xmlns="http://www.w3.org/2000/svg">
<path d="M3.34666 21.3867C3.4759 21.6703 3.76193 21.8438 4.07222 21.8438H6.04563C6.50198 21.8438 6.87273 21.4709 6.93516 21.0164C7.21712 18.9636 8.37068 17.7851 10.1772 17.6894C13.1882 17.5303 12.3818 20.5288 14.141 21.7439C14.2467 21.8171 14.3755 21.8438 14.5038 21.8438H16.6907C17.1832 21.8438 17.5666 21.415 17.5276 20.9214C17.3089 18.152 17.2627 13.4109 18.4403 11.0427C23.0676 11.0427 22.6495 7.23898 22.1587 6.49902C21.6677 5.75906 19.2347 4.82732 17.5276 4.68155C17.0495 3.79771 16.524 2.84131 15.7402 2.28849C15.4037 2.05112 14.946 2.14509 14.6998 2.47606C12.8875 4.91158 11.7703 7.10077 11.0044 9.83221C9.09655 9.57186 7.61383 9.7464 5.63246 10.404C4.6752 9.32056 3.87187 8.40505 2.8212 7.6036C2.34331 7.23908 1.68791 7.56671 1.64626 8.16839C1.37501 12.0873 1.63122 17.6218 3.34666 21.3867Z" stroke="#896FCA" stroke-width="1.5" stroke-linecap="round" stroke-linejoin="round"/>
</svg>