<svg viewBox="0 0 24 24" fill="none" xmlns="http://www.w3.org/2000/svg">
<g clip-path="url(#clip0_12_7233)">
<path d="M16.4459 11.2209C14.1976 10.5915 13.1581 8.85702 12.7817 7.55078" stroke="#896FCA" stroke-width="1.5" stroke-linecap="round" stroke-linejoin="round"/>
<path d="M20.5787 3.42006C18.624 1.46547 12.7069 0.383528 9.51358 3.57709C6.6958 6.39504 5.77807 10.6137 5.79806 14.2921C4.41083 14.3371 2.96207 15.0898 1.9772 15.7249C1.36167 16.1218 1.43651 16.9948 2.07591 17.3643L4.96651 19.0346L6.63569 21.9234C7.00519 22.5628 7.87828 22.6376 8.27518 22.0221C8.91018 21.0371 9.66271 19.5884 9.7076 18.2013C13.3861 18.2211 17.6047 17.3031 20.4225 14.4851C23.6159 11.2916 22.5335 5.37463 20.5787 3.42006Z" stroke="#896FCA" stroke-width="1.5" stroke-linecap="round" stroke-linejoin="round"/>
<path d="M17.1899 6.52148L17.4794 6.81088" stroke="#896FCA" stroke-width="1.5" stroke-linecap="round" stroke-linejoin="round"/>
</g>
<defs>
<clipPath id="clip0_12_7233">
<rect width="24" height="24" fill="white"/>
</clipPath>
</defs>
</svg>