<svg viewBox="0 0 24 24" fill="none" xmlns="http://www.w3.org/2000/svg">
<g clip-path="url(#clip0_12_7134)">
<path d="M14.269 3.84215C14.6127 3.46137 15.0524 3.16342 15.5877 2.9498C15.8959 2.8268 16.1897 2.7234 16.4583 2.64801C18.2366 2.14869 20.2538 2.06626 21.2769 2.06056C21.4673 2.0595 21.6378 2.13441 21.7606 2.25719C21.8834 2.37995 21.9578 2.55107 21.9567 2.74143C21.9511 3.76451 21.8686 5.78166 21.3693 7.56008C21.2939 7.8286 21.1906 8.12244 21.0675 8.43065C20.854 8.96577 20.5405 9.38957 20.1601 9.73313" stroke="#896FCA" stroke-width="1.5" stroke-linecap="round" stroke-linejoin="round"/>
<path d="M5.83822 18.1806L5.58694 17.9294C2.10581 14.4482 4.76932 9.91073 7.32764 6.65888C8.80827 4.77687 12.6432 1.55273 12.6432 1.55273L12.8945 1.80401C15.1822 4.09178 15.7 8.31879 13.4122 10.6066L5.83822 18.1806Z" stroke="#896FCA" stroke-width="1.5" stroke-linecap="round" stroke-linejoin="round"/>
<path d="M6.5708 17.4488L8.11232 15.9074C10.4963 13.5233 10.4963 9.65806 8.11224 7.27408L7.46117 6.62305" stroke="#896FCA" stroke-width="1.5" stroke-linecap="round" stroke-linejoin="round"/>
<path d="M1.57422 22.4459L6.26818 17.752" stroke="#896FCA" stroke-width="1.5" stroke-linecap="round" stroke-linejoin="round"/>
<path d="M5.81934 18.1622L6.07061 18.4134C9.55175 21.8946 14.0892 19.2311 17.341 16.6727C19.2231 15.1921 22.4472 11.3572 22.4472 11.3572L22.1959 11.1059C19.9081 8.81812 15.6811 8.30032 13.3934 10.5881L5.81934 18.1622Z" stroke="#896FCA" stroke-width="1.5" stroke-linecap="round" stroke-linejoin="round"/>
<path d="M6.55127 17.4291L8.09281 15.8876C10.4768 13.5036 14.3421 13.5036 16.7261 15.8877L17.3771 16.5388" stroke="#896FCA" stroke-width="1.5" stroke-linecap="round" stroke-linejoin="round"/>
<path d="M1.55322 22.4245L6.24719 17.7305" stroke="#896FCA" stroke-width="1.5" stroke-linecap="round" stroke-linejoin="round"/>
</g>
<defs>
<clipPath id="clip0_12_7134">
<rect width="24" height="24" fill="white"/>
</clipPath>
</defs>
</svg>