<svg viewBox="0 0 24 24" fill="none" xmlns="http://www.w3.org/2000/svg">
<g clip-path="url(#clip0_12_7147)">
<path d="M8.02793 18.4253L9.36542 22.4447M2.39306 1.61719L2.92867 3.22684M1.55371 7.2455C2.96612 8.41029 4.6679 8.23264 4.6679 8.23264C4.6679 8.23264 6.13701 7.35761 6.57018 5.57955M3.2041 12.2054C4.61652 13.3702 6.31831 13.1925 6.31831 13.1925C6.31831 13.1925 7.7874 12.3175 8.22059 10.5394M4.9322 17.3988C6.34462 18.5636 8.04641 18.3859 8.04641 18.3859C8.04641 18.3859 9.51551 17.5108 9.94869 15.7328" stroke="#896FCA" stroke-width="1.5" stroke-linecap="round" stroke-linejoin="round"/>
<path d="M16.4676 17.0748L15.2324 20.7869M21.6713 1.55273L21.177 3.03799M22.4465 6.75054C21.1421 7.82622 19.5705 7.66216 19.5705 7.66216C19.5705 7.66216 18.2139 6.85407 17.8139 5.21207M20.9222 11.3309C19.6179 12.4066 18.0463 12.2425 18.0463 12.2425C18.0463 12.2425 16.6896 11.4344 16.2896 9.79241M19.3265 16.1268C18.0222 17.2024 16.4506 17.0384 16.4506 17.0384C16.4506 17.0384 15.0939 16.2303 14.6938 14.5883" stroke="#896FCA" stroke-width="1.5" stroke-linecap="round" stroke-linejoin="round"/>
</g>
<defs>
<clipPath id="clip0_12_7147">
<rect width="24" height="24" fill="white"/>
</clipPath>
</defs>
</svg>