<svg viewBox="0 0 24 24" fill="none" xmlns="http://www.w3.org/2000/svg">
<g clip-path="url(#clip0_12_7161)">
<path d="M15.3923 8.60748C16.4135 9.62866 17.5623 9.62866 18.5835 8.60748C19.6047 7.5863 19.6047 6.43747 18.5835 5.41629C17.5623 4.39509 16.4135 4.39509 15.3923 5.41629C14.3712 6.43747 14.3712 7.5863 15.3923 8.60748Z" stroke="#896FCA" stroke-width="1.5" stroke-linecap="round" stroke-linejoin="round"/>
<path d="M10.4046 13.5958C11.4258 14.6169 12.5746 14.6169 13.5958 13.5958C14.6169 12.5746 14.6169 11.4258 13.5958 10.4046C12.5746 9.38338 11.4258 9.38338 10.4046 10.4046C9.38338 11.4258 9.38338 12.5746 10.4046 13.5958Z" stroke="#896FCA" stroke-width="1.5" stroke-linecap="round" stroke-linejoin="round"/>
<path d="M20.6512 10.6739C19.6082 11.7169 18.5073 12.2958 17.3998 12.4107C17.2851 13.5181 16.7061 14.6192 15.663 15.6622C14.6201 16.7052 13.519 17.2841 12.4117 17.399C12.2967 18.5063 11.7178 19.6072 10.6749 20.6501C8.33066 22.9943 3.79277 22.7841 2.504 21.4953C1.21523 20.2065 1.00502 15.6686 3.34923 13.3244C4.39221 12.2814 5.4932 11.7025 6.60061 11.5876C6.71556 10.4803 7.29449 9.37944 8.3374 8.33653C9.38037 7.29356 10.4814 6.71462 11.5887 6.59972C11.7036 5.49229 12.2825 4.39127 13.3256 3.34825C15.6698 1.00404 20.2077 1.21425 21.4964 2.50302C22.7852 3.79179 22.9954 8.32969 20.6512 10.6739Z" stroke="#896FCA" stroke-width="1.5" stroke-linecap="round" stroke-linejoin="round"/>
<path d="M5.41579 18.5841C6.43696 19.6053 7.5858 19.6053 8.60698 18.5841C9.62817 17.5629 9.62817 16.414 8.60698 15.3928C7.5858 14.3717 6.43696 14.3717 5.41579 15.3928C4.39461 16.414 4.39461 17.5629 5.41579 18.5841Z" stroke="#896FCA" stroke-width="1.5" stroke-linecap="round" stroke-linejoin="round"/>
</g>
<defs>
<clipPath id="clip0_12_7161">
<rect width="24" height="24" fill="white"/>
</clipPath>
</defs>
</svg>