<svg viewBox="0 0 24 24" fill="none" xmlns="http://www.w3.org/2000/svg">
<path d="M2.39229 8.44458C2.53814 11.791 6.24707 13.5253 9.40001 12.0694L9.5641 11.9936C11.1036 15.0224 13.5782 15.5735 16.2098 15.4923C19.0174 15.4056 21.4029 13.113 21.6255 10.3186C21.6375 11.3585 21.6463 13.1176 21.612 15.3182C21.611 15.3818 21.6099 15.4454 21.6084 15.509C21.547 18.4012 19.131 20.7973 16.2631 20.9001C13.6001 20.9956 11.0891 20.4652 9.5332 17.4043L9.36911 17.48C6.07196 19.0024 2.16679 17.0362 2.36412 13.386V8.44336L2.39229 8.44458Z" stroke="#896FCA" stroke-width="1.5" stroke-linecap="round" stroke-linejoin="round"/>
<path d="M2.39537 7.97614C2.19804 11.6264 6.10319 13.5926 9.40036 12.0701L9.56445 11.9944C11.1039 15.0231 13.5785 15.5742 16.2101 15.493C19.1275 15.403 21.5889 12.9312 21.6419 9.98961C21.7081 6.31258 18.5935 3.48818 14.9495 3.30902C14.0042 3.26254 13.0469 3.23242 12.0795 3.23242C10.7248 3.23242 8.86314 3.32112 7.17453 3.42276C4.67211 3.57336 2.53178 5.45293 2.39537 7.97614Z" stroke="#896FCA" stroke-width="1.5" stroke-linecap="round" stroke-linejoin="round"/>
<path d="M5.98438 7.62886C5.98437 7.82071 6.02744 8.01068 6.11112 8.18792C6.19479 8.36517 6.31743 8.52621 6.47204 8.66187C6.62665 8.79753 6.8102 8.90513 7.01221 8.97855C7.21421 9.05197 7.43072 9.08975 7.64937 9.08975C7.86803 9.08975 8.08454 9.05197 8.28654 8.97855C8.48855 8.90513 8.6721 8.79753 8.82671 8.66187C8.98132 8.52621 9.10396 8.36517 9.18763 8.18792C9.27131 8.01068 9.31438 7.82071 9.31438 7.62886C9.31438 7.43701 9.27131 7.24705 9.18763 7.0698C9.10396 6.89256 8.98132 6.73151 8.82671 6.59585C8.6721 6.4602 8.48855 6.35259 8.28654 6.27917C8.08454 6.20576 7.86803 6.16797 7.64937 6.16797C7.43072 6.16797 7.21421 6.20576 7.01221 6.27917C6.8102 6.35259 6.62665 6.4602 6.47204 6.59585C6.31743 6.73151 6.19479 6.89256 6.11112 7.0698C6.02744 7.24705 5.98437 7.43701 5.98438 7.62886Z" stroke="#896FCA" stroke-width="1.5" stroke-linecap="round" stroke-linejoin="round"/>
</svg>