<svg viewBox="0 0 24 24" fill="none" xmlns="http://www.w3.org/2000/svg">
<g clip-path="url(#clip0_12_7190)">
<path d="M22.4466 7.98131C22.4466 4.4309 19.5683 1.55273 16.018 1.55273C13.3911 1.55273 11.1322 3.13439 10.1348 5.39086C9.55151 6.71049 8.29381 7.85677 6.90479 8.24693C3.88272 9.09584 1.55371 11.893 1.55371 15.2134C1.55371 19.2077 4.79165 22.4456 8.78585 22.4456C12.1063 22.4456 14.9035 20.1165 15.7524 17.0944C16.1425 15.7055 17.2888 14.4478 18.6084 13.8645C20.865 12.8671 22.4466 10.6082 22.4466 7.98131Z" stroke="#896FCA" stroke-width="1.5" stroke-linecap="round" stroke-linejoin="round"/>
<path d="M12.8062 13.6074L12.2036 14.21" stroke="#896FCA" stroke-width="1.5" stroke-linecap="round"/>
<path d="M9.1656 14.0879L8.56299 14.6905" stroke="#896FCA" stroke-width="1.5" stroke-linecap="round"/>
<path d="M12.3975 17.3184L11.7949 17.921" stroke="#896FCA" stroke-width="1.5" stroke-linecap="round"/>
<path d="M8.79304 17.6211L8.19043 18.2238" stroke="#896FCA" stroke-width="1.5" stroke-linecap="round"/>
<path d="M17.6276 8.78711L17.0249 9.38972" stroke="#896FCA" stroke-width="1.5" stroke-linecap="round"/>
</g>
<defs>
<clipPath id="clip0_12_7190">
<rect width="24" height="24" fill="white"/>
</clipPath>
</defs>
</svg>