<svg viewBox="0 0 24 24" fill="none" xmlns="http://www.w3.org/2000/svg">
<path d="M12.4149 2.78453C7.17118 3.4415 3.12917 2.1002 1.76362 1.55273C1.42634 13.1223 9.95691 14.8288 14.0535 14.2813C10.5437 15.3938 9.51674 17.1644 9.13757 18.3872L6.70599 17.1687C4.70574 16.1663 2.32086 17.4667 2.07389 19.6945L2.01184 20.2543C1.89013 21.3521 2.88194 22.2442 3.9578 22.0046L9.13757 20.8508C18.1501 23.3144 22.2469 16.7449 22.2469 11.8177C22.2469 6.89052 18.9694 1.96333 12.4149 2.78453Z" stroke="#896FCA" stroke-width="1.5" stroke-linecap="round" stroke-linejoin="round"/>
<path d="M21.0404 6.89062C21.6958 12.1463 16.5117 14.0077 14.0537 14.2815C14.3268 15.6501 16.308 18.5517 18.9299 19.2086" stroke="#896FCA" stroke-width="1.5" stroke-linecap="round" stroke-linejoin="round"/>
<path d="M9.1377 18.3867V20.8503" stroke="#896FCA" stroke-width="1.5" stroke-linecap="round" stroke-linejoin="round"/>
<path d="M12.2529 2.7832C14.7914 4.12549 17.1945 10.5273 13.8915 14.2859" stroke="#896FCA" stroke-width="1.5" stroke-linecap="round" stroke-linejoin="round"/>
<path d="M9.75684 7.37695V8.17858" stroke="#896FCA" stroke-width="1.5" stroke-linecap="round" stroke-linejoin="round"/>
</svg>