<svg viewBox="0 0 24 24" fill="none" xmlns="http://www.w3.org/2000/svg">
<path d="M6.17057 1.604C6.14777 2.33541 6.14602 3.34417 6.17057 4.09879C6.23341 6.0297 7.39729 7.54993 9.33566 8.26763C11.0131 8.88875 10.9837 14.6161 8.42662 14.7364C4.52053 14.9202 2.9911 18.7365 3.17369 22.4456M7.2693 22.4456C7.24307 22.1243 7.30538 21.5503 7.41244 20.9127C7.66975 19.3804 9.30829 18.9338 10.6579 19.7038C12.9911 21.0348 15.6144 21.6465 17.7759 19.7509C19.4375 18.2934 20.7256 15.8121 20.8053 13.4868C20.8208 13.0414 20.8322 12.6049 20.8401 12.173C20.9188 7.79137 17.1875 4.19075 13.1727 4.1705C11.9767 4.16447 10.7746 3.48536 10.6861 2.2926C10.6673 2.03986 10.6569 1.78958 10.651 1.55273" stroke="#896FCA" stroke-width="1.5" stroke-linecap="round" stroke-linejoin="round"/>
</svg>