<svg viewBox="0 0 24 24" fill="none" xmlns="http://www.w3.org/2000/svg">
<g clip-path="url(#clip0_12_7401)">
<path fill-rule="evenodd" clip-rule="evenodd" d="M16.2537 1.4279C16.4115 2.12021 15.9783 2.80941 15.286 2.96728C14.1977 3.21542 13.7364 3.79024 13.5066 4.26187C13.4306 4.41774 13.3772 4.56996 13.3399 4.70616C14.1061 4.29419 15.0511 3.99902 16.121 3.99902C17.4175 3.99902 19.2742 4.43735 20.8215 5.75675C22.4004 7.10289 23.5716 9.2939 23.5716 12.6201C23.5716 15.3719 22.5941 18.071 21.1093 20.0926C19.6397 22.0939 17.5596 23.5704 15.2968 23.5704C14.1827 23.5704 13.245 23.2798 12.5222 22.8338C12.4254 22.774 12.2384 22.7162 12.0001 22.7162C11.7619 22.7162 11.5749 22.774 11.4781 22.8338C10.7553 23.2798 9.81754 23.5704 8.70343 23.5704C6.44066 23.5704 4.3606 22.0939 2.89092 20.0926C1.4062 18.071 0.428711 15.3719 0.428711 12.6201C0.428711 9.2939 1.59999 7.10289 3.17868 5.75675C4.726 4.43735 6.58276 3.99902 7.87925 3.99902C8.97602 3.99902 9.94149 4.30917 10.7177 4.73735C10.7267 4.66578 10.7383 4.58673 10.7532 4.50136C10.816 4.14338 10.9413 3.65613 11.195 3.13547C11.7221 2.05367 12.7747 0.902462 14.7143 0.460192C15.4066 0.30233 16.0958 0.735586 16.2537 1.4279ZM11.3857 5.16573C11.3857 5.16571 11.3858 5.16576 11.3857 5.16573L11.9723 5.1658C11.736 5.1658 11.5432 5.16578 11.3857 5.16573Z" fill="#896FCA"/>
</g>
<defs>
<clipPath id="clip0_12_7401">
<rect width="24" height="24" fill="white"/>
</clipPath>
</defs>
</svg>