<svg viewBox="0 0 24 24" fill="none" xmlns="http://www.w3.org/2000/svg">
<path fill-rule="evenodd" clip-rule="evenodd" d="M9.48198 0.852678C10.9821 -0.287363 13.0611 -0.283942 14.5574 0.861287C17.7906 3.33602 20.7255 5.91928 22.4739 9.09364C23.1836 10.3821 22.9511 11.7411 22.1858 12.7201C21.4361 13.6792 20.1834 14.2761 18.8114 14.1945C18.0423 14.1488 17.2654 14.0844 16.5041 13.983C16.6006 16.195 16.5384 18.3959 16.3178 20.621C16.1559 22.2539 14.9748 23.7746 13.1753 23.9442C12.3926 24.0177 11.5915 24.0177 10.8089 23.9442C9.00928 23.7746 7.82824 22.2539 7.66633 20.621C7.4451 18.39 7.38321 16.1835 7.48082 13.9657C6.71939 14.0633 5.94299 14.1245 5.17447 14.1672C3.8015 14.2435 2.55076 13.6412 1.80522 12.6785C1.04408 11.6957 0.818302 10.3351 1.53487 9.04975C3.29836 5.88643 6.24265 3.31457 9.48198 0.852678Z" fill="#896FCA"/>
</svg>