<svg viewBox="0 0 24 24" fill="none" xmlns="http://www.w3.org/2000/svg">
<g clip-path="url(#clip0_12_7461)">
<path fill-rule="evenodd" clip-rule="evenodd" d="M14.5185 23.1473C13.0184 24.2874 10.9394 24.2839 9.44311 23.1387C6.20988 20.664 3.27496 18.0807 1.52657 14.9064C0.816926 13.6179 1.04943 12.2589 1.81473 11.2799C2.56442 10.3208 3.81713 9.72387 5.18913 9.80549C5.95821 9.85123 6.73507 9.91563 7.49644 10.017C7.3999 7.80504 7.46205 5.60414 7.68269 3.37899C7.84461 1.74614 9.02566 0.225391 10.8252 0.0558492C11.6078 -0.0176943 12.409 -0.0176943 13.1916 0.0558492C14.9912 0.225392 16.1722 1.74614 16.3342 3.37899C16.5554 5.60996 16.6173 7.81652 16.5197 10.0343C17.2811 9.93667 18.0575 9.87552 18.826 9.8328C20.199 9.75646 21.4497 10.3588 22.1953 11.3215C22.9564 12.3043 23.1822 13.6649 22.4656 14.9502C20.7021 18.1136 17.7578 20.6854 14.5185 23.1473Z" fill="#896FCA"/>
</g>
<defs>
<clipPath id="clip0_12_7461">
<rect width="24" height="24" fill="white"/>
</clipPath>
</defs>
</svg>