<svg viewBox="0 0 24 24" fill="none" xmlns="http://www.w3.org/2000/svg">
<path fill-rule="evenodd" clip-rule="evenodd" d="M0.853166 14.5175C-0.286875 13.0174 -0.283454 10.9384 0.861775 9.44213C3.33651 6.2089 5.91976 3.27398 9.09412 1.52559C10.3825 0.815949 11.7416 1.04846 12.7206 1.81375C13.6797 2.56344 14.2766 3.81616 14.195 5.18815C14.1493 5.95723 14.0849 6.73409 13.9835 7.49546C16.1954 7.39893 18.3964 7.46107 20.6215 7.68172C22.2544 7.84363 23.7751 9.02469 23.9446 10.8243C24.0182 11.6069 24.0182 12.4081 23.9446 13.1907C23.7751 14.9902 22.2544 16.1713 20.6215 16.3332C18.3905 16.5544 16.184 16.6163 13.9662 16.5187C14.0638 17.2801 14.125 18.0565 14.1677 18.825C14.244 20.198 13.6417 21.4488 12.679 22.1943C11.6962 22.9554 10.3356 23.1812 9.05024 22.4646C5.88692 20.7012 3.31506 17.7569 0.853166 14.5175Z" fill="#896FCA"/>
</svg>