<svg viewBox="0 0 24 24" fill="none" xmlns="http://www.w3.org/2000/svg">
<path fill-rule="evenodd" clip-rule="evenodd" d="M6.85313 1.84961C9.11477 1.84961 10.9482 3.79441 10.9482 6.19347L10.9481 10.1554C10.8017 10.7366 10.4995 11.186 10.2224 11.5209C10.0269 11.7572 9.81789 11.9363 9.63375 12.0601C9.54202 12.1218 9.46099 12.1667 9.39617 12.1973C9.36401 12.2125 9.33783 12.2232 9.31815 12.2304C9.30843 12.234 9.30087 12.2365 9.29551 12.2381L9.28773 12.2404C8.69729 12.3831 8.33439 12.9775 8.47718 13.568C8.61998 14.1584 9.21437 14.5213 9.80481 14.3785C10.1547 14.2939 10.5534 14.1047 10.9481 13.8257L10.948 17.1793C10.948 19.9249 8.84971 22.1508 6.26129 22.1508C4.353 22.1508 2.71109 20.941 1.97998 19.2051C2.88564 17.9941 4.07234 17.3616 5.48302 17.3616C6.07265 17.3616 6.54674 16.8551 6.54192 16.2304C6.5371 15.6056 6.0552 15.0992 5.46557 15.0992C3.90789 15.0992 2.54829 15.6343 1.43653 16.5776C0.550973 15.4742 0 13.9242 0 12.2078C0 10.7901 0.375838 9.48598 1.00561 8.45328C1.21582 8.94015 1.48487 9.3619 1.77921 9.71761C2.42643 10.4998 3.24298 11.016 3.89158 11.1728C4.48202 11.3156 5.07641 10.9527 5.21921 10.3623C5.36199 9.77184 4.9991 9.17744 4.40866 9.03466C4.40875 9.03468 4.40842 9.03459 4.40769 9.0344L4.40475 9.03358L4.40088 9.03241C4.39551 9.03077 4.38797 9.02828 4.37823 9.02473C4.35855 9.01754 4.33238 9.00682 4.30022 8.99163C4.2354 8.96105 4.15437 8.9161 4.06263 8.8544C3.87852 8.73055 3.66951 8.55147 3.47398 8.31517C3.14146 7.91333 2.84702 7.34669 2.7745 6.58513C2.76363 6.45612 2.75808 6.32549 2.75808 6.19347C2.75808 3.79441 4.59151 1.84961 6.85313 1.84961ZM17.1468 1.84961C14.8851 1.84961 13.0517 3.79441 13.0517 6.19347L13.0517 10.1554C13.1981 10.7366 13.5004 11.186 13.7775 11.5209C13.973 11.7572 14.182 11.9363 14.3661 12.0601C14.4579 12.1218 14.5389 12.1667 14.6037 12.1973C14.6359 12.2125 14.6621 12.2232 14.6817 12.2304C14.6915 12.234 14.699 12.2365 14.7044 12.2381L14.7122 12.2404C15.3026 12.3831 15.6655 12.9775 15.5227 13.568C15.3799 14.1584 14.7855 14.5213 14.1951 14.3785C13.8452 14.2939 13.4465 14.1047 13.0518 13.8257L13.0519 17.1793C13.0519 19.9249 15.1502 22.1508 17.7386 22.1508C19.6469 22.1508 21.2889 20.941 22.0198 19.2051C21.1142 17.9941 19.9275 17.3616 18.5169 17.3616C17.9273 17.3616 17.4531 16.8551 17.4579 16.2304C17.4627 15.6056 17.9446 15.0992 18.5343 15.0992C20.0919 15.0992 21.4515 15.6343 22.5634 16.5776C23.4489 15.4742 23.9998 13.9242 23.9998 12.2078C23.9998 10.7901 23.6241 9.48598 22.9942 8.45328C22.7841 8.94015 22.5151 9.3619 22.2207 9.71761C21.5734 10.4998 20.7569 11.016 20.1082 11.1728C19.5178 11.3156 18.9235 10.9527 18.7807 10.3623C18.6379 9.77184 19.0008 9.17744 19.5912 9.03466C19.5912 9.03468 19.5915 9.03459 19.5922 9.0344L19.5951 9.03358L19.5991 9.03241C19.6044 9.03077 19.6119 9.02828 19.6217 9.02473C19.6413 9.01754 19.6675 9.00682 19.6997 8.99163C19.7645 8.96105 19.8456 8.9161 19.9373 8.8544C20.1214 8.73055 20.3304 8.55147 20.5258 8.31517C20.8584 7.91333 21.1529 7.34669 21.2254 6.58513C21.2362 6.45612 21.2419 6.32549 21.2419 6.19347C21.2419 3.79441 19.4085 1.84961 17.1468 1.84961Z" fill="#896FCA"/>
</svg>