<svg viewBox="0 0 24 24" fill="none" xmlns="http://www.w3.org/2000/svg">
<mask id="path-1-inside-1_1_21322" fill="white">
<path fill-rule="evenodd" clip-rule="evenodd" d="M12 22C7.75736 22 5.63604 22 4.31802 20.5355C3 19.0711 3 16.714 3 12C3 7.28595 3 4.92893 4.31802 3.46447C5.63604 2 7.75736 2 12 2C16.2426 2 18.364 2 19.682 3.46447C21 4.92893 21 7.28595 21 12C21 16.714 21 19.0711 19.682 20.5355C18.364 22 16.2426 22 12 22ZM15 6H9C8.53501 6 8.30252 6 8.11177 6.05111C7.59413 6.18981 7.18981 6.59413 7.05111 7.11177C7 7.30252 7 7.53501 7 8C7 8.46499 7 8.69748 7.05111 8.88823C7.18981 9.40587 7.59413 9.81019 8.11177 9.94889C8.30252 10 8.53501 10 9 10H15C15.465 10 15.6975 10 15.8882 9.94889C16.4059 9.81019 16.8102 9.40587 16.9489 8.88823C17 8.69748 17 8.46499 17 8C17 7.53501 17 7.30252 16.9489 7.11177C16.8102 6.59413 16.4059 6.18981 15.8882 6.05111C15.6975 6 15.465 6 15 6ZM9 13C9 13.5523 8.55228 14 8 14C7.44772 14 7 13.5523 7 13C7 12.4477 7.44772 12 8 12C8.55228 12 9 12.4477 9 13ZM12 14C12.5523 14 13 13.5523 13 13C13 12.4477 12.5523 12 12 12C11.4477 12 11 12.4477 11 13C11 13.5523 11.4477 14 12 14ZM17 13C17 13.5523 16.5523 14 16 14C15.4477 14 15 13.5523 15 13C15 12.4477 15.4477 12 16 12C16.5523 12 17 12.4477 17 13ZM16 18C16.5523 18 17 17.5523 17 17C17 16.4477 16.5523 16 16 16C15.4477 16 15 16.4477 15 17C15 17.5523 15.4477 18 16 18ZM13 17C13 17.5523 12.5523 18 12 18C11.4477 18 11 17.5523 11 17C11 16.4477 11.4477 16 12 16C12.5523 16 13 16.4477 13 17ZM8 18C8.55228 18 9 17.5523 9 17C9 16.4477 8.55228 16 8 16C7.44772 16 7 16.4477 7 17C7 17.5523 7.44772 18 8 18Z"/>
</mask>
<path fill-rule="evenodd" clip-rule="evenodd" d="M12 22C7.75736 22 5.63604 22 4.31802 20.5355C3 19.0711 3 16.714 3 12C3 7.28595 3 4.92893 4.31802 3.46447C5.63604 2 7.75736 2 12 2C16.2426 2 18.364 2 19.682 3.46447C21 4.92893 21 7.28595 21 12C21 16.714 21 19.0711 19.682 20.5355C18.364 22 16.2426 22 12 22ZM15 6H9C8.53501 6 8.30252 6 8.11177 6.05111C7.59413 6.18981 7.18981 6.59413 7.05111 7.11177C7 7.30252 7 7.53501 7 8C7 8.46499 7 8.69748 7.05111 8.88823C7.18981 9.40587 7.59413 9.81019 8.11177 9.94889C8.30252 10 8.53501 10 9 10H15C15.465 10 15.6975 10 15.8882 9.94889C16.4059 9.81019 16.8102 9.40587 16.9489 8.88823C17 8.69748 17 8.46499 17 8C17 7.53501 17 7.30252 16.9489 7.11177C16.8102 6.59413 16.4059 6.18981 15.8882 6.05111C15.6975 6 15.465 6 15 6ZM9 13C9 13.5523 8.55228 14 8 14C7.44772 14 7 13.5523 7 13C7 12.4477 7.44772 12 8 12C8.55228 12 9 12.4477 9 13ZM12 14C12.5523 14 13 13.5523 13 13C13 12.4477 12.5523 12 12 12C11.4477 12 11 12.4477 11 13C11 13.5523 11.4477 14 12 14ZM17 13C17 13.5523 16.5523 14 16 14C15.4477 14 15 13.5523 15 13C15 12.4477 15.4477 12 16 12C16.5523 12 17 12.4477 17 13ZM16 18C16.5523 18 17 17.5523 17 17C17 16.4477 16.5523 16 16 16C15.4477 16 15 16.4477 15 17C15 17.5523 15.4477 18 16 18ZM13 17C13 17.5523 12.5523 18 12 18C11.4477 18 11 17.5523 11 17C11 16.4477 11.4477 16 12 16C12.5523 16 13 16.4477 13 17ZM8 18C8.55228 18 9 17.5523 9 17C9 16.4477 8.55228 16 8 16C7.44772 16 7 16.4477 7 17C7 17.5523 7.44772 18 8 18Z" fill="#896FCA"/>
<path d="M8.11177 9.94889L8.37059 8.98296L8.11177 9.94889ZM7.05111 8.88823L8.01704 8.62941L7.05111 8.88823ZM16.9489 8.88823L15.983 8.62941L16.9489 8.88823ZM15.8882 9.94889L15.6294 8.98296L15.8882 9.94889ZM15.8882 6.05111L15.6294 7.01704L15.8882 6.05111ZM16.9489 7.11177L15.983 7.37059L16.9489 7.11177ZM8.11177 6.05111L8.37059 7.01704L8.11177 6.05111ZM7.05111 7.11177L8.01704 7.37059L7.05111 7.11177ZM12 22V21C9.84737 21 8.34449 20.9974 7.21002 20.8279C6.11605 20.6645 5.50949 20.3645 5.06131 19.8666L4.31802 20.5355L3.57473 21.2045C4.44457 22.171 5.55768 22.6033 6.91453 22.806C8.23088 23.0026 9.90999 23 12 23V22ZM3 12H2C2 14.3315 1.99827 16.1708 2.17199 17.6065C2.348 19.0611 2.71845 20.2531 3.57473 21.2045L4.31802 20.5355L5.06131 19.8666C4.59957 19.3535 4.31101 18.6348 4.15751 17.3662C4.00173 16.0788 4 14.3825 4 12H3ZM21 12H20C20 14.3825 19.9983 16.0788 19.8425 17.3662C19.689 18.6348 19.4004 19.3535 18.9387 19.8666L19.682 20.5355L20.4253 21.2045C21.2815 20.2531 21.652 19.0611 21.828 17.6065C22.0017 16.1708 22 14.3315 22 12H21ZM12 22V23C14.09 23 15.7691 23.0026 17.0855 22.806C18.4423 22.6033 19.5554 22.171 20.4253 21.2045L19.682 20.5355L18.9387 19.8666C18.4905 20.3645 17.8839 20.6645 16.79 20.8279C15.6555 20.9974 14.1526 21 12 21V22ZM12 2V3C14.1526 3 15.6555 3.00261 16.79 3.17208C17.8839 3.33551 18.4905 3.63546 18.9387 4.13343L19.682 3.46447L20.4253 2.7955C19.5554 1.82901 18.4423 1.39673 17.0855 1.19403C15.7691 0.997389 14.09 1 12 1V2ZM21 12H22C22 9.66849 22.0017 7.8292 21.828 6.39352C21.652 4.93893 21.2815 3.74691 20.4253 2.7955L19.682 3.46447L18.9387 4.13343C19.4004 4.64648 19.689 5.36521 19.8425 6.63377C19.9983 7.92123 20 9.61747 20 12H21ZM12 2V1C9.90999 1 8.23088 0.997389 6.91453 1.19403C5.55768 1.39673 4.44457 1.82901 3.57473 2.7955L4.31802 3.46447L5.06131 4.13343C5.50949 3.63546 6.11605 3.33551 7.21002 3.17208C8.34449 3.00261 9.84737 3 12 3V2ZM3 12H4C4 9.61747 4.00173 7.92123 4.15751 6.63377C4.31101 5.36521 4.59957 4.64648 5.06131 4.13343L4.31802 3.46447L3.57473 2.7955C2.71845 3.74691 2.348 4.93893 2.17199 6.39352C1.99827 7.8292 2 9.66849 2 12H3ZM9 6V7H15V6V5H9V6ZM15 10V9H9V10V11H15V10ZM9 10V9C8.75844 9 8.61063 8.99976 8.49861 8.99465C8.39195 8.98979 8.36685 8.98196 8.37059 8.98296L8.11177 9.94889L7.85295 10.9148C8.20292 11.0086 8.5994 11 9 11V10ZM7 8H6C6 8.4006 5.99141 8.79708 6.08519 9.14705L7.05111 8.88823L8.01704 8.62941C8.01804 8.63315 8.01021 8.60805 8.00535 8.50139C8.00024 8.38937 8 8.24156 8 8H7ZM8.11177 9.94889L8.37059 8.98296C8.19804 8.93673 8.06327 8.80196 8.01704 8.62941L7.05111 8.88823L6.08519 9.14705C6.31635 10.0098 6.99022 10.6836 7.85295 10.9148L8.11177 9.94889ZM17 8H16C16 8.24156 15.9998 8.38937 15.9946 8.50139C15.9898 8.60805 15.982 8.63315 15.983 8.62941L16.9489 8.88823L17.9148 9.14705C18.0086 8.79708 18 8.4006 18 8H17ZM15 10V11C15.4006 11 15.7971 11.0086 16.147 10.9148L15.8882 9.94889L15.6294 8.98296C15.6331 8.98196 15.608 8.98979 15.5014 8.99465C15.3894 8.99976 15.2416 9 15 9V10ZM16.9489 8.88823L15.983 8.62941C15.9367 8.80196 15.802 8.93673 15.6294 8.98296L15.8882 9.94889L16.147 10.9148C17.0098 10.6836 17.6836 10.0098 17.9148 9.14705L16.9489 8.88823ZM15 6V7C15.2416 7 15.3894 7.00024 15.5014 7.00535C15.608 7.01021 15.6331 7.01804 15.6294 7.01704L15.8882 6.05111L16.147 5.08519C15.7971 4.99141 15.4006 5 15 5V6ZM17 8H18C18 7.5994 18.0086 7.20292 17.9148 6.85295L16.9489 7.11177L15.983 7.37059C15.982 7.36685 15.9898 7.39195 15.9946 7.49861C15.9998 7.61063 16 7.75844 16 8H17ZM15.8882 6.05111L15.6294 7.01704C15.802 7.06327 15.9367 7.19804 15.983 7.37059L16.9489 7.11177L17.9148 6.85295C17.6836 5.99022 17.0098 5.31635 16.147 5.08519L15.8882 6.05111ZM9 6V5C8.5994 5 8.20292 4.99141 7.85295 5.08519L8.11177 6.05111L8.37059 7.01704C8.36685 7.01804 8.39195 7.01021 8.49861 7.00535C8.61063 7.00024 8.75844 7 9 7V6ZM7 8H8C8 7.75844 8.00024 7.61063 8.00535 7.49861C8.01021 7.39195 8.01804 7.36685 8.01704 7.37059L7.05111 7.11177L6.08519 6.85295C5.99141 7.20292 6 7.5994 6 8H7ZM8.11177 6.05111L7.85295 5.08519C6.99022 5.31635 6.31635 5.99022 6.08519 6.85295L7.05111 7.11177L8.01704 7.37059C8.06327 7.19804 8.19804 7.06327 8.37059 7.01704L8.11177 6.05111ZM9 13H8V14V15C9.10457 15 10 14.1046 10 13H9ZM8 14V13H7H6C6 14.1046 6.89543 15 8 15V14ZM7 13H8V12V11C6.89543 11 6 11.8954 6 13H7ZM8 12V13H9H10C10 11.8954 9.10457 11 8 11V12ZM9 17H8V18V19C9.10457 19 10 18.1046 10 17H9ZM8 18V17H7H6C6 18.1046 6.89543 19 8 19V18ZM7 17H8V16V15C6.89543 15 6 15.8954 6 17H7ZM8 16V17H9H10C10 15.8954 9.10457 15 8 15V16ZM13 13H12V14V15C13.1046 15 14 14.1046 14 13H13ZM12 14V13H11H10C10 14.1046 10.8954 15 12 15V14ZM11 13H12V12V11C10.8954 11 10 11.8954 10 13H11ZM12 12V13H13H14C14 11.8954 13.1046 11 12 11V12ZM13 17H12V18V19C13.1046 19 14 18.1046 14 17H13ZM12 18V17H11H10C10 18.1046 10.8954 19 12 19V18ZM11 17H12V16V15C10.8954 15 10 15.8954 10 17H11ZM12 16V17H13H14C14 15.8954 13.1046 15 12 15V16ZM17 13H16V14V15C17.1046 15 18 14.1046 18 13H17ZM16 14V13H15H14C14 14.1046 14.8954 15 16 15V14ZM15 13H16V12V11C14.8954 11 14 11.8954 14 13H15ZM16 12V13H17H18C18 11.8954 17.1046 11 16 11V12ZM17 17H16V18V19C17.1046 19 18 18.1046 18 17H17ZM16 18V17H15H14C14 18.1046 14.8954 19 16 19V18ZM15 17H16V16V15C14.8954 15 14 15.8954 14 17H15ZM16 16V17H17H18C18 15.8954 17.1046 15 16 15V16Z" fill="#896FCA" mask="url(#path-1-inside-1_1_21322)"/>
</svg>