<svg viewBox="0 0 24 24" fill="none" xmlns="http://www.w3.org/2000/svg">
<path d="M7.49976 18C8.32818 18 8.99976 18.6716 8.99976 19.5C8.99974 20.3284 8.32817 21 7.49976 21C6.67145 20.9999 5.99977 20.3283 5.99976 19.5C5.99976 18.6716 6.67143 18.0001 7.49976 18ZM16.4998 18C17.3282 18 17.9997 18.6716 17.9998 19.5C17.9998 20.3284 17.3282 21 16.4998 21C15.6714 20.9999 14.9998 20.3284 14.9998 19.5C14.9998 18.6717 15.6714 18.0001 16.4998 18ZM2.08374 2.75098C2.22114 2.36024 2.65002 2.15461 3.04077 2.29199L3.34155 2.39844C3.95808 2.61517 4.4822 2.79878 4.89429 3.00098C5.33485 3.21715 5.71266 3.48367 5.99683 3.89941C6.27881 4.31206 6.39524 4.76534 6.44897 5.26172C6.47301 5.48386 6.48525 5.72976 6.49194 6H17.1306C18.8155 6 20.3322 6.00008 20.7761 6.57715C21.22 7.15422 21.047 8.02374 20.7 9.7627L20.2 12.1875C19.8848 13.7164 19.7273 14.4811 19.1755 14.9307C18.6238 15.3803 17.843 15.3799 16.282 15.3799H10.9792C8.19034 15.3799 6.79585 15.3796 5.92944 14.4658C5.06318 13.552 4.99976 12.581 4.99976 9.63965V7.03809C4.99976 6.29825 4.99891 5.80302 4.95776 5.42285C4.91845 5.05966 4.84876 4.87816 4.75854 4.74609C4.67049 4.61723 4.53638 4.49644 4.23315 4.34766C3.91036 4.1893 3.47179 4.03345 2.80444 3.79883L2.54272 3.70703C2.15217 3.56952 1.94639 3.14163 2.08374 2.75098ZM10.239 8.875C10.1698 8.46661 9.78315 8.19156 9.37476 8.26074C8.96644 8.32991 8.69146 8.71669 8.7605 9.125L9.28882 12.2432C9.35802 12.6514 9.74485 12.9264 10.1531 12.8574C10.5615 12.7882 10.8365 12.4006 10.7673 11.9922L10.239 8.875ZM15.6541 8.26074C15.2457 8.19156 14.858 8.46661 14.7888 8.875L14.2605 11.9922C14.1913 12.4006 14.4664 12.7882 14.8748 12.8574C15.2831 12.9266 15.6708 12.6516 15.74 12.2432L16.2673 9.125C16.3364 8.71683 16.0621 8.33015 15.6541 8.26074Z" fill="#896FCA"/>
</svg>