<svg viewBox="0 0 24 24" fill="none" xmlns="http://www.w3.org/2000/svg">
<g clip-path="url(#clip0_1_21355)">
<mask id="path-1-outside-1_1_21355" maskUnits="userSpaceOnUse" x="0" y="-0.75" width="24" height="25" fill="black">
<rect fill="white" y="-0.75" width="24" height="25"/>
<path fill-rule="evenodd" clip-rule="evenodd" d="M12.0002 2.75C11.0217 2.75 10.1873 3.37503 9.87803 4.24993C9.73999 4.64047 9.3115 4.84517 8.92096 4.70713C8.53043 4.56909 8.32573 4.1406 8.46377 3.75007C8.97821 2.29459 10.3662 1.25 12.0002 1.25C13.6341 1.25 15.0222 2.29459 15.5366 3.75007C15.6747 4.1406 15.47 4.56909 15.0794 4.70713C14.6889 4.84517 14.2604 4.64047 14.1224 4.24993C13.8131 3.37503 12.9787 2.75 12.0002 2.75Z"/>
<path d="M14 12.5H10C9.72386 12.5 9.5 12.7239 9.5 13V15.1615C9.5 15.3659 9.62448 15.5498 9.8143 15.6257L10.5144 15.9058C11.4681 16.2872 12.5319 16.2872 13.4856 15.9058L14.1857 15.6257C14.3755 15.5498 14.5 15.3659 14.5 15.1615V13C14.5 12.7239 14.2761 12.5 14 12.5Z"/>
<path d="M8.01076 15.3691L3.00586 13.8677C3.03595 16.9822 3.21789 19.8505 4.31792 20.8283C5.63593 21.9998 7.75726 21.9998 11.9999 21.9998C16.2425 21.9998 18.3639 21.9998 19.6819 20.8283C20.7819 19.8505 20.9638 16.9822 20.9939 13.8677L15.9892 15.3691C15.913 16.1018 15.4372 16.7407 14.7428 17.0184L14.0426 17.2985C12.7314 17.823 11.2686 17.823 9.95735 17.2985L9.25722 17.0184C8.5628 16.7407 8.08702 16.1018 8.01076 15.3691Z"/>
<path d="M7.60893 5H16.3911C18.8412 5 20.0663 5 20.8934 5.67298C21.0524 5.80233 21.1977 5.94762 21.327 6.10659C22 6.9337 22 8.15877 22 10.6089C22 11.2307 22 11.5415 21.8492 11.784C21.8199 11.8312 21.7866 11.8759 21.7498 11.9176C21.5609 12.1317 21.2631 12.2211 20.6676 12.3997L16 13.8V13C16 11.8954 15.1046 11 14 11H10C8.89543 11 8 11.8954 8 13V13.8L3.3324 12.3997C2.7369 12.2211 2.43915 12.1317 2.25021 11.9176C2.21341 11.8759 2.18015 11.8312 2.15078 11.784C2 11.5415 2 11.2307 2 10.6089C2 8.15877 2 6.9337 2.67298 6.10659C2.80233 5.94763 2.94763 5.80233 3.10659 5.67298C3.9337 5 5.15877 5 7.60893 5Z"/>
</mask>
<path fill-rule="evenodd" clip-rule="evenodd" d="M12.0002 2.75C11.0217 2.75 10.1873 3.37503 9.87803 4.24993C9.73999 4.64047 9.3115 4.84517 8.92096 4.70713C8.53043 4.56909 8.32573 4.1406 8.46377 3.75007C8.97821 2.29459 10.3662 1.25 12.0002 1.25C13.6341 1.25 15.0222 2.29459 15.5366 3.75007C15.6747 4.1406 15.47 4.56909 15.0794 4.70713C14.6889 4.84517 14.2604 4.64047 14.1224 4.24993C13.8131 3.37503 12.9787 2.75 12.0002 2.75Z" fill="#896FCA"/>
<path d="M14 12.5H10C9.72386 12.5 9.5 12.7239 9.5 13V15.1615C9.5 15.3659 9.62448 15.5498 9.8143 15.6257L10.5144 15.9058C11.4681 16.2872 12.5319 16.2872 13.4856 15.9058L14.1857 15.6257C14.3755 15.5498 14.5 15.3659 14.5 15.1615V13C14.5 12.7239 14.2761 12.5 14 12.5Z" fill="#896FCA"/>
<path d="M8.01076 15.3691L3.00586 13.8677C3.03595 16.9822 3.21789 19.8505 4.31792 20.8283C5.63593 21.9998 7.75726 21.9998 11.9999 21.9998C16.2425 21.9998 18.3639 21.9998 19.6819 20.8283C20.7819 19.8505 20.9638 16.9822 20.9939 13.8677L15.9892 15.3691C15.913 16.1018 15.4372 16.7407 14.7428 17.0184L14.0426 17.2985C12.7314 17.823 11.2686 17.823 9.95735 17.2985L9.25722 17.0184C8.5628 16.7407 8.08702 16.1018 8.01076 15.3691Z" fill="#896FCA"/>
<path d="M7.60893 5H16.3911C18.8412 5 20.0663 5 20.8934 5.67298C21.0524 5.80233 21.1977 5.94762 21.327 6.10659C22 6.9337 22 8.15877 22 10.6089C22 11.2307 22 11.5415 21.8492 11.784C21.8199 11.8312 21.7866 11.8759 21.7498 11.9176C21.5609 12.1317 21.2631 12.2211 20.6676 12.3997L16 13.8V13C16 11.8954 15.1046 11 14 11H10C8.89543 11 8 11.8954 8 13V13.8L3.3324 12.3997C2.7369 12.2211 2.43915 12.1317 2.25021 11.9176C2.21341 11.8759 2.18015 11.8312 2.15078 11.784C2 11.5415 2 11.2307 2 10.6089C2 8.15877 2 6.9337 2.67298 6.10659C2.80233 5.94763 2.94763 5.80233 3.10659 5.67298C3.9337 5 5.15877 5 7.60893 5Z" fill="#896FCA"/>
<path d="M9.87803 4.24993L8.46377 3.75007V3.75007L9.87803 4.24993ZM8.46377 3.75007L9.87803 4.24993L8.46377 3.75007ZM15.5366 3.75007L16.9509 3.2502V3.2502L15.5366 3.75007ZM15.0794 4.70713L15.5793 6.12139V6.12139L15.0794 4.70713ZM14.1224 4.24993L12.7081 4.7498V4.7498L14.1224 4.24993ZM14.1857 15.6257L13.6286 14.233V14.233L14.1857 15.6257ZM13.4856 15.9058L14.0426 17.2985V17.2985L13.4856 15.9058ZM10.5144 15.9058L9.95735 17.2985H9.95735L10.5144 15.9058ZM9.8143 15.6257L10.3714 14.233L10.3714 14.233L9.8143 15.6257ZM3.00586 13.8677L3.43688 12.4309L1.48625 11.8457L1.50593 13.8822L3.00586 13.8677ZM8.01076 15.3691L9.50271 15.2139L9.39923 14.2196L8.44179 13.9324L8.01076 15.3691ZM4.31792 20.8283L5.31446 19.7072H5.31446L4.31792 20.8283ZM19.6819 20.8283L18.6853 19.7072V19.7072L19.6819 20.8283ZM20.9939 13.8677L22.4939 13.8822L22.5135 11.8458L20.5629 12.431L20.9939 13.8677ZM15.9892 15.3691L15.5582 13.9324L14.6007 14.2196L14.4973 15.2139L15.9892 15.3691ZM14.7428 17.0184L14.1857 15.6257H14.1857L14.7428 17.0184ZM14.0426 17.2985L13.4856 15.9058H13.4856L14.0426 17.2985ZM9.95735 17.2985L9.40026 18.6912L9.40027 18.6912L9.95735 17.2985ZM9.25722 17.0184L9.81431 15.6257L9.8143 15.6257L9.25722 17.0184ZM20.8934 5.67298L19.9467 6.83649L19.9467 6.83649L20.8934 5.67298ZM21.327 6.10659L20.1635 7.0533L20.1635 7.0533L21.327 6.10659ZM21.8492 11.784L20.5754 10.9919L20.5754 10.992L21.8492 11.784ZM21.7498 11.9176L22.8745 12.9102H22.8745L21.7498 11.9176ZM20.6676 12.3997L20.2366 10.963V10.963L20.6676 12.3997ZM16 13.8H14.5V15.816L16.431 15.2367L16 13.8ZM8 13.8L7.56898 15.2367L9.5 15.816V13.8H8ZM3.3324 12.3997L3.76343 10.963L3.76343 10.963L3.3324 12.3997ZM2.25021 11.9176L3.37489 10.9251L3.37489 10.9251L2.25021 11.9176ZM2.15078 11.784L0.876942 12.5761L0.876943 12.5761L2.15078 11.784ZM2.67298 6.10659L1.50947 5.15989H1.50947L2.67298 6.10659ZM3.10659 5.67298L2.15989 4.50947L2.15989 4.50947L3.10659 5.67298ZM9.87803 4.24993L11.2923 4.7498C11.396 4.45652 11.6761 4.25 12.0002 4.25V2.75V1.25C10.3673 1.25 8.97858 2.29354 8.46377 3.75007L9.87803 4.24993ZM8.92096 4.70713L8.42109 6.12139C9.59271 6.53549 10.8782 5.92142 11.2923 4.7498L9.87803 4.24993L8.46377 3.75007C8.6018 3.35953 9.0303 3.15484 9.42083 3.29287L8.92096 4.70713ZM8.46377 3.75007L7.04951 3.2502C6.6354 4.42181 7.24948 5.70728 8.42109 6.12139L8.92096 4.70713L9.42083 3.29287C9.81137 3.43091 10.0161 3.8594 9.87803 4.24993L8.46377 3.75007ZM12.0002 1.25V-0.25C9.71014 -0.25 7.76893 1.21477 7.04951 3.2502L8.46377 3.75007L9.87803 4.24993C10.1875 3.3744 11.0224 2.75 12.0002 2.75V1.25ZM15.5366 3.75007L16.9509 3.2502C16.2315 1.21477 14.2902 -0.25 12.0002 -0.25V1.25V2.75C12.978 2.75 13.8129 3.3744 14.1224 4.24993L15.5366 3.75007ZM15.0794 4.70713L15.5793 6.12139C16.7509 5.70728 17.365 4.42181 16.9509 3.2502L15.5366 3.75007L14.1224 4.24993C13.9843 3.8594 14.189 3.43091 14.5796 3.29287L15.0794 4.70713ZM14.1224 4.24993L12.7081 4.7498C13.1222 5.92141 14.4077 6.53549 15.5793 6.12139L15.0794 4.70713L14.5796 3.29287C14.9701 3.15484 15.3986 3.35953 15.5366 3.75006L14.1224 4.24993ZM12.0002 2.75V4.25C12.3243 4.25 12.6044 4.45652 12.7081 4.7498L14.1224 4.24993L15.5366 3.75007C15.0218 2.29354 13.6331 1.25 12.0002 1.25V2.75ZM10 12.5V14H14V12.5V11H10V12.5ZM14.5 13H13V15.1615H14.5H16V13H14.5ZM14.1857 15.6257L13.6286 14.233L12.9285 14.5131L13.4856 15.9058L14.0426 17.2985L14.7428 17.0184L14.1857 15.6257ZM10.5144 15.9058L11.0715 14.5131L10.3714 14.233L9.8143 15.6257L9.25722 17.0184L9.95735 17.2985L10.5144 15.9058ZM9.5 15.1615H11V13H9.5H8V15.1615H9.5ZM9.8143 15.6257L10.3714 14.233C10.751 14.3849 11 14.7526 11 15.1615H9.5H8C8 15.9793 8.4979 16.7147 9.25722 17.0184L9.8143 15.6257ZM13.4856 15.9058L12.9285 14.5131C12.3324 14.7515 11.6676 14.7515 11.0715 14.5131L10.5144 15.9058L9.95735 17.2985C11.2686 17.823 12.7314 17.823 14.0426 17.2985L13.4856 15.9058ZM14.5 15.1615H13C13 14.7526 13.249 14.3849 13.6286 14.233L14.1857 15.6257L14.7428 17.0184C15.5021 16.7147 16 15.9793 16 15.1615H14.5ZM14 12.5V14C13.4477 14 13 13.5523 13 13H14.5H16C16 11.8954 15.1046 11 14 11V12.5ZM10 12.5V11C8.89543 11 8 11.8954 8 13H9.5H11C11 13.5523 10.5523 14 10 14V12.5ZM3.00586 13.8677L2.57484 15.3044L7.57974 16.8059L8.01076 15.3691L8.44179 13.9324L3.43688 12.4309L3.00586 13.8677ZM4.31792 20.8283L5.31446 19.7072C5.28776 19.6834 5.18115 19.566 5.05597 19.2352C4.93451 18.9143 4.82807 18.4794 4.74363 17.9238C4.57408 16.8084 4.52078 15.4043 4.50579 13.8532L3.00586 13.8677L1.50593 13.8822C1.52103 15.4455 1.57375 17.0329 1.7777 18.3746C1.88 19.0477 2.02719 19.7079 2.25017 20.2971C2.46942 20.8764 2.79806 21.4842 3.32137 21.9494L4.31792 20.8283ZM11.9999 21.9998V20.4998C9.84078 20.4998 8.35576 20.4973 7.24017 20.364C6.15138 20.2339 5.64462 20.0006 5.31446 19.7072L4.31792 20.8283L3.32137 21.9494C4.30924 22.8275 5.52214 23.18 6.88418 23.3428C8.21942 23.5024 9.91638 23.4998 11.9999 23.4998V21.9998ZM19.6819 20.8283L18.6853 19.7072C18.3552 20.0006 17.8484 20.2339 16.7596 20.364C15.644 20.4973 14.159 20.4998 11.9999 20.4998V21.9998V23.4998C14.0834 23.4998 15.7804 23.5024 17.1156 23.3428C18.4776 23.18 19.6906 22.8275 20.6784 21.9494L19.6819 20.8283ZM20.9939 13.8677L19.494 13.8532C19.479 15.4043 19.4257 16.8084 19.2562 17.9238C19.1717 18.4794 19.0653 18.9143 18.9438 19.2352C18.8186 19.566 18.712 19.6834 18.6853 19.7072L19.6819 20.8283L20.6784 21.9494C21.2017 21.4842 21.5304 20.8764 21.7496 20.2971C21.9726 19.7079 22.1198 19.0477 22.2221 18.3746C22.426 17.0329 22.4788 15.4455 22.4939 13.8822L20.9939 13.8677ZM15.9892 15.3691L16.4203 16.8058L21.425 15.3044L20.9939 13.8677L20.5629 12.431L15.5582 13.9324L15.9892 15.3691ZM15.9892 15.3691L14.4973 15.2139C14.4783 15.3966 14.3591 15.5564 14.1857 15.6257L14.7428 17.0184L15.2999 18.4112C16.5154 17.9249 17.3477 16.807 17.4812 15.5243L15.9892 15.3691ZM14.7428 17.0184L14.1857 15.6257L13.4856 15.9058L14.0426 17.2985L14.5997 18.6912L15.2999 18.4112L14.7428 17.0184ZM14.0426 17.2985L13.4856 15.9058C12.5319 16.2872 11.4681 16.2872 10.5144 15.9058L9.95735 17.2985L9.40027 18.6912C11.0691 19.3588 12.9309 19.3588 14.5997 18.6912L14.0426 17.2985ZM9.95735 17.2985L10.5144 15.9058L9.81431 15.6257L9.25722 17.0184L8.70013 18.4111L9.40026 18.6912L9.95735 17.2985ZM9.25722 17.0184L9.8143 15.6257C9.64095 15.5564 9.52173 15.3966 9.50271 15.2139L8.01076 15.3691L6.51882 15.5244C6.65231 16.8071 7.48465 17.925 8.70013 18.4112L9.25722 17.0184ZM16.3911 5V3.5H7.60893V5V6.5H16.3911V5ZM20.8934 5.67298L21.8401 4.50947C21.1158 3.92016 20.2825 3.69501 19.4259 3.59437C18.6021 3.49757 17.5796 3.5 16.3911 3.5V5V6.5C17.6527 6.5 18.4678 6.50243 19.0758 6.57387C19.6512 6.64148 19.8439 6.75282 19.9467 6.83649L20.8934 5.67298ZM21.327 6.10659L22.4905 5.15989C22.2965 4.92144 22.0786 4.70349 21.8401 4.50947L20.8934 5.67298L19.9467 6.83649C20.0262 6.90117 20.0988 6.97381 20.1635 7.0533L21.327 6.10659ZM22 10.6089H23.5C23.5 9.42035 23.5024 8.39786 23.4056 7.57407C23.305 6.71755 23.0798 5.88416 22.4905 5.15989L21.327 6.10659L20.1635 7.0533C20.2472 7.15613 20.3585 7.34883 20.4261 7.92417C20.4976 8.53223 20.5 9.34735 20.5 10.6089H22ZM21.8492 11.784L23.1231 12.5761C23.3639 12.1887 23.442 11.8003 23.4735 11.4901C23.5018 11.2112 23.5 10.8893 23.5 10.6089H22H20.5C20.5 10.7686 20.4999 10.8887 20.4979 10.9914C20.4959 11.094 20.4923 11.1528 20.4888 11.1873C20.4826 11.2485 20.4853 11.1368 20.5754 10.9919L21.8492 11.784ZM21.7498 11.9176L22.8745 12.9102C22.9665 12.8059 23.0496 12.6941 23.1231 12.576L21.8492 11.784L20.5754 10.992C20.5901 10.9683 20.6067 10.946 20.6251 10.9251L21.7498 11.9176ZM20.6676 12.3997L21.0986 13.8365C21.3672 13.7559 21.676 13.6651 21.935 13.5579C22.2231 13.4386 22.5726 13.2522 22.8745 12.9102L21.7498 11.9176L20.6251 10.9251C20.738 10.7972 20.8442 10.7625 20.7873 10.7861C20.7553 10.7993 20.7 10.8197 20.6023 10.8511C20.5045 10.8825 20.3895 10.9171 20.2366 10.963L20.6676 12.3997ZM16 13.8L16.431 15.2367L21.0986 13.8365L20.6676 12.3997L20.2366 10.963L15.569 12.3633L16 13.8ZM16 13H14.5V13.8H16H17.5V13H16ZM14 11V12.5C14.2761 12.5 14.5 12.7239 14.5 13H16H17.5C17.5 11.067 15.933 9.5 14 9.5V11ZM10 11V12.5H14V11V9.5H10V11ZM8 13H9.5C9.5 12.7239 9.72386 12.5 10 12.5V11V9.5C8.067 9.5 6.5 11.067 6.5 13H8ZM8 13.8H9.5V13H8H6.5V13.8H8ZM3.3324 12.3997L2.90138 13.8365L7.56898 15.2367L8 13.8L8.43102 12.3633L3.76343 10.963L3.3324 12.3997ZM2.25021 11.9176L1.12553 12.9102C1.42736 13.2522 1.77691 13.4386 2.06499 13.5579C2.32398 13.6651 2.63283 13.7559 2.90138 13.8365L3.3324 12.3997L3.76343 10.963C3.61047 10.9171 3.49548 10.8825 3.39771 10.8511C3.3 10.8197 3.24473 10.7994 3.21271 10.7861C3.15579 10.7625 3.262 10.7972 3.37489 10.9251L2.25021 11.9176ZM2.15078 11.784L0.876943 12.5761C0.95037 12.6941 1.03352 12.8059 1.12553 12.9102L2.25021 11.9176L3.37489 10.9251C3.39329 10.946 3.40993 10.9683 3.42461 10.992L2.15078 11.784ZM2 10.6089H0.5C0.5 10.8893 0.498212 11.2112 0.52651 11.4901C0.557986 11.8003 0.636075 12.1887 0.876942 12.5761L2.15078 11.784L3.42461 10.992C3.5147 11.1368 3.5174 11.2485 3.51118 11.1873C3.50768 11.1528 3.50408 11.094 3.50207 10.9914C3.50006 10.8887 3.5 10.7686 3.5 10.6089H2ZM2.67298 6.10659L1.50947 5.15989C0.92016 5.88416 0.695014 6.71755 0.594372 7.57407C0.497575 8.39786 0.5 9.42035 0.5 10.6089H2H3.5C3.5 9.34735 3.50243 8.53223 3.57387 7.92417C3.64148 7.34883 3.75282 7.15613 3.83649 7.0533L2.67298 6.10659ZM3.10659 5.67298L2.15989 4.50947C1.92144 4.70349 1.70349 4.92144 1.50947 5.15989L2.67298 6.10659L3.83649 7.0533C3.90116 6.97381 3.97381 6.90116 4.0533 6.83649L3.10659 5.67298ZM7.60893 5V3.5C6.42035 3.5 5.39786 3.49757 4.57407 3.59437C3.71755 3.69501 2.88416 3.92016 2.15989 4.50947L3.10659 5.67298L4.0533 6.83649C4.15613 6.75282 4.34883 6.64148 4.92417 6.57387C5.53223 6.50243 6.34735 6.5 7.60893 6.5V5Z" fill="#896FCA" mask="url(#path-1-outside-1_1_21355)"/>
</g>
<defs>
<clipPath id="clip0_1_21355">
<rect width="24" height="24" fill="white"/>
</clipPath>
</defs>
</svg>