<svg viewBox="0 0 24 24" fill="none" xmlns="http://www.w3.org/2000/svg">
<path fill-rule="evenodd" clip-rule="evenodd" d="M3.35 18.1997C3.17818 17.12 3.06638 16.0133 2.99619 14.948C3.32803 14.8501 3.67954 14.7975 4.04342 14.7975C6.06871 14.7975 7.71053 16.4262 7.71053 18.4352C7.71053 18.9317 7.6103 19.405 7.4288 19.8361C6.32556 19.7321 5.20591 19.5675 4.24243 19.3069C3.81602 19.1917 3.44486 18.7959 3.35 18.1997ZM13.7776 1.37513C14.5129 1.04667 15.3801 1.01744 16.158 1.37125C17.0833 1.7921 18.8231 2.6507 20.3511 3.80184C21.1153 4.37746 21.8715 5.05946 22.4459 5.83533C22.8577 6.39127 23.2048 7.03527 23.3682 7.75087C19.48 8.59714 14.5432 8.68087 12.5253 8.71347C10.3526 8.7486 4.82408 8.83234 0.824977 7.93025C0.785929 7.92144 0.7469 7.91489 0.708021 7.9105C1.00974 7.32657 1.50835 6.8562 2.12179 6.58215L13.7776 1.37513ZM0.361019 10.0223C0.305594 12.0586 0.32265 15.4095 0.829451 18.5945C1.05414 20.0063 2.02056 21.3299 3.57137 21.7493C6.5183 22.5461 10.5373 22.5459 11.996 22.5457H12.0808C13.5395 22.5459 17.5585 22.5461 20.5054 21.7493C22.0532 21.3308 23.0413 20.0017 23.2192 18.5442C23.5067 16.1886 23.4906 13.2742 23.4752 10.4775C23.4742 10.291 23.4731 10.1041 23.4721 9.91872C19.4168 10.7453 14.5269 10.8243 12.5875 10.8556L12.5599 10.8561L12.5279 10.8566C10.3855 10.8912 4.63293 10.9843 0.361019 10.0223ZM14.8335 17.5671C16.3481 17.5671 17.2 16.722 17.2 15.2194C17.2 13.7169 16.3481 12.8717 14.8335 12.8717C13.3188 12.8717 12.4668 13.7169 12.4668 15.2194C12.4668 16.722 13.3188 17.5671 14.8335 17.5671Z" fill="#896FCA"/>
</svg>