<svg viewBox="0 0 24 24" fill="none" xmlns="http://www.w3.org/2000/svg">
<g clip-path="url(#clip0_1_21340)">
<mask id="path-1-outside-1_1_21340" maskUnits="userSpaceOnUse" x="0" y="0" width="24" height="24" fill="black">
<rect fill="white" width="24" height="24"/>
<path fill-rule="evenodd" clip-rule="evenodd" d="M2 12V8C2 5.17157 2 3.75736 2.87868 2.87868C3.75736 2 5.17157 2 8 2H16C18.8284 2 20.2426 2 21.1213 2.87868C22 3.75736 22 5.17157 22 8V12C22 14.8284 22 16.2426 21.1213 17.1213C20.645 17.5977 20.0113 17.8158 19.0802 17.9156C19.0062 17.8157 18.9362 17.737 18.8862 17.6821C18.7701 17.5544 18.6228 17.4092 18.48 17.2684L16.987 15.7962L16.4357 15.2377C16.0733 13.1151 14.2255 11.5 12.0001 11.5C9.77461 11.5 7.9268 13.1151 7.56446 15.2377L7.01311 15.7962L5.5202 17.2683C5.37739 17.4091 5.23008 17.5543 5.11392 17.6821C5.06395 17.737 4.9939 17.8157 4.9199 17.9156C3.98877 17.8158 3.35503 17.5977 2.87868 17.1213C2 16.2426 2 14.8284 2 12ZM9 5.25C8.58579 5.25 8.25 5.58579 8.25 6C8.25 6.41421 8.58579 6.75 9 6.75H15C15.4142 6.75 15.75 6.41421 15.75 6C15.75 5.58579 15.4142 5.25 15 5.25H9ZM6.25 9.5C6.25 9.08579 6.58579 8.75 7 8.75H17C17.4142 8.75 17.75 9.08579 17.75 9.5C17.75 9.91421 17.4142 10.25 17 10.25H7C6.58579 10.25 6.25 9.91421 6.25 9.5Z"/>
<path d="M15 16C15 17.6569 13.6569 19 12 19C10.3431 19 9 17.6569 9 16C9 14.3431 10.3431 13 12 13C13.6569 13 15 14.3431 15 16Z"/>
<path d="M9.00111 15.9174C9.00037 15.9449 9 15.9724 9 16C9 17.6569 10.3431 19 12 19C13.6569 19 15 17.6569 15 16C15 15.9724 14.9996 15.9449 14.9989 15.9174C14.9551 14.2987 13.6292 13 12 13C10.4467 13 9.16912 14.1805 9.01549 15.6933C9.00798 15.7672 9.00315 15.842 9.00111 15.9174Z"/>
<path d="M7.6757 17.2494L6.59523 18.3148C6.27116 18.6344 6.10913 18.7942 6.05306 18.9295C5.92529 19.2378 6.03463 19.5799 6.31283 19.7421C6.43492 19.8132 6.65512 19.8354 7.09553 19.8798C7.3442 19.9048 7.46853 19.9173 7.57266 19.9554C7.80579 20.0405 7.98715 20.2193 8.07345 20.4492C8.112 20.5519 8.1247 20.6745 8.1501 20.9197C8.19509 21.354 8.21758 21.5711 8.28977 21.6915C8.45425 21.9659 8.80111 22.0737 9.1138 21.9477C9.25102 21.8924 9.41306 21.7326 9.73713 21.413L10.8175 20.343C9.30505 19.9322 8.10917 18.7524 7.6757 17.2494Z"/>
<path d="M13.1825 20.343L14.2629 21.413C14.5869 21.7326 14.749 21.8924 14.8862 21.9477C15.1989 22.0737 15.5457 21.9659 15.7102 21.6915C15.7824 21.5711 15.8049 21.354 15.8499 20.9197C15.8753 20.6745 15.888 20.5519 15.9265 20.4492C16.0129 20.2193 16.1942 20.0405 16.4273 19.9554C16.5315 19.9173 16.6558 19.9048 16.9045 19.8798C17.3449 19.8354 17.5651 19.8132 17.6872 19.7421C17.9654 19.5799 18.0747 19.2378 17.9469 18.9295C17.8909 18.7942 17.7288 18.6344 17.4048 18.3148L16.3243 17.2494C15.8908 18.7524 14.6949 19.9322 13.1825 20.343Z"/>
</mask>
<path fill-rule="evenodd" clip-rule="evenodd" d="M2 12V8C2 5.17157 2 3.75736 2.87868 2.87868C3.75736 2 5.17157 2 8 2H16C18.8284 2 20.2426 2 21.1213 2.87868C22 3.75736 22 5.17157 22 8V12C22 14.8284 22 16.2426 21.1213 17.1213C20.645 17.5977 20.0113 17.8158 19.0802 17.9156C19.0062 17.8157 18.9362 17.737 18.8862 17.6821C18.7701 17.5544 18.6228 17.4092 18.48 17.2684L16.987 15.7962L16.4357 15.2377C16.0733 13.1151 14.2255 11.5 12.0001 11.5C9.77461 11.5 7.9268 13.1151 7.56446 15.2377L7.01311 15.7962L5.5202 17.2683C5.37739 17.4091 5.23008 17.5543 5.11392 17.6821C5.06395 17.737 4.9939 17.8157 4.9199 17.9156C3.98877 17.8158 3.35503 17.5977 2.87868 17.1213C2 16.2426 2 14.8284 2 12ZM9 5.25C8.58579 5.25 8.25 5.58579 8.25 6C8.25 6.41421 8.58579 6.75 9 6.75H15C15.4142 6.75 15.75 6.41421 15.75 6C15.75 5.58579 15.4142 5.25 15 5.25H9ZM6.25 9.5C6.25 9.08579 6.58579 8.75 7 8.75H17C17.4142 8.75 17.75 9.08579 17.75 9.5C17.75 9.91421 17.4142 10.25 17 10.25H7C6.58579 10.25 6.25 9.91421 6.25 9.5Z" fill="#896FCA"/>
<path d="M15 16C15 17.6569 13.6569 19 12 19C10.3431 19 9 17.6569 9 16C9 14.3431 10.3431 13 12 13C13.6569 13 15 14.3431 15 16Z" fill="#896FCA"/>
<path d="M9.00111 15.9174C9.00037 15.9449 9 15.9724 9 16C9 17.6569 10.3431 19 12 19C13.6569 19 15 17.6569 15 16C15 15.9724 14.9996 15.9449 14.9989 15.9174C14.9551 14.2987 13.6292 13 12 13C10.4467 13 9.16912 14.1805 9.01549 15.6933C9.00798 15.7672 9.00315 15.842 9.00111 15.9174Z" fill="#896FCA"/>
<path d="M7.6757 17.2494L6.59523 18.3148C6.27116 18.6344 6.10913 18.7942 6.05306 18.9295C5.92529 19.2378 6.03463 19.5799 6.31283 19.7421C6.43492 19.8132 6.65512 19.8354 7.09553 19.8798C7.3442 19.9048 7.46853 19.9173 7.57266 19.9554C7.80579 20.0405 7.98715 20.2193 8.07345 20.4492C8.112 20.5519 8.1247 20.6745 8.1501 20.9197C8.19509 21.354 8.21758 21.5711 8.28977 21.6915C8.45425 21.9659 8.80111 22.0737 9.1138 21.9477C9.25102 21.8924 9.41306 21.7326 9.73713 21.413L10.8175 20.343C9.30505 19.9322 8.10917 18.7524 7.6757 17.2494Z" fill="#896FCA"/>
<path d="M13.1825 20.343L14.2629 21.413C14.5869 21.7326 14.749 21.8924 14.8862 21.9477C15.1989 22.0737 15.5457 21.9659 15.7102 21.6915C15.7824 21.5711 15.8049 21.354 15.8499 20.9197C15.8753 20.6745 15.888 20.5519 15.9265 20.4492C16.0129 20.2193 16.1942 20.0405 16.4273 19.9554C16.5315 19.9173 16.6558 19.9048 16.9045 19.8798C17.3449 19.8354 17.5651 19.8132 17.6872 19.7421C17.9654 19.5799 18.0747 19.2378 17.9469 18.9295C17.8909 18.7942 17.7288 18.6344 17.4048 18.3148L16.3243 17.2494C15.8908 18.7524 14.6949 19.9322 13.1825 20.343Z" fill="#896FCA"/>
<path d="M15 16H14.25C14.25 17.2426 13.2426 18.25 12 18.25V19V19.75C14.0711 19.75 15.75 18.0711 15.75 16H15ZM12 19V18.25C10.7574 18.25 9.75 17.2426 9.75 16H9H8.25C8.25 18.0711 9.92893 19.75 12 19.75V19ZM2.87868 2.87868L1.81802 1.81802L1.81802 1.81802L2.87868 2.87868ZM21.1213 2.87868L22.182 1.81802L22.182 1.81802L21.1213 2.87868ZM21.1213 17.1213L22.182 18.182H22.182L21.1213 17.1213ZM19.0802 17.9156L17.8748 18.8084L18.3861 19.4987L19.2402 19.4071L19.0802 17.9156ZM18.8862 17.6821L17.7764 18.6912V18.6912L18.8862 17.6821ZM18.48 17.2684L17.4268 18.3365L17.4269 18.3366L18.48 17.2684ZM16.987 15.7962L15.9195 16.85L15.9266 16.8571L15.9338 16.8642L16.987 15.7962ZM16.4357 15.2377L14.9571 15.4901L15.0365 15.9555L15.3682 16.2915L16.4357 15.2377ZM7.56446 15.2377L8.63194 16.2915L8.96362 15.9555L9.04307 15.4901L7.56446 15.2377ZM7.01311 15.7962L8.06632 16.8642L8.07351 16.8571L8.08059 16.85L7.01311 15.7962ZM5.5202 17.2683L6.57328 18.3365L6.57341 18.3364L5.5202 17.2683ZM5.11392 17.6821L4.00413 16.6729L4.00412 16.673L5.11392 17.6821ZM4.9199 17.9156L4.75993 19.4071L5.61403 19.4987L6.12529 18.8084L4.9199 17.9156ZM2.87868 17.1213L1.81802 18.182H1.81802L2.87868 17.1213ZM9.00111 15.9174L10.5006 15.9579V15.9579L9.00111 15.9174ZM14.9989 15.9174L16.4983 15.8769L16.4983 15.8769L14.9989 15.9174ZM9.01549 15.6933L7.52316 15.5417V15.5417L9.01549 15.6933ZM6.59523 18.3148L7.64845 19.3829L7.64845 19.3829L6.59523 18.3148ZM7.6757 17.2494L9.11696 16.8337L8.41814 14.4106L6.62249 16.1813L7.6757 17.2494ZM6.05306 18.9295L7.4388 19.5037L7.4388 19.5037L6.05306 18.9295ZM6.31283 19.7421L5.55731 21.0379L5.55731 21.0379L6.31283 19.7421ZM7.09553 19.8798L6.9452 21.3722L6.94521 21.3722L7.09553 19.8798ZM7.57266 19.9554L8.08704 18.5463L8.08703 18.5463L7.57266 19.9554ZM8.07345 20.4492L9.47775 19.922V19.922L8.07345 20.4492ZM8.1501 20.9197L6.65808 21.0742H6.65809L8.1501 20.9197ZM8.28977 21.6915L7.00329 22.4629L7.00329 22.4629L8.28977 21.6915ZM9.1138 21.9477L8.55319 20.5564L8.55318 20.5564L9.1138 21.9477ZM9.73713 21.413L10.7903 22.4811L10.7926 22.4788L9.73713 21.413ZM10.8175 20.343L11.8731 21.4088L13.7221 19.5776L11.2107 18.8955L10.8175 20.343ZM14.2629 21.413L13.2074 22.4788L13.2097 22.4811L14.2629 21.413ZM13.1825 20.343L12.7893 18.8955L10.2779 19.5776L12.1269 21.4088L13.1825 20.343ZM14.8862 21.9477L15.4468 20.5564L15.4468 20.5564L14.8862 21.9477ZM15.7102 21.6915L16.9967 22.4629L16.9967 22.4629L15.7102 21.6915ZM15.8499 20.9197L14.3579 20.7651V20.7651L15.8499 20.9197ZM15.9265 20.4492L17.3309 20.9764L17.3309 20.9764L15.9265 20.4492ZM16.4273 19.9554L15.913 18.5463L15.913 18.5463L16.4273 19.9554ZM16.9045 19.8798L17.0548 21.3722L17.0548 21.3722L16.9045 19.8798ZM17.6872 19.7421L18.4427 21.0379L18.4427 21.0379L17.6872 19.7421ZM17.9469 18.9295L19.3327 18.3553L19.3327 18.3552L17.9469 18.9295ZM17.4048 18.3148L16.3516 19.3829L16.3516 19.3829L17.4048 18.3148ZM16.3243 17.2494L17.3775 16.1813L15.5819 14.4106L14.883 16.8337L16.3243 17.2494ZM2 8H0.5V12H2H3.5V8H2ZM2.87868 2.87868L1.81802 1.81802C1.05353 2.58251 0.755409 3.52504 0.623211 4.50831C0.496814 5.44844 0.5 6.62819 0.5 8H2H3.5C3.5 6.54338 3.50319 5.60182 3.59646 4.90806C3.68393 4.25745 3.82515 4.05353 3.93934 3.93934L2.87868 2.87868ZM8 2V0.5C6.62819 0.5 5.44844 0.496814 4.50831 0.623211C3.52504 0.755409 2.58251 1.05353 1.81802 1.81802L2.87868 2.87868L3.93934 3.93934C4.05353 3.82515 4.25745 3.68393 4.90806 3.59646C5.60181 3.50319 6.54338 3.5 8 3.5V2ZM16 2V0.5H8V2V3.5H16V2ZM21.1213 2.87868L22.182 1.81802C21.4175 1.05353 20.475 0.755408 19.4917 0.623211C18.5516 0.496814 17.3718 0.5 16 0.5V2V3.5C17.4566 3.5 18.3982 3.50319 19.0919 3.59646C19.7426 3.68393 19.9465 3.82515 20.0607 3.93934L21.1213 2.87868ZM22 8H23.5C23.5 6.62819 23.5032 5.44844 23.3768 4.50831C23.2446 3.52504 22.9465 2.58251 22.182 1.81802L21.1213 2.87868L20.0607 3.93934C20.1748 4.05353 20.3161 4.25745 20.4035 4.90806C20.4968 5.60181 20.5 6.54338 20.5 8H22ZM22 12H23.5V8H22H20.5V12H22ZM21.1213 17.1213L22.182 18.182C22.9465 17.4175 23.2446 16.475 23.3768 15.4917C23.5032 14.5516 23.5 13.3718 23.5 12H22H20.5C20.5 13.4566 20.4968 14.3982 20.4035 15.0919C20.3161 15.7426 20.1748 15.9465 20.0607 16.0607L21.1213 17.1213ZM19.0802 17.9156L19.2402 19.4071C20.3131 19.292 21.3523 19.0117 22.182 18.182L21.1213 17.1213L20.0607 16.0607C19.9377 16.1836 19.7094 16.3395 18.9202 16.4242L19.0802 17.9156ZM18.8862 17.6821L17.7764 18.6912C17.8146 18.7332 17.8453 18.7686 17.8748 18.8084L19.0802 17.9156L20.2856 17.0229C20.1671 16.8629 20.0578 16.7409 19.996 16.673L18.8862 17.6821ZM18.48 17.2684L17.4269 18.3366C17.5782 18.4857 17.6935 18.6 17.7764 18.6912L18.8862 17.6821L19.996 16.673C19.8467 16.5087 19.6674 16.3326 19.5331 16.2002L18.48 17.2684ZM16.987 15.7962L15.9338 16.8642L17.4268 18.3365L18.48 17.2684L19.5332 16.2004L18.0402 14.7281L16.987 15.7962ZM16.4357 15.2377L15.3682 16.2915L15.9195 16.85L16.987 15.7962L18.0545 14.7424L17.5031 14.1839L16.4357 15.2377ZM12.0001 11.5V13C13.4821 13 14.7156 14.0759 14.9571 15.4901L16.4357 15.2377L17.9143 14.9852C17.431 12.1544 14.9689 10 12.0001 10V11.5ZM7.56446 15.2377L9.04307 15.4901C9.28448 14.0759 10.518 13 12.0001 13V11.5V10C9.03123 10 6.56912 12.1544 6.08585 14.9852L7.56446 15.2377ZM7.01311 15.7962L8.08059 16.85L8.63194 16.2915L7.56446 15.2377L6.49697 14.1839L5.94563 14.7424L7.01311 15.7962ZM5.11392 17.6821L6.2237 18.6912C6.30668 18.6 6.42196 18.4857 6.57328 18.3365L5.5202 17.2683L4.46711 16.2001C4.33281 16.3325 4.15349 16.5087 4.00413 16.6729L5.11392 17.6821ZM4.9199 17.9156L6.12529 18.8084C6.15478 18.7686 6.18555 18.7332 6.22371 18.6912L5.11392 17.6821L4.00412 16.673C3.94235 16.7409 3.83301 16.8629 3.71451 17.0229L4.9199 17.9156ZM2.87868 17.1213L1.81802 18.182C2.64778 19.0117 3.68696 19.292 4.75993 19.4071L4.9199 17.9156L5.07986 16.4242C4.29058 16.3395 4.06228 16.1836 3.93934 16.0607L2.87868 17.1213ZM2 12H0.5C0.5 13.3718 0.496814 14.5516 0.623211 15.4917C0.755409 16.475 1.05353 17.4175 1.81802 18.182L2.87868 17.1213L3.93934 16.0607C3.82515 15.9465 3.68393 15.7426 3.59646 15.0919C3.50319 14.3982 3.5 13.4566 3.5 12H2ZM8.25 6H9.75C9.75 6.41421 9.41421 6.75 9 6.75V5.25V3.75C7.75736 3.75 6.75 4.75736 6.75 6H8.25ZM9 6.75V5.25C9.41421 5.25 9.75 5.58579 9.75 6H8.25H6.75C6.75 7.24264 7.75736 8.25 9 8.25V6.75ZM15 6.75V5.25H9V6.75V8.25H15V6.75ZM15.75 6H14.25C14.25 5.58579 14.5858 5.25 15 5.25V6.75V8.25C16.2426 8.25 17.25 7.24264 17.25 6H15.75ZM15 5.25V6.75C14.5858 6.75 14.25 6.41421 14.25 6H15.75H17.25C17.25 4.75736 16.2426 3.75 15 3.75V5.25ZM9 5.25V6.75H15V5.25V3.75H9V5.25ZM7 8.75V7.25C5.75736 7.25 4.75 8.25736 4.75 9.5H6.25H7.75C7.75 9.91421 7.41421 10.25 7 10.25V8.75ZM17 8.75V7.25H7V8.75V10.25H17V8.75ZM17.75 9.5H19.25C19.25 8.25736 18.2426 7.25 17 7.25V8.75V10.25C16.5858 10.25 16.25 9.91421 16.25 9.5H17.75ZM17 10.25V11.75C18.2426 11.75 19.25 10.7426 19.25 9.5H17.75H16.25C16.25 9.08579 16.5858 8.75 17 8.75V10.25ZM7 10.25V11.75H17V10.25V8.75H7V10.25ZM6.25 9.5H4.75C4.75 10.7426 5.75736 11.75 7 11.75V10.25V8.75C7.41421 8.75 7.75 9.08579 7.75 9.5H6.25ZM5.5202 17.2683L6.57341 18.3364L8.06632 16.8642L7.01311 15.7962L5.9599 14.7281L4.46698 16.2003L5.5202 17.2683ZM9 16H10.5C10.5 15.1716 11.1716 14.5 12 14.5V13V11.5C9.51472 11.5 7.5 13.5147 7.5 16H9ZM12 13V14.5C12.8284 14.5 13.5 15.1716 13.5 16H15H16.5C16.5 13.5147 14.4853 11.5 12 11.5V13ZM9.00111 15.9174L7.50166 15.8769C7.50056 15.9178 7.5 15.9589 7.5 16H9H10.5C10.5 15.9859 10.5002 15.9719 10.5006 15.9579L9.00111 15.9174ZM15 16H16.5C16.5 15.9588 16.4994 15.9178 16.4983 15.8769L14.9989 15.9174L13.4994 15.9579C13.4998 15.9719 13.5 15.9859 13.5 16H15ZM14.9989 15.9174L16.4983 15.8769C16.4327 13.4481 14.4441 11.5 12 11.5V13V14.5C12.8144 14.5 13.4776 15.1494 13.4994 15.9579L14.9989 15.9174ZM12 13V11.5C9.66912 11.5 7.75377 13.271 7.52316 15.5417L9.01549 15.6933L10.5078 15.8448C10.5845 15.09 11.2243 14.5 12 14.5V13ZM9.01549 15.6933L7.52316 15.5417C7.51191 15.6525 7.5047 15.7643 7.50166 15.8769L9.00111 15.9174L10.5006 15.9579C10.5016 15.9196 10.504 15.8819 10.5078 15.8448L9.01549 15.6933ZM6.59523 18.3148L7.64845 19.3829L8.72891 18.3174L7.6757 17.2494L6.62249 16.1813L5.54202 17.2468L6.59523 18.3148ZM6.05306 18.9295L7.4388 19.5037C7.39578 19.6075 7.34984 19.6746 7.33229 19.6989C7.31517 19.7227 7.31016 19.726 7.33344 19.7004C7.35565 19.6759 7.39022 19.6398 7.44572 19.5839C7.50087 19.5284 7.56582 19.4643 7.64845 19.3829L6.59523 18.3148L5.54202 17.2468C5.39248 17.3942 5.23597 17.5478 5.11386 17.6821C5.00476 17.8021 4.79996 18.0352 4.66732 18.3553L6.05306 18.9295ZM6.31283 19.7421L7.06835 18.4462C7.47395 18.6827 7.58226 19.1575 7.4388 19.5037L6.05306 18.9295L4.66732 18.3553C4.26832 19.3181 4.59531 20.477 5.55731 21.0379L6.31283 19.7421ZM7.09553 19.8798L7.24587 18.3873C7.13339 18.376 7.0458 18.3672 6.971 18.3588C6.89565 18.3504 6.84971 18.3443 6.82099 18.3397C6.79051 18.3348 6.80235 18.3352 6.83716 18.3452C6.87278 18.3554 6.96043 18.3833 7.06834 18.4462L6.31283 19.7421L5.55731 21.0379C5.87218 21.2215 6.19181 21.2773 6.34863 21.3023C6.52704 21.3307 6.74358 21.3519 6.9452 21.3722L7.09553 19.8798ZM7.57266 19.9554L8.08703 18.5463C7.76262 18.4279 7.4083 18.4037 7.24586 18.3873L7.09553 19.8798L6.94521 21.3722C7.00927 21.3787 7.05653 21.3835 7.09687 21.3879C7.13707 21.3923 7.15897 21.3951 7.17088 21.3969C7.19482 21.4004 7.14045 21.3944 7.05829 21.3644L7.57266 19.9554ZM8.07345 20.4492L9.47775 19.922C9.23576 19.2774 8.72619 18.7796 8.08704 18.5463L7.57266 19.9554L7.05829 21.3644C6.8854 21.3013 6.73853 21.1612 6.66915 20.9764L8.07345 20.4492ZM8.1501 20.9197L9.64212 20.7651C9.62584 20.608 9.60079 20.2497 9.47775 19.922L8.07345 20.4492L6.66915 20.9764C6.63703 20.8908 6.63023 20.8331 6.63345 20.8545C6.63506 20.8652 6.63784 20.8859 6.64228 20.9252C6.64672 20.9647 6.65153 21.011 6.65808 21.0742L8.1501 20.9197ZM8.28977 21.6915L9.57624 20.9202C9.64191 21.0297 9.6716 21.1197 9.68287 21.158C9.69381 21.1952 9.69468 21.2093 9.68997 21.1806C9.68555 21.1537 9.67945 21.1094 9.67097 21.0355C9.66255 20.9622 9.65362 20.8762 9.64212 20.7651L8.1501 20.9197L6.65809 21.0742C6.6786 21.2723 6.7003 21.4879 6.7295 21.666C6.75525 21.8231 6.8132 22.1458 7.00329 22.4629L8.28977 21.6915ZM9.1138 21.9477L8.55318 20.5564C8.86943 20.429 9.33136 20.5118 9.57624 20.9202L8.28977 21.6915L7.00329 22.4629C7.57714 23.4199 8.73279 23.7184 9.67442 23.339L9.1138 21.9477ZM9.73713 21.413L8.68391 20.345C8.60129 20.4265 8.53631 20.4905 8.48003 20.5449C8.4234 20.5996 8.38666 20.6337 8.36179 20.6557C8.33581 20.6787 8.33875 20.6741 8.36202 20.6578C8.38604 20.641 8.45184 20.5972 8.55319 20.5564L9.1138 21.9477L9.67441 23.339C9.99259 23.2108 10.2263 23.0117 10.349 22.9032C10.4851 22.7829 10.6408 22.6286 10.7903 22.4811L9.73713 21.413ZM10.8175 20.343L9.76203 19.2773L8.68162 20.3473L9.73713 21.413L10.7926 22.4788L11.8731 21.4088L10.8175 20.343ZM10.8175 20.343L11.2107 18.8955C10.2045 18.6222 9.40546 17.834 9.11696 16.8337L7.6757 17.2494L6.23444 17.665C6.81289 19.6707 8.40557 21.2422 10.4244 21.7906L10.8175 20.343ZM14.2629 21.413L15.3184 20.3473L14.238 19.2773L13.1825 20.343L12.1269 21.4088L13.2074 22.4788L14.2629 21.413ZM14.8862 21.9477L15.4468 20.5564C15.5482 20.5972 15.614 20.641 15.638 20.6578C15.6613 20.6741 15.6642 20.6787 15.6382 20.6557C15.6133 20.6337 15.5766 20.5996 15.52 20.5449C15.4637 20.4905 15.3987 20.4265 15.3161 20.345L14.2629 21.413L13.2097 22.4811C13.3592 22.6286 13.5149 22.7829 13.651 22.9032C13.7737 23.0117 14.0074 23.2108 14.3256 23.339L14.8862 21.9477ZM15.7102 21.6915L14.4238 20.9202C14.6686 20.5118 15.1306 20.429 15.4468 20.5564L14.8862 21.9477L14.3256 23.339C15.2672 23.7184 16.4229 23.4199 16.9967 22.4629L15.7102 21.6915ZM15.8499 20.9197L14.3579 20.7651C14.3464 20.8762 14.3375 20.9622 14.329 21.0355C14.3205 21.1094 14.3145 21.1537 14.31 21.1806C14.3053 21.2093 14.3062 21.1952 14.3171 21.158C14.3284 21.1197 14.3581 21.0297 14.4238 20.9202L15.7102 21.6915L16.9967 22.4629C17.1868 22.1458 17.2448 21.8231 17.2705 21.666C17.2997 21.4879 17.3214 21.2723 17.3419 21.0742L15.8499 20.9197ZM15.9265 20.4492L14.5222 19.922C14.3992 20.2497 14.3742 20.608 14.3579 20.7651L15.8499 20.9197L17.3419 21.0742C17.3485 21.011 17.3533 20.9647 17.3577 20.9252C17.3622 20.8859 17.3649 20.8652 17.3666 20.8545C17.3698 20.8331 17.363 20.8908 17.3309 20.9764L15.9265 20.4492ZM16.4273 19.9554L15.913 18.5463C15.2738 18.7796 14.7642 19.2774 14.5222 19.922L15.9265 20.4492L17.3309 20.9764C17.2615 21.1612 17.1146 21.3013 16.9417 21.3644L16.4273 19.9554ZM16.9045 19.8798L16.7541 18.3873C16.5917 18.4037 16.2374 18.4279 15.913 18.5463L16.4273 19.9554L16.9417 21.3644C16.8595 21.3944 16.8052 21.4004 16.8291 21.3969C16.841 21.3951 16.8629 21.3923 16.9031 21.3879C16.9435 21.3835 16.9907 21.3787 17.0548 21.3722L16.9045 19.8798ZM17.6872 19.7421L16.9317 18.4462C17.0396 18.3833 17.1272 18.3554 17.1628 18.3452C17.1977 18.3352 17.2095 18.3348 17.179 18.3397C17.1503 18.3443 17.1044 18.3504 17.029 18.3588C16.9542 18.3672 16.8666 18.376 16.7541 18.3873L16.9045 19.8798L17.0548 21.3722C17.2564 21.3519 17.473 21.3307 17.6514 21.3023C17.8082 21.2773 18.1278 21.2215 18.4427 21.0379L17.6872 19.7421ZM17.9469 18.9295L16.5612 19.5037C16.4177 19.1575 16.5261 18.6827 16.9316 18.4462L17.6872 19.7421L18.4427 21.0379C19.4047 20.477 19.7317 19.3181 19.3327 18.3553L17.9469 18.9295ZM17.4048 18.3148L16.3516 19.3829C16.4342 19.4643 16.4991 19.5284 16.5543 19.5839C16.6098 19.6398 16.6443 19.6759 16.6666 19.7004C16.6898 19.726 16.6848 19.7227 16.6677 19.6989C16.6502 19.6746 16.6042 19.6075 16.5612 19.5037L17.9469 18.9295L19.3327 18.3552C19.2 18.0352 18.9952 17.8021 18.8861 17.6821C18.764 17.5478 18.6075 17.3942 18.458 17.2468L17.4048 18.3148ZM16.3243 17.2494L15.2711 18.3174L16.3516 19.3829L17.4048 18.3148L18.458 17.2468L17.3775 16.1813L16.3243 17.2494ZM16.3243 17.2494L14.883 16.8337C14.5945 17.834 13.7955 18.6222 12.7893 18.8955L13.1825 20.343L13.5756 21.7906C15.5944 21.2422 17.1871 19.6707 17.7656 17.665L16.3243 17.2494Z" fill="#896FCA" mask="url(#path-1-outside-1_1_21340)"/>
</g>
<defs>
<clipPath id="clip0_1_21340">
<rect width="24" height="24" fill="white"/>
</clipPath>
</defs>
</svg>