<svg viewBox="0 0 24 24" fill="none" xmlns="http://www.w3.org/2000/svg">
<path fill-rule="evenodd" clip-rule="evenodd" d="M4 5V19C4 20.6569 5.34315 22 7 22H17C18.6569 22 20 20.6569 20 19V9C20 7.34315 18.6569 6 17 6H5C4.44772 6 4 5.55228 4 5ZM7.25 12C7.25 11.5858 7.58579 11.25 8 11.25H16C16.4142 11.25 16.75 11.5858 16.75 12C16.75 12.4142 16.4142 12.75 16 12.75H8C7.58579 12.75 7.25 12.4142 7.25 12ZM7.25 15.5C7.25 15.0858 7.58579 14.75 8 14.75H13.5C13.9142 14.75 14.25 15.0858 14.25 15.5C14.25 15.9142 13.9142 16.25 13.5 16.25H8C7.58579 16.25 7.25 15.9142 7.25 15.5Z" fill="#896FCA"/>
<path d="M4.40879 4.0871C4.75727 4.24338 5 4.59334 5 5H17C17.3453 5 17.6804 5.04375 18 5.12602V4.30604C18 3.08894 16.922 2.15402 15.7172 2.32614L4.91959 3.86865C4.72712 3.89615 4.55271 3.97374 4.40879 4.0871Z" fill="#896FCA"/>
<path d="M4.75 5C4.75 4.58579 4.41421 4.25 4 4.25C3.58579 4.25 3.25 4.58579 3.25 5H4H4.75ZM4.40879 4.0871L3.94472 3.49791L2.97147 4.26447L4.10188 4.77143L4.40879 4.0871ZM5 5H4.25V5.75H5V5ZM18 5.12602L17.8131 5.85235L18.75 6.0935V5.12602H18ZM15.7172 2.32614L15.6111 1.58368V1.58368L15.7172 2.32614ZM4.91959 3.86865L4.81353 3.12619H4.81353L4.91959 3.86865ZM4 19H3.25C3.25 21.0711 4.92893 22.75 7 22.75V22V21.25C5.75736 21.25 4.75 20.2426 4.75 19H4ZM7 22V22.75H17V22V21.25H7V22ZM17 22V22.75C19.0711 22.75 20.75 21.0711 20.75 19H20H19.25C19.25 20.2426 18.2426 21.25 17 21.25V22ZM20 19H20.75V9H20H19.25V19H20ZM20 9H20.75C20.75 6.92893 19.0711 5.25 17 5.25V6V6.75C18.2426 6.75 19.25 7.75736 19.25 9H20ZM17 6V5.25H5V6V6.75H17V6ZM5 6V5.25C4.86193 5.25 4.75 5.13807 4.75 5H4H3.25C3.25 5.9665 4.0335 6.75 5 6.75V6ZM7.25 12H8V11.25V10.5C7.17157 10.5 6.5 11.1716 6.5 12H7.25ZM8 11.25V12H16V11.25V10.5H8V11.25ZM16 11.25V12H16.75H17.5C17.5 11.1716 16.8284 10.5 16 10.5V11.25ZM16.75 12H16V12.75V13.5C16.8284 13.5 17.5 12.8284 17.5 12H16.75ZM16 12.75V12H8V12.75V13.5H16V12.75ZM8 12.75V12H7.25H6.5C6.5 12.8284 7.17157 13.5 8 13.5V12.75ZM7.25 15.5H8V14.75V14C7.17157 14 6.5 14.6716 6.5 15.5H7.25ZM8 14.75V15.5H13.5V14.75V14H8V14.75ZM13.5 14.75V15.5H14.25H15C15 14.6716 14.3284 14 13.5 14V14.75ZM14.25 15.5H13.5V16.25V17C14.3284 17 15 16.3284 15 15.5H14.25ZM13.5 16.25V15.5H8V16.25V17H13.5V16.25ZM8 16.25V15.5H7.25H6.5C6.5 16.3284 7.17157 17 8 17V16.25ZM4.40879 4.0871L4.10188 4.77143C4.19063 4.81123 4.25 4.89949 4.25 5H5H5.75C5.75 4.2872 5.32391 3.67554 4.71569 3.40277L4.40879 4.0871ZM5 5V5.75H17V5V4.25H5V5ZM17 5V5.75C17.2817 5.75 17.554 5.78567 17.8131 5.85235L18 5.12602L18.1869 4.39969C17.8068 4.30184 17.4089 4.25 17 4.25V5ZM18 5.12602H18.75V4.30604H18H17.25V5.12602H18ZM18 4.30604H18.75C18.75 2.63253 17.2678 1.34701 15.6111 1.58368L15.7172 2.32614L15.8232 3.0686C16.5763 2.96103 17.25 3.54535 17.25 4.30604H18ZM15.7172 2.32614L15.6111 1.58368L4.81353 3.12619L4.91959 3.86865L5.02566 4.61111L15.8232 3.0686L15.7172 2.32614ZM4.91959 3.86865L4.81353 3.12619C4.48695 3.17284 4.1897 3.30495 3.94472 3.49791L4.40879 4.0871L4.87285 4.67629C4.91571 4.64253 4.96729 4.61945 5.02566 4.61111L4.91959 3.86865ZM4 5H3.25V19H4H4.75V5H4Z" fill="#896FCA"/>
</svg>