<svg viewBox="0 0 24 24" fill="none" xmlns="http://www.w3.org/2000/svg">
<path fill-rule="evenodd" clip-rule="evenodd" d="M8.46849 2.49749C9.61967 2.18341 10.8064 2.01624 12 2C13.0108 2 14.2905 2.16204 15.5301 2.49749C16.7597 2.82868 18.0179 3.35034 18.9315 4.10937C19.5248 4.60402 20.1325 5.37869 20.6429 6.24433C21.1785 7.14285 21.5774 8.1152 21.8267 9.1298C22.0555 10.1148 22.0984 11.1752 21.7038 12.0735C21.4677 12.6193 21.0664 13.0784 20.5557 13.3869C20.3126 13.5362 20.0181 13.3585 19.9895 13.0771L19.9881 13.0671C19.8037 11.7105 19.5368 10.3662 19.1888 9.04167C19.0436 8.47823 18.8858 7.91806 18.7156 7.36156L18.6841 7.26206L18.6755 7.23506L18.6727 7.22511C18.5999 7.0008 18.4404 6.81444 18.2294 6.70701C18.0184 6.59959 17.7731 6.5799 17.5475 6.65228C17.3218 6.72466 17.1344 6.88318 17.0263 7.09297C16.9183 7.30275 16.8985 7.54662 16.9713 7.77093L16.9727 7.77661L16.9799 7.79794L17.0084 7.88606L17.1128 8.23289C17.2015 8.53138 17.3244 8.96349 17.4588 9.48373C17.7262 10.5214 18.0364 11.8987 18.2137 13.2789L18.3925 15.023L18.3953 15.3158C18.3953 17.5517 17.8306 19.074 16.5809 19.9766C15.3942 20.8351 13.75 21 11.9614 21C10.1742 21 8.52854 20.8351 7.34041 19.9766C6.09223 19.074 5.52748 17.5517 5.52748 15.3144C5.52748 15.1907 5.52891 15.0656 5.53319 14.9391L5.73765 13.2903C5.91494 11.9044 6.2252 10.5242 6.49542 9.48231C6.63322 8.947 6.7829 8.41479 6.94437 7.88606L6.97296 7.79794L6.97868 7.77661L6.98154 7.77093C7.0175 7.65986 7.0311 7.54285 7.02156 7.42656C7.01203 7.31027 6.97955 7.19698 6.92598 7.09317C6.87241 6.98936 6.7988 6.89706 6.70934 6.82153C6.61989 6.74601 6.51635 6.68873 6.40463 6.65299C6.29292 6.61724 6.17521 6.60372 6.05824 6.6132C5.94127 6.62268 5.82732 6.65497 5.7229 6.70823C5.51201 6.81578 5.35274 7.00222 5.28013 7.22653V7.22795L5.27727 7.23506L5.26869 7.26206L5.23723 7.36156C5.06697 7.91804 4.90918 8.47821 4.76398 9.04167C4.48375 10.1219 4.15491 11.5817 3.96475 13.0671C3.93043 13.3429 3.63733 13.5106 3.40142 13.3613C2.91062 13.0529 2.5253 12.6039 2.29622 12.0735C1.9016 11.1752 1.9445 10.1148 2.17326 9.1298C2.42258 8.1152 2.82151 7.14285 3.3571 6.24433C3.86609 5.37869 4.47374 4.60402 5.06852 4.10937C5.98357 3.35034 7.24033 2.8301 8.46992 2.49749H8.46849ZM9.7324 14.9178C9.83827 14.7071 10.0239 14.5469 10.2486 14.4722C10.4733 14.3976 10.7186 14.4147 10.9305 14.5198L11.6411 14.8751C11.7405 14.9247 11.8502 14.9505 11.9614 14.9505C12.0726 14.9505 12.1823 14.9247 12.2817 14.8751L12.9908 14.5198C13.0959 14.4675 13.2103 14.4363 13.3274 14.428C13.4446 14.4197 13.5623 14.4344 13.6737 14.4713C13.7852 14.5082 13.8882 14.5665 13.977 14.643C14.0658 14.7195 14.1385 14.8126 14.1911 14.9171C14.2437 15.0215 14.275 15.1352 14.2834 15.2517C14.2918 15.3682 14.277 15.4852 14.2399 15.596C14.2028 15.7068 14.1441 15.8092 14.0671 15.8975C13.9902 15.9858 13.8965 16.0581 13.7915 16.1103L12.3617 16.8211C12.2375 16.883 12.1004 16.9152 11.9614 16.9152C11.8224 16.9152 11.6853 16.883 11.5611 16.8211L10.1313 16.1103C10.0262 16.0582 9.93245 15.986 9.85544 15.8979C9.77842 15.8097 9.71964 15.7073 9.68246 15.5966C9.64528 15.4858 9.63042 15.3688 9.63875 15.2524C9.64707 15.1359 9.67841 15.0222 9.73097 14.9178H9.7324ZM9.99548 10.3408C9.99548 10.2242 9.97236 10.1087 9.92745 10.0009C9.88255 9.89309 9.81672 9.79515 9.73375 9.71266C9.65077 9.63016 9.55226 9.56473 9.44384 9.52008C9.33543 9.47544 9.21923 9.45246 9.10188 9.45246C8.98453 9.45246 8.86833 9.47544 8.75991 9.52008C8.65149 9.56473 8.55298 9.63016 8.47001 9.71266C8.38703 9.79515 8.3212 9.89309 8.2763 10.0009C8.23139 10.1087 8.20828 10.2242 8.20828 10.3408V11.0515C8.20828 11.1682 8.23139 11.2837 8.2763 11.3915C8.3212 11.4993 8.38703 11.5972 8.47001 11.6797C8.55298 11.7622 8.65149 11.8277 8.75991 11.8723C8.86833 11.9169 8.98453 11.9399 9.10188 11.9399C9.21923 11.9399 9.33543 11.9169 9.44384 11.8723C9.55226 11.8277 9.65077 11.7622 9.73375 11.6797C9.81672 11.5972 9.88255 11.4993 9.92745 11.3915C9.97236 11.2837 9.99548 11.1682 9.99548 11.0515V10.3408ZM15.7145 10.3408C15.7145 10.2242 15.6914 10.1087 15.6465 10.0009C15.6016 9.89309 15.5358 9.79515 15.4528 9.71266C15.3698 9.63016 15.2713 9.56473 15.1629 9.52008C15.0545 9.47544 14.9383 9.45246 14.8209 9.45246C14.7036 9.45246 14.5874 9.47544 14.479 9.52008C14.3705 9.56473 14.272 9.63016 14.189 9.71266C14.1061 9.79515 14.0402 9.89309 13.9953 10.0009C13.9504 10.1087 13.9273 10.2242 13.9273 10.3408V11.0515C13.9273 11.1682 13.9504 11.2837 13.9953 11.3915C14.0402 11.4993 14.1061 11.5972 14.189 11.6797C14.272 11.7622 14.3705 11.8277 14.479 11.8723C14.5874 11.9169 14.7036 11.9399 14.8209 11.9399C14.9383 11.9399 15.0545 11.9169 15.1629 11.8723C15.2713 11.8277 15.3698 11.7622 15.4528 11.6797C15.5358 11.5972 15.6016 11.4993 15.6465 11.3915C15.6914 11.2837 15.7145 11.1682 15.7145 11.0515V10.3408Z" fill="#896FCA"/>
</svg>