<svg viewBox="0 0 24 24" fill="none" xmlns="http://www.w3.org/2000/svg">
<path fill-rule="evenodd" clip-rule="evenodd" d="M3.53203 6.38161C5.63073 4.39789 8.61718 2.57227 12 2.57227C15.3828 2.57227 18.3693 4.39789 20.4681 6.38161C21.5256 7.38133 22.3879 8.44853 22.9918 9.40429C23.2935 9.88193 23.5383 10.3434 23.7101 10.7648C23.8757 11.1706 24 11.6021 24 12.0008C24 12.3995 23.8757 12.8311 23.7101 13.2369C23.5383 13.6583 23.2935 14.1197 22.9918 14.5974C22.3879 15.5531 21.5256 16.6203 20.4681 17.6201C18.3693 19.6039 15.3828 21.4294 12 21.4294C8.61718 21.4294 5.63073 19.6039 3.53203 17.6201C2.47435 16.6203 1.61209 15.5531 1.00819 14.5974C0.706389 14.1197 0.461731 13.6583 0.289865 13.2369C0.124335 12.8311 0 12.3995 0 12.0008C0 11.6021 0.124335 11.1706 0.289865 10.7648C0.461731 10.3434 0.706389 9.88193 1.00819 9.40429C1.61209 8.44853 2.47435 7.38133 3.53203 6.38161ZM9.15981 9.16064C9.84468 8.47579 10.824 8.14369 12 8.14369C13.176 8.14369 14.1553 8.47579 14.8402 9.16064C15.5251 9.84552 15.8571 10.8248 15.8571 12.0008C15.8571 13.1769 15.5251 14.1562 14.8402 14.841C14.1553 15.5259 13.176 15.858 12 15.858C10.824 15.858 9.84468 15.5259 9.15981 14.841C8.47495 14.1562 8.14286 13.1769 8.14286 12.0008C8.14286 10.8248 8.47495 9.84552 9.15981 9.16064Z" fill="#896FCA"/>
</svg>