<svg viewBox="0 0 24 24" fill="none" xmlns="http://www.w3.org/2000/svg">
<g clip-path="url(#clip0_12_7361)">
<path fill-rule="evenodd" clip-rule="evenodd" d="M14.6788 1.95044L14.6806 1.94932C15.0904 2.73472 15.3432 3.62214 15.4069 4.51616C15.513 6.0063 15.0887 7.39722 14.149 8.33761L10.8546 11.6123C10.8617 9.65358 10.118 7.69259 8.62354 6.19813L7.18725 4.76187C7.98645 3.908 8.96824 2.97993 9.8248 2.20016C10.4408 1.63936 11.0065 1.14237 11.4181 0.785621C11.624 0.607145 11.7916 0.463512 11.9081 0.364249L12.0429 0.249764L12.0785 0.219672L12.0913 0.208863C12.4449 -0.0884421 12.9672 -0.0658886 13.2939 0.260794L13.5616 0.528509C13.989 0.955908 14.3624 1.43583 14.6788 1.95044ZM2.80303 12.0039C3.35638 10.0177 4.55184 8.10212 5.76115 6.48375L7.04957 7.77217C9.13032 9.85281 9.1547 13.2112 7.12269 15.3218L4.01155 18.4142C2.35247 16.4127 2.20636 14.1455 2.80303 12.0039ZM11.9957 21.1964C9.85452 21.793 7.58784 21.647 5.5866 19.9889L8.68125 16.9134C10.7948 14.8603 14.1451 14.8682 16.2268 16.95L17.5155 18.2386C15.8972 19.4477 13.9817 20.6431 11.9957 21.1964ZM21.7995 14.1746C21.0195 15.0313 20.0914 16.0133 19.2373 16.8125L17.8008 15.376C16.3218 13.8969 14.3934 13.1594 12.463 13.1551L15.8359 9.80307C16.7769 8.93336 18.1107 8.53972 19.5293 8.63245C20.4375 8.69181 21.3391 8.94942 22.1338 9.37343C22.3942 9.53798 22.6455 9.7173 22.885 9.91098C23.0893 10.0762 23.2851 10.2519 23.4711 10.4378L23.7387 10.7056C24.0655 11.0322 24.0872 11.5555 23.7898 11.9091L23.7799 11.921L23.7499 11.9566L23.6353 12.0913C23.5361 12.2078 23.3924 12.3755 23.214 12.5814C22.8572 12.993 22.3603 13.5586 21.7995 14.1746ZM23.4773 2.16304C23.4715 3.22503 23.3911 5.32187 22.8913 7.26162C21.8806 6.77173 20.7747 6.48315 19.6745 6.41121C18.9466 6.36364 18.2064 6.41044 17.4869 6.56355C17.6371 5.83772 17.6794 5.09097 17.6273 4.35801C17.5486 3.25297 17.2536 2.14218 16.7595 1.1283C18.6991 0.628618 20.7958 0.548216 21.8576 0.542297C22.3028 0.539816 22.7117 0.716679 23.0076 1.01254C23.3052 1.3101 23.4799 1.72036 23.4773 2.16304ZM0.314791 22.1698L2.4594 20.0252C2.61151 20.1994 2.77257 20.3717 2.94288 20.5421L3.4577 21.0567C3.62808 21.2271 3.80049 21.3883 3.97473 21.5403L1.83002 23.6851C1.4116 24.1035 0.733209 24.1035 0.314791 23.6851C-0.103628 23.2666 -0.103628 22.5883 0.314791 22.1698Z" fill="#896FCA"/>
</g>
<defs>
<clipPath id="clip0_12_7361">
<rect width="24" height="24" fill="white"/>
</clipPath>
</defs>
</svg>