<svg viewBox="0 0 24 24" fill="none" xmlns="http://www.w3.org/2000/svg">
<g clip-path="url(#clip0_12_7369)">
<path fill-rule="evenodd" clip-rule="evenodd" d="M22.1874 0.177357C21.5137 -0.0466948 20.7858 0.317904 20.5618 0.991711L20.0636 2.48966C19.8395 3.16347 20.2042 3.89133 20.878 4.11538C21.5518 4.33942 22.2796 3.97483 22.5037 3.30103L23.0019 1.80307C23.2259 1.12927 22.8613 0.401409 22.1874 0.177357ZM3.57242 1.05781C3.34836 0.384 2.62051 0.0194019 1.94671 0.243453C1.2729 0.467505 0.908296 1.19536 1.13235 1.86917L1.67216 3.49257C1.8962 4.16638 2.62406 4.53098 3.29787 4.30692C3.97167 4.08288 4.33627 3.35501 4.11223 2.68121L3.57242 1.05781ZM9.77477 18.5979C9.69058 18.6862 9.60795 18.7675 9.52831 18.8421L10.5994 22.0634C10.8235 22.7371 10.4589 23.465 9.78506 23.689C9.11126 23.9131 8.3834 23.5485 8.15935 22.8747L7.07928 19.6265C6.99041 19.6157 6.89755 19.6023 6.80127 19.5862C6.0438 19.4587 5.02736 19.1426 4.09306 18.3715C3.5454 17.9196 3.46781 17.1092 3.91978 16.5616C4.37175 16.0139 5.18213 15.9363 5.72979 16.3883C6.21896 16.792 6.77182 16.9737 7.22779 17.0504C7.37849 17.0757 7.51339 17.0886 7.62437 17.0947C7.70952 17.0235 7.80968 16.9325 7.91504 16.8222C8.23409 16.4881 8.56796 16.0118 8.71798 15.3956C8.88595 14.7057 9.58142 14.2826 10.2713 14.4505C10.9613 14.6185 11.3844 15.314 11.2164 16.0039C10.9299 17.1809 10.3052 18.0425 9.77477 18.5979ZM6.86636 4.21049C7.5563 4.37846 7.97943 5.07391 7.81147 5.76384C7.52491 6.9409 6.9002 7.80254 6.3698 8.358C6.10275 8.63765 5.85135 8.84858 5.66153 8.99295C5.56622 9.06543 5.48525 9.12202 5.42405 9.16294C5.39342 9.18343 5.3676 9.20006 5.3473 9.21286L5.32099 9.22922L5.31104 9.23527L5.30691 9.23775L5.30504 9.23887L5.30417 9.2394C5.30374 9.23964 5.30333 9.2399 4.64506 8.13549C4.77864 9.41424 4.77816 9.41429 4.77768 9.41434L4.77665 9.41445L4.77451 9.41467L4.76969 9.41515L4.75812 9.41625L4.72726 9.41889C4.70333 9.42079 4.67271 9.4229 4.63591 9.42483C4.56238 9.42869 4.46364 9.43181 4.34388 9.43078C4.10539 9.42876 3.77767 9.41028 3.39629 9.34613C2.63883 9.21873 1.6224 8.90259 0.688087 8.13154C0.140422 7.67957 0.0628476 6.86919 0.514819 6.32153C0.966789 5.77387 1.77715 5.6963 2.32483 6.14827C2.81398 6.55197 3.36686 6.73363 3.82282 6.81033C3.97351 6.83566 4.10842 6.84861 4.2194 6.85471C4.30454 6.78346 4.4047 6.69249 4.51008 6.58214C4.82911 6.24802 5.163 5.77179 5.31302 5.15559C5.48098 4.46566 6.17643 4.04253 6.86636 4.21049ZM4.64506 8.13549L5.30417 9.2394C5.14399 9.33487 4.96315 9.39495 4.77768 9.41434L4.64506 8.13549ZM9.4748 10.7661C9.64277 10.0762 9.21963 9.38071 8.5297 9.21276C7.83977 9.04479 7.14432 9.46791 6.97635 10.1578C6.82634 10.774 6.49244 11.2503 6.1734 11.5844C6.06804 11.6947 5.96787 11.7857 5.88274 11.857C5.77174 11.8509 5.63684 11.8379 5.48616 11.8126C5.03019 11.7359 4.47732 11.5542 3.98815 11.1505C3.44048 10.6985 2.63012 10.7761 2.17815 11.3238C1.72618 11.8715 1.80375 12.6818 2.35142 13.1338C3.28574 13.9049 4.30217 14.221 5.05963 14.3484C5.441 14.4125 5.76871 14.431 6.00722 14.4331C6.12696 14.4341 6.22572 14.4309 6.29923 14.4271C6.33603 14.4252 6.36667 14.423 6.3906 14.4211L6.42146 14.4185L6.43303 14.4174L6.43783 14.4169L6.43999 14.4167L6.441 14.4166C6.4415 14.4165 6.44198 14.4165 6.30838 13.1377L6.441 14.4166C6.62647 14.3972 6.80648 14.3376 6.96667 14.2421L6.30838 13.1377C6.96667 14.2421 6.96624 14.2424 6.96667 14.2421L6.96838 14.2411L6.97023 14.24L6.97438 14.2375L6.98432 14.2315L7.01062 14.2151C7.03094 14.2023 7.05674 14.1857 7.08739 14.1652C7.14859 14.1243 7.22955 14.0677 7.32485 13.9952C7.51467 13.8508 7.76609 13.6399 8.03312 13.3603C8.56354 12.8048 9.18824 11.9432 9.4748 10.7661ZM17.4904 18.2604C17.5549 18.2518 17.6214 18.2419 17.6896 18.2304C18.4007 18.1109 19.3571 17.8138 20.2369 17.0877C20.7846 16.6357 20.8623 15.8253 20.4102 15.2776C19.9583 14.73 19.148 14.6524 18.6003 15.1044C18.1655 15.4631 17.6727 15.6258 17.2631 15.6946C17.1452 15.7145 17.038 15.7258 16.9467 15.732C16.8773 15.6725 16.7985 15.5994 16.7159 15.513C16.4294 15.2129 16.1322 14.7879 15.9989 14.2403C15.8309 13.5503 15.1355 13.1272 14.4455 13.2952C13.7556 13.4631 13.3325 14.1586 13.5004 14.8485C13.7703 15.957 14.3583 16.7674 14.8562 17.2889C14.9193 17.3549 14.9814 17.4168 15.0419 17.4747L14.0724 20.3902C13.8484 21.0639 14.213 21.7918 14.8868 22.0159C15.5606 22.2399 16.2885 21.8753 16.5125 21.2016L17.4904 18.2604ZM16.6448 5.39211C16.4769 4.7022 16.9 4.00673 17.5899 3.83877C18.2799 3.6708 18.9754 4.09394 19.1434 4.78387C19.2766 5.33146 19.5738 5.75652 19.8603 6.05661C19.9429 6.14299 20.0218 6.21609 20.091 6.27564C20.1824 6.26943 20.2895 6.2581 20.4076 6.23825C20.8172 6.16935 21.3099 6.00674 21.7446 5.64799C22.2923 5.19602 23.1027 5.27359 23.5547 5.82125C24.0066 6.36891 23.9291 7.17929 23.3814 7.63126C22.5015 8.35737 21.5451 8.65445 20.8342 8.77406C20.4759 8.8343 20.168 8.85168 19.9436 8.8536C19.8308 8.85456 19.7375 8.85163 19.6679 8.84796C19.633 8.84614 19.6038 8.84412 19.5808 8.8423L19.5512 8.83975L19.5399 8.83869L19.5351 8.83821L19.533 8.83798L19.532 8.83788C19.5315 8.83783 19.531 8.83778 19.6645 7.55902C19.0062 8.66343 19.0059 8.66319 19.0054 8.66294L19.0028 8.66131L18.9987 8.65886L18.9889 8.65296L18.9635 8.63719C18.9442 8.62491 18.9195 8.60909 18.8905 8.58965C18.8324 8.55086 18.7561 8.49744 18.6663 8.42919C18.4876 8.2933 18.2514 8.0951 18.0006 7.83245C17.5028 7.31103 16.9147 6.50057 16.6448 5.39211ZM19.6645 7.55902L19.531 8.83778C19.3455 8.81841 19.1656 8.75842 19.0054 8.66294L19.6645 7.55902ZM16.0538 8.45827C15.3638 8.62623 14.9407 9.32168 15.1087 10.0116C15.3785 11.1201 15.9666 11.9305 16.4645 12.452C16.7153 12.7146 16.9515 12.9128 17.1302 13.0487C17.2199 13.1169 17.2962 13.1704 17.3543 13.2092C17.3835 13.2286 17.408 13.2444 17.4274 13.2567L17.4527 13.2724L17.4625 13.2783L17.4666 13.2808L17.4683 13.2819L17.4694 13.2824C17.4697 13.2827 17.47 13.2829 18.1283 12.1785L17.4694 13.2824C17.6296 13.3779 17.8093 13.4379 17.9948 13.4573L18.1283 12.1785C17.9948 13.4573 17.9953 13.4573 17.9958 13.4574L17.9968 13.4575L17.9989 13.4577L18.0037 13.4582L18.015 13.4593L18.0447 13.4618C18.0676 13.4636 18.0968 13.4656 18.1318 13.4675C18.2014 13.4711 18.2946 13.474 18.4074 13.4731C18.6318 13.4712 18.9397 13.4538 19.298 13.3935C20.0089 13.274 20.9653 12.9769 21.8452 12.2507C22.393 11.7988 22.4704 10.9884 22.0186 10.4408C21.5665 9.89309 20.7562 9.8155 20.2084 10.2675C19.7737 10.6262 19.281 10.7889 18.8715 10.8577C18.7534 10.8776 18.6462 10.8889 18.5548 10.8951C18.4856 10.8356 18.4067 10.7625 18.3243 10.6761C18.0376 10.376 17.7404 9.95097 17.6072 9.40335C17.4392 8.71344 16.7437 8.2903 16.0538 8.45827Z" fill="#896FCA"/>
</g>
<defs>
<clipPath id="clip0_12_7369">
<rect width="24" height="24" fill="white"/>
</clipPath>
</defs>
</svg>