<svg viewBox="0 0 24 24" fill="none" xmlns="http://www.w3.org/2000/svg">
<g clip-path="url(#clip0_12_7325)">
<path fill-rule="evenodd" clip-rule="evenodd" d="M7.22194 9.68491C8.07435 9.69958 8.91662 9.85047 9.55985 10.3568C9.98211 10.6892 10.2555 11.1216 10.4106 11.6257C10.4636 11.7416 10.5001 11.8675 10.5168 12.0006C10.9905 15.7753 10.6789 19.2437 10.2238 22.8737C10.1355 23.5783 9.49274 24.0778 8.78817 23.9895C8.08361 23.9013 7.58405 23.2584 7.67237 22.5538C7.9518 20.3249 8.16391 18.2434 8.18076 16.161C7.21023 16.4559 6.11326 16.4389 5.23478 16.3811C4.11689 16.3076 3.19125 15.9635 2.44726 15.3993C1.70897 14.8394 1.19552 14.0979 0.839227 13.2962C0.137977 11.7183 0 9.8003 0 8.20762C0 6.61572 0.136866 4.69769 0.837574 3.11964C1.19362 2.31778 1.70699 1.57618 2.44558 1.01615C3.18986 0.451817 4.11602 0.107678 5.23478 0.0341302C6.23606 -0.0316941 7.52121 -0.0445973 8.57943 0.396958C9.12996 0.626673 9.64565 0.989683 10.0176 1.54847C10.3892 2.10682 10.5727 2.79375 10.5727 3.59621C10.5727 4.61702 10.287 5.48609 9.55985 6.05846C8.91662 6.56477 8.07435 6.71565 7.22194 6.73034C7.52379 7.73805 7.52379 8.67718 7.22194 9.68491ZM16.7781 9.68491C15.9256 9.69958 15.0834 9.85047 14.4401 10.3568C14.0179 10.6892 13.7445 11.1216 13.5894 11.6257C13.5364 11.7416 13.4999 11.8675 13.4832 12.0006C13.0095 15.7753 13.3211 19.2437 13.7762 22.8737C13.8645 23.5783 14.5073 24.0778 15.2118 23.9895C15.9164 23.9013 16.4159 23.2584 16.3276 22.5538C16.0482 20.3249 15.8361 18.2434 15.8192 16.161C16.7898 16.4559 17.8867 16.4389 18.7653 16.3811C19.8831 16.3076 20.8087 15.9635 21.5527 15.3993C22.291 14.8394 22.8045 14.0979 23.1609 13.2962C23.862 11.7183 24 9.8003 24 8.20762C24 6.61572 23.8632 4.69769 23.1624 3.11964C22.8063 2.31778 22.2931 1.57618 21.5544 1.01615C20.8102 0.451817 19.884 0.107678 18.7653 0.0341302C17.7639 -0.0316941 16.4788 -0.0445973 15.4206 0.396958C14.87 0.626673 14.3543 0.989683 13.9824 1.54847C13.6108 2.10682 13.4273 2.79375 13.4273 3.59621C13.4273 4.61702 13.713 5.48609 14.4401 6.05846C15.0834 6.56477 15.9256 6.71565 16.7781 6.73034C16.4762 7.73805 16.4762 8.67718 16.7781 9.68491Z" fill="#896FCA"/>
</g>
<defs>
<clipPath id="clip0_12_7325">
<rect width="24" height="24" fill="white"/>
</clipPath>
</defs>
</svg>