<svg viewBox="0 0 24 24" fill="none" xmlns="http://www.w3.org/2000/svg">
<path fill-rule="evenodd" clip-rule="evenodd" d="M8.25665 2.16267C8.58713 1.95641 9.00348 1.94556 9.34425 2.13434C9.68504 2.32312 9.89666 2.68183 9.89707 3.0714L9.9065 11.8976C9.91331 11.9542 9.91681 12.0118 9.91681 12.0702V20.5699C9.91681 21.3598 9.27654 22 8.48674 22C7.69693 22 7.05668 21.3598 7.05668 20.5699V16.8638C6.63182 16.8644 6.22022 16.8403 5.80702 16.7854C4.80935 16.6528 3.8614 16.3484 2.73426 15.8556C2.37967 15.7005 2.1361 15.3665 2.09692 14.9814C1.80776 12.1402 2.1615 9.65162 3.21372 7.49195C4.26634 5.33145 5.97612 3.58602 8.25665 2.16267ZM20.1476 2.12569C19.5573 2.17344 19.1173 2.69078 19.165 3.2812L19.5343 7.84687C19.6395 9.14752 18.8677 10.3033 17.7315 10.7584V3.21866C17.7315 2.62631 17.2513 2.14611 16.659 2.14611C16.0666 2.14611 15.5864 2.62631 15.5864 3.21866V10.7584C14.4503 10.3033 13.6785 9.14749 13.7837 7.84686L14.1529 3.28121C14.2007 2.69078 13.7608 2.17344 13.1703 2.12569C12.5799 2.07794 12.0626 2.51786 12.0148 3.10829L11.6456 7.67394C11.4489 10.106 13.0108 12.2475 15.2289 12.9034V20.5699C15.2289 21.3598 15.8692 22 16.659 22C17.4488 22 18.0891 21.3598 18.0891 20.5699V12.9034C20.3072 12.2475 21.8692 10.106 21.6724 7.67396L21.3033 3.10829C21.2555 2.51787 20.7381 2.07794 20.1476 2.12569Z" fill="#896FCA"/>
</svg>