<svg viewBox="0 0 24 24" fill="none" xmlns="http://www.w3.org/2000/svg">
<g clip-path="url(#clip0_12_7377)">
<path fill-rule="evenodd" clip-rule="evenodd" d="M20.747 0.249689C21.5076 0.443995 22.236 0.768701 22.7337 1.26644C23.2315 1.76419 23.5562 2.49259 23.7506 3.2533C23.9494 4.03217 24.0339 4.93123 23.9878 5.85446C23.8966 7.68233 23.2822 9.75034 21.8328 11.1997C20.8099 12.2226 19.6893 12.91 18.5049 13.1883C18.2266 14.3728 17.5392 15.4935 16.5163 16.5164C15.4934 17.5394 14.3727 18.2266 13.1882 18.505C12.9098 19.6893 12.2225 20.8099 11.1997 21.8326C9.75034 23.2821 7.68233 23.8963 5.85446 23.9877C4.93123 24.0338 4.03217 23.9493 3.2533 23.7504C2.49259 23.556 1.76419 23.2313 1.26644 22.7335C0.768701 22.2358 0.443993 21.5074 0.249687 20.7466C0.0507437 19.9678 -0.033828 19.0689 0.0123022 18.1455C0.103635 16.3177 0.717933 14.2497 2.16732 12.8003C3.19025 11.7773 4.31095 11.09 5.49543 10.8117C5.77375 9.62739 6.46106 8.50683 7.48387 7.48401C8.50678 6.46111 9.62745 5.77377 10.8119 5.49549C11.0902 4.31098 11.7775 3.19027 12.8005 2.16732C14.2498 0.717936 16.3179 0.103635 18.1457 0.0123022C19.069 -0.0338285 19.968 0.0507461 20.747 0.249689ZM17.3167 3.73394C18.0406 3.73394 18.7229 4.0765 19.3234 4.67705C19.9239 5.2776 20.2665 5.95987 20.2665 6.68381C20.2665 7.40775 19.9239 8.09002 19.3234 8.69057C18.7229 9.29114 18.0406 9.63369 17.3167 9.63369C16.5927 9.63369 15.9104 9.29114 15.3099 8.69057C14.7093 8.09002 14.3668 7.40775 14.3668 6.68381C14.3668 5.95987 14.7093 5.2776 15.3099 4.67705C15.9104 4.0765 16.5927 3.73394 17.3167 3.73394ZM12.0002 9.05025C12.7242 9.05025 13.4064 9.39279 14.007 9.99334C14.6075 10.5939 14.9501 11.2762 14.9501 12.0001C14.9501 12.7241 14.6075 13.4063 14.007 14.0069C13.4064 14.6074 12.7242 14.95 12.0002 14.95C11.2763 14.95 10.594 14.6074 9.99346 14.0069C9.3929 13.4063 9.05035 12.7241 9.05035 12.0001C9.05035 11.2762 9.3929 10.5939 9.99346 9.99334C10.594 9.39279 11.2763 9.05025 12.0002 9.05025ZM6.68338 14.3671C7.40733 14.3671 8.08959 14.7096 8.69014 15.3102C9.29069 15.9107 9.63326 16.593 9.63326 17.317C9.63326 18.041 9.29069 18.7231 8.69014 19.3238C8.08959 19.9243 7.40733 20.2668 6.68338 20.2668C5.95942 20.2668 5.27717 19.9243 4.67662 19.3238C4.07606 18.7231 3.73351 18.041 3.73351 17.317C3.73351 16.593 4.07606 15.9107 4.67662 15.3102C5.27717 14.7096 5.95942 14.3671 6.68338 14.3671Z" fill="#896FCA"/>
</g>
<defs>
<clipPath id="clip0_12_7377">
<rect width="24" height="24" fill="white"/>
</clipPath>
</defs>
</svg>