<svg viewBox="0 0 24 24" fill="none" xmlns="http://www.w3.org/2000/svg">
<g clip-path="url(#clip0_12_7329)">
<path fill-rule="evenodd" clip-rule="evenodd" d="M13.2859 1.71345C13.2859 1.00337 12.7102 0.427734 12.0001 0.427734C11.2957 0.427734 10.7236 0.994256 10.7145 1.69655C10.7151 1.71104 10.7154 1.7256 10.7154 1.74023V10.0615C10.7154 10.125 10.7098 10.1883 10.6986 10.2508L9.64397 10.0615C10.6986 10.2508 10.6984 10.2516 10.6983 10.2523L10.698 10.2539L10.6974 10.2571L10.6961 10.2641L10.693 10.2796C10.6907 10.2908 10.688 10.3035 10.6848 10.3176C10.6783 10.3458 10.6698 10.3798 10.6586 10.4189C10.6363 10.4971 10.6033 10.5963 10.5553 10.7105C10.4591 10.9391 10.3016 11.2297 10.0474 11.53C9.52418 12.1482 8.65929 12.7278 7.29328 12.9615C6.71001 13.0613 6.15629 12.6694 6.0565 12.0861C5.95672 11.5028 6.34864 10.9491 6.9319 10.8493C7.83597 10.6946 8.23678 10.3523 8.41176 10.1456C8.49756 10.0442 8.54642 9.95474 8.57255 9.8968V3.92045C6.61553 3.87712 4.78236 4.58033 3.35752 5.96616C1.92873 7.35583 0.951477 9.38947 0.615585 11.9448C0.351871 13.9509 0.297043 16.7393 0.922317 19.0668C1.23552 20.2327 1.73685 21.3494 2.53046 22.1856C3.3469 23.046 4.43884 23.5706 5.81243 23.5706C7.72524 23.5706 9.00225 22.6209 9.82658 21.2584C10.6138 19.957 11.0044 18.2626 11.2723 16.6436C11.3346 16.2668 11.6497 16.0059 12.0001 16.0059C12.3505 16.0059 12.6656 16.2668 12.728 16.6436C12.9958 18.2626 13.3865 19.957 14.1737 21.2584C14.998 22.6209 16.275 23.5706 18.1879 23.5706C19.5613 23.5706 20.6533 23.046 21.4699 22.1856C22.2634 21.3494 22.7647 20.2327 23.0779 19.0668C23.7032 16.7393 23.6484 13.9509 23.3847 11.9448C23.0487 9.38947 22.0716 7.35583 20.6427 5.96616C19.2181 4.58059 17.3854 3.87737 15.4288 3.92042V9.8968C15.4549 9.95474 15.5038 10.0442 15.5896 10.1456C15.7645 10.3523 16.1654 10.6946 17.0694 10.8493C17.6527 10.9491 18.0445 11.5028 17.9448 12.0861C17.845 12.6694 17.2913 13.0613 16.708 12.9615C15.342 12.7278 14.4771 12.1482 13.9539 11.53C13.6998 11.2297 13.5423 10.9391 13.4461 10.7105C13.398 10.5963 13.3651 10.4971 13.3427 10.4189C13.3316 10.3798 13.323 10.3458 13.3165 10.3176C13.3133 10.3035 13.3106 10.2908 13.3083 10.2796L13.3052 10.2641L13.3039 10.2571L13.3033 10.2539L13.303 10.2523C13.3029 10.2516 13.3028 10.2508 14.3574 10.0615L13.3028 10.2508C13.2916 10.1883 13.2859 10.125 13.2859 10.0615V3.92104L13.2859 1.71345Z" fill="#896FCA"/>
</g>
<defs>
<clipPath id="clip0_12_7329">
<rect width="24" height="24" fill="white"/>
</clipPath>
</defs>
</svg>