<svg viewBox="0 0 24 24" fill="none" xmlns="http://www.w3.org/2000/svg">
<path fill-rule="evenodd" clip-rule="evenodd" d="M12.0848 1.79102C10.6122 1.79102 8.60456 1.88705 6.80132 1.99558C3.75891 2.1787 1.07136 4.47644 0.899153 7.66186C0.774799 9.96216 1.95915 11.7558 3.67704 12.71C5.21953 13.5668 7.18301 13.7479 9.03003 13.0816C9.87994 14.4554 10.947 15.3482 12.1617 15.8875C13.5468 16.5026 15.0565 16.6279 16.5172 16.5829C20.084 16.4728 23.0768 13.468 23.1416 9.87125C23.222 5.40989 19.4574 2.08366 15.1882 1.87375C14.1699 1.82369 13.1343 1.79102 12.0848 1.79102ZM7.35847 5.35016C6.19536 5.35016 5.15415 6.18888 5.15415 7.33709C5.15415 8.4853 6.19536 9.324 7.35847 9.324C8.52157 9.324 9.56276 8.4853 9.56276 7.33709C9.56276 6.18888 8.52157 5.35016 7.35847 5.35016ZM2.63659 14.5833C1.98543 14.2216 1.38688 13.7686 0.864631 13.2359V13.4572C0.749769 15.7459 1.93186 17.5304 3.64376 18.4813C5.18626 19.3381 7.14973 19.5193 8.99676 18.8529C9.85736 20.2441 10.9403 21.1413 12.1729 21.6784C13.5749 22.2892 15.1028 22.4039 16.578 22.3511C20.0823 22.2254 23.0307 19.3103 23.106 15.7622C23.1075 15.695 23.1087 15.6277 23.1097 15.5605C21.507 17.4273 19.1645 18.645 16.5834 18.7247C14.9796 18.7742 13.1 18.6488 11.2922 17.846C10.116 17.3238 9.05972 16.5548 8.16029 15.5125C6.23136 15.8277 4.27729 15.4946 2.63659 14.5833Z" fill="#896FCA"/>
</svg>