<svg viewBox="0 0 24 24" fill="none" xmlns="http://www.w3.org/2000/svg">
<g clip-path="url(#clip0_12_7393)">
<path fill-rule="evenodd" clip-rule="evenodd" d="M9.4955 4.61474C10.6411 1.90895 13.3228 -6.85714e-08 16.4507 0C20.6199 9.08571e-08 23.9998 3.37984 23.9998 7.5491C23.9998 10.6771 22.0909 13.3587 19.3851 14.5044C18.0817 15.0561 16.9592 16.2951 16.5999 17.6464C15.6496 21.2209 12.364 23.9989 8.44015 23.9989C3.77932 23.9989 0.000976461 20.2206 0.000976563 15.5597C0.000976648 11.6359 2.779 8.35022 6.35351 7.39989C7.70476 7.04065 8.94371 5.91801 9.4955 4.61474ZM18.8389 7.83477C19.1737 8.1695 19.1737 8.71223 18.8389 9.04696L18.1724 9.71354C17.8376 10.0483 17.2949 10.0483 16.9602 9.71354C16.6255 9.37881 16.6255 8.8361 16.9602 8.50137L17.6268 7.83477C17.9616 7.50004 18.5043 7.50004 18.8389 7.83477ZM13.4982 14.3873C13.833 14.0526 13.833 13.5099 13.4982 13.1751C13.1635 12.8404 12.6208 12.8404 12.286 13.1751L11.6194 13.8417C11.2847 14.1765 11.2847 14.7192 11.6194 15.0539C11.9542 15.3886 12.4969 15.3886 12.8316 15.0539L13.4982 14.3873ZM9.46667 14.9193C9.8014 14.5846 9.8014 14.0419 9.46667 13.7071C9.13193 13.3724 8.58921 13.3724 8.25448 13.7071L7.58788 14.3737C7.25315 14.7085 7.25315 15.2512 7.58788 15.5859C7.92263 15.9207 8.46533 15.9207 8.80007 15.5859L9.46667 14.9193ZM13.0465 17.2866C13.3812 17.6212 13.3812 18.1639 13.0465 18.4987L12.3799 19.1653C12.0451 19.5001 11.5024 19.5001 11.1677 19.1653C10.8329 18.8306 10.8329 18.2879 11.1677 17.9531L11.8343 17.2866C12.169 16.9518 12.7117 16.9518 13.0465 17.2866ZM9.05386 18.8325C9.3886 18.4977 9.3886 17.955 9.05386 17.6203C8.71913 17.2855 8.17642 17.2855 7.84168 17.6203L7.17509 18.2869C6.84035 18.6217 6.84035 19.1644 7.17509 19.499C7.50983 19.8338 8.05253 19.8338 8.38727 19.499L9.05386 18.8325Z" fill="#896FCA"/>
</g>
<defs>
<clipPath id="clip0_12_7393">
<rect width="24" height="24" fill="white"/>
</clipPath>
</defs>
</svg>