<svg viewBox="0 0 24 24" fill="none" xmlns="http://www.w3.org/2000/svg">
<g clip-path="url(#clip0_12_7441)">
<path fill-rule="evenodd" clip-rule="evenodd" d="M14.8408 0.427734C16.0907 0.427734 17.1882 0.781918 17.9724 1.56613C18.7224 2.31614 19.0791 3.35273 19.1088 4.53513C19.8752 4.79762 20.523 5.24299 21.0051 5.87683C21.5393 6.57929 21.8238 7.45271 21.8924 8.43345C21.4148 8.21543 20.8925 8.07652 20.3398 8.03397C14.7884 7.60661 9.31789 7.60661 3.76644 8.03397C3.21418 8.07648 2.69199 8.21525 2.21463 8.43305C2.28327 7.45248 2.56782 6.57921 3.10194 5.87683C3.58393 5.24299 4.2319 4.79762 4.9983 4.53513C5.028 3.35273 5.38465 2.31614 6.13467 1.56613C6.91889 0.781918 8.01639 0.427734 9.26629 0.427734C10.3477 0.427734 11.3113 0.694469 12.0535 1.26359C12.7958 0.694469 13.7593 0.427734 14.8408 0.427734ZM20.1756 10.1705C14.7336 9.75156 9.37311 9.75156 3.93114 10.1705C2.91516 10.2487 2.06811 10.9445 1.75191 11.915C1.18084 13.6678 0.706585 16.7642 0.509082 18.5198C0.251108 20.8126 1.8612 22.8511 4.08061 23.1067C9.45276 23.7252 14.6539 23.7252 20.0261 23.1067C22.2456 22.8511 23.8556 20.8126 23.5976 18.5198C23.4001 16.7642 22.9258 13.6678 22.3548 11.915C22.0386 10.9445 21.1916 10.2487 20.1756 10.1705ZM12.0534 16.9118C12.3436 16.9118 12.6732 16.9911 13.082 17.2094C13.604 17.4883 14.2531 17.2912 14.5319 16.7692C14.8107 16.2473 14.6136 15.5982 14.0916 15.3194C13.4421 14.9724 12.7674 14.769 12.0534 14.769C11.3394 14.769 10.6647 14.9724 10.0151 15.3194C9.49318 15.5982 9.29607 16.2473 9.57486 16.7692C9.85366 17.2912 10.5028 17.4883 11.0247 17.2094C11.4336 16.9911 11.7631 16.9118 12.0534 16.9118Z" fill="#896FCA"/>
</g>
<defs>
<clipPath id="clip0_12_7441">
<rect width="24" height="24" fill="white"/>
</clipPath>
</defs>
</svg>