<svg viewBox="0 0 24 24" fill="none" xmlns="http://www.w3.org/2000/svg">
<g clip-path="url(#clip0_12_7397)">
<path fill-rule="evenodd" clip-rule="evenodd" d="M1.4409 0.24734C2.72014 0.774059 6.27993 1.99847 10.9924 1.73788C11.3848 1.97543 11.9115 2.57358 12.4272 3.58386C12.9451 4.59822 13.3813 5.89093 13.6349 7.2772C14.1541 10.1148 13.8551 12.9971 12.3897 14.7096C12.3657 14.7377 12.3433 14.7668 12.3225 14.7969C11.5766 14.9246 10.8499 14.9879 10.172 14.9954C8.72692 14.6769 7.22445 14.0873 5.85482 13.1121C2.90837 11.0141 0.650523 7.18388 0.835823 0.655883C0.840034 0.507544 0.914365 0.370672 1.03492 0.289276C1.15547 0.20788 1.30704 0.192224 1.4409 0.24734ZM8.113 18.6717L8.06966 18.6494L8.28302 22.4997L8.32843 22.4892C11.7208 23.4198 14.6083 23.1623 16.9385 22.1814C16.0228 21.5498 15.2208 20.7837 14.556 20.0044C13.7037 19.005 13.0143 17.909 12.5834 16.9258C11.4268 17.1164 10.3119 17.1724 9.31461 17.1205C8.76682 17.6395 8.36248 18.168 8.113 18.6717ZM0.279152 20.7914C0.578492 18.0184 3.41949 16.3774 5.8607 17.5159L6.16373 22.9845L2.90025 23.7309C1.42302 24.0688 0.0611817 22.8108 0.228294 21.2627L0.279152 20.7914ZM19.7637 20.441C19.5472 20.6251 19.3223 20.802 19.0893 20.9707C18.0054 20.4328 17.01 19.5794 16.1864 18.6138C15.54 17.8559 15.0457 17.0839 14.7153 16.4253C15.8455 16.077 16.9717 15.5904 18.0272 14.9418C20.3432 13.5188 22.3002 11.3227 23.1947 8.17336C23.5898 9.40744 23.7858 10.7198 23.7858 12.0268C23.7858 14.8902 22.4015 18.198 19.7637 20.441ZM21.0177 4.33297C21.206 4.53882 21.3844 4.75304 21.5533 4.97476C21.3385 9.0692 19.3619 11.6066 16.9053 13.1161C16.3889 13.4334 15.85 13.7057 15.3004 13.9366C16.1606 11.7476 16.1561 9.1508 15.7428 6.89159C15.456 5.32374 14.9585 3.8294 14.3358 2.60958C14.1373 2.22073 13.9177 1.84323 13.6777 1.49295C16.8599 1.33261 19.3197 2.4759 21.0177 4.33297ZM9.95668 7.11373C9.95668 6.48645 9.46269 5.97796 8.85331 5.97796C8.24393 5.97796 7.74993 6.48645 7.74993 7.11373V8.00068C7.74993 8.62796 8.24393 9.13645 8.85331 9.13645C9.46269 9.13645 9.95668 8.62796 9.95668 8.00068V7.11373Z" fill="#896FCA"/>
</g>
<defs>
<clipPath id="clip0_12_7397">
<rect width="24" height="24" fill="white"/>
</clipPath>
</defs>
</svg>