<svg viewBox="0 0 24 24" fill="none" xmlns="http://www.w3.org/2000/svg">
<g clip-path="url(#clip0_12_7381)">
<path fill-rule="evenodd" clip-rule="evenodd" d="M8.90121 4.41455C10.8139 0.110995 16.4487 -0.935264 19.7787 2.39483L19.9716 2.58769C24.7717 7.38786 24.7717 15.1705 19.9716 19.9706C15.1715 24.7708 7.38883 24.7708 2.58866 19.9706L2.3958 19.7778C-0.934285 16.4477 0.11197 10.8129 4.41552 8.90024L5.48296 8.42582C6.79482 7.84278 7.84375 6.79384 8.4268 5.48198L8.90121 4.41455ZM13.8033 7.8819C13.8033 7.29018 13.3236 6.81047 12.7318 6.81047C12.1401 6.81047 11.6604 7.29018 11.6604 7.8819V8.59199C11.6604 9.40547 11.3372 10.1856 10.762 10.7608C10.1868 11.3361 9.40665 11.6592 8.59317 11.6592H7.8831C7.29136 11.6592 6.81167 12.1389 6.81167 12.7306C6.81167 13.3224 7.29136 13.8021 7.8831 13.8021H8.59317C9.97497 13.8021 11.3002 13.2531 12.2773 12.2761C13.2543 11.299 13.8033 9.97379 13.8033 8.59199V7.8819Z" fill="#896FCA"/>
</g>
<defs>
<clipPath id="clip0_12_7381">
<rect width="24" height="24" fill="white"/>
</clipPath>
</defs>
</svg>