<svg viewBox="0 0 24 24" fill="none" xmlns="http://www.w3.org/2000/svg">
<g clip-path="url(#clip0_12_7365)">
<path fill-rule="evenodd" clip-rule="evenodd" d="M6.09923 0.820839C7.64573 1.33384 9.17647 2.34583 10.0903 3.75672C10.8569 4.94037 11.0611 6.09223 10.7914 7.16724C10.66 7.69127 10.4235 8.16614 10.1253 8.59406C11.1479 9.87384 11.9239 11.1567 12.4822 12.4843C12.6361 12.8502 12.7725 13.2172 12.8926 13.586C13.5326 12.1279 14.307 10.7582 15.2231 9.65971C14.991 9.28334 14.8124 8.86756 14.7266 8.41231C14.551 7.47986 14.7895 6.5165 15.4856 5.56845C16.3169 4.43627 17.636 3.67456 18.9356 3.32644C20.2135 2.98423 21.6744 2.99189 22.7461 3.67499C22.8528 3.74287 22.9429 3.83347 23.0103 3.94031C23.6887 5.01511 23.69 6.47603 23.3422 7.75226C22.9885 9.05049 22.2211 10.3662 21.0852 11.1925C20.1327 11.8856 19.1662 12.1171 18.2348 11.9365C17.8078 11.8537 17.4159 11.6895 17.0593 11.4766C15.6063 13.3088 14.4853 16.1952 13.795 18.9322C17.8292 19.2694 21.4661 20.6752 23.2363 22.0334C23.5275 22.2569 23.6441 22.6413 23.5261 22.9889C23.408 23.3368 23.0816 23.5706 22.7144 23.5706H1.28591C0.918695 23.5706 0.592278 23.3368 0.474247 22.9889C0.356217 22.6413 0.472799 22.2569 0.764135 22.0334C2.65745 20.5807 6.68618 19.0735 11.0527 18.8777C11.0885 16.8904 10.8147 15.1521 10.1119 13.4813C9.68215 12.4594 9.08052 11.4357 8.25751 10.3781C7.69444 10.7447 7.06488 11.0201 6.37385 11.1118C5.27529 11.2576 4.15637 10.9219 3.06804 10.0281C1.76902 8.96119 0.935846 7.32623 0.600263 5.73179C0.269376 4.15967 0.383443 2.42244 1.25263 1.20915C1.3262 1.10646 1.42156 1.02129 1.53189 0.959754C2.83535 0.232727 4.57437 0.315018 6.09923 0.820839Z" fill="#896FCA"/>
</g>
<defs>
<clipPath id="clip0_12_7365">
<rect width="24" height="24" fill="white"/>
</clipPath>
</defs>
</svg>