<svg viewBox="0 0 24 24" fill="none" xmlns="http://www.w3.org/2000/svg">
<path fill-rule="evenodd" clip-rule="evenodd" d="M11.4177 0.835848C11.406 0.367087 11.0199 -0.00530798 10.551 5.7252e-05L5.77186 0.054744C5.3127 0.059998 4.93925 0.42616 4.92495 0.885123C4.90009 1.68211 4.89816 2.77637 4.92498 3.60082C5.00449 6.0439 6.50017 7.94969 8.86014 8.82351C8.91711 8.84462 9.13988 9.00993 9.32564 9.612C9.49474 10.1601 9.56792 10.8796 9.51216 11.6043C9.456 12.3341 9.27536 12.9897 9.00581 13.4416C8.745 13.8788 8.4577 14.049 8.14782 14.0636C5.74206 14.1768 4.04557 15.4307 3.01236 17.1864C1.9999 18.907 1.62588 21.0926 1.72889 23.185C1.75136 23.6414 2.12799 24 2.58498 24H6.95364C7.1931 24 7.42164 23.8999 7.58391 23.7237C7.7462 23.5476 7.82742 23.3117 7.80793 23.0731C7.78973 22.8501 7.83644 22.3358 7.95164 21.6497C8.03554 21.15 8.31694 20.8754 8.67546 20.754C9.06473 20.622 9.60766 20.6571 10.1434 20.9628C12.7213 22.4335 15.9895 23.3127 18.7258 20.9129C20.6609 19.2158 22.1549 16.3525 22.2488 13.6162C22.2653 13.1366 22.2776 12.6664 22.286 12.2009C22.3789 7.0452 18.0109 2.81628 13.2549 2.7923C12.7665 2.78983 12.3011 2.64785 11.9697 2.41814C11.651 2.1972 11.4778 1.91659 11.453 1.58293C11.4343 1.3311 11.4237 1.07876 11.4177 0.835848Z" fill="#896FCA"/>
</svg>